<svg xmlns="http://www.w3.org/2000/svg" xmlns:xlink="http://www.w3.org/1999/xlink" viewBox="0 0 3651.67866 3643.04154">
  <defs>
    <style>
      .cls-1 {
        fill: none;
      }

      .cls-2 {
        fill: url(#linear-gradient);
      }

      .cls-3 {
        fill: #f5f8ff;
      }

      .cls-4 {
        fill: url(#linear-gradient-2);
      }

      .cls-5 {
        fill: #91b3fa;
      }

      .cls-6 {
        clip-path: url(#clip-path);
      }

      .cls-7 {
        fill: #fff;
      }

      .cls-8 {
        fill: url(#linear-gradient-3);
      }

      .cls-9 {
        fill: url(#linear-gradient-4);
      }

      .cls-10 {
        fill: url(#linear-gradient-5);
      }

      .cls-11 {
        fill: url(#linear-gradient-6);
      }

      .cls-12 {
        fill: url(#linear-gradient-7);
      }

      .cls-13 {
        fill: url(#linear-gradient-8);
      }

      .cls-14 {
        fill: url(#linear-gradient-9);
      }

      .cls-15 {
        fill: url(#linear-gradient-10);
      }

      .cls-16 {
        fill: url(#linear-gradient-11);
      }

      .cls-17 {
        clip-path: url(#clip-path-2);
      }

      .cls-18 {
        fill: url(#linear-gradient-12);
      }

      .cls-19 {
        fill: url(#linear-gradient-13);
      }

      .cls-20 {
        fill: url(#linear-gradient-14);
      }

      .cls-21 {
        fill: url(#linear-gradient-15);
      }

      .cls-22 {
        fill: url(#linear-gradient-16);
      }

      .cls-23 {
        fill: url(#linear-gradient-17);
      }

      .cls-24 {
        fill: url(#linear-gradient-18);
      }

      .cls-25 {
        clip-path: url(#clip-path-3);
      }

      .cls-26 {
        fill: url(#linear-gradient-19);
      }

      .cls-27 {
        fill: url(#linear-gradient-20);
      }

      .cls-28 {
        fill: url(#linear-gradient-21);
      }

      .cls-29 {
        fill: url(#linear-gradient-22);
      }

      .cls-30 {
        fill: url(#linear-gradient-23);
      }

      .cls-31 {
        fill: url(#linear-gradient-24);
      }

      .cls-32 {
        fill: url(#linear-gradient-25);
      }

      .cls-33 {
        fill: url(#linear-gradient-26);
      }

      .cls-34 {
        fill: url(#linear-gradient-27);
      }

      .cls-35 {
        fill: url(#linear-gradient-28);
      }

      .cls-36 {
        fill: url(#linear-gradient-29);
      }

      .cls-37 {
        fill: url(#linear-gradient-30);
      }

      .cls-38 {
        fill: url(#linear-gradient-31);
      }

      .cls-39 {
        fill: url(#linear-gradient-32);
      }

      .cls-40 {
        fill: url(#linear-gradient-33);
      }

      .cls-41 {
        fill: url(#linear-gradient-34);
      }

      .cls-42 {
        fill: url(#linear-gradient-35);
      }

      .cls-43 {
        fill: url(#linear-gradient-36);
      }

      .cls-44 {
        fill: url(#linear-gradient-37);
      }

      .cls-45 {
        fill: #7d97f4;
      }
    </style>
    <linearGradient id="linear-gradient" x1="77.50542" y1="1944.2961" x2="3673.99052" y2="1944.2961" gradientTransform="matrix(0.04672, 1.00797, -1.00144, 0.04799, 3636.3471, -80.97892)" gradientUnits="userSpaceOnUse">
      <stop offset="0" stop-color="#4f52ff"/>
      <stop offset="1" stop-color="#4042e2"/>
    </linearGradient>
    <linearGradient id="linear-gradient-2" x1="3485.19265" y1="3298.63356" x2="1394.52503" y2="1469.30079" gradientUnits="userSpaceOnUse">
      <stop offset="0" stop-color="#dae3fe"/>
      <stop offset="1" stop-color="#e9effd"/>
    </linearGradient>
    <clipPath id="clip-path" transform="translate(-18.22426 -43.01514)">
      <circle class="cls-1" cx="2747.68923" cy="1242.0293" r="422.06091"/>
    </clipPath>
    <linearGradient id="linear-gradient-3" x1="3293.28613" y1="970.901" x2="2385.80381" y2="2047.68948" gradientTransform="translate(-11.662 -7.93621) rotate(-1.86811)" gradientUnits="userSpaceOnUse">
      <stop offset="0" stop-color="#4042e2"/>
      <stop offset="1" stop-color="#4f52ff"/>
    </linearGradient>
    <linearGradient id="linear-gradient-4" x1="2792.75266" y1="1473.34721" x2="2704.71006" y2="1066.99592" gradientUnits="userSpaceOnUse">
      <stop offset="0" stop-color="#febbba"/>
      <stop offset="1" stop-color="#ff928e"/>
    </linearGradient>
    <linearGradient id="linear-gradient-5" x1="15581.445" y1="-1911.90006" x2="15794.60648" y2="-1963.78046" gradientTransform="matrix(0.8595, -0.5111, 0.5111, 0.8595, 157.6643, 1082.0952)" xlink:href="#linear-gradient-4"/>
    <linearGradient id="linear-gradient-6" x1="2151.60366" y1="1257.13162" x2="2371.16066" y2="1257.13162" gradientTransform="matrix(0.8595, -0.5111, 0.5111, 0.8595, 157.6643, 1082.0952)" gradientUnits="userSpaceOnUse">
      <stop offset="0" stop-color="#09005d"/>
      <stop offset="1" stop-color="#1a0f91"/>
    </linearGradient>
    <linearGradient id="linear-gradient-7" x1="15573.89209" y1="-1942.76647" x2="15787.05382" y2="-1994.64694" gradientTransform="matrix(0.8595, -0.5111, 0.5111, 0.8595, 157.6643, 1082.0952)" xlink:href="#linear-gradient-4"/>
    <linearGradient id="linear-gradient-8" x1="3200.23563" y1="892.51051" x2="2292.76433" y2="1969.28592" xlink:href="#linear-gradient-3"/>
    <linearGradient id="linear-gradient-9" x1="2680.96705" y1="1913.7144" x2="2464.42947" y2="2098.67327" gradientTransform="translate(-11.662 -7.93621) rotate(-1.86811)" xlink:href="#linear-gradient-4"/>
    <linearGradient id="linear-gradient-10" x1="3460.2365" y1="1111.61332" x2="2552.76609" y2="2188.38767" xlink:href="#linear-gradient-3"/>
    <linearGradient id="linear-gradient-11" x1="2811.25402" y1="1923.67729" x2="2933.05315" y2="2045.47642" gradientTransform="translate(-11.662 -7.93621) rotate(-1.86811)" xlink:href="#linear-gradient-4"/>
    <clipPath id="clip-path-2" transform="translate(-18.22426 -43.01514)">
      <circle class="cls-1" cx="1769.99833" cy="1001.66078" r="422.06093"/>
    </clipPath>
    <linearGradient id="linear-gradient-12" x1="-3891.42405" y1="884.47206" x2="-3430.8312" y2="1520.00154" gradientTransform="matrix(-0.9993, 0.0357, 0.0357, 0.9993, -1970.2181, 20.0975)" xlink:href="#linear-gradient-6"/>
    <linearGradient id="linear-gradient-13" x1="1704.7683" y1="1261.29686" x2="2028.80019" y2="1261.29686" gradientUnits="userSpaceOnUse">
      <stop offset="0" stop-color="#fe7062"/>
      <stop offset="1" stop-color="#ff928e"/>
    </linearGradient>
    <linearGradient id="linear-gradient-14" x1="-7829.0197" y1="1378.01298" x2="-7800.87034" y2="1172.07928" gradientTransform="matrix(-0.9993, 0.0357, 0.0357, 0.9993, -5987.872, 163.4446)" xlink:href="#linear-gradient-4"/>
    <linearGradient id="linear-gradient-15" x1="-7743.56395" y1="-281.20017" x2="-7497.95819" y2="-718.29588" gradientTransform="matrix(-0.9872, -0.1592, -0.1592, 0.9872, -5763.1144, 56.2078)" xlink:href="#linear-gradient-4"/>
    <linearGradient id="linear-gradient-16" x1="-3847.30582" y1="806.62915" x2="-3366.2138" y2="1470.44353" gradientTransform="matrix(-0.9993, 0.0357, 0.0357, 0.9993, -1970.2181, 20.0975)" xlink:href="#linear-gradient-6"/>
    <linearGradient id="linear-gradient-17" x1="-7691.28213" y1="-251.82466" x2="-7445.68328" y2="-688.90807" gradientTransform="matrix(-0.9872, -0.1592, -0.1592, 0.9872, -5763.1144, 56.2078)" xlink:href="#linear-gradient-4"/>
    <linearGradient id="linear-gradient-18" x1="1616.08337" y1="1317.63953" x2="1810.6002" y2="1317.63953" xlink:href="#linear-gradient-13"/>
    <clipPath id="clip-path-3" transform="translate(-18.22426 -43.01514)">
      <circle class="cls-1" cx="2808.9408" cy="2317.61917" r="422.06091"/>
    </clipPath>
    <linearGradient id="linear-gradient-19" x1="3115.78207" y1="968.59572" x2="2953.47128" y2="1303.1543" gradientTransform="translate(126.9837 357.2448) rotate(9.25321)" xlink:href="#linear-gradient-6"/>
    <linearGradient id="linear-gradient-20" x1="2870.95405" y1="2269.00222" x2="2674.5524" y2="3183.28873" xlink:href="#linear-gradient-13"/>
    <linearGradient id="linear-gradient-21" x1="2508.14334" y1="2472.12533" x2="2850.44328" y2="3298.97983" xlink:href="#linear-gradient-4"/>
    <linearGradient id="linear-gradient-22" x1="-7282.03467" y1="2470.34812" x2="-6939.73491" y2="3297.2022" gradientTransform="matrix(-1, 0, 0, 1, -4167.0744, 0)" xlink:href="#linear-gradient-4"/>
    <linearGradient id="linear-gradient-23" x1="2808.63351" y1="2540.39617" x2="2804.07899" y2="2144.12649" xlink:href="#linear-gradient-4"/>
    <linearGradient id="linear-gradient-24" x1="2949.35907" y1="1508.53766" x2="2963.54683" y2="1163.71334" gradientTransform="translate(126.9837 357.2448) rotate(9.25321)" xlink:href="#linear-gradient-4"/>
    <linearGradient id="linear-gradient-25" x1="3116.97048" y1="921.51104" x2="2934.33631" y2="1297.96061" gradientTransform="translate(126.9837 357.2448) rotate(9.25321)" xlink:href="#linear-gradient-6"/>
    <linearGradient id="linear-gradient-26" x1="2407.77213" y1="2927.63919" x2="2430.00564" y2="2387.268" gradientTransform="translate(-26.0254 -216.26212) rotate(-7.63743)" xlink:href="#linear-gradient-4"/>
    <linearGradient id="linear-gradient-27" x1="2423.22203" y1="1677.26419" x2="1804.66362" y2="2481.99132" xlink:href="#linear-gradient-4"/>
    <linearGradient id="linear-gradient-28" x1="1054.60986" y1="2605.10596" x2="-994.44041" y2="5033.60996" gradientTransform="matrix(1, 0, 0, 1, 0, 0)" xlink:href="#linear-gradient-3"/>
    <linearGradient id="linear-gradient-29" x1="2539.01786" y1="830.82375" x2="1441.87177" y2="2246.27591" gradientTransform="matrix(1, 0, 0, 1, 0, 0)" xlink:href="#linear-gradient-3"/>
    <linearGradient id="linear-gradient-30" x1="1044.46994" y1="2197.37102" x2="1112.14112" y2="1842.09738" xlink:href="#linear-gradient-4"/>
    <linearGradient id="linear-gradient-31" x1="1227.57837" y1="1545.55612" x2="841.47264" y2="1840.98588" xlink:href="#linear-gradient-4"/>
    <linearGradient id="linear-gradient-32" x1="955.777" y1="1311.64043" x2="1315.3736" y2="1774.62026" gradientTransform="matrix(1, 0, 0, 1, 0, 0)" xlink:href="#linear-gradient-6"/>
    <linearGradient id="linear-gradient-33" x1="1179.68651" y1="1482.96452" x2="793.58048" y2="1778.39451" xlink:href="#linear-gradient-4"/>
    <linearGradient id="linear-gradient-34" x1="2597.51221" y1="953.58076" x2="2512.85619" y2="1634.21803" xlink:href="#linear-gradient-4"/>
    <linearGradient id="linear-gradient-35" x1="635.92866" y1="2852.49041" x2="1496.03572" y2="3238.52191" xlink:href="#linear-gradient-4"/>
    <linearGradient id="linear-gradient-36" x1="-3457.48439" y1="2826.73265" x2="-4068.0057" y2="2994.0605" gradientTransform="matrix(-0.9988, -0.0494, -0.0494, 0.9988, -2381.2669, -55.03281)" xlink:href="#linear-gradient-6"/>
    <linearGradient id="linear-gradient-37" x1="-4183.08781" y1="2549.5239" x2="-4613.73341" y2="3004.68965" gradientTransform="matrix(-1, 0, 0, 1, -2422.7359, 0)" xlink:href="#linear-gradient-6"/>
  </defs>
  <g id="Calque_3" data-name="Calque 3">
    <path class="cls-2" d="M201.616,2300.70187C863.34411,3459.311,2433.2483,3926.54542,2890.61524,3567.75882c67.56474-47.07272,195.91463-154.58454,358.76042-597.61149,136.67726-371.8347,349.2275-973.06124,226.03743-1763.73124C3335.45832,50.84028,2932.0748-89.99917,1808.00545,151.11539,1175.08458,269.63154,630.49333,371.61677,287.58834,861.47108,89.12335,1132.40992-158.4716,1720.73071,201.616,2300.70187Z" transform="translate(-18.22426 -43.01514)"/>
  </g>
  <g id="Calque_2" data-name="Calque 2">
    <path class="cls-3" d="M2506.62005,285.43031c1065.39852,767.34116,1391.54543,2399.23182,1009.01959,2833.75156-50.78765,64.6797-164.72184,186.05381-605.1392,314.70572-369.64446,107.97817-966.65873,273.99859-1719.80251,83.62305C86.783,3279.96-17.075,2858.9313,304.86212,1738.05934c164.6294-632.546,306.29205-1176.814,806.1955-1484.33479C1388.25392,74.69954,1975.59878-127.95393,2506.62005,285.43031Z" transform="translate(-18.22426 -43.01514)"/>
  </g>
  <g id="Illustration">
    <g>
      <path class="cls-4" d="M3133.6087,2346.6248c-271.0007,633.6738-992.8839,988.6621-1618.9025,892.9055-101.8658-15.5821-381.1338-61.9966-628.3872-280.9666C410.34,2537.03,308.54829,1702.3384,692.50608,1114.1113,971.9601,685.9852,1472.9098,443.295,1948.9103,455.4347c102.5305,2.6147,495.4703,18.7303,840.796,301.5044,50.7215,41.534,162.593,140.2303,263.4161,296.8053C3289.8734,1421.4111,3310.2231,1933.6517,3133.6087,2346.6248Z" transform="translate(-18.22426 -43.01514)"/>
      <g>
        <circle class="cls-5" cx="2729.76834" cy="1198.67326" r="443.2763"/>
        <g class="cls-6">
          <path class="cls-7" d="M3276.5564,1773.2794l-1021.9608,33.3612a11.24847,11.24847,0,0,1-11.5754-10.8436L2206.1956,667.7401a11.24841,11.24841,0,0,1,10.8436-11.5754L3239,622.8035a11.24854,11.24854,0,0,1,11.5754,10.8436L3287.4,1761.704A11.24834,11.24834,0,0,1,3276.5564,1773.2794Z" transform="translate(-18.22426 -43.01514)"/>
          <g>
            <path class="cls-8" d="M2530.5304,1293.9203s255.6821-48.9698,460.3483-1.4865l-6.6826,210.1046s-44.6125,292.5893-80.9975,422.4177c0,0-154.6738,32.1311-230.3953-6.0202,0,0-72.7923-363.2328-108.3748-416.2358C2564.4285,1502.7001,2525.9751,1361.7741,2530.5304,1293.9203Z" transform="translate(-18.22426 -43.01514)"/>
            <path class="cls-9" d="M2703.0372,1103.2863l-19.9503,173.9767s72.6021,30.5243,121.5703-5.3796l-14.7726-121.8399Z" transform="translate(-18.22426 -43.01514)"/>
            <g>
              <path class="cls-10" d="M2809.5916,986.944c.8542,1.4368,19.1359,88.2413,30.3992,141.9753a37.93668,37.93668,0,0,1-33.672,45.5587l-20.6848,1.9036a73.90945,73.90945,0,0,1-79.4271-60.0379l-18.1813-97.4098S2788.8567,952.0754,2809.5916,986.944Z" transform="translate(-18.22426 -43.01514)"/>
              <path class="cls-11" d="M2665.6891,1019.9054c-8.2683-9.6224-15.7184-25.3726.6547-42.7262,16.5748-17.5703,36.1491-13.9644,48.6639-8.662,5.5381,2.3466,12.226,1.0086,15.9613-3.7092a8.68851,8.68851,0,0,1,7.9903-3.2642,12.76071,12.76071,0,0,0,14.0538-11.5598c1.0571-12.3252,7.126-26.995,28.6971-31.8975,39.5635-8.9956,60.7264,30.2015,60.931,58.2314.2045,28.0273-43.2443,35.3418-68.1559,31.5016-18.2987-2.8212-33.5028,13.6744-40.2846,22.6304a13.16552,13.16552,0,0,0-2.2307,11.3703l7.1765,26.8489c-4.0848,8.5531-8.0834,17.282-13.9725,24.6584-4.2411,5.3118-8.9829,8.3214-14.0695,9.6955-7.8748-13.5756-28.7127-15.2408-38.3718-15.2358a13.21158,13.21158,0,0,1-9.7137-4.2172c-7.5517-8.111-19.5537-26.365,1.6586-45.3668A13.15544,13.15544,0,0,0,2665.6891,1019.9054Z" transform="translate(-18.22426 -43.01514)"/>
              <path class="cls-12" d="M2719.2298,1131.7536s-2.4529-48.8247-22.3746-52.7676c-19.9218-3.9435-40.7871,11.0483-22.9219,39.7444C2696.1559,1154.4252,2719.2298,1131.7536,2719.2298,1131.7536Z" transform="translate(-18.22426 -43.01514)"/>
            </g>
            <path class="cls-13" d="M2530.5304,1293.9203s-384.9059,445.8791,90.5547,596.2361l-1.1039-33.8162s-180.7041-143.0533-52.0608-350.3682C2567.9204,1505.972,2544.7197,1313.7687,2530.5304,1293.9203Z" transform="translate(-18.22426 -43.01514)"/>
            <path class="cls-14" d="M2623.4731,1859.6114s59.5453-42.567,87.0401-29.9233c27.4952,12.6431,28.1575,32.9331,28.1575,32.9331s-12.6437,27.4953-33.1544,21.3939c-20.5108-6.1008-67.4124,8.9716-87.9231,2.8702C2617.5932,1886.8853,2609.9463,1860.053,2623.4731,1859.6114Z" transform="translate(-18.22426 -43.01514)"/>
            <path class="cls-15" d="M2990.8787,1292.4338s429.633,405.7479-35.0091,586.7938l-1.1039-33.8162s170.9895-154.5341,29.0992-353.0176C2983.8649,1492.3938,2964.9295,1327.1332,2990.8787,1292.4338Z" transform="translate(-18.22426 -43.01514)"/>
            <path class="cls-16" d="M2951.4945,1848.9034s-62.1946-38.593-88.8062-24.1829c-26.6115,14.4093-25.9492,34.6993-25.9492,34.6993s14.4094,26.6122,34.4786,19.1861c20.0692-7.4255,67.8539,4.5559,87.9231-2.8702C2959.1408,1875.7357,2965.0214,1848.4618,2951.4945,1848.9034Z" transform="translate(-18.22426 -43.01514)"/>
          </g>
        </g>
      </g>
      <g>
        <circle class="cls-5" cx="1752.07744" cy="958.30476" r="443.2763"/>
        <g class="cls-17">
          <path class="cls-7" d="M2298.8656,1532.9109l-1021.9609,33.3612a11.24854,11.24854,0,0,1-11.5754-10.8436L1228.5047,427.3716a11.24848,11.24848,0,0,1,10.8436-11.5754L2261.3091,382.435a11.24841,11.24841,0,0,1,11.5754,10.8436l36.8246,1128.0569A11.24839,11.24839,0,0,1,2298.8656,1532.9109Z" transform="translate(-18.22426 -43.01514)"/>
          <g>
            <path class="cls-18" d="M1751.7589,811.4659s8.1978,15.0309-40.7735,40.7234c-27.306,14.3262-80.649,35.9654-85.7266,93.7912-2.6215,29.8533-23.766,54.4444-53.2104,60.0382-73.3345,13.9325-185.6023,56.2756-199.2155,184.9463-10.3909,98.2122,40.7472,133.4886,93.4833,144.4466,38.7341,8.0506,65.5858,44.4878,59.1995,83.531-6.1214,37.4487,6.5198,80.0354,72.1491,111.7292,147.0686,71.0178,282.0704-190.7455,282.0704-190.7455l13.5569-449.1282Z" transform="translate(-18.22426 -43.01514)"/>
            <path class="cls-19" d="M1786.3731,1454.5589c39.1343-197.0089-81.6048-303.3363-81.6048-303.3363,57.1883-58.9537,154.3762-94.413,190.3594-106.0723a28.4121,28.4121,0,0,1,25.8542,4.3313c32.0837,24.0717,117.2091,94.2576,106.9691,154.3532-7.3732,43.2896-80.8762,260.6108-80.8762,260.6108S1873.3013,1502.6359,1786.3731,1454.5589Z" transform="translate(-18.22426 -43.01514)"/>
            <path class="cls-20" d="M1820.6984,914.758l-31.4777,169.7079c-3.06,14.9582,10.3743,12.0496,25.2673,8.687,24.3899-5.5047,55.6984-16.1689,65.5946-35.653a18.18162,18.18162,0,0,0,1.6923-6.4137l11.9375-117.327a20.98806,20.98806,0,0,0-13.0635-21.604l-31.5672-12.6702A20.98936,20.98936,0,0,0,1820.6984,914.758Z" transform="translate(-18.22426 -43.01514)"/>
            <g>
              <path class="cls-21" d="M1887.0178,758.7085s40.8711,25.5897,60.4723,93.7699c19.6005,68.181-7.3849,93.8515-36.0035,93.3583-28.6187-.4938-70.3506-7.8484-107.9965-55.9206C1765.8443,841.8445,1833.5468,727.5659,1887.0178,758.7085Z" transform="translate(-18.22426 -43.01514)"/>
              <path class="cls-22" d="M1838.6874,860.8778s-18.1384-98.0504,64.2408-85.8932l17.1623,16.6383s38.4492-46.5427-7.098-79.0628c-45.5472-32.5194-106.7517-21.5923-138.5728,41.7044-31.8188,63.2981-42.6145,107.3634-12.7116,144.9228,29.9043,37.5594,50.1822,3.7082,50.1822,3.7082s-14.2753-32.922-3.93-47.6376c10.3439-14.7135,25.1569,7.445,25.1569,7.445Z" transform="translate(-18.22426 -43.01514)"/>
              <path class="cls-23" d="M1827.8033,869.7185s-9.0271-50.457-34.4118-35.0345c-25.3839,15.4217,11.0257,47.0413,25.5522,57.7226Z" transform="translate(-18.22426 -43.01514)"/>
            </g>
            <path class="cls-24" d="M1704.3368,1154.1127s-75.0212,130.1396-87.5279,226.1841c-12.506,96.0438,140.0847,130.4323,193.7913,72.7503l-9.3758-39.4976s-86.9516,19.0352-96.6117-28.4195c-9.6594-47.4532,66.4976-145.7687,66.4976-145.7687S1744.6866,1168.6061,1704.3368,1154.1127Z" transform="translate(-18.22426 -43.01514)"/>
            <path class="cls-5" d="M1482.0882,1277.7219a13.92805,13.92805,0,0,1-6.9293-2.1893c-34.6079-20.8434-54.2707-65.6676-47.8139-109.0065,3.8698-25.9686,15.8744-48.6778,33.8026-63.9584,12.7179-10.8319,28.0059-17.6998,42.5774-23.8126,24.5502-10.2944,49.8965-19.4979,75.3384-27.3558q3.1194-.95865,6.2527-1.9175c14.862-4.5274,30.2318-9.2091,44.0089-16.7254,17.6202-9.6294,30.2271-23.147,35.4976-38.0693,3.2784-9.2775,3.9578-19.4837,4.6117-29.3492.8065-12.1458,1.6408-24.7089,7.3357-35.659a.8886.8886,0,1,1,1.5763.8208c-5.5233,10.6209-6.3435,22.9892-7.1392,34.9543-.6623,9.9837-1.3465,20.315-4.7078,29.83-5.4165,15.3276-18.3162,29.1904-36.3218,39.0276-13.9387,7.6092-29.3948,12.3202-44.3431,16.8768q-3.1248.9483-6.2494,1.9105c-25.3831,7.843-50.6742,17.0248-75.1728,27.2974-14.4405,6.0551-29.5906,12.8583-42.1099,23.5271-17.603,14.9973-29.3919,37.3209-33.1959,62.8648-6.3572,42.6498,12.9599,86.7436,46.9713,107.2151,2.4485,1.4797,7.0859,3.2422,8.9011.5033a.88692.88692,0,1,1,1.4817.9752A5.04036,5.04036,0,0,1,1482.0882,1277.7219Z" transform="translate(-18.22426 -43.01514)"/>
            <path class="cls-5" d="M1472.0944,1237.562a.88284.88284,0,0,1-.7354-.3696c-13.7366-19.034-21.257-39.2626-21.7465-58.498-.5767-22.5675,9.152-43.919,25.3885-55.7197a.89.89,0,1,1,1.045,1.4409c-15.7699,11.4595-25.22,32.2438-24.6564,54.2351.48,18.8745,7.8834,38.7578,21.4103,57.5036a.88635.88635,0,0,1-.2014,1.2395A.85283.85283,0,0,1,1472.0944,1237.562Z" transform="translate(-18.22426 -43.01514)"/>
          </g>
        </g>
      </g>
      <g>
        <circle class="cls-5" cx="2791.01987" cy="2274.26316" r="443.27631"/>
        <g class="cls-25">
          <path class="cls-7" d="M3337.808,2848.8693l-1021.9608,33.3612a11.24848,11.24848,0,0,1-11.5754-10.8436L2267.4472,1743.33a11.24833,11.24833,0,0,1,10.8435-11.5754l1021.9609-33.3612a11.24841,11.24841,0,0,1,11.5754,10.8436l36.8246,1128.0569A11.24854,11.24854,0,0,1,3337.808,2848.8693Z" transform="translate(-18.22426 -43.01514)"/>
          <g>
            <path class="cls-26" d="M2734.7249,2095.8008c-.8292,1.5695-53.0253,39.9794-53.0253,39.9794s11.5262,82.4645,58.3348,115.0282c51.4627,35.8006,124.1412-29.4898,124.1412-29.4898s57.8403,13.7496,88.5994-106.6509c7.0566-27.6231-33.6784-29.9583-82.8412-24.8708C2806.536,2096.3582,2734.7249,2095.8008,2734.7249,2095.8008Z" transform="translate(-18.22426 -43.01514)"/>
            <path class="cls-27" d="M2637.161,2377.1439a220.22355,220.22355,0,0,1,66.9311-31.1381c8.9906-2.4469,57.5325,11.6617,87.5398,10.9719,41.1905-.947,83.1183-19.6922,117.0716-11.2307,33.7266,8.4041,61.3301,19.3814,77.2683,30.7178,47.7076,33.9318,75.7182,97.201,92.7875,159.8714-32.3218,33.1785-72.9963,47.9241-72.9963,47.9241l-7.516,304.6267-180.1312,92.1626L2612.517,2877.8271l7.3652-297.6927s-65.2883-30.4038-70.078-41.4638C2545.0132,2527.6113,2579.5596,2416.7481,2637.161,2377.1439Z" transform="translate(-18.22426 -43.01514)"/>
            <path class="cls-28" d="M2552.8445,2537.3407s-87.4885,242.555,112.0186,342.2434c41.4257-5.5039,25.4924-74.2985,25.4924-74.2985s-86.6876-19.1839-60.6531-221.5214C2605.7337,2564.0436,2552.8445,2537.3407,2552.8445,2537.3407Z" transform="translate(-18.22426 -43.01514)"/>
            <path class="cls-29" d="M3074.5522,2537.3407s60.2014,253.1939-112.018,342.2434c-41.4263-5.5039-25.4925-74.2985-25.4925-74.2985s69.8644-34.408,60.6526-221.5214C3021.6632,2564.0436,3074.5522,2537.3407,3074.5522,2537.3407Z" transform="translate(-18.22426 -43.01514)"/>
            <path class="cls-30" d="M2704.0921,2346.0058s18.2024,78.8799,106.5759,77.2415c90.0111-1.6376,98.0355-77.5003,98.0355-77.5003l-58.7981-12.582-4.9136-65.5147-88.4447,6.552-1.6369,62.2387Z" transform="translate(-18.22426 -43.01514)"/>
            <path class="cls-31" d="M2768.9645,2082.0268s-101.3575,196.3343,18.8753,243.9675c84.8073,33.598,137.9798-130.381,122.12-174.7947-24.5217-68.6721-40.6714-60.523-40.6714-60.523Z" transform="translate(-18.22426 -43.01514)"/>
            <path class="cls-32" d="M2934.3499,2064.1613c50.0723,13.7626,7.2786,122.3589-68.1079,96.678-75.3872-25.68-105.0109-25.3056-116.7585-4.6043-11.7475,20.7005-14.2709,94.2135-39.7603,57.8777-27.9448-39.8362-43.5265-119.7933-9.2639-145.5691,30.6213-23.0356,37.7675-58.7521,74.4945-57.5141,48.7502,1.643,86.4503-19.9663,108.4555-4.3816C2908.6813,2024.5456,2897.5064,2054.0345,2934.3499,2064.1613Z" transform="translate(-18.22426 -43.01514)"/>
            <path class="cls-33" d="M2744.8478,2173.1174s-21.617-23.2592-25.0766,4.7744c-3.4605,28.0327,7.6484,64.1366,20.6628,44.3463C2753.4486,2202.4487,2744.8478,2173.1174,2744.8478,2173.1174Z" transform="translate(-18.22426 -43.01514)"/>
          </g>
        </g>
      </g>
      <g>
        <path class="cls-34" d="M2752.0822,1440.2952s-193.4363,42.6635-311.0897,96.9849a107.428,107.428,0,0,0-52.6206,52.9044c-35.1873,77.0793-140.464,270.3654-344.6304,362.6057,29.401,39.0251,76.7436,120.1994,97.3669,256.6379,122.625-91.2685,228.4872-243.6891,279.3125-493.6636,0,0,38.7022,21.0395,86.9827-2.4084,25.5076-12.389,54.9598-29.9605,77.0688-43.7799,22.0282-13.7699,38.4355-35.175,44.8078-60.1741,8.4151-33.0102,3.4586-62.0381,3.4586-93.178l99.4299-30.8054S2762.0582,1474.1368,2752.0822,1440.2952Z" transform="translate(-18.22426 -43.01514)"/>
        <path class="cls-35" d="M708.189,2994.2751a919.4118,919.4118,0,0,1,89.48268-169.3423c-59.71168-100.7179-77.3961-238.2811,28.5649-417.4185,77.26292,208.6282,113.51052,513.0437,121.08492,647.763,1.4211,25.2709-6.4228,64.4663-13.4358,93.5165a37.84921,37.84921,0,0,0,29.5094,46.0707c159.0617,30.8047,312.4549,45.1121,452.6805,21.1013a51.86651,51.86651,0,0,0,41.7827-39.6526c91.6736-404.6992,91.1071-683.2792,67.0839-861.5571,94.9481,21.2269,385.2953,66.5048,616.1657-105.3277-20.6226-136.4388-67.9657-217.613-97.3664-256.6376-126.8323,57.3018-291.8146,75.6219-501.9053,2.8208a223.311,223.311,0,0,0-60.0481-11.842c-111.8422-6.5575-480.3956-18.5218-785.36342,82.2324a236.99756,236.99756,0,0,0-142.9592,130.1326C470.96768,2345.4539,337.405,2776.6059,708.189,2994.2751Z" transform="translate(-18.22426 -43.01514)"/>
        <path class="cls-36" d="M1525.3533,2326.2553a8.46747,8.46747,0,0,1-8.3841-7.3542c-23.8408-180.0731-72.3833-258.66-72.866-259.4324a8.46557,8.46557,0,0,1,14.298-9.0681c2.0759,3.2587,50.9563,81.9502,75.3523,266.2797a8.4659,8.4659,0,0,1-7.2818,9.5025A8.7895,8.7895,0,0,1,1525.3533,2326.2553Z" transform="translate(-18.22426 -43.01514)"/>
        <path class="cls-37" d="M1010.2255,1694.624s-21.1164,223.271-39.7093,289.3144a22.57748,22.57748,0,0,0,10.6354,25.7863c31.5553,18.0309,107.2397,47.4396,210.7642-3.2966a46.96872,46.96872,0,0,0,26.0722-44.2036l-9.1217-215.7518Z" transform="translate(-18.22426 -43.01514)"/>
        <g>
          <path class="cls-38" d="M1213.4204,1408.9892s67.5402,155.1511,72.0759,236.585,22.0832,134.2742-72.0759,150.6727-173.4798-30.5074-216.4519-111.6248c0,0-67.3292-124.993-52.2257-176.1813S1213.4204,1408.9892,1213.4204,1408.9892Z" transform="translate(-18.22426 -43.01514)"/>
          <path class="cls-39" d="M1029.144,1626.2994l5.3602-2.3629a12.92622,12.92622,0,0,0,6.3151-17.7535c-13.2775-25.6546-39.1622-84.4428-5.7235-98.157,43.0939-17.674,213.7963-52.4848,250.6263-113.0551,35.3969-58.2136,4.0337-133.3581-43.1011-154.7316a6.49025,6.49025,0,0,0-8.4911,2.7672l-3.9278,7.4324a6.39826,6.39826,0,0,1-11.803-1.2109,6.3675,6.3675,0,0,0-11.5213-1.651c-11.3215,18.1213-41.8852,47.4991-123.6205,62.5843C967.0962,1331.6,890.297,1378.6082,888.3852,1458.877a6.40795,6.40795,0,0,1-9.9023,5.2803c-8.5769-5.2269-22.3023-7.6796-40.64572,7.7446-31.9007,26.824-18.8468,96.408,51.08732,153.6459a6.3559,6.3559,0,0,1-.3026,10.2476c-12.6787,8.2529-31.5785,27.8906,17.3935,54.0688,50.6536,27.0771,88.4793,24.8561,103.0436,22.4519a6.37032,6.37032,0,0,0,5.1685-7.6922l-15.5458-70.5494a6.3983,6.3983,0,0,1,6.2484-7.7751Z" transform="translate(-18.22426 -43.01514)"/>
          <path class="cls-40" d="M1032.069,1641.1866s-25.7664-99.1078-70.2011-71.3199,23.0582,111.0465,58.7816,114.7554Z" transform="translate(-18.22426 -43.01514)"/>
        </g>
        <path class="cls-41" d="M2472.0085,1692.7085a8.46452,8.46452,0,0,1-6.5576-13.8072c7.3139-9.0037,72.2304-88.371,97.2378-102.4921,9.1002-5.1415,14.5233-10.4519,15.6739-15.352a12.47966,12.47966,0,0,0-1.1345-7.9657l-76.2695,15.2877-43.216,37.0767a8.465,8.465,0,0,1-11.0232-12.8497l44.8895-38.5251a8.53079,8.53079,0,0,1,3.8461-1.8747l84.4364-16.9211a8.42853,8.42853,0,0,1,8.6899,3.5725c6.1875,9.1807,8.2392,17.7177,6.2599,26.0857-2.3334,9.8887-10.1221,18.4659-23.8247,26.2063-18.8119,10.629-73.0994,74.6604-92.4343,98.4368A8.4266,8.4266,0,0,1,2472.0085,1692.7085Z" transform="translate(-18.22426 -43.01514)"/>
        <path class="cls-42" d="M1028.79,3101.5777l298.5408,3.6942-104.4844-98.3515c-25.9703-24.4459-65.6098-28.4056-95.5882-8.9618a225.88757,225.88757,0,0,0-53.08,47.3025s-186.2289-68.0582-276.50632-220.3301a919.46712,919.46712,0,0,0-89.4826,169.3435C789.11848,3041.7848,894.0278,3079.144,1028.79,3101.5777Z" transform="translate(-18.22426 -43.01514)"/>
        <g>
          <path class="cls-43" d="M1060.9559,3140.0806c.579.0284,1.1586.0436,1.7426.0394l757.8127-.8182a33.562,33.562,0,1,0-.0749-67.1201l-757.8127.8181a33.55456,33.55456,0,0,0-1.6677,67.0808Z" transform="translate(-18.22426 -43.01514)"/>
          <path class="cls-44" d="M2501.7511,2459.3013H1870.6397a120.38441,120.38441,0,0,0-108.7923,68.2485l-291.7618,612.1303h784.3027a73.09844,73.09844,0,0,0,67.9868-45.7463l226.2488-566.4356C2561.6965,2494.7696,2537.3186,2459.3013,2501.7511,2459.3013Z" transform="translate(-18.22426 -43.01514)"/>
          <ellipse class="cls-45" cx="2104.45665" cy="2788.23237" rx="80.05044" ry="49.67051" transform="matrix(0.31303, -0.94974, 0.94974, 0.31303, -1220.63618, 3871.09371)"/>
        </g>
      </g>
    </g>
  </g>
</svg>
