<svg xmlns="http://www.w3.org/2000/svg" xmlns:xlink="http://www.w3.org/1999/xlink" viewBox="0 0 3636.83803 3651.19664">
  <defs>
    <style>
      .cls-1 {
        isolation: isolate;
      }

      .cls-2 {
        fill: url(#linear-gradient);
      }

      .cls-3 {
        fill: #f5f8ff;
      }

      .cls-4 {
        fill: url(#linear-gradient-2);
      }

      .cls-5 {
        fill: #91b3fa;
      }

      .cls-6 {
        fill: #bdd0fb;
      }

      .cls-20, .cls-21, .cls-7 {
        fill: #fff;
      }

      .cls-7 {
        mix-blend-mode: soft-light;
      }

      .cls-8 {
        fill: url(#linear-gradient-3);
      }

      .cls-9 {
        fill: url(#linear-gradient-4);
      }

      .cls-10 {
        fill: url(#linear-gradient-5);
      }

      .cls-11 {
        fill: url(#linear-gradient-6);
      }

      .cls-12 {
        fill: url(#linear-gradient-7);
      }

      .cls-13 {
        fill: url(#linear-gradient-8);
      }

      .cls-14 {
        fill: url(#linear-gradient-9);
      }

      .cls-15 {
        fill: url(#linear-gradient-10);
      }

      .cls-16 {
        fill: url(#linear-gradient-11);
      }

      .cls-17 {
        fill: url(#linear-gradient-12);
      }

      .cls-18 {
        fill: url(#linear-gradient-13);
      }

      .cls-19 {
        fill: url(#linear-gradient-14);
      }

      .cls-20 {
        opacity: 0.61;
      }

      .cls-22 {
        fill: url(#linear-gradient-15);
      }

      .cls-23 {
        fill: url(#linear-gradient-16);
      }

      .cls-24 {
        fill: url(#linear-gradient-17);
      }

      .cls-25 {
        fill: url(#linear-gradient-18);
      }

      .cls-26 {
        fill: url(#linear-gradient-19);
      }

      .cls-27 {
        fill: url(#linear-gradient-20);
      }

      .cls-28 {
        fill: url(#linear-gradient-21);
      }

      .cls-29 {
        fill: url(#linear-gradient-22);
      }

      .cls-30 {
        fill: url(#linear-gradient-23);
      }

      .cls-31 {
        fill: url(#linear-gradient-24);
      }

      .cls-32 {
        fill: url(#linear-gradient-25);
      }

      .cls-33 {
        fill: url(#linear-gradient-26);
      }

      .cls-34 {
        fill: url(#linear-gradient-27);
      }

      .cls-35 {
        fill: url(#linear-gradient-28);
      }

      .cls-36 {
        fill: url(#linear-gradient-29);
      }

      .cls-37 {
        fill: url(#linear-gradient-30);
      }

      .cls-38 {
        fill: #7d97f4;
      }

      .cls-39 {
        fill: url(#linear-gradient-31);
      }

      .cls-40 {
        fill: url(#linear-gradient-32);
      }

      .cls-41 {
        fill: url(#linear-gradient-33);
      }

      .cls-42 {
        fill: url(#linear-gradient-34);
      }

      .cls-43 {
        fill: url(#linear-gradient-35);
      }

      .cls-44 {
        fill: url(#linear-gradient-36);
      }

      .cls-45 {
        fill: url(#linear-gradient-37);
      }

      .cls-46 {
        fill: url(#linear-gradient-38);
      }

      .cls-47 {
        fill: url(#linear-gradient-39);
      }

      .cls-48 {
        fill: url(#linear-gradient-40);
      }

      .cls-49 {
        fill: url(#linear-gradient-41);
      }

      .cls-50 {
        fill: url(#linear-gradient-42);
      }

      .cls-51 {
        fill: url(#linear-gradient-43);
      }

      .cls-52 {
        fill: url(#linear-gradient-44);
      }

      .cls-53 {
        fill: url(#linear-gradient-45);
      }
    </style>
    <linearGradient id="linear-gradient" x1="77.50542" y1="1944.2961" x2="3673.99052" y2="1944.2961" gradientUnits="userSpaceOnUse">
      <stop offset="0" stop-color="#4f52ff"/>
      <stop offset="1" stop-color="#4042e2"/>
    </linearGradient>
    <linearGradient id="linear-gradient-2" x1="3498.59109" y1="3677.45263" x2="1532.51334" y2="1584.53168" gradientUnits="userSpaceOnUse">
      <stop offset="0" stop-color="#dae3fe"/>
      <stop offset="1" stop-color="#e9effd"/>
    </linearGradient>
    <linearGradient id="linear-gradient-3" x1="1425.14612" y1="2638.48079" x2="1840.96639" y2="3314.98739" gradientUnits="userSpaceOnUse">
      <stop offset="0" stop-color="#09005d"/>
      <stop offset="1" stop-color="#1a0f91"/>
    </linearGradient>
    <linearGradient id="linear-gradient-4" x1="1485.88756" y1="2642.60486" x2="1872.92274" y2="3272.28042" gradientTransform="translate(238.40313 -122.76249) rotate(4.60962)" xlink:href="#linear-gradient-3"/>
    <linearGradient id="linear-gradient-5" x1="1524.007" y1="2619.17446" x2="1911.04216" y2="3248.85" gradientTransform="translate(231.53624 -123.03899) rotate(4.60963)" xlink:href="#linear-gradient-3"/>
    <linearGradient id="linear-gradient-6" x1="1562.12641" y1="2595.74413" x2="1949.1616" y2="3225.41969" gradientTransform="translate(224.66889 -123.31527) rotate(4.60962)" xlink:href="#linear-gradient-3"/>
    <linearGradient id="linear-gradient-7" x1="1600.24585" y1="2572.31373" x2="1987.28102" y2="3201.98927" gradientTransform="translate(217.802 -123.59177) rotate(4.60963)" xlink:href="#linear-gradient-3"/>
    <linearGradient id="linear-gradient-8" x1="1400.00478" y1="2972.50225" x2="1862.7726" y2="2972.50225" xlink:href="#linear-gradient"/>
    <linearGradient id="linear-gradient-9" x1="1367.72041" y1="2875.3057" x2="1927.2513" y2="2875.3057" xlink:href="#linear-gradient"/>
    <linearGradient id="linear-gradient-10" x1="1357.18186" y1="2789.8896" x2="1927.2513" y2="2789.8896" xlink:href="#linear-gradient"/>
    <linearGradient id="linear-gradient-11" x1="1387.44391" y1="2704.73977" x2="1925.85195" y2="2704.73977" xlink:href="#linear-gradient"/>
    <linearGradient id="linear-gradient-12" x1="1601.6547" y1="442.14265" x2="1734.76539" y2="2792.09309" gradientUnits="userSpaceOnUse">
      <stop offset="0" stop-color="#ff928e"/>
      <stop offset="1" stop-color="#fe7062"/>
    </linearGradient>
    <linearGradient id="linear-gradient-13" x1="2977.83852" y1="631.90842" x2="2547.78247" y2="1159.23929" gradientUnits="userSpaceOnUse">
      <stop offset="0" stop-color="#e1473d"/>
      <stop offset="1" stop-color="#e9605a"/>
    </linearGradient>
    <linearGradient id="linear-gradient-14" x1="2771.27645" y1="463.45706" x2="2341.2204" y2="990.78793" xlink:href="#linear-gradient-13"/>
    <linearGradient id="linear-gradient-15" x1="689.99569" y1="1321.36663" x2="1426.22143" y2="1321.36663" xlink:href="#linear-gradient"/>
    <linearGradient id="linear-gradient-16" x1="1350.41818" y1="867.45323" x2="1708.39487" y2="867.45323" xlink:href="#linear-gradient"/>
    <linearGradient id="linear-gradient-17" x1="1807.89857" y1="991.17501" x2="2343.70897" y2="991.17501" xlink:href="#linear-gradient"/>
    <linearGradient id="linear-gradient-18" x1="-618.221" y1="3452.64973" x2="-615.52692" y2="3738.22782" gradientTransform="matrix(-1, 0, 0, 1, 2142.8031, 0)" xlink:href="#linear-gradient-3"/>
    <linearGradient id="linear-gradient-19" x1="-687.05914" y1="3133.73133" x2="-701.87693" y2="3017.8839" gradientTransform="matrix(-1, 0, 0, 1, 2142.8031, 0)" gradientUnits="userSpaceOnUse">
      <stop offset="0" stop-color="#febbba"/>
      <stop offset="1" stop-color="#ff928e"/>
    </linearGradient>
    <linearGradient id="linear-gradient-20" x1="-1004.05558" y1="3456.28955" x2="-1001.3615" y2="3741.86729" gradientTransform="matrix(-1, 0, 0, 1, 2142.8031, 0)" xlink:href="#linear-gradient-3"/>
    <linearGradient id="linear-gradient-21" x1="-1010.92074" y1="3173.43571" x2="-1025.36025" y2="3060.5458" xlink:href="#linear-gradient-19"/>
    <linearGradient id="linear-gradient-22" x1="-1111.82851" y1="2744.47165" x2="-667.3832" y2="2744.47165" gradientTransform="matrix(-1, 0, 0, 1, 2142.8031, 0)" xlink:href="#linear-gradient-3"/>
    <linearGradient id="linear-gradient-23" x1="-1019.641" y1="2676.28345" x2="-1003.4762" y2="2643.95391" gradientTransform="matrix(-1, 0, 0, 1, 2142.8031, 0)" xlink:href="#linear-gradient"/>
    <linearGradient id="linear-gradient-24" x1="3914.45486" y1="1357.56345" x2="2793.2364" y2="2422.46415" xlink:href="#linear-gradient"/>
    <linearGradient id="linear-gradient-25" x1="-901.7864" y1="2431.988" x2="-699.4099" y2="2431.988" xlink:href="#linear-gradient-19"/>
    <linearGradient id="linear-gradient-26" x1="-715.2917" y1="2178.29722" x2="-337.3626" y2="2178.29722" xlink:href="#linear-gradient-19"/>
    <linearGradient id="linear-gradient-27" x1="2939.62471" y1="1989.07049" x2="2864.53177" y2="1677.32151" gradientTransform="matrix(1, 0, 0, 1, 0, 0)" xlink:href="#linear-gradient-19"/>
    <linearGradient id="linear-gradient-28" x1="-660.60368" y1="1746.36319" x2="-824.58639" y2="1963.29892" xlink:href="#linear-gradient-19"/>
    <linearGradient id="linear-gradient-29" x1="-785.83966" y1="1798.69325" x2="-589.95969" y2="1798.69325" gradientTransform="matrix(-1, 0, 0, 1, 2142.8031, 0)" xlink:href="#linear-gradient-3"/>
    <linearGradient id="linear-gradient-30" x1="-900.77406" y1="1918.15925" x2="-769.24639" y2="1783.21537" xlink:href="#linear-gradient-19"/>
    <linearGradient id="linear-gradient-31" x1="-231.97266" y1="2884.0412" x2="-25.9074" y2="2884.0412" xlink:href="#linear-gradient-19"/>
    <linearGradient id="linear-gradient-32" x1="-105.88935" y1="3018.31348" x2="-136.19831" y2="3483.05052" gradientTransform="matrix(-1, 0, 0, 1, 2142.8031, 0)" xlink:href="#linear-gradient"/>
    <linearGradient id="linear-gradient-33" x1="2451.9023" y1="2878.26149" x2="2841.0208" y2="2622.26255" gradientTransform="matrix(1, 0, 0, 1, 0, 0)" xlink:href="#linear-gradient-19"/>
    <linearGradient id="linear-gradient-34" x1="2177.25217" y1="2411.18507" x2="2106.7101" y2="2668.32213" xlink:href="#linear-gradient"/>
    <linearGradient id="linear-gradient-35" x1="-398.36707" y1="2999.23854" x2="-428.67611" y2="3463.97684" gradientTransform="matrix(-1, 0, 0, 1, 2142.8031, 0)" xlink:href="#linear-gradient"/>
    <linearGradient id="linear-gradient-36" x1="1898.8279" y1="2407.39998" x2="2108.73646" y2="2038.77993" xlink:href="#linear-gradient-3"/>
    <linearGradient id="linear-gradient-37" x1="8.91925" y1="2267.91446" x2="239.9763" y2="2770.80248" gradientTransform="matrix(-1, 0, 0, 1, 2142.8031, 0)" xlink:href="#linear-gradient"/>
    <linearGradient id="linear-gradient-38" x1="14.48823" y1="2301.31265" x2="-7.26161" y2="2161.75182" xlink:href="#linear-gradient-19"/>
    <linearGradient id="linear-gradient-39" x1="-79.51901" y1="2038.29646" x2="112.60406" y2="2168.79504" xlink:href="#linear-gradient-19"/>
    <linearGradient id="linear-gradient-40" x1="1897.99453" y1="2406.92564" x2="2107.90244" y2="2038.30673" xlink:href="#linear-gradient-3"/>
    <linearGradient id="linear-gradient-41" x1="-68.00339" y1="2021.34312" x2="124.11945" y2="2151.84155" xlink:href="#linear-gradient-19"/>
    <linearGradient id="linear-gradient-42" x1="1969.37987" y1="2615.97335" x2="2232.20488" y2="2370.21527" gradientTransform="matrix(1, 0, 0, 1, 0, 0)" xlink:href="#linear-gradient-19"/>
    <linearGradient id="linear-gradient-43" x1="62.08823" y1="2562.07123" x2="-195.05233" y2="2632.54671" gradientTransform="matrix(-0.9988, -0.0494, -0.0494, 0.9988, 2184.2721, -55.03281)" xlink:href="#linear-gradient-3"/>
    <linearGradient id="linear-gradient-44" x1="-242.23241" y1="2378.45006" x2="-424.68537" y2="2571.29154" gradientTransform="matrix(-1, 0, 0, 1, 2142.8031, 0)" xlink:href="#linear-gradient-3"/>
    <linearGradient id="linear-gradient-45" x1="-712.11426" y1="2738.03851" x2="-713.45983" y2="2657.30136" gradientTransform="matrix(-1, 0, 0, 1, 2142.8031, 0)" xlink:href="#linear-gradient-13"/>
  </defs>
  <g class="cls-1">
    <g id="Illustration">
      <g id="Calque_3" data-name="Calque 3">
        <path class="cls-2" d="M2194.68037,3532.16709C3372.979,2926.35836,3909.97009,1383.7643,3576.505,911.49984c-43.392-69.49169-143.72892-202.33747-574.55554-385.0466-361.5949-153.34867-946.66518-392.88606-1735.1929-306.65759C116.21357,305.87693-42.33978,701.28338,143.01352,1832.38124c87.29331,636.08194,162.413,1183.39353,631.052,1547.6666C1032.85248,3590.29937,1603.48486,3864.1575,2194.68037,3532.16709Z" transform="translate(-37.15249 -35.81801)"/>
      </g>
      <g id="Calque_3_-_copie" data-name="Calque 3 - copie">
        <path class="cls-3" d="M316.58656,1106.933C1143.40786,65.57649,2809.29058-186.62777,3230.47643,221.1071c62.98833,54.46773,180.30007,175.52686,289.40136,627.256,91.56924,379.13846,230.99291,991.08734,2.54788,1744.01563-292.88189,1105.57656-723.62069,1190.58923-1841.803,811.443-631.84129-196.71389-1175.50246-365.98344-1462.6566-886.42346C50.13833,2228.409-126.79343,1624.49727,316.58656,1106.933Z" transform="translate(-37.15249 -35.81801)"/>
      </g>
      <g>
        <path class="cls-4" d="M2908.2779,2837.7815c-72.5794,74.8126-137.5211,118.7898-187.2427,151.9897-484.9247,323.7886-1039.2469,230.465-1210.6295,198.5671-276.5048-51.4634-509.9131-87.7686-710.4524-268.9477C344.2672,2507.6961,366.4308,1648.871,714.6307,1116.8663c41.286-63.0805,388.9586-578.4392,944.4807-651.0577,13.5873-1.7761,23.7252-2.7877,32.6045-3.7277,85.9379-9.0989,618.4784-57.121,1052.7121,306.68,62.1586,52.0762,162.1894,146.0085,254.9503,289.2707C3338.5551,1581.8624,3339.6296,2393.161,2908.2779,2837.7815Z" transform="translate(-37.15249 -35.81801)"/>
        <g>
          <g>
            <path class="cls-5" d="M2266.3886,768.4968a3.413,3.413,0,0,1-2.7199-5.4733q4.14495-5.48,8.4766-10.8366a3.41293,3.41293,0,0,1,5.3066,4.2933q-4.26495,5.2701-8.3366,10.6633A3.41457,3.41457,0,0,1,2266.3886,768.4968Z" transform="translate(-37.15249 -35.81801)"/>
            <path class="cls-5" d="M3010.4911,948.1192a3.41562,3.41562,0,0,1-3.36-2.8234c-1.59-9.0932-3.5067-18.2332-5.7-27.1631a3.41492,3.41492,0,0,1,6.6333-1.6267c2.2267,9.0799,4.1767,18.3699,5.7933,27.6132a3.41486,3.41486,0,0,1-2.7733,3.95A3.6282,3.6282,0,0,1,3010.4911,948.1192Zm-18.9799-70.8696a3.41229,3.41229,0,0,1-3.2067-2.2434c-3.1533-8.6299-6.6533-17.2899-10.4033-25.7298a3.41426,3.41426,0,1,1,6.24-2.7733c3.81,8.5833,7.37,17.3865,10.5766,26.1631a3.41321,3.41321,0,0,1-3.2066,4.5834Zm-31.1632-66.4297a3.42032,3.42032,0,0,1-2.9566-1.7c-2.9834-5.1399-6.1367-10.3099-9.37-15.3632q-2.645-4.125-5.3633-8.17a3.41323,3.41323,0,0,1,5.6666-3.8066q2.76,4.10505,5.4434,8.2966c3.2899,5.1367,6.4932,10.39,9.5299,15.6166a3.41274,3.41274,0,0,1-2.95,5.1266Zm-42.2131-60.0096a3.4124,3.4124,0,0,1-2.6133-1.2133c-5.96-7.0667-12.2133-14-18.5866-20.6033a3.41347,3.41347,0,1,1,4.9133-4.7399c6.4767,6.7133,12.8333,13.7566,18.8933,20.9432a3.41327,3.41327,0,0,1-2.6067,5.6133Zm-612.8631-26.7765a3.41335,3.41335,0,0,1-2.4034-5.8367c6.6467-6.5866,13.6066-13.0366,20.6966-19.1732a3.41233,3.41233,0,0,1,4.4666,5.16c-6.9699,6.0399-13.8199,12.3832-20.3565,18.8599A3.40849,3.40849,0,0,1,2305.2718,724.0338Zm560.8268-24.9032a3.41019,3.41019,0,0,1-2.18-.79c-7.0767-5.8833-14.45-11.6033-21.9166-16.9999a3.41385,3.41385,0,0,1,4-5.5333c7.59,5.4899,15.0866,11.3032,22.2832,17.2865a3.41332,3.41332,0,0,1-2.1866,6.0367ZM2361.7248,677.174a3.41338,3.41338,0,0,1-1.9467-6.2199c4.2233-2.9233,8.56-5.81,12.8999-8.58q5.38005-3.44,10.8233-6.6999a3.4145,3.4145,0,0,1,3.5067,5.8599q-5.3601,3.20505-10.6533,6.5933c-4.27,2.7267-8.5366,5.5633-12.6899,8.44A3.40173,3.40173,0,0,1,2361.7248,677.174Zm444.0508-19.7465a3.39775,3.39775,0,0,1-1.6834-.4467c-7.9966-4.5433-16.2632-8.8766-24.5732-12.8832a3.4126,3.4126,0,0,1,2.9667-6.1467c8.4433,4.07,16.8499,8.4766,24.9799,13.0966a3.41318,3.41318,0,0,1-1.69,6.38Zm-380.3179-16.6166a3.41305,3.41305,0,0,1-1.43-6.5133c8.5133-3.9166,17.2666-7.5899,26.0166-10.9233a3.41295,3.41295,0,1,1,2.4266,6.38c-8.6066,3.2767-17.2166,6.8933-25.5898,10.7433A3.39172,3.39172,0,0,1,2425.4577,640.8109Zm313.5949-13.8566a3.40564,3.40564,0,0,1-1.14-.1966c-8.6966-3.08-17.5965-5.9067-26.4498-8.3933a3.41388,3.41388,0,1,1,1.8466-6.5733c9,2.53,18.0433,5.3999,26.8832,8.5333a3.413,3.413,0,0,1-1.14,6.6299ZM2494.5573,616.161a3.413,3.413,0,0,1-.8533-6.7166c9.0633-2.3533,18.3266-4.43,27.5299-6.1633a3.41258,3.41258,0,0,1,1.2666,6.7066c-9.0533,1.7067-18.1665,3.7467-27.0832,6.0633A3.3249,3.3249,0,0,1,2494.5573,616.161Zm173.4724-7.5766a3.28,3.28,0,0,1-.5667-.0466c-9.0699-1.52-18.3265-2.75-27.5065-3.66a3.4124,3.4124,0,0,1-3.06-3.7333,3.46962,3.46962,0,0,1,3.7333-3.06c9.3333.9233,18.7399,2.1766,27.9599,3.72a3.41335,3.41335,0,0,1-.56,6.7799Zm-101.1061-4.5066a3.41338,3.41338,0,0,1-.26-6.8166c9.3499-.72,18.8299-1.13,28.1832-1.22h.0333a3.41338,3.41338,0,0,1,.0333,6.8266c-9.1999.09-18.5299.4933-27.7231,1.2C2567.1003,604.0744,2567.0103,604.0778,2566.9236,604.0778Z" transform="translate(-37.15249 -35.81801)"/>
            <path class="cls-5" d="M3016.5144,1007.0955a3.41532,3.41532,0,0,1-3.41-3.3067q-.20505-6.7599-.6333-13.5199a3.413,3.413,0,0,1,3.1899-3.6233,3.47928,3.47928,0,0,1,3.6233,3.19q.4401,6.87.6467,13.7399a3.41732,3.41732,0,0,1-3.3066,3.52Z" transform="translate(-37.15249 -35.81801)"/>
          </g>
          <g>
            <path class="cls-5" d="M2900.595,1309.1004a3.41329,3.41329,0,0,1-2.46-5.7799q4.7001-4.89,9.2167-9.91a3.413,3.413,0,0,1,5.0733,4.5667q-4.59,5.09985-9.37,10.0766A3.40043,3.40043,0,0,1,2900.595,1309.1004Z" transform="translate(-37.15249 -35.81801)"/>
            <path class="cls-5" d="M2599.7501,1437.5264c-8.4633,0-17.0599-.26-25.5299-.7734a3.41284,3.41284,0,0,1-3.2-3.6133,3.5047,3.5047,0,0,1,3.6133-3.2c8.3333.5034,16.79.76,25.1332.76l2.16-.0033h.0134a3.41332,3.41332,0,0,1,.02,6.8266Zm46.843-2.6367a3.414,3.414,0,0,1-.38-6.8066c8.9967-1.0133,18.0866-2.35,27.0166-3.9667a3.41433,3.41433,0,0,1,1.2133,6.72c-9.0766,1.6433-18.3166,3-27.4632,4.0333A3.814,3.814,0,0,1,2646.5931,1434.8897Zm-116.6026-3.22a3.76263,3.76263,0,0,1-.5734-.0466c-9.0732-1.5334-18.2232-3.39-27.1965-5.52a3.41193,3.41193,0,1,1,1.5734-6.64c8.8299,2.0933,17.8332,3.92,26.7631,5.4267a3.41384,3.41384,0,0,1-.5666,6.7799Zm187.3622-11.1099a3.41319,3.41319,0,0,1-.9666-6.6866c8.6733-2.56,17.3965-5.45,25.9232-8.6a3.41487,3.41487,0,0,1,2.3666,6.4066c-8.6733,3.2-17.5399,6.14-26.3565,8.74A3.37334,3.37334,0,0,1,2717.3527,1420.5598Zm-257.2518-6.99a3.48113,3.48113,0,0,1-1.1367-.1933c-8.6933-3.07-17.3899-6.47-25.8532-10.0999a3.41351,3.41351,0,1,1,2.6933-6.2733c8.3233,3.5733,16.8799,6.9133,25.4332,9.9332a3.41383,3.41383,0,0,1-1.1366,6.6333Zm324.4615-19.3965a3.41347,3.41347,0,0,1-1.5234-6.47c8.12-4.0333,16.2099-8.3899,24.0532-12.9499a3.41312,3.41312,0,1,1,3.4333,5.9c-7.9733,4.6366-16.1965,9.0666-24.4465,13.1632A3.39606,3.39606,0,0,1,2784.5624,1394.1733ZM2394.3646,1383.74a3.37511,3.37511,0,0,1-1.67-.44c-8.03-4.5166-16.0099-9.3633-23.7199-14.4032a3.41249,3.41249,0,0,1,3.7333-5.7134c7.5867,4.9567,15.4366,9.7267,23.3332,14.17a3.41289,3.41289,0,0,1-1.6766,6.3866Zm451.8907-27.1132a3.41323,3.41323,0,0,1-2.02-6.1666c7.3267-5.3633,14.5566-11.0333,21.4899-16.8499a3.41433,3.41433,0,1,1,4.3867,5.2333c-7.0467,5.91-14.3966,11.6733-21.8432,17.1232A3.38356,3.38356,0,0,1,2846.2553,1356.6268Zm-511.467-13.6099a3.395,3.395,0,0,1-2.16-.7733c-7.14-5.8533-14.16-12.01-20.8666-18.2999a3.41468,3.41468,0,0,1,4.6733-4.98c6.5933,6.1866,13.4966,12.2433,20.5199,17.9999a3.41328,3.41328,0,0,1-2.1666,6.0533Zm-51.6198-50.4564a3.40544,3.40544,0,0,1-2.5899-1.19c-6.01-6.9933-11.86-14.2732-17.3833-21.6332a3.414,3.414,0,1,1,5.46-4.1c5.4333,7.2433,11.1899,14.4033,17.1032,21.2866a3.41324,3.41324,0,0,1-2.59,5.6366Zm-42.1664-58.5996a3.41035,3.41035,0,0,1-2.9333-1.6634c-4.7333-7.9233-9.2566-16.0932-13.4499-24.2798a3.41239,3.41239,0,1,1,6.0733-3.1133c4.1266,8.0566,8.5799,16.0965,13.2366,23.8932a3.41367,3.41367,0,0,1-2.9267,5.1633Zm-31.5598-64.9363a3.41009,3.41009,0,0,1-3.1866-2.1934c-3.2934-8.5999-6.34-17.4299-9.06-26.2431a3.4119,3.4119,0,1,1,6.52-2.0134c2.6766,8.67,5.6766,17.3566,8.9132,25.8166a3.41486,3.41486,0,0,1-3.1866,4.6333Zm-19.8499-69.4263a3.4106,3.4106,0,0,1-3.3466-2.7633c-1.7534-9.0566-3.2233-18.2799-4.3667-27.4165a3.413,3.413,0,0,1,6.7733-.8467c1.1233,8.9833,2.57,18.0566,4.2933,26.9632a3.41641,3.41641,0,0,1-3.3533,4.0633Z" transform="translate(-37.15249 -35.81801)"/>
            <path class="cls-5" d="M2182.0925,1027.582a3.41481,3.41481,0,0,1-3.4134-3.3566q-.1149-6.885-.0066-13.7599a3.41471,3.41471,0,0,1,3.4133-3.3567h.0567a3.414,3.414,0,0,1,3.3566,3.47q-.11,6.7599.0067,13.5333a3.416,3.416,0,0,1-3.3567,3.4699Z" transform="translate(-37.15249 -35.81801)"/>
          </g>
          <g>
            <path class="cls-5" d="M2282.0016,971.6059a5.00951,5.00951,0,0,0,2.1083,5.4191l50.9796,33.4192a265.52318,265.52318,0,0,0,12.3577,85.138l-39.3164,46.5314a5.00773,5.00773,0,0,0-.4776,5.795l37.4149,62.8195a5.011,5.011,0,0,0,5.3227,2.3405l59.6412-12.4077a265.54221,265.54221,0,0,0,68.9745,51.415l5.105,60.7433a5.0086,5.0086,0,0,0,3.7599,4.4353l70.8763,17.9627a5.00722,5.00722,0,0,0,5.4192-2.1088l33.4196-50.9787a265.5293,265.5293,0,0,0,85.1371-12.3581l46.5323,39.3168a5.00831,5.00831,0,0,0,5.795.4776l62.8194-37.4158a5.00851,5.00851,0,0,0,2.3406-5.3231l-12.4086-59.6412a265.48853,265.48853,0,0,0,51.4158-68.9741l60.7442-5.1041a5.00853,5.00853,0,0,0,4.4341-3.7607l17.9631-70.876a5.00609,5.00609,0,0,0-2.1092-5.4191l-50.9792-33.4196a265.49458,265.49458,0,0,0-12.3573-85.1376l39.3177-46.5322a5.00909,5.00909,0,0,0,.4776-5.7942l-37.4162-62.8203a5.00677,5.00677,0,0,0-5.3227-2.3397l-59.6412,12.4082a265.49819,265.49819,0,0,0-68.9749-51.4163l-5.1046-60.7421a5.0066,5.0066,0,0,0-3.7602-4.4357l-70.8764-17.9627a5.00858,5.00858,0,0,0-5.4191,2.1084l-33.4197,50.9783a265.53015,265.53015,0,0,0-85.1371,12.3585l-46.5327-39.3176a5.006,5.006,0,0,0-5.7941-.4764l-62.8187,37.4154a5.01,5.01,0,0,0-2.3414,5.3227l12.4086,59.6411a265.55216,265.55216,0,0,0-51.4158,68.9737L2304.4,896.9692a5.00973,5.00973,0,0,0-4.4362,3.7603Z" transform="translate(-37.15249 -35.81801)"/>
            <path class="cls-6" d="M2602.1834,1085.0817h-.07a70.12055,70.12055,0,1,1,.07,0Zm-.0033-129.8193a59.78326,59.78326,0,0,0-42.3265,102.0228h0a59.4056,59.4056,0,0,0,42.2698,17.5566h.06a59.78971,59.78971,0,1,0-.0033-119.5794Z" transform="translate(-37.15249 -35.81801)"/>
            <path class="cls-6" d="M2604.03,1196.9177a182.68931,182.68931,0,0,1-44.9197-5.6366,180.36146,180.36146,0,0,1-111.376-83.0862h0c-.5667-.9533-1.13-1.9167-1.68-2.88-.0033-.0066-.0067-.01-.0067-.0166l-.03-.05a182.92451,182.92451,0,0,1-13.2066-28.5932l-.21-.59c-.0166-.05-.0366-.1-.0533-.15-.3333-.94-.66-1.88-.98-2.8267l9.7066-3.2666a172.27872,172.27872,0,0,0,15.2599,33.1331,170.0519,170.0519,0,0,0,97.8161,76.3863q3.6051,1.08495,7.2767,2.0133a171.34512,171.34512,0,0,0,189.2689-253.7219c-48.3364-81.1529-153.6858-107.856-234.8453-59.5197a170.98978,170.98978,0,0,0-63.1464,65.8663l-9.0199-4.8466a181.26886,181.26886,0,0,1,66.9263-69.8196c86.0095-51.2164,197.6522-22.9299,248.8852,63.0796A181.66392,181.66392,0,0,1,2604.03,1196.9177Z" transform="translate(-37.15249 -35.81801)"/>
          </g>
        </g>
        <g>
          <path class="cls-5" d="M489.2364,575.2162c-6.9006-15.9454,10.9952-31.2964,25.8463-22.2779,150.8068,91.5711,527.9325,381.5273,583.2864,1015.8431,69.4496,795.8435,290.9053,1044.7904,528.5803,1174.959,0,0-293.4454-22.8153-527.9858-273.3476C523.1135,1855.2768,611.9304,858.7313,489.2364,575.2162Z" transform="translate(-37.15249 -35.81801)"/>
          <path class="cls-7" d="M623.0993,799.7103c34.258,82.9384,66.8626,166.5081,96.3645,251.1509q44.9115,126.7086,81.9764,255.8868c24.3353,86.1594,47.0506,172.7621,66.0535,260.2011,19.395,87.3495,35.0163,175.4336,50.3914,263.9268,15.8601,88.3563,31.3354,177.4565,55.9792,265.244,24.5121,87.6255,59.8779,173.7331,109.9287,250.826,12.498,19.2084,25.3951,38.2635,39.2858,56.3688,13.5615,18.3708,27.9397,36.146,42.6304,53.6559a977.55468,977.55468,0,0,0,95.7206,98.3228c68.6251,60.7563,146.4498,111.0145,228.6758,150.0378a17.34555,17.34555,0,0,0,15.3364-31.1127l-.0588-.0301c-19.7306-10.0574-39.3221-20.3281-58.388-31.4372-9.6241-5.4032-18.9875-11.2216-28.457-16.8617-9.2437-5.9914-18.7242-11.6263-27.7731-17.8973a914.46817,914.46817,0,0,1-104.1357-80.9198c-65.5746-58.5127-122.7433-127.1282-170.6872-200.6914a873.42808,873.42808,0,0,1-62.0942-116.0013,990.46786,990.46786,0,0,1-44.6389-124.3701c-24.5825-85.0656-40.6281-173.1287-57.1224-261.3655-16.6123-88.2352-33.9126-176.7882-54.8292-264.4914q-15.50805-65.811-33.3674-131.0198c-5.8259-21.7642-12.0723-43.412-18.2786-65.0672q-9.6213-32.394-19.6539-64.6533-40.48275-128.93085-88.8308-255.0774c-32.6471-83.8795-67.5096-166.865-105.5097-248.367a4.653,4.653,0,0,0-8.5178,3.7423Z" transform="translate(-37.15249 -35.81801)"/>
        </g>
        <g>
          <path class="cls-6" d="M1452.5807,2956.0747c2.4336,20.8769-17.2449,37.4545-37.4809,31.7746-111.6585-31.3379-419.3438-148.4907-578.4897-515.8553-134.3912-310.223-236.7441-465.6674-288.0984-533.0138-10.8591-14.2411,2.7736-34.0677,19.9678-29.0593C758.1824,1965.1772,1364.3966,2199.5925,1452.5807,2956.0747Z" transform="translate(-37.15249 -35.81801)"/>
          <path class="cls-7" d="M1427.1994,2968.948a8.21787,8.21787,0,0,1-12.4957,2.1172c-3.8817-3.3657-390.5338-341.3951-596.8812-764.2981a8.20729,8.20729,0,1,1,14.7524-7.1976c204.8442,419.8252,589.0238,755.7521,592.8791,759.0955A8.20711,8.20711,0,0,1,1427.1994,2968.948Z" transform="translate(-37.15249 -35.81801)"/>
        </g>
        <g>
          <path class="cls-8" d="M1883.0141,3004.2643c-1.3085,89.8418-116.6245,185.5822-249.8599,185.5822s-233.9714-70.218-241.2434-159.7746c-17.3457-213.6183,108.0081-211.3898,241.2434-211.3898S1886.2482,2782.2211,1883.0141,3004.2643Z" transform="translate(-37.15249 -35.81801)"/>
          <ellipse class="cls-9" cx="1644.26718" cy="2900.27587" rx="337.77184" ry="88.2856" transform="translate(-264.9185 105.70698) rotate(-4.60962)"/>
          <ellipse class="cls-10" cx="1644.26718" cy="2814.8282" rx="337.77183" ry="88.28567" transform="translate(-258.0516 105.43074) rotate(-4.60963)"/>
          <ellipse class="cls-11" cx="1644.26718" cy="2729.38057" rx="337.77184" ry="88.2856" transform="translate(-251.18427 105.1542) rotate(-4.60962)"/>
          <ellipse class="cls-12" cx="1644.26718" cy="2643.9329" rx="337.77183" ry="88.28567" transform="translate(-244.31735 104.87796) rotate(-4.60963)"/>
          <g>
            <path class="cls-13" d="M1551.1326,2996.8979c-55.2226,0-105.7526-4.0623-147.5016-12.0585a4.4647,4.4647,0,1,1,1.6791-8.7701c65.3273,12.5076,152.5823,15.2638,245.692,7.7562,76.1887-6.1448,147.4405-18.4323,206.0517-35.5387a4.46593,4.46593,0,0,1,2.5033,8.5739c-59.1847,17.2722-131.0536,29.6752-207.8354,35.8658C1617.1359,2995.5155,1583.3373,2996.8979,1551.1326,2996.8979Z" transform="translate(-37.15249 -35.81801)"/>
            <path class="cls-14" d="M1552.0594,2911.3721c-71.7491,0-135.8683-6.7488-181.0953-19.6272a4.46649,4.46649,0,0,1,2.4466-8.5914c64.4464,18.3516,168.2169,24.0407,277.5914,15.2247,108.1905-8.7244,209.0914-30.6783,269.9115-58.7289a4.46652,4.46652,0,1,1,3.7418,8.1116c-61.7228,28.465-163.7554,50.7154-272.9337,59.5183C1617.6505,2910.0267,1584.0917,2911.3721,1552.0594,2911.3721Z" transform="translate(-37.15249 -35.81801)"/>
            <path class="cls-15" d="M1551.1413,2825.9881c-77.4686,0-145.2621-7.9263-190.8902-22.9722a4.46557,4.46557,0,1,1,2.7954-8.4824c63.4978,20.9377,171.1454,27.8109,287.9556,18.3974,108.184-8.7222,209.0849-30.6783,269.9115-58.7311a4.46656,4.46656,0,1,1,3.7418,8.1117c-61.7293,28.4671-163.7619,50.7197-272.9337,59.5204C1617.125,2824.623,1583.298,2825.9881,1551.1413,2825.9881Z" transform="translate(-37.15249 -35.81801)"/>
            <path class="cls-16" d="M1551.7388,2740.4993c-61.4524,0-117.3445-4.9673-160.7964-14.6228a4.46512,4.46512,0,1,1,1.9363-8.7178c65.3404,14.5181,159.4249,18.2796,258.1234,10.3227,107.2202-8.6459,207.6065-30.362,268.5334-58.0965a4.46539,4.46539,0,1,1,3.6982,8.1291c-61.8166,28.1401-163.3171,50.1462-271.512,58.8685C1617.5349,2739.1409,1583.8737,2740.4993,1551.7388,2740.4993Z" transform="translate(-37.15249 -35.81801)"/>
          </g>
          <path class="cls-17" d="M1182.7865,2297.6863a628.78614,628.78614,0,0,0-112.6044-219.8518c-110.6943-139.5098-291.2783-423.2298-313.506-810.4579-32.331-563.2408,467.1987-845.2301,923.0271-806.9484s905.6164,377.681,856.3764,901.6659c-30.2974,322.4087-210.7543,566.9614-345.1134,707.4053-85.3189,89.1828-146.1774,198.4151-179.1218,317.3585-40.3225,145.582-136.279,327.0064-364.3591,338.0661C1352.3577,2739.2349,1229.7833,2464.1418,1182.7865,2297.6863Z" transform="translate(-37.15249 -35.81801)"/>
          <path class="cls-18" d="M1722.8752,2585.8264l159.4937-1037.3637c3.2949-21.4309,13.8422-35.8233,23.5575-32.1463,9.7152,3.6776,14.92,24.032,11.6251,45.4634-.0878.571-.2055,1.2766-.3034,1.8376L1735.5715,2591.3422c-1.3662,7.7285-5.2913,12.6094-8.7667,10.9014C1723.435,2600.5878,1721.7306,2593.3098,1722.8752,2585.8264Z" transform="translate(-37.15249 -35.81801)"/>
          <path class="cls-19" d="M1557.3139,2594.0634,1397.8201,1556.6998c-3.2949-21.4309-13.8422-35.8234-23.5574-32.1463-9.7153,3.6776-14.9201,24.032-11.6251,45.4634.0877.571.2054,1.2766.3034,1.8375l181.6765,1027.7249c1.3662,7.7285,5.2914,12.6094,8.7667,10.9014C1556.7541,2608.8249,1558.4584,2601.5469,1557.3139,2594.0634Z" transform="translate(-37.15249 -35.81801)"/>
          <path class="cls-20" d="M1881.2248,1459.3951c-4.0498-6.5133-13.4235-8.9473-20.937-5.4366l-88.8093,41.496-30.8265-87.8367a18.84543,18.84543,0,0,0-10.8012-10.8668c-10.2151-4.2106-22.4337-.4448-27.2897,8.411l-.156.2845-73.0364,133.1688-67.7741-189.571-.1119-.3135a21.65751,21.65751,0,0,0-10.2592-11.5684c-11.3646-6.2037-26.3779-3.2463-33.5342,6.6055l-102.1058,140.5625c-4.153,5.761-2.7242,13.4796,3.5983,17.7388,6.7476,4.5459,16.4697,3.4889,21.713-2.3605l89.9023-100.2849,80.9423,180.3364.0617.138a14.31774,14.31774,0,0,0,7.1299,6.9908c7.5953,3.5571,17.0784,1.1028,21.1823-5.4814l78.1138-125.3471,29.3989,63.3997.2591.5626a12.74274,12.74274,0,0,0,.7307,1.3465c4.0461,6.5079,13.4122,8.9403,20.9195,5.4323l105.4173-49.2566C1882.4662,1474.0343,1885.2747,1465.9085,1881.2248,1459.3951Z" transform="translate(-37.15249 -35.81801)"/>
          <path class="cls-20" d="M2194.4457,1893.8671a5.11993,5.11993,0,0,1-4.1066-8.1733,1192.08321,1192.08321,0,0,0,74.9429-113.836,5.11935,5.11935,0,0,1,8.8666,5.12,1202.095,1202.095,0,0,1-75.5896,114.8226A5.1081,5.1081,0,0,1,2194.4457,1893.8671Z" transform="translate(-37.15249 -35.81801)"/>
          <path class="cls-20" d="M2325.6583,1668.685a5.11924,5.11924,0,0,1-4.6933-7.1599c89.3928-205.8688,90.5128-393.2011,75.7129-514.0971-16.0532-131.1026-53.763-214.5688-54.1397-215.3954a5.119,5.119,0,1,1,9.3066-4.2667c.3867.84,38.6598,85.4429,54.943,217.9988,15.0233,122.256,13.9533,311.6815-76.4295,519.8404A5.11988,5.11988,0,0,1,2325.6583,1668.685Z" transform="translate(-37.15249 -35.81801)"/>
        </g>
        <g>
          <g>
            <path class="cls-21" d="M1450.53,1046.3286a3.40579,3.40579,0,0,1-2.8-1.4567q-3.88995-5.5599-7.9166-10.9966a3.412,3.412,0,1,1,5.4799-4.0666q4.09005,5.505,8.03,11.1499a3.41341,3.41341,0,0,1-2.7933,5.37Z" transform="translate(-37.15249 -35.81801)"/>
            <path class="cls-21" d="M1068.7455,1800.8543a3.41384,3.41384,0,0,1-.0867-6.8266c9.26-.23,18.6499-.7434,27.9132-1.52a3.412,3.412,0,0,1,.5733,6.7999c-9.3966.79-18.9232,1.31-28.3132,1.5467Zm-45.7164-1.06c-.08,0-.1634-.0033-.2467-.01-9.3799-.6667-18.8699-1.6267-28.2098-2.8533a3.40834,3.40834,0,0,1-2.94-3.8267,3.37208,3.37208,0,0,1,3.8266-2.94c9.2066,1.2067,18.5633,2.1534,27.8099,2.8134a3.41267,3.41267,0,0,1-.24,6.8166Zm119.166-6.4866a3.414,3.414,0,0,1-.6067-6.7733c9.1033-1.65,18.3032-3.6,27.3465-5.79a3.41256,3.41256,0,1,1,1.6067,6.6333c-9.17,2.2233-18.4999,4.2-27.7332,5.8766A3.48992,3.48992,0,0,1,1142.1951,1793.3077Zm71.4429-18.6766a3.41291,3.41291,0,0,1-1.11-6.64c8.7866-3.0233,17.5799-6.3433,26.1432-9.8599a3.41259,3.41259,0,1,1,2.5933,6.3133c-8.6833,3.57-17.6032,6.9333-26.5165,9.9999A3.40325,3.40325,0,0,1,1213.638,1774.6311Zm67.7563-29.2965a3.41366,3.41366,0,0,1-1.5967-6.4333c8.21-4.33,16.3932-8.9599,24.3199-13.7599a3.41284,3.41284,0,0,1,3.5333,5.84c-8.04,4.8699-16.3399,9.5666-24.6665,13.9599A3.42091,3.42091,0,0,1,1281.3943,1745.3346Zm62.4263-39.3964a3.41334,3.41334,0,0,1-2.0433-6.15c7.4499-5.5533,14.8099-11.3866,21.8798-17.3332a3.41132,3.41132,0,1,1,4.3933,5.2199c-7.1699,6.0367-14.6365,11.9533-22.1932,17.5866A3.39536,3.39536,0,0,1,1343.8206,1705.9382Zm55.5597-48.5264a3.41335,3.41335,0,0,1-2.4367-5.8033c6.4933-6.6233,12.8733-13.5233,18.9632-20.5099a3.41387,3.41387,0,0,1,5.1467,4.4866c-6.1767,7.0867-12.65,14.0866-19.2366,20.8032A3.40755,3.40755,0,0,1,1399.3803,1657.4118Zm47.4664-56.5064a3.41381,3.41381,0,0,1-2.77-5.3999c5.4133-7.5567,10.6632-15.3533,15.6099-23.1799a3.41426,3.41426,0,0,1,5.7733,3.6466c-5.02,7.9367-10.3466,15.8466-15.8366,23.5066A3.40924,3.40924,0,0,1,1446.8467,1600.9054Zm38.2897-63.1029a3.4141,3.4141,0,0,1-3.0399-4.9567c4.1899-8.2733,8.1932-16.7866,11.8966-25.2965a3.414,3.414,0,1,1,6.2599,2.7266c-3.7566,8.63-7.8166,17.2633-12.0699,25.6566A3.4088,3.4088,0,0,1,1485.1364,1537.8025Zm28.2265-68.233a3.37037,3.37037,0,0,1-1.06-.17,3.41052,3.41052,0,0,1-2.1833-4.3033c2.8733-8.8066,5.53-17.8299,7.89-26.8232a3.41185,3.41185,0,1,1,6.5999,1.7333c-2.3933,9.12-5.0866,18.2766-8.0032,27.2099A3.41282,3.41282,0,0,1,1513.3629,1469.5695Zm17.4433-71.7562a3.41029,3.41029,0,0,1-3.3733-3.96c1.4866-9.15,2.7233-18.4766,3.6699-27.7265a3.47058,3.47058,0,0,1,3.7434-3.05,3.41732,3.41732,0,0,1,3.0499,3.7433c-.9633,9.3833-2.2166,18.8466-3.7233,28.1265A3.41638,3.41638,0,0,1,1530.8062,1397.8133Zm6.1666-73.6063h-.0233a3.41351,3.41351,0,0,1-3.39-3.4366l.01-2.8467c.0033-8.3099-.22-16.7566-.6667-25.1065a3.41475,3.41475,0,1,1,6.82-.36c.45,8.4699.6767,17.0399.6733,25.4665l-.01,2.8933A3.415,3.415,0,0,1,1536.9728,1324.207Zm-5.2766-73.6529a3.41528,3.41528,0,0,1-3.3733-2.9067c-1.38-9.1899-3.0467-18.4499-4.9533-27.5131a3.4132,3.4132,0,1,1,6.6799-1.4067c1.9333,9.1966,3.6267,18.5832,5.0267,27.9065a3.41648,3.41648,0,0,1-2.87,3.8833A3.77752,3.77752,0,0,1,1531.6962,1250.5541Zm-16.4999-71.9796a3.41567,3.41567,0,0,1-3.26-2.4c-2.76-8.8799-5.81-17.7765-9.0666-26.4432a3.41446,3.41446,0,0,1,6.3933-2.4c3.2999,8.79,6.3933,17.8099,9.1932,26.8166a3.4142,3.4142,0,0,1-2.2466,4.2733A3.46321,3.46321,0,0,1,1515.1963,1178.5745Zm-27.2232-68.6263a3.40992,3.40992,0,0,1-3.07-1.9166c-4.0633-8.32-8.4399-16.6433-13.0033-24.7366a3.4135,3.4135,0,0,1,5.9467-3.3533c4.63,8.2133,9.0666,16.6566,13.1899,25.0966a3.40982,3.40982,0,0,1-1.57,4.5633A3.36643,3.36643,0,0,1,1487.9731,1109.9482Z" transform="translate(-37.15249 -35.81801)"/>
            <path class="cls-21" d="M949.7662,1788.7977a3.36018,3.36018,0,0,1-.7667-.0867q-6.705-1.5399-13.3466-3.2766a3.41346,3.41346,0,0,1,1.72-6.6067q6.5499,1.71,13.1533,3.23a3.41325,3.41325,0,0,1-.76,6.74Z" transform="translate(-37.15249 -35.81801)"/>
          </g>
          <g>
            <path class="cls-21" d="M648.8912,1573.3889a3.40445,3.40445,0,0,1-2.9066-1.62q-3.6051-5.835-7.0533-11.7999a3.41264,3.41264,0,1,1,5.9066-3.42q3.4,5.88,6.9533,11.6333a3.41293,3.41293,0,0,1-1.11,4.6966A3.37384,3.37384,0,0,1,648.8912,1573.3889Z" transform="translate(-37.15249 -35.81801)"/>
            <path class="cls-21" d="M621.2214,1521.6959a3.41281,3.41281,0,0,1-3.1067-1.99c-3.8633-8.4266-7.5266-17.0666-10.8933-25.6865a3.41381,3.41381,0,0,1,6.36-2.4833c3.3167,8.4966,6.93,17.0165,10.7399,25.3231a3.41246,3.41246,0,0,1-3.0999,4.8367Zm-25.2366-68.143a3.41087,3.41087,0,0,1-3.2766-2.47c-2.57-8.9466-4.9066-18.0365-6.94-27.0231a3.41415,3.41415,0,0,1,6.66-1.5067c2.0033,8.86,4.3066,17.8232,6.84,26.6432a3.41368,3.41368,0,0,1-2.3367,4.2233A3.45246,3.45246,0,0,1,595.9848,1453.5529Zm-14.7832-71.1496a3.4124,3.4124,0,0,1-3.38-2.9733c-1.1966-9.1766-2.1366-18.5165-2.7966-27.7598a3.40938,3.40938,0,0,1,3.1599-3.6467,3.36666,3.36666,0,0,1,3.6467,3.16c.6533,9.11,1.58,18.3199,2.7566,27.3665a3.408,3.408,0,0,1-2.9433,3.8233A3.33851,3.33851,0,0,1,581.2016,1382.4033Zm-3.85-72.5895h-.08a3.41668,3.41668,0,0,1-3.3333-3.4934c.2167-9.2399.7067-18.6232,1.46-27.8865a3.46058,3.46058,0,0,1,3.68-3.1266,3.41624,3.41624,0,0,1,3.1266,3.68c-.7433,9.1332-1.2266,18.3832-1.44,27.4931A3.4145,3.4145,0,0,1,577.3516,1309.8138Zm7.2366-72.3296a3.34276,3.34276,0,0,1-.6-.0534,3.41121,3.41121,0,0,1-2.7633-3.9566c1.6134-9.08,3.5233-18.2732,5.6767-27.3299a3.41265,3.41265,0,0,1,6.6399,1.58c-2.1233,8.9267-4.0033,17.9933-5.5966,26.9432A3.41461,3.41461,0,0,1,584.5882,1237.4842Zm18.1099-70.383a3.35424,3.35424,0,0,1-1.1-.1833,3.40912,3.40912,0,0,1-2.1299-4.33c2.9899-8.7999,6.2666-17.5999,9.7366-26.1498a3.4137,3.4137,0,0,1,6.3266,2.5666c-3.42,8.43-6.65,17.1033-9.6033,25.7832A3.41044,3.41044,0,0,1,602.6981,1167.1012Zm28.5032-66.8362a3.4128,3.4128,0,0,1-3.0266-4.9867c4.2566-8.2033,8.8166-16.4066,13.5466-24.3832a3.4151,3.4151,0,1,1,5.8732,3.4867c-4.6666,7.8633-9.1632,15.9532-13.3599,24.0432A3.41342,3.41342,0,0,1,631.2013,1100.265Zm38.2131-61.7864a3.413,3.413,0,0,1-2.7566-5.4233c5.4466-7.4799,11.1832-14.9032,17.0532-22.0632a3.41316,3.41316,0,0,1,5.28,4.3267c-5.7867,7.0599-11.4433,14.3799-16.8133,21.7565A3.41585,3.41585,0,0,1,669.4144,1038.4786Zm47.0564-55.323a3.41324,3.41324,0,0,1-2.4266-5.8166c6.4999-6.56,13.2866-13.0299,20.1765-19.2266a3.413,3.413,0,0,1,4.5667,5.0733c-6.7933,6.1133-13.4866,12.49-19.8899,18.9599A3.40943,3.40943,0,0,1,716.4708,983.1556Zm54.8664-47.5564a3.41354,3.41354,0,0,1-2.0367-6.1566c7.4366-5.51,15.1233-10.8733,22.8499-15.9332a3.41429,3.41429,0,0,1,3.74,5.7133c-7.6167,4.9866-15.1933,10.2699-22.5232,15.7065A3.41365,3.41365,0,0,1,771.3372,935.5992Zm61.453-38.6698a3.41365,3.41365,0,0,1-1.5967-6.4333c8.2066-4.3266,16.6299-8.4599,25.0399-12.2899a3.413,3.413,0,0,1,2.8266,6.2133c-8.2866,3.7733-16.5899,7.85-24.6798,12.1166A3.41969,3.41969,0,0,1,832.7902,896.9294Zm66.6329-28.9231a3.413,3.413,0,0,1-1.12-6.6367c7.7033-2.6733,15.6366-5.2033,23.5766-7.5232l3.0333-.8734a3.41252,3.41252,0,0,1,1.86,6.5667l-2.98.86c-7.8333,2.2866-15.6566,4.7833-23.2499,7.4166A3.3796,3.3796,0,0,1,899.4231,868.0063Zm70.2296-18.6433a3.41387,3.41387,0,0,1-.6233-6.7699c9.1033-1.6967,18.3765-3.1533,27.5632-4.3267a3.41426,3.41426,0,0,1,.8666,6.7733c-9.0599,1.1534-18.2032,2.59-27.1765,4.2667A3.72507,3.72507,0,0,1,969.6527,849.363Zm172.2324-.5599a3.41568,3.41568,0,0,1-.6067-.0534c-9.01-1.6233-18.1632-3-27.2032-4.09a3.41465,3.41465,0,1,1,.82-6.7799c9.17,1.11,18.4532,2.5033,27.5899,4.15a3.4135,3.4135,0,0,1-.6,6.7733Zm-99.9928-7.3133a3.41255,3.41255,0,0,1-.1067-6.8233c9.3066-.3067,18.6633-.3334,27.8999-.0934a3.41394,3.41394,0,0,1-.0867,6.8267h-.0933c-9.1-.24-18.3233-.2067-27.4999.0866C1041.969,841.4898,1041.9323,841.4898,1041.8923,841.4898Z" transform="translate(-37.15249 -35.81801)"/>
            <path class="cls-21" d="M1199.0781,862.7963a3.44062,3.44062,0,0,1-1.01-.1533q-6.465-2.00505-12.9966-3.8367a3.413,3.413,0,1,1,1.84-6.5733q6.62,1.8501,13.1766,3.89a3.41315,3.41315,0,0,1-1.01,6.6733Z" transform="translate(-37.15249 -35.81801)"/>
          </g>
          <g>
            <path class="cls-22" d="M1209.6682,982.2077a5.75883,5.75883,0,0,0-6.6611.5715l-53.3707,45.4222a305.25255,305.25255,0,0,0-97.9227-13.9272l-38.6062-58.4357a5.75771,5.75771,0,0,0-6.2387-2.4028l-81.4125,20.9401a5.76045,5.76045,0,0,0-4.3057,5.1137l-5.6179,69.8121a305.3022,305.3022,0,0,0-79.0489,59.4483l-68.6637-14.0309a5.75827,5.75827,0,0,0-6.1097,2.7115l-42.7599,72.3753a5.75637,5.75637,0,0,0,.572,6.6612l45.4212,53.3707a305.268,305.268,0,0,0-13.9263,97.9226l-58.4371,38.6067a5.75674,5.75674,0,0,0-2.4028,6.2382l20.9415,81.414a5.75712,5.75712,0,0,0,5.1147,4.3047l69.8121,5.6174a305.23346,305.23346,0,0,0,59.4474,79.049l-14.0324,68.6646a5.76021,5.76021,0,0,0,2.7129,6.1092l72.3749,42.7599a5.75738,5.75738,0,0,0,6.6616-.5725l53.3703-45.4212a305.24854,305.24854,0,0,0,97.9231,13.9277l38.6062,58.4372a5.75806,5.75806,0,0,0,6.2373,2.4023l81.4153-20.9411a5.75663,5.75663,0,0,0,4.3038-5.1147l5.6174-69.812a305.23449,305.23449,0,0,0,79.0499-59.4488l68.6628,14.0319a5.75592,5.75592,0,0,0,6.1106-2.7125l42.7599-72.3749a5.75972,5.75972,0,0,0-.572-6.6611l-45.4207-53.3707a305.25724,305.25724,0,0,0,13.9258-97.9227l58.4381-38.6067a5.75592,5.75592,0,0,0,2.4013-6.2372l-20.941-81.413a5.75976,5.75976,0,0,0-5.1138-4.3062l-69.812-5.6174a305.32116,305.32116,0,0,0-59.4479-79.0485l14.0309-68.6637a5.75823,5.75823,0,0,0-2.7124-6.1111Z" transform="translate(-37.15249 -35.81801)"/>
            <path class="cls-5" d="M1058.2189,1401.1666a80.11067,80.11067,0,0,1-22.6399-3.2833,79.76309,79.76309,0,0,1-15.6432-146.5525h0a79.76382,79.76382,0,1,1,38.2831,149.8358Zm-.2267-149.3125a69.07313,69.07313,0,0,0-33.1565,8.4699h0a69.54848,69.54848,0,1,0,33.1565-8.4699Zm-35.6065,3.9733h0Z" transform="translate(-37.15249 -35.81801)"/>
            <path class="cls-5" d="M1057.3589,1530.9625c-92.6228,0-177.319-62.4297-201.4355-156.1791a207.83175,207.83175,0,0,1-6.58-51.7497c-.01-92.6328,62.423-177.349,156.1791-201.4655q8.8149-2.265,17.7732-3.76c.1367-.0233.2767-.0467.4167-.07h.0033c.0834-.0133.1634-.0267.2467-.04l.0167-.0033q10.00485-1.635,20.0832-2.2934,2.62995-.1749,5.2666-.2766l.4,10.2332a198.98275,198.98275,0,0,0-41.6564,6.13h.0033a196.35563,196.35563,0,0,0-118.7793,87.2762q-1.115,1.80495-2.1967,3.6366a196.51618,196.51618,0,0,0-27.5731,100.2161,198.88826,198.88826,0,0,0,6.3166,49.6131c27.1565,105.5894,135.1659,169.389,240.742,142.2325,89.1395-22.9265,148.5024-103.4728,148.4891-191.5423a198.10342,198.10342,0,0,0-58.683-140.5425l7.1933-7.2866a208.327,208.327,0,0,1,61.733,147.8258c.01,92.6328-62.423,177.349-156.1791,201.4655A207.73806,207.73806,0,0,1,1057.3589,1530.9625Z" transform="translate(-37.15249 -35.81801)"/>
          </g>
        </g>
        <g>
          <g>
            <path class="cls-6" d="M1724.1451,741.2837a3.41435,3.41435,0,0,1-2.86-1.5434c-2.4367-3.7266-5.0233-7.4366-7.69-11.0299a3.412,3.412,0,0,1,5.48-4.0666c2.7467,3.6999,5.4133,7.5199,7.9233,11.3566a3.413,3.413,0,0,1-2.8533,5.2833Z" transform="translate(-37.15249 -35.81801)"/>
            <path class="cls-6" d="M1528.9029,1102.4216h-.0867l-.9567-.0033a3.41369,3.41369,0,0,1-3.3766-3.45,3.33614,3.33614,0,0,1,3.45-3.3767l.8833.0034h.0833a228.52373,228.52373,0,0,0,25.9099-1.4833,3.41231,3.41231,0,0,1,.78,6.7799A234.48163,234.48163,0,0,1,1528.9029,1102.4216Zm69.7262-10.7266a3.41268,3.41268,0,0,1-1.0166-6.67,232.33288,232.33288,0,0,0,25.2031-9.5166,3.41257,3.41257,0,1,1,2.78,6.2333,238.10257,238.10257,0,0,1-25.9498,9.7966A3.36429,3.36429,0,0,1,1598.6291,1091.695Zm64.203-31.5232a3.41361,3.41361,0,0,1-1.9633-6.2099,228.69223,228.69223,0,0,0,21.0965-16.7166,3.41373,3.41373,0,1,1,4.5467,5.0933,236.25607,236.25607,0,0,1-21.7233,17.2166A3.40687,3.40687,0,0,1,1662.8321,1060.1718Zm51.533-49.553a3.41334,3.41334,0,0,1-2.7133-5.48,231.38384,231.38384,0,0,0,15.0499-22.3465,3.41343,3.41343,0,1,1,5.8733,3.48,238.60868,238.60868,0,0,1-15.4899,22.9998A3.40965,3.40965,0,0,1,1714.3651,1010.6188Zm34.1698-62.8396a3.41226,3.41226,0,0,1-3.2133-4.5667,230.187,230.187,0,0,0,7.61-25.8498,3.4146,3.4146,0,1,1,6.6533,1.54,238.33022,238.33022,0,0,1-7.8367,26.6165A3.41419,3.41419,0,0,1,1748.5349,947.7792Zm13.5666-70.243c-.0433,0-.0833,0-.1266-.0033a3.41,3.41,0,0,1-3.2867-3.5333q.14505-4.09995.1467-8.2166c-.0034-6.25-.2634-12.5566-.7734-18.7399a3.41485,3.41485,0,0,1,6.8067-.56c.5233,6.3699.79,12.8599.7933,19.2965q0,4.245-.1533,8.4666A3.41378,3.41378,0,0,1,1762.1015,877.5362Zm-8.4733-71.0596a3.41339,3.41339,0,0,1-3.2833-2.49l-.7533-2.6399a234.1813,234.1813,0,0,0-7.9733-22.8666,3.41317,3.41317,0,0,1,6.32-2.58,240.2025,240.2025,0,0,1,8.2066,23.5332l.7733,2.7067a3.41183,3.41183,0,0,1-3.29,4.3366Z" transform="translate(-37.15249 -35.81801)"/>
            <path class="cls-6" d="M1483.5831,1097.9616a3.34525,3.34525,0,0,1-.6733-.0666c-4.5467-.91-9.0833-1.95-13.4866-3.0967a3.41341,3.41341,0,1,1,1.72-6.6066c4.2766,1.1133,8.6866,2.1266,13.1066,3.01a3.41317,3.41317,0,0,1-.6667,6.7599Z" transform="translate(-37.15249 -35.81801)"/>
          </g>
          <g>
            <path class="cls-6" d="M1330.434,991.7489a3.40474,3.40474,0,0,1-2.9067-1.62c-2.4-3.8833-4.7299-7.9199-6.9233-11.9933a3.41238,3.41238,0,0,1,6.0067-3.2399c2.1333,3.9566,4.3966,7.8766,6.7233,11.6466a3.4137,3.4137,0,0,1-2.9,5.2066Z" transform="translate(-37.15249 -35.81801)"/>
            <path class="cls-6" d="M1306.5875,939.6992a3.41415,3.41415,0,0,1-3.2534-2.38q-.855-2.685-1.6433-5.41c-2.0133-6.9066-3.7333-13.9832-5.1166-21.0298a3.41371,3.41371,0,1,1,6.6999-1.3134c1.3434,6.8467,3.0167,13.7233,4.97,20.4366q.77,2.64495,1.5967,5.25a3.413,3.413,0,0,1-3.2533,4.4466Zm-10.9966-69.5196a3.41368,3.41368,0,0,1-3.4134-3.3833l-.0033-1.2333a236.51647,236.51647,0,0,1,1.4467-26.0466,3.475,3.475,0,0,1,3.7699-3.0166,3.41713,3.41713,0,0,1,3.0167,3.77,229.49623,229.49623,0,0,0-1.4067,25.2932l.0034,1.1733a3.41372,3.41372,0,0,1-3.3833,3.4433Zm10.3266-69.6296a3.41,3.41,0,0,1-3.2634-4.42,237.67418,237.67418,0,0,1,9.53-25.5732,3.4119,3.4119,0,1,1,6.2466,2.7467,230.45494,230.45494,0,0,0-9.2499,24.8398A3.41564,3.41564,0,0,1,1305.9175,800.55Zm30.5965-63.3763a3.413,3.413,0,0,1-2.8134-5.3433,238.44319,238.44319,0,0,1,16.6799-21.5866,3.41419,3.41419,0,0,1,5.1533,4.48,230.23332,230.23332,0,0,0-16.1999,20.9666A3.4113,3.4113,0,0,1,1336.514,737.1737Zm48.043-51.403a3.41326,3.41326,0,0,1-2.1166-6.0933,235.04522,235.04522,0,0,1,22.3832-15.62,3.41185,3.41185,0,0,1,3.5733,5.8133,229.39692,229.39692,0,0,0-21.7299,15.1666A3.39848,3.39848,0,0,1,1384.557,685.7707Zm61.233-34.6565a3.41317,3.41317,0,0,1-1.2133-6.6033c5.9166-2.25,12.0066-4.29,18.1032-6.0633q3.94995-1.15,7.91-2.16a3.41249,3.41249,0,0,1,1.6866,6.6133q-3.8499.98-7.6899,2.1c-5.92,1.7266-11.8366,3.7066-17.5833,5.8899A3.37726,3.37726,0,0,1,1445.79,651.1142Zm68.7829-14.9066a3.41334,3.41334,0,0,1-.21-6.82,236.574,236.574,0,0,1,27.2932-.1233,3.4167,3.4167,0,0,1,3.23,3.59,3.37067,3.37067,0,0,1-3.59,3.23,229.67253,229.67253,0,0,0-26.5065.1166C1514.7163,636.2043,1514.6463,636.2076,1514.5729,636.2076Z" transform="translate(-37.15249 -35.81801)"/>
            <path class="cls-6" d="M1597.9491,646.2375a3.44686,3.44686,0,0,1-1.0133-.1533c-4.2566-1.3266-8.6133-2.54-12.9466-3.6133a3.41326,3.41326,0,0,1,1.64-6.6266c4.4633,1.1033,8.9499,2.3566,13.3333,3.7199a3.41353,3.41353,0,0,1-1.0134,6.6733Z" transform="translate(-37.15249 -35.81801)"/>
          </g>
          <g>
            <path class="cls-23" d="M1603.0996,702.5433a2.80045,2.80045,0,0,0-3.2388.2777l-25.9503,22.086a148.42484,148.42484,0,0,0-47.6134-6.772l-18.7717-28.4133a2.79953,2.79953,0,0,0-3.0334-1.1684l-39.5853,10.1817a2.80133,2.80133,0,0,0-2.0935,2.4865l-2.7316,33.9451a148.44919,148.44919,0,0,0-38.4364,28.9055l-33.3864-6.8222a2.79957,2.79957,0,0,0-2.9705,1.3185l-20.7914,35.1913a2.7987,2.7987,0,0,0,.2782,3.2387l22.0851,25.9504a148.42589,148.42589,0,0,0-6.7711,47.6134l-28.4142,18.7717a2.79947,2.79947,0,0,0-1.1684,3.0334l10.1826,39.5862a2.7992,2.7992,0,0,0,2.487,2.093l33.9446,2.7312a148.424,148.424,0,0,0,28.9055,38.4363l-6.8232,33.3869a2.80163,2.80163,0,0,0,1.3191,2.9705l35.1912,20.7914a2.79957,2.79957,0,0,0,3.2392-.2787l25.9499-22.0851a148.43593,148.43593,0,0,0,47.6134,6.772l18.7717,28.4143a2.80028,2.80028,0,0,0,3.033,1.1679l39.5866-10.1822a2.79867,2.79867,0,0,0,2.0925-2.4869l2.7317-33.9451a148.39738,148.39738,0,0,0,38.4364-28.9059l33.3859,6.8231a2.8,2.8,0,0,0,2.9714-1.319l20.7914-35.1913a2.80085,2.80085,0,0,0-.2782-3.2387l-22.0851-25.9504a148.43539,148.43539,0,0,0,6.7711-47.6134l28.4147-18.7717a2.79961,2.79961,0,0,0,1.1675-3.0329l-10.1822-39.5853a2.80088,2.80088,0,0,0-2.4865-2.0939l-33.945-2.7312a148.45142,148.45142,0,0,0-28.9055-38.4364l6.8222-33.3863a2.79964,2.79964,0,0,0-1.3186-2.9715Z" transform="translate(-37.15249 -35.81801)"/>
            <path class="cls-6" d="M1529.4628,908.886a41.58812,41.58812,0,0,1-11.7532-1.7066,41.15272,41.15272,0,1,1,11.7532,1.7066Zm-.1-72.6195a31.25652,31.25652,0,1,0,8.85,1.2833A31.01685,31.01685,0,0,0,1529.3628,836.2665Z" transform="translate(-37.15249 -35.81801)"/>
            <path class="cls-6" d="M1528.8495,972.0257a103.86766,103.86766,0,0,1-100.2994-77.9429,104.51508,104.51508,0,0,1-3.3133-26.0365,103.89366,103.89366,0,0,1,98.5861-103.4461c.16-.01.32-.0167.48-.0233.2433-.0134.4866-.0234.73-.0334l.4,10.2333a93.59233,93.59233,0,0,0-88.1095,111.7394q.5,2.50995,1.1466,5.0133a93.5072,93.5072,0,1,0,156.3258-89.7862l7.1933-7.2866a103.84159,103.84159,0,0,1-73.1396,177.569Z" transform="translate(-37.15249 -35.81801)"/>
          </g>
        </g>
        <g>
          <g>
            <path class="cls-21" d="M2363.5114,794.9967a3.40677,3.40677,0,0,1-2.8233-1.49c-2.5433-3.73-5.18-7.4333-7.8333-11.0099a3.41205,3.41205,0,0,1,5.48-4.0667c2.7066,3.6467,5.3966,7.4233,7.9933,11.23a3.41326,3.41326,0,0,1-2.8167,5.3366Z" transform="translate(-37.15249 -35.81801)"/>
            <path class="cls-21" d="M2071.8398,1341.1536h-.03c-9.1367-.08-18.3999-.5267-27.5332-1.33a3.41321,3.41321,0,1,1,.6-6.8c8.9533.7867,18.0365,1.2267,26.9932,1.3033a3.41342,3.41342,0,0,1-.03,6.8267Zm44.2664-2.44a3.41377,3.41377,0,0,1-.4034-6.8033c8.8867-1.06,17.8699-2.4933,26.6966-4.2533a3.4124,3.4124,0,0,1,1.3333,6.6933c-9,1.7966-18.1566,3.2566-27.2165,4.34A3.47386,3.47386,0,0,1,2116.1062,1338.7136Zm69.8096-15.6933a3.41279,3.41279,0,0,1-1.08-6.6499c8.5066-2.84,17.0099-6.05,25.2732-9.5433a3.41308,3.41308,0,1,1,2.6599,6.2866c-8.4266,3.5633-17.0965,6.8367-25.7731,9.73A3.39288,3.39288,0,0,1,2185.9158,1323.0203Zm65.1696-29.4531a3.41328,3.41328,0,0,1-1.72-6.3633c7.75-4.5133,15.4166-9.3933,22.7899-14.5066a3.41375,3.41375,0,0,1,3.8866,5.6133c-7.5166,5.21-15.3366,10.1866-23.2432,14.7932A3.40377,3.40377,0,0,1,2251.0854,1293.5672Zm57.733-42.1631a3.4133,3.4133,0,0,1-2.2867-5.9466c6.6567-6.0033,13.1633-12.3533,19.3399-18.8733a3.41183,3.41183,0,1,1,4.9533,4.6933c-6.2966,6.65-12.9332,13.1266-19.7198,19.2466A3.39763,3.39763,0,0,1,2308.8184,1251.4041Zm47.9031-53.0997a3.41342,3.41342,0,0,1-2.75-5.43c5.2899-7.2299,10.3699-14.7732,15.0966-22.4132a3.41425,3.41425,0,0,1,5.8066,3.5933c-4.82,7.79-10,15.4766-15.3966,22.8532A3.40169,3.40169,0,0,1,2356.7215,1198.3044Zm36.1364-61.7297a3.41212,3.41212,0,0,1-3.1033-4.8299c3.7167-8.1466,7.1633-16.5599,10.2433-25.0099a3.41343,3.41343,0,0,1,6.4133,2.34c-3.14,8.6133-6.6533,17.1932-10.4433,25.5032A3.41469,3.41469,0,0,1,2392.8579,1136.5747Zm22.8732-67.7862a3.45918,3.45918,0,0,1-.7566-.0834,3.41439,3.41439,0,0,1-2.5767-4.0833c1.9833-8.7433,3.6433-17.6832,4.9366-26.5698a3.36809,3.36809,0,0,1,3.8667-2.8867,3.40922,3.40922,0,0,1,2.8866,3.8667c-1.3166,9.0666-3.0099,18.1832-5.0299,27.0965A3.41378,3.41378,0,0,1,2415.7311,1068.7885Zm8.54-71.0396h-.0367a3.4171,3.4171,0,0,1-3.3766-3.4667c.03-1.87.0466-3.7366.0466-5.6099.0034-7.1067-.22-14.3166-.6666-21.4299a3.41332,3.41332,0,0,1,6.8133-.4267c.4533,7.2566.6833,14.6099.68,21.8566q0,2.8599-.0467,5.7166A3.41541,3.41541,0,0,1,2424.2711,997.7489Zm-6.2133-71.2863a3.41638,3.41638,0,0,1-3.35-2.77c-1.6967-8.8233-3.7566-17.6832-6.1266-26.3298a3.41406,3.41406,0,1,1,6.5866-1.8c2.4133,8.8133,4.5133,17.8432,6.2466,26.8432a3.41652,3.41652,0,0,1-2.71,3.9966A3.5636,3.5636,0,0,1,2418.0578,926.4626Zm-20.5332-68.5363a3.41461,3.41461,0,0,1-3.1534-2.1066c-3.4366-8.2933-7.2399-16.5533-11.3099-24.5499a3.41377,3.41377,0,1,1,6.0866-3.0933c4.1467,8.1533,8.0267,16.5732,11.53,25.0299a3.41332,3.41332,0,0,1-3.1533,4.7199Z" transform="translate(-37.15249 -35.81801)"/>
            <path class="cls-21" d="M2000.5802,1333.107a3.4569,3.4569,0,0,1-.7334-.08c-4.4699-.9767-8.9766-2.0567-13.3999-3.21a3.41346,3.41346,0,0,1,1.72-6.6067c4.3366,1.13,8.7566,2.19,13.1399,3.15a3.41293,3.41293,0,0,1-.7266,6.7467Z" transform="translate(-37.15249 -35.81801)"/>
          </g>
          <g>
            <path class="cls-21" d="M1777.9848,1175.5212a3.41763,3.41763,0,0,1-2.91-1.62c-2.44-3.96-4.7967-7.9533-7.0066-11.8699a3.41345,3.41345,0,1,1,5.9466-3.3533c2.1666,3.8399,4.4766,7.7566,6.8733,11.6366a3.41233,3.41233,0,0,1-2.9033,5.2066Z" transform="translate(-37.15249 -35.81801)"/>
            <path class="cls-21" d="M1752.0349,1124.5015a3.41565,3.41565,0,0,1-3.16-2.12c-3.3966-8.31-6.5233-16.8799-9.2966-25.4765a3.41439,3.41439,0,0,1,6.5-2.0934c2.7166,8.43,5.7866,16.8366,9.1166,24.9832a3.41218,3.41218,0,0,1-3.16,4.7067Zm-20.0265-67.493a3.41389,3.41389,0,0,1-3.35-2.7733c-1.6867-8.8366-3.0533-17.8566-4.0633-26.8098a3.41489,3.41489,0,1,1,6.7866-.7667c.99,8.7833,2.33,17.6299,3.9833,26.2965a3.41467,3.41467,0,0,1-2.7133,3.9933A3.52881,3.52881,0,0,1,1732.0084,1057.0085Zm-6.1533-70.1429h-.0467a3.41387,3.41387,0,0,1-3.3667-3.46c.1267-9.0033.61-18.1165,1.4334-27.0865a3.41436,3.41436,0,1,1,6.7999.6267c-.81,8.7933-1.2833,17.7299-1.4066,26.5532A3.41458,3.41458,0,0,1,1725.8551,986.8656Zm8.1399-69.9263a3.53543,3.53543,0,0,1-.74-.08,3.41319,3.41319,0,0,1-2.5966-4.0699c1.9366-8.7733,4.2466-17.5999,6.8633-26.2332a3.41337,3.41337,0,1,1,6.5333,1.98c-2.5667,8.4666-4.83,17.1199-6.73,25.7265A3.41425,3.41425,0,0,1,1733.995,916.9393Zm22.0199-66.8596a3.34537,3.34537,0,0,1-1.3833-.2967,3.40934,3.40934,0,0,1-1.73-4.5033c3.67-8.2466,7.6966-16.4332,11.9666-24.3332a3.414,3.414,0,0,1,6.0066,3.2467c-4.19,7.7466-8.1366,15.7766-11.7399,23.8599A3.40507,3.40507,0,0,1,1756.0149,850.0797Zm34.9231-61.1096a3.41287,3.41287,0,0,1-2.7766-5.3967c5.2399-7.3399,10.8166-14.5599,16.5799-21.4532a3.41471,3.41471,0,1,1,5.2399,4.38c-5.6533,6.76-11.1232,13.8366-16.2599,21.0399A3.41116,3.41116,0,0,1,1790.938,788.9701Zm46.4164-52.8897a3.41339,3.41339,0,0,1-2.3266-5.9133c6.5899-6.13,13.5032-12.0833,20.5465-17.6899a3.4134,3.4134,0,1,1,4.2533,5.3399c-6.9066,5.5-13.6866,11.3366-20.1465,17.3499A3.41686,3.41686,0,0,1,1837.3544,736.0804Zm56.1197-42.4731a3.41338,3.41338,0,0,1-1.7767-6.33c7.7033-4.6833,15.6766-9.1166,23.6999-13.1766a3.41375,3.41375,0,1,1,3.08,6.0933c-7.8633,3.98-15.6799,8.3233-23.2332,12.9166A3.39838,3.39838,0,0,1,1893.4741,693.6073Zm63.523-30.2799a3.41314,3.41314,0,0,1-1.15-6.6266c6.7233-2.4066,13.6366-4.6533,20.5532-6.6699q2.655-.775,5.3033-1.5034a3.415,3.415,0,0,1,1.8067,6.5867q-2.6001.70995-5.1967,1.4699c-6.7866,1.98-13.5699,4.18-20.1665,6.5433A3.38293,3.38293,0,0,1,1956.9971,663.3274Zm68.2996-17.0399a3.41269,3.41269,0,0,1-.4867-6.7899c8.9-1.2967,17.9733-2.2567,26.9665-2.8633a3.41441,3.41441,0,1,1,.46,6.8133c-8.8199.59-17.7165,1.5366-26.4465,2.8033A3.10794,3.10794,0,0,1,2025.2967,646.2875Zm97.0694-.3866a3.16123,3.16123,0,0,1-.4666-.0334c-8.7533-1.1999-17.6566-2.0733-26.4665-2.5933a3.40986,3.40986,0,0,1-3.2067-3.6066,3.46564,3.46564,0,0,1,3.6066-3.2067c8.9867.53,18.0666,1.42,26.9932,2.6433a3.41432,3.41432,0,0,1-.46,6.7967Z" transform="translate(-37.15249 -35.81801)"/>
            <path class="cls-21" d="M2178.3991,658.3641a3.44047,3.44047,0,0,1-1.0099-.1533c-4.3267-1.34-8.6933-2.6066-12.98-3.7566a3.41295,3.41295,0,1,1,1.7667-6.5933c4.3766,1.1733,8.8266,2.4633,13.2332,3.8299a3.41313,3.41313,0,0,1-1.01,6.6733Z" transform="translate(-37.15249 -35.81801)"/>
          </g>
          <g>
            <path class="cls-24" d="M2186.1058,744.3419a4.19129,4.19129,0,0,0-4.8478.4159l-38.8421,33.0574a222.15958,222.15958,0,0,0-71.2662-10.136l-28.0968-42.5283a4.19037,4.19037,0,0,0-4.5404-1.7487l-59.2504,15.2398a4.19213,4.19213,0,0,0-3.1336,3.7217l-4.0886,50.8078a222.194,222.194,0,0,0-57.5303,43.2653l-49.972-10.2114a4.19063,4.19063,0,0,0-4.4465,1.9733l-31.1199,52.6734a4.18925,4.18925,0,0,0,.4164,4.8478l33.0566,38.8421a222.17065,222.17065,0,0,0-10.1353,71.2662l-42.5294,28.0972a4.18955,4.18955,0,0,0-1.7486,4.54l15.2408,59.2515a4.1898,4.1898,0,0,0,3.7224,3.1329l50.8078,4.0882a222.14342,222.14342,0,0,0,43.2646,57.5303l-10.2125,49.9728a4.19214,4.19214,0,0,0,1.9744,4.4461l52.673,31.1198a4.19014,4.19014,0,0,0,4.8482-.4166l38.8418-33.0567a222.15644,222.15644,0,0,0,71.2665,10.1363l28.0969,42.5294a4.1907,4.1907,0,0,0,4.5393,1.7484l59.2525-15.2405a4.1895,4.1895,0,0,0,3.1322-3.7224l4.0883-50.8078a222.14357,222.14357,0,0,0,57.5309-43.2657l49.9714,10.2121a4.189,4.189,0,0,0,4.4472-1.974l31.1198-52.673a4.192,4.192,0,0,0-.4163-4.8479l-33.0563-38.8421a222.15575,222.15575,0,0,0,10.1349-71.2662l42.5301-28.0972a4.18892,4.18892,0,0,0,1.7476-4.5393l-15.2404-59.2507a4.1919,4.1919,0,0,0-3.7217-3.134l-50.8079-4.0882a222.20236,222.20236,0,0,0-43.2649-57.5299l10.2114-49.9721a4.19081,4.19081,0,0,0-1.974-4.4475Z" transform="translate(-37.15249 -35.81801)"/>
            <path class="cls-5" d="M2075.8864,1050.6452a59.72447,59.72447,0,0,1-16.8732-2.4466,59.444,59.444,0,0,1-11.6566-109.2194h0a59.444,59.444,0,1,1,28.5298,111.666Zm-.15-108.6993a48.91538,48.91538,0,0,0-23.4799,6.0266h0a49.19629,49.19629,0,1,0,37.4465-4A49.48862,49.48862,0,0,0,2075.7364,941.9459Zm-25.9299,1.5299h0Z" transform="translate(-37.15249 -35.81801)"/>
            <path class="cls-5" d="M2075.2597,1145.1047c-68.0296.0033-130.2392-45.8531-147.9525-114.7094a153.71823,153.71823,0,0,1-4.8766-38.3297,152.9259,152.9259,0,0,1,114.756-147.6492h0c.35-.09.7-.1767,1.0533-.2667a153.73451,153.73451,0,0,1,29.6599-4.3999c.17-.01.34-.0167.51-.0267.3166-.0133.63-.0267.9466-.04l.4067,10.2333a143.1307,143.1307,0,0,0-30.0232,4.42,142.67313,142.67313,0,0,0-107.066,137.7492,143.42071,143.42071,0,0,0,4.5533,35.7564,142.4991,142.4991,0,0,0,173.509,102.5128c64.2463-16.5233,107.0327-74.5729,107.0227-138.0459a142.79174,142.79174,0,0,0-42.2964-101.2961l7.1933-7.2866a152.98091,152.98091,0,0,1,45.3431,108.5794c.01,68.0329-45.8464,130.2559-114.7094,147.9691A152.673,152.673,0,0,1,2075.2597,1145.1047Z" transform="translate(-37.15249 -35.81801)"/>
          </g>
        </g>
        <g>
          <g>
            <g>
              <path class="cls-25" d="M2847.6683,3115.8476a388.32085,388.32085,0,0,1,4.6723,40.6789,17.51989,17.51989,0,0,1-15.7899,18.493c-32.6672,3.1683-107.025,9.0185-154.5046,2.1671a7.96851,7.96851,0,0,1-4.3764-13.7099c19.5778-18.2402,66.8567-53.7189,144.676-61.4749Z" transform="translate(-37.15249 -35.81801)"/>
              <path class="cls-26" d="M2863.9077,3073.9226l-16.5157,40.4827a13.48776,13.48776,0,0,1-13.8509,8.3729,73.53449,73.53449,0,0,1-13.4915-2.6132,17.728,17.728,0,0,1-11.7878-22.0422l12.4654-41.6966Z" transform="translate(-37.15249 -35.81801)"/>
              <path class="cls-27" d="M3146.2803,3148.0903s-33.0728,27.6717-45.9592,63.1676c-3.5444,9.763,3.9468,20.0474,14.3333,20.0474h68.0599a16.05077,16.05077,0,0,0,15.8634-18.7707C3194.2416,3188.0234,3181.7406,3148.1926,3146.2803,3148.0903Z" transform="translate(-37.15249 -35.81801)"/>
              <path class="cls-28" d="M3187.2512,3112.0765s-6.6801,29.5688-11.8158,49.1101a6.2482,6.2482,0,0,1-8.1707,4.2583c-10.3004-3.6821-18.6807-5.3107-24.7738-4.4934a4.82027,4.82027,0,0,1-5.3125-4.8065l-.6401-49.1125Z" transform="translate(-37.15249 -35.81801)"/>
              <path class="cls-29" d="M3011.3543,2446.719l-201.168,613.7122s38.5856,25.2693,56.9678,24.2169l238.9418-493.2177s41.8127,303.9036,21.5522,522.0835l68.4392,5.2214s111.2841-557.5595,26.9944-748.5273Z" transform="translate(-37.15249 -35.81801)"/>
              <path class="cls-30" d="M3104.803,2586.1285a2.15348,2.15348,0,0,0,.2454-.0152,1.94813,1.94813,0,0,0,1.6892-2.1762l-7.8068-61.9636a1.94793,1.94793,0,1,0-3.8653.487l7.8068,61.9636A1.94705,1.94705,0,0,0,3104.803,2586.1285Z" transform="translate(-37.15249 -35.81801)"/>
            </g>
            <path class="cls-31" d="M2973.6391,1906.6833s162.9844,14.4727,139.929,130.603c0,0,90.0938,169.5466,132.2149,369.27a11.74374,11.74374,0,0,1-9.5296,13.9587l-271.4236,46.4728a14.61141,14.61141,0,0,1-16.6115-10.7418l-64.8521-250.6402-25.2715,116.5317-80.2984-20.9224,67.5982-342.4247S2854.8245,1908.83,2973.6391,1906.6833Z" transform="translate(-37.15249 -35.81801)"/>
            <path class="cls-5" d="M2881.9858,2194.3952a2.01767,2.01767,0,0,0,1.9771-2.4507l-22.6251-103.8872a2.02154,2.02154,0,0,0-3.9505.8603l22.6252,103.8872A2.0234,2.0234,0,0,0,2881.9858,2194.3952Z" transform="translate(-37.15249 -35.81801)"/>
            <path class="cls-32" d="M2898.369,2503.5351a38.748,38.748,0,0,1,28.0277-3.6456l18.884,4.7004a6.84265,6.84265,0,0,0,8.4531-5.876l19.5426-173.9411c24.4353,11.6034,59.6876,10.2171,71.3131,9.3675l-44.9785,205.0629H2842.213Z" transform="translate(-37.15249 -35.81801)"/>
            <path class="cls-33" d="M2480.1657,2126.2376l4.758-15.8112a31.27615,31.27615,0,0,1,18.2796-20.0045l86.044-34.6019s1.2988-11.0349-18.1802-18.5338c-19.4789-7.4986-14.9254-29.3145-14.9254-29.3145s26.6128,12.1399,65.5707,31.3932c22.2814,11.0113,34.7815,30.4517,41.4103,45.0859l194.9721,237.6866-22.8911,15.7285a61.11483,61.11483,0,0,1-88.6068-21.7455L2640.974,2113.5801C2587.9438,2129.5108,2534.283,2132.5566,2480.1657,2126.2376Z" transform="translate(-37.15249 -35.81801)"/>
            <g>
              <path class="cls-34" d="M2920.8385,1795.8017l50.1295,140.2993s-44.3896,34.7033-76.783,22.9693l-25.261-80.423S2888.2171,1780.3543,2920.8385,1795.8017Z" transform="translate(-37.15249 -35.81801)"/>
              <g>
                <path class="cls-35" d="M2771.2263,1745.4151c0,2.162,48.2885,136.6983,48.2885,136.6983l76.2323-29.2047-26.8231-134.3122S2771.2263,1709.2216,2771.2263,1745.4151Z" transform="translate(-37.15249 -35.81801)"/>
                <path class="cls-36" d="M2855.5519,1751.3179l19.657,69.5987a9.97182,9.97182,0,0,1,.382,2.7191c.0076,5.6769-1.3977,25.2091-21.294,22.5525-18.0536-2.4105-34.5655-4.3416-45.0653.6033a10.0928,10.0928,0,0,0-5.2078,12.5497c4.3906,12.2224,14.7935,39.5815,27.4582,61.9721a10.074,10.074,0,0,0,12.9586,4.1492c14.3173-6.514,44.129-21.0968,65.364-38.4467a10.10447,10.10447,0,0,0,3.5746-9.7006c-3.3406-17.8041-13.2927-71.9545-13.7319-87.473-.4122-14.5658,15.9324-25.6856,23.128-29.8656a9.92672,9.92672,0,0,0,4.6765-6.2794c2.2584-9.3754,4.1756-30.5933-22.8894-35.2694a10.11675,10.11675,0,0,1-8.2074-12.0327c2.2905-11.2125,1.5579-27.7131-19.7347-33.7902-21.6422-6.1768-35.2602,6.8502-42.1866,16.8395a10.10865,10.10865,0,0,1-12.5284,3.3441c-2.5546-1.1415-5.6409-1.1916-8.9574,1.6045a9.9509,9.9509,0,0,1-14.557-2.2142c-6.3103-9.2893-17.7751-18.5609-37.1844-12.2812-34.4408,11.1432-32.7941,50.8524-20.1695,72.4395s49.2781,7.3829,66.6296-6.922c13.1928-10.8763,33.2806-4.37,42.1519-.6264A10.0176,10.0176,0,0,1,2855.5519,1751.3179Z" transform="translate(-37.15249 -35.81801)"/>
                <path class="cls-37" d="M2906.552,1815.2547s-20.3833-38.5585-6.9047-50.6667,36.3152-10.1266,35.7009,20.0253C2934.584,1822.1186,2906.552,1815.2547,2906.552,1815.2547Z" transform="translate(-37.15249 -35.81801)"/>
              </g>
            </g>
            <path class="cls-5" d="M3028.7731,2336.7507a195.45116,195.45116,0,0,0,19.9219-.9393l1.4463-.1618,59.3472-276.6996a2.02025,2.02025,0,0,0-3.9504-.8485l-58.7315,273.8286c-8.8323.7754-55.9966,3.907-80.895-13.7318l51.4108-240.3979-10.7305-20.2218a2.02138,2.02138,0,0,0-3.5715,1.8943l10.0438,18.9234-51.6476,241.5029,1.032.7755C2980.4386,2334.1914,3009.4176,2336.7507,3028.7731,2336.7507Z" transform="translate(-37.15249 -35.81801)"/>
          </g>
          <g>
            <path class="cls-5" d="M2951.9763,3255a10.83563,10.83563,0,0,0,4.613-1.0423c5.9292-2.7841,8.6685-10.2875,6.1176-16.759l-245.117-621.9418c-2.5491-6.4694-9.4199-9.4571-15.3549-6.6771-5.9293,2.7842-8.6685,10.2876-6.1176,16.7591l245.117,621.9418A11.70512,11.70512,0,0,0,2951.9763,3255Z" transform="translate(-37.15249 -35.81801)"/>
            <path class="cls-5" d="M2675.8414,3255a11.7022,11.7022,0,0,0,10.7419-7.7193l245.117-621.9418c2.551-6.4715-.1883-13.9749-6.1176-16.7591-5.9254-2.7841-12.802.2035-15.3548,6.6771l-245.1171,621.9418c-2.5509,6.4715.1884,13.9749,6.1176,16.759A10.82939,10.82939,0,0,0,2675.8414,3255Z" transform="translate(-37.15249 -35.81801)"/>
            <path class="cls-5" d="M1908.6145,3255a10.8352,10.8352,0,0,0,4.6129-1.0423c5.9293-2.7841,8.6685-10.2875,6.1176-16.759l-245.117-621.9418c-2.5509-6.4694-9.418-9.4571-15.3549-6.6771-5.9293,2.7842-8.6685,10.2876-6.1176,16.7591l245.117,621.9418A11.70535,11.70535,0,0,0,1908.6145,3255Z" transform="translate(-37.15249 -35.81801)"/>
            <path class="cls-5" d="M1632.4814,3255a11.70223,11.70223,0,0,0,10.742-7.7193l245.117-621.9418c2.5509-6.4715-.1883-13.9749-6.1176-16.7591-5.9255-2.7841-12.8021.2035-15.3549,6.6771l-245.117,621.9418c-2.5509,6.4715.1883,13.9749,6.1176,16.759A10.829,10.829,0,0,0,1632.4814,3255Z" transform="translate(-37.15249 -35.81801)"/>
          </g>
          <g>
            <rect class="cls-38" x="2006.85811" y="2800.07879" width="28.9811" height="313.4123"/>
            <path class="cls-38" d="M1931.5854,3155.3515h253.8315v-9.515a9.34982,9.34982,0,0,0-9.3498-9.3499H1940.9352a9.34982,9.34982,0,0,0-9.3498,9.3499Z" transform="translate(-37.15249 -35.81801)"/>
            <rect class="cls-38" x="1856.76121" y="2729.85399" width="319.1444" height="90.5131" rx="31.1663"/>
          </g>
          <g>
            <path class="cls-39" d="M2272.453,2626.9225s43.0646,6.6761,91.4831,39.043a24.13594,24.13594,0,0,1,10.6517,23.0675c-5.7976,45.924-29.6356,194.5673-108.2423,339.7475a36.54949,36.54949,0,0,0-3.5072,25.078l13.6566,63.5543,25.326,23.7471H2236.587l-43.4339-117.5404,18.5725-5.873a35.14207,35.14207,0,0,0,24.5413-32.8993l2.1794-126.0881c-1.8593-56.1752,34.4447-94.9343,34.4447-94.9343l-104.1805-5.0686Z" transform="translate(-37.15249 -35.81801)"/>
            <path class="cls-40" d="M2327.2932,3152.6257c5.941,7.7752-63.9412,18.0354-99.2478,1.0287,0,0-48.9418-85.1524-48.9418-128.9953,0,0,3.8846-8.9394,32.622-6.9126,0,0,16.4332,100.8252,33.7853,112.1193s48.5471,1.1425,48.5471,1.1425S2318.5277,3141.1539,2327.2932,3152.6257Z" transform="translate(-37.15249 -35.81801)"/>
            <path class="cls-41" d="M2181.8918,2765.672c.5543-.9592,112.1662-13.4205,112.1662-13.4205s-3.6528,33.936,7.7629,80.6519,175.2865,249.1139,175.2865,249.1139l-17.1822,54.4692c53.1258,18.506,105.3836,21.4644,156.806,9.4328l-106.4856-63.902s-99.658-339.616-160.7013-400.2029l-111.8778-38.7062Z" transform="translate(-37.15249 -35.81801)"/>
            <path class="cls-42" d="M1931.5854,2568.0614s-64.3049,95.6456-69.5816,139.2744,17.6148,61.3573,85.0871,64.2805,247.5958,2.8767,247.5958,2.8767l153.7332-131.3848s-112.0339-39.977-141.1621-51.2806S1931.5854,2568.0614,1931.5854,2568.0614Z" transform="translate(-37.15249 -35.81801)"/>
            <path class="cls-43" d="M2466.418,3118.1427s-18.4984,17.9174-6.0027,37.8525c0,0,146.5407,25.9747,186.3277,14.1894,0,0-8.261-18.8562-53.0626-40.3188l3.3057,2.5377a5.35133,5.35133,0,0,1-3.5357,9.6005C2563.9284,3140.321,2502.8323,3134.9125,2466.418,3118.1427Z" transform="translate(-37.15249 -35.81801)"/>
          </g>
          <g>
            <path class="cls-44" d="M2061.5396,2030.7542c-9.7167,3.0306-44.7423,15.6004-40.2199,38.1267a4.11961,4.11961,0,0,1-5.1593,4.7239c-15.0909-4.0619-48.4299-9.1832-69.096,16.7126-18.2462,22.8635-4.611,44.4388,6.5065,56.282a4.14667,4.14667,0,0,1-3.4638,7.0126c-27.7458-3.5025-88.0344-4.3418-97.8986,52.1357-9.1986,52.6669,27.4593,67.5185,49.1999,71.7055a4.1246,4.1246,0,0,1,1.3754,7.5497c-10.8466,6.8808-23.4125,21.0987-18.3345,49.1586,7.9589,43.9796,94.1842,40.3796,104.2617,39.8067a4.066,4.066,0,0,0,1.7975-.5376l138.1104-78.7675a4.15135,4.15135,0,0,0,2.0341-2.8982l27.882-161.0272a4.15162,4.15162,0,0,0-1.099-3.5869l-91.6927-95.3026A4.11523,4.11523,0,0,0,2061.5396,2030.7542Z" transform="translate(-37.15249 -35.81801)"/>
            <path class="cls-45" d="M2105.4906,2555.4001s74.8833-71.3043,111.744-118.5318a100.20517,100.20517,0,0,0,16.9676-90.1827c-16.8287-56.6972-46.7363-115.42-49.4638-124.5598-4.1805-14.009-88.1443-13.4259-88.1443-13.4259s-165.2236,107.2319-230.1405,288.8746l72.9057,22.6972s43.1401-72.3754,85.7649-118.3902c0,0-73.7563,97.4345-76.3535,137.3217Z" transform="translate(-37.15249 -35.81801)"/>
            <path class="cls-46" d="M2194.8924,2143.8326c-.8765,2.9122-22.7916,75.563-24.5057,77.071s-48.0606,4.0005-69.8755-10.9087l37.0098-77.4754Z" transform="translate(-37.15249 -35.81801)"/>
            <g>
              <path class="cls-47" d="M2158.8938,1991.238s39.5628,16.7058,66.4636,73.8754,6.8118,83.5662-18.4214,87.1898-62.9694,3.072-102.8848-33.8589S2107.4638,1971.4357,2158.8938,1991.238Z" transform="translate(-37.15249 -35.81801)"/>
              <path class="cls-48" d="M2130.8828,2087.9227s-29.8486-83.6414,44.3073-84.63l17.4495,12.1962s27.2087-46.3736-17.4495-68.5103-96.9248-3.8516-115.9292,56.3141-22.2499,100.441,9.3675,129.2268,44.6478-3.8535,44.6478-3.8535-17.2177-26.9237-10.2086-41.3283,23.1759,2.9797,23.1759,2.9797Z" transform="translate(-37.15249 -35.81801)"/>
              <path class="cls-49" d="M2122.5662,2097.2389s-15.0915-43.0856-35.2242-25.9271,16.3628,39.7993,30.65,47.1325Z" transform="translate(-37.15249 -35.81801)"/>
            </g>
            <path class="cls-50" d="M2258.0455,2560.6941l-55.0179-53.0297-76.1102,32.1525s-75.7595,11.7377-119.1194,0l-43.36-11.7377-97.9844-30.5047-15.3892,43.4917a26.18707,26.18707,0,0,0,9.5671,30.0854c8.477,6.0237,18.4136,12.6441,24.747,15.4148,12.9037,5.6449,318.089-3.9053,318.089-3.9053Z" transform="translate(-37.15249 -35.81801)"/>
          </g>
          <g>
            <path class="cls-51" d="M2049.8392,2585.6945c.2439.0121.488.0186.7339.0167l319.1501-.3482a14.28461,14.28461,0,1,0-.0316-28.5692l-319.15.3483a14.28522,14.28522,0,0,0-.7024,28.5524Z" transform="translate(-37.15249 -35.81801)"/>
            <path class="cls-52" d="M2656.6249,2295.9259H2390.8346a50.657,50.657,0,0,0-45.8175,29.0495L2222.1427,2585.524H2552.449a30.7872,30.7872,0,0,0,28.6323-19.4715l95.2839-241.0991A21.226,21.226,0,0,0,2656.6249,2295.9259Z" transform="translate(-37.15249 -35.81801)"/>
            <ellipse class="cls-5" cx="2489.30578" cy="2435.93295" rx="34.03819" ry="20.9399" transform="translate(-629.3249 4023.3539) rotate(-72.15818)"/>
          </g>
          <g>
            <path class="cls-5" d="M2689.9389,2575.5029l314.098.0003v-32.4147l-314.098.0003C2696.6618,2543.0888,2696.6618,2575.5029,2689.9389,2575.5029Z" transform="translate(-37.15249 -35.81801)"/>
            <path class="cls-53" d="M3000.6235,2575.5029a3.42338,3.42338,0,0,0,3.4134-3.4133v-25.5875a3.42331,3.42331,0,0,0-3.4134-3.4133H2683.7739a3.42338,3.42338,0,0,1-3.4133-3.4134v-.5029a3.42335,3.42335,0,0,1,3.4133-3.4133h338.2478a13.56514,13.56514,0,0,1,13.5652,13.5652v20.7179a12.78994,12.78994,0,0,1-12.7899,12.79H2683.7739a3.42335,3.42335,0,0,1-3.4133-3.4133v-.5027a3.42338,3.42338,0,0,1,3.4133-3.4134Z" transform="translate(-37.15249 -35.81801)"/>
          </g>
          <path class="cls-5" d="M1603.7888,2597.353a11.18543,11.18543,0,0,1,2.9919-10.2026,15.15018,15.15018,0,0,1,10.9656-4.4893h1437.457a17.08546,17.08546,0,0,1,13.7828,6.5532,12.61331,12.61331,0,0,1,1.0694,13.6153l-15.5772,29.2802c-3.5668,6.7054-11.2957,10.9983-19.8005,10.9983H1627.6096c-7.9113,0-14.7115-4.8721-16.214-11.6184Z" transform="translate(-37.15249 -35.81801)"/>
        </g>
      </g>
    </g>
  </g>
</svg>
