<svg xmlns="http://www.w3.org/2000/svg" xmlns:xlink="http://www.w3.org/1999/xlink" viewBox="0 0 3642.56 3665.98"><defs><style>.cls-1{isolation:isolate;}.cls-2{fill:#f5f8ff;}.cls-3{fill:url(#linear-gradient);}.cls-4{fill:#91b3fa;}.cls-5{fill:#bdd0fb;}.cls-19,.cls-20,.cls-6{fill:#fff;}.cls-6{mix-blend-mode:soft-light;}.cls-7{fill:url(#linear-gradient-2);}.cls-8{fill:url(#linear-gradient-3);}.cls-9{fill:url(#linear-gradient-4);}.cls-10{fill:url(#linear-gradient-5);}.cls-11{fill:url(#linear-gradient-6);}.cls-12{fill:url(#linear-gradient-7);}.cls-13{fill:url(#linear-gradient-8);}.cls-14{fill:url(#linear-gradient-9);}.cls-15{fill:url(#linear-gradient-10);}.cls-16{fill:url(#linear-gradient-11);}.cls-17{fill:url(#linear-gradient-12);}.cls-18{fill:url(#linear-gradient-13);}.cls-19{opacity:0.61;}.cls-21{fill:url(#linear-gradient-14);}.cls-22{fill:url(#linear-gradient-15);}.cls-23{fill:url(#linear-gradient-16);}.cls-24{fill:url(#linear-gradient-17);}.cls-25{fill:url(#linear-gradient-18);}.cls-26{fill:url(#linear-gradient-19);}.cls-27{fill:url(#linear-gradient-20);}.cls-28{fill:url(#linear-gradient-21);}.cls-29{fill:url(#linear-gradient-22);}.cls-30{fill:url(#linear-gradient-23);}.cls-31{fill:url(#linear-gradient-24);}.cls-32{fill:url(#linear-gradient-25);}.cls-33{fill:url(#linear-gradient-26);}.cls-34{fill:url(#linear-gradient-27);}.cls-35{fill:url(#linear-gradient-28);}.cls-36{fill:url(#linear-gradient-29);}.cls-37{fill:#7d97f4;}.cls-38{fill:url(#linear-gradient-30);}.cls-39{fill:url(#linear-gradient-31);}.cls-40{fill:url(#linear-gradient-32);}.cls-41{fill:url(#linear-gradient-33);}.cls-42{fill:url(#linear-gradient-34);}.cls-43{fill:url(#linear-gradient-35);}.cls-44{fill:url(#linear-gradient-36);}.cls-45{fill:url(#linear-gradient-37);}.cls-46{fill:url(#linear-gradient-38);}.cls-47{fill:url(#linear-gradient-39);}.cls-48{fill:url(#linear-gradient-40);}.cls-49{fill:url(#linear-gradient-41);}.cls-50{fill:url(#linear-gradient-42);}.cls-51{fill:url(#linear-gradient-43);}.cls-52{fill:url(#linear-gradient-44);}</style><linearGradient id="linear-gradient" x1="3498.59" y1="3677.45" x2="1532.51" y2="1584.53" gradientUnits="userSpaceOnUse"><stop offset="0" stop-color="#dae3fe"/><stop offset="1" stop-color="#e9effd"/></linearGradient><linearGradient id="linear-gradient-2" x1="1425.15" y1="2638.48" x2="1840.97" y2="3314.99" gradientUnits="userSpaceOnUse"><stop offset="0" stop-color="#09005d"/><stop offset="1" stop-color="#1a0f91"/></linearGradient><linearGradient id="linear-gradient-3" x1="1485.89" y1="2642.6" x2="1872.92" y2="3272.28" gradientTransform="translate(238.4 -122.76) rotate(4.61)" xlink:href="#linear-gradient-2"/><linearGradient id="linear-gradient-4" x1="1524.01" y1="2619.17" x2="1911.04" y2="3248.85" gradientTransform="translate(231.54 -123.04) rotate(4.61)" xlink:href="#linear-gradient-2"/><linearGradient id="linear-gradient-5" x1="1562.13" y1="2595.74" x2="1949.16" y2="3225.42" gradientTransform="translate(224.67 -123.32) rotate(4.61)" xlink:href="#linear-gradient-2"/><linearGradient id="linear-gradient-6" x1="1600.25" y1="2572.31" x2="1987.28" y2="3201.99" gradientTransform="translate(217.8 -123.59) rotate(4.61)" xlink:href="#linear-gradient-2"/><linearGradient id="linear-gradient-7" x1="1400" y1="2972.5" x2="1862.77" y2="2972.5" gradientUnits="userSpaceOnUse"><stop offset="0" stop-color="#4f52ff"/><stop offset="1" stop-color="#4042e2"/></linearGradient><linearGradient id="linear-gradient-8" x1="1367.72" y1="2875.31" x2="1927.25" y2="2875.31" xlink:href="#linear-gradient-7"/><linearGradient id="linear-gradient-9" x1="1357.18" y1="2789.89" x2="1927.25" y2="2789.89" xlink:href="#linear-gradient-7"/><linearGradient id="linear-gradient-10" x1="1387.44" y1="2704.74" x2="1925.85" y2="2704.74" xlink:href="#linear-gradient-7"/><linearGradient id="linear-gradient-11" x1="1601.65" y1="442.14" x2="1734.77" y2="2792.09" gradientUnits="userSpaceOnUse"><stop offset="0" stop-color="#ff928e"/><stop offset="1" stop-color="#fe7062"/></linearGradient><linearGradient id="linear-gradient-12" x1="2977.84" y1="631.91" x2="2547.78" y2="1159.24" gradientUnits="userSpaceOnUse"><stop offset="0" stop-color="#e1473d"/><stop offset="1" stop-color="#e9605a"/></linearGradient><linearGradient id="linear-gradient-13" x1="2771.28" y1="463.46" x2="2341.22" y2="990.79" xlink:href="#linear-gradient-12"/><linearGradient id="linear-gradient-14" x1="690" y1="1321.37" x2="1426.22" y2="1321.37" xlink:href="#linear-gradient-7"/><linearGradient id="linear-gradient-15" x1="1350.42" y1="867.45" x2="1708.39" y2="867.45" xlink:href="#linear-gradient-7"/><linearGradient id="linear-gradient-16" x1="1807.9" y1="991.18" x2="2343.71" y2="991.18" xlink:href="#linear-gradient-7"/><linearGradient id="linear-gradient-17" x1="-618.22" y1="3452.65" x2="-615.53" y2="3738.23" gradientTransform="matrix(-1, 0, 0, 1, 2142.8, 0)" xlink:href="#linear-gradient-2"/><linearGradient id="linear-gradient-18" x1="-687.06" y1="3133.73" x2="-701.88" y2="3017.88" gradientTransform="matrix(-1, 0, 0, 1, 2142.8, 0)" gradientUnits="userSpaceOnUse"><stop offset="0" stop-color="#febbba"/><stop offset="1" stop-color="#ff928e"/></linearGradient><linearGradient id="linear-gradient-19" x1="-1004.06" y1="3456.29" x2="-1001.36" y2="3741.87" gradientTransform="matrix(-1, 0, 0, 1, 2142.8, 0)" xlink:href="#linear-gradient-2"/><linearGradient id="linear-gradient-20" x1="-1010.92" y1="3173.44" x2="-1025.36" y2="3060.55" xlink:href="#linear-gradient-18"/><linearGradient id="linear-gradient-21" x1="-1111.83" y1="2744.47" x2="-667.38" y2="2744.47" gradientTransform="matrix(-1, 0, 0, 1, 2142.8, 0)" xlink:href="#linear-gradient-2"/><linearGradient id="linear-gradient-22" x1="-1019.64" y1="2676.28" x2="-1003.48" y2="2643.95" gradientTransform="matrix(-1, 0, 0, 1, 2142.8, 0)" xlink:href="#linear-gradient-7"/><linearGradient id="linear-gradient-23" x1="3914.45" y1="1357.56" x2="2793.24" y2="2422.46" xlink:href="#linear-gradient-7"/><linearGradient id="linear-gradient-24" x1="-901.79" y1="2431.99" x2="-699.41" y2="2431.99" xlink:href="#linear-gradient-18"/><linearGradient id="linear-gradient-25" x1="-715.29" y1="2178.3" x2="-337.36" y2="2178.3" xlink:href="#linear-gradient-18"/><linearGradient id="linear-gradient-26" x1="2939.62" y1="1989.07" x2="2864.53" y2="1677.32" gradientTransform="matrix(1, 0, 0, 1, 0, 0)" xlink:href="#linear-gradient-18"/><linearGradient id="linear-gradient-27" x1="-660.6" y1="1746.36" x2="-824.59" y2="1963.3" xlink:href="#linear-gradient-18"/><linearGradient id="linear-gradient-28" x1="-785.84" y1="1798.69" x2="-589.96" y2="1798.69" gradientTransform="matrix(-1, 0, 0, 1, 2142.8, 0)" xlink:href="#linear-gradient-2"/><linearGradient id="linear-gradient-29" x1="-900.77" y1="1918.16" x2="-769.25" y2="1783.22" xlink:href="#linear-gradient-18"/><linearGradient id="linear-gradient-30" x1="-231.97" y1="2884.04" x2="-25.91" y2="2884.04" xlink:href="#linear-gradient-18"/><linearGradient id="linear-gradient-31" x1="-105.89" y1="3018.31" x2="-136.2" y2="3483.05" gradientTransform="matrix(-1, 0, 0, 1, 2142.8, 0)" xlink:href="#linear-gradient-7"/><linearGradient id="linear-gradient-32" x1="2451.9" y1="2878.26" x2="2841.02" y2="2622.26" gradientTransform="matrix(1, 0, 0, 1, 0, 0)" xlink:href="#linear-gradient-18"/><linearGradient id="linear-gradient-33" x1="2177.25" y1="2411.19" x2="2106.71" y2="2668.32" xlink:href="#linear-gradient-7"/><linearGradient id="linear-gradient-34" x1="-398.37" y1="2999.24" x2="-428.68" y2="3463.98" gradientTransform="matrix(-1, 0, 0, 1, 2142.8, 0)" xlink:href="#linear-gradient-7"/><linearGradient id="linear-gradient-35" x1="1898.83" y1="2407.4" x2="2108.74" y2="2038.78" xlink:href="#linear-gradient-2"/><linearGradient id="linear-gradient-36" x1="8.92" y1="2267.91" x2="239.98" y2="2770.8" gradientTransform="matrix(-1, 0, 0, 1, 2142.8, 0)" xlink:href="#linear-gradient-7"/><linearGradient id="linear-gradient-37" x1="14.49" y1="2301.31" x2="-7.26" y2="2161.75" xlink:href="#linear-gradient-18"/><linearGradient id="linear-gradient-38" x1="-79.52" y1="2038.3" x2="112.6" y2="2168.8" xlink:href="#linear-gradient-18"/><linearGradient id="linear-gradient-39" x1="1897.99" y1="2406.93" x2="2107.9" y2="2038.31" xlink:href="#linear-gradient-2"/><linearGradient id="linear-gradient-40" x1="-68" y1="2021.34" x2="124.12" y2="2151.84" xlink:href="#linear-gradient-18"/><linearGradient id="linear-gradient-41" x1="1969.38" y1="2615.97" x2="2232.2" y2="2370.22" gradientTransform="matrix(1, 0, 0, 1, 0, 0)" xlink:href="#linear-gradient-18"/><linearGradient id="linear-gradient-42" x1="62.09" y1="2562.07" x2="-195.05" y2="2632.55" gradientTransform="matrix(-1, -0.05, -0.05, 1, 2184.27, -55.03)" xlink:href="#linear-gradient-2"/><linearGradient id="linear-gradient-43" x1="-242.23" y1="2378.45" x2="-424.69" y2="2571.29" gradientTransform="matrix(-1, 0, 0, 1, 2142.8, 0)" xlink:href="#linear-gradient-2"/><linearGradient id="linear-gradient-44" x1="-712.11" y1="2738.04" x2="-713.46" y2="2657.3" gradientTransform="matrix(-1, 0, 0, 1, 2142.8, 0)" xlink:href="#linear-gradient-12"/></defs><g class="cls-1"><g id="Illustration"><g id="Calque_3" data-name="Calque 3"><path class="cls-2" d="M3161,448.38c98.36,95.42,156.18,180.8,199.83,246.17,425.69,637.54,303,1366.33,261.06,1591.65-67.66,363.53-115.39,670.39-353.6,934.05-541.26,599.1-1670.38,570-2369.82,112.17-82.94-54.28-760.49-511.37-856-1241.73-2.34-17.86-3.67-31.19-4.91-42.87-12-113-75.09-813.13,403.2-1384,68.47-81.73,192-213.24,380.32-335.19C1509.8-117.32,2576.44-118.73,3161,448.38Z" transform="translate(-28.28 -7.3)"/></g><path class="cls-3" d="M2908.28,2837.78c-72.58,74.81-137.52,118.79-187.24,152-484.93,323.79-1039.25,230.47-1210.63,198.57-276.51-51.47-509.92-87.77-710.46-269C344.27,2507.7,366.43,1648.87,714.63,1116.87c41.29-63.08,389-578.44,944.48-651.06,13.59-1.78,23.73-2.79,32.61-3.73,85.93-9.1,618.47-57.12,1052.71,306.68,62.16,52.08,162.19,146,255,289.27C3338.56,1581.86,3339.63,2393.16,2908.28,2837.78Z" transform="translate(-28.28 -7.3)"/><path class="cls-4" d="M2266.39,768.5a3.41,3.41,0,0,1-2.72-5.48q4.14-5.47,8.48-10.83a3.41,3.41,0,1,1,5.3,4.29q-4.26,5.26-8.33,10.66A3.43,3.43,0,0,1,2266.39,768.5Z" transform="translate(-28.28 -7.3)"/><path class="cls-4" d="M3010.49,948.12a3.42,3.42,0,0,1-3.36-2.82c-1.59-9.1-3.51-18.24-5.7-27.17a3.41,3.41,0,1,1,6.63-1.62c2.23,9.08,4.18,18.37,5.8,27.61a3.42,3.42,0,0,1-2.78,4A4,4,0,0,1,3010.49,948.12Zm-19-70.87a3.43,3.43,0,0,1-3.21-2.24c-3.15-8.63-6.65-17.29-10.4-25.73a3.42,3.42,0,1,1,6.24-2.78c3.81,8.59,7.37,17.39,10.58,26.17a3.42,3.42,0,0,1-3.21,4.58Zm-31.16-66.43a3.43,3.43,0,0,1-3-1.7c-3-5.14-6.14-10.31-9.37-15.36q-2.64-4.12-5.36-8.17a3.41,3.41,0,1,1,5.66-3.81q2.76,4.11,5.45,8.3c3.29,5.13,6.49,10.39,9.53,15.61a3.41,3.41,0,0,1-3,5.13Zm-42.22-60a3.41,3.41,0,0,1-2.61-1.21c-6-7.07-12.21-14-18.58-20.61a3.41,3.41,0,0,1,4.91-4.74c6.48,6.72,12.83,13.76,18.89,21a3.41,3.41,0,0,1-2.61,5.61ZM2305.27,724a3.41,3.41,0,0,1-2.4-5.83c6.65-6.59,13.61-13,20.7-19.18a3.41,3.41,0,0,1,4.46,5.16c-7,6-13.82,12.39-20.35,18.86A3.42,3.42,0,0,1,2305.27,724Zm560.83-24.9a3.4,3.4,0,0,1-2.18-.79c-7.08-5.88-14.45-11.6-21.92-17a3.41,3.41,0,0,1,4-5.53c7.59,5.49,15.09,11.3,22.29,17.28a3.42,3.42,0,0,1-2.19,6Zm-504.38-22a3.41,3.41,0,0,1-1.94-6.22c4.22-2.92,8.56-5.81,12.9-8.58q5.37-3.43,10.82-6.7a3.42,3.42,0,0,1,3.51,5.86q-5.37,3.21-10.66,6.6c-4.27,2.72-8.53,5.56-12.69,8.44A3.39,3.39,0,0,1,2361.72,677.17Zm444.06-19.74a3.48,3.48,0,0,1-1.69-.45c-8-4.54-16.26-8.88-24.57-12.88a3.41,3.41,0,0,1,3-6.15c8.44,4.07,16.85,8.48,25,13.1a3.41,3.41,0,0,1-1.69,6.38Zm-380.32-16.62a3.41,3.41,0,0,1-1.43-6.51c8.51-3.92,17.26-7.59,26-10.93a3.41,3.41,0,1,1,2.43,6.38c-8.61,3.28-17.22,6.9-25.59,10.75A3.43,3.43,0,0,1,2425.46,640.81ZM2739.05,627a3.5,3.5,0,0,1-1.14-.19c-8.69-3.08-17.59-5.91-26.45-8.4a3.41,3.41,0,1,1,1.85-6.57c9,2.53,18,5.4,26.88,8.53a3.41,3.41,0,0,1-1.14,6.63Zm-244.49-10.79a3.42,3.42,0,0,1-.86-6.72c9.07-2.35,18.33-4.43,27.53-6.16a3.41,3.41,0,1,1,1.27,6.71c-9.05,1.7-18.17,3.74-27.08,6.06A3.22,3.22,0,0,1,2494.56,616.16ZM2668,608.58a3.64,3.64,0,0,1-.57,0c-9.07-1.52-18.32-2.75-27.5-3.66a3.41,3.41,0,0,1-3.06-3.74,3.47,3.47,0,0,1,3.73-3.06c9.33.93,18.74,2.18,28,3.72a3.41,3.41,0,0,1-.56,6.78Zm-101.11-4.5a3.42,3.42,0,0,1-.26-6.82c9.35-.72,18.83-1.13,28.19-1.22h0a3.42,3.42,0,0,1,0,6.83c-9.2.09-18.53.49-27.72,1.2Z" transform="translate(-28.28 -7.3)"/><path class="cls-4" d="M3016.51,1007.1a3.42,3.42,0,0,1-3.41-3.31q-.2-6.76-.63-13.52a3.41,3.41,0,0,1,3.19-3.62,3.47,3.47,0,0,1,3.62,3.19q.45,6.87.65,13.74a3.42,3.42,0,0,1-3.31,3.52Z" transform="translate(-28.28 -7.3)"/><path class="cls-4" d="M2900.6,1309.1a3.41,3.41,0,0,1-2.46-5.78q4.7-4.89,9.21-9.91a3.41,3.41,0,1,1,5.07,4.57q-4.59,5.1-9.36,10.07A3.4,3.4,0,0,1,2900.6,1309.1Z" transform="translate(-28.28 -7.3)"/><path class="cls-4" d="M2599.75,1437.53c-8.46,0-17.06-.26-25.53-.78a3.41,3.41,0,0,1-3.2-3.61,3.5,3.5,0,0,1,3.61-3.2c8.34.5,16.79.76,25.14.76h2.17a3.41,3.41,0,1,1,0,6.82Zm46.84-2.64a3.42,3.42,0,0,1-.38-6.81c9-1,18.09-2.35,27-4a3.41,3.41,0,1,1,1.21,6.72c-9.07,1.64-18.31,3-27.46,4Zm-116.6-3.22a3.66,3.66,0,0,1-.57-.05c-9.08-1.53-18.23-3.39-27.2-5.52a3.41,3.41,0,0,1,1.57-6.64c8.83,2.1,17.84,3.92,26.77,5.43a3.41,3.41,0,0,1-.57,6.78Zm187.36-11.11a3.41,3.41,0,0,1-1-6.69c8.67-2.56,17.39-5.45,25.92-8.6a3.42,3.42,0,1,1,2.37,6.41c-8.68,3.2-17.54,6.14-26.36,8.74A3.25,3.25,0,0,1,2717.35,1420.56Zm-257.25-7a3.5,3.5,0,0,1-1.14-.19c-8.69-3.07-17.39-6.47-25.85-10.1a3.42,3.42,0,0,1,2.69-6.28c8.33,3.58,16.88,6.92,25.44,9.94a3.41,3.41,0,0,1-1.14,6.63Zm324.46-19.4a3.41,3.41,0,0,1-1.52-6.47c8.12-4,16.21-8.39,24.05-13a3.41,3.41,0,0,1,3.44,5.9c-8,4.64-16.2,9.07-24.45,13.17A3.45,3.45,0,0,1,2784.56,1394.17Zm-390.2-10.43a3.39,3.39,0,0,1-1.67-.44c-8-4.52-16-9.36-23.72-14.4a3.42,3.42,0,0,1,3.74-5.72c7.58,5,15.43,9.73,23.33,14.17a3.41,3.41,0,0,1-1.68,6.39Zm451.9-27.11a3.41,3.41,0,0,1-2-6.17c7.32-5.36,14.55-11,21.49-16.85a3.41,3.41,0,1,1,4.38,5.23c-7,5.91-14.39,11.68-21.84,17.13A3.43,3.43,0,0,1,2846.26,1356.63ZM2334.79,1343a3.4,3.4,0,0,1-2.16-.78c-7.14-5.85-14.16-12-20.87-18.3a3.42,3.42,0,0,1,4.68-5c6.59,6.19,13.49,12.25,20.51,18a3.42,3.42,0,0,1-2.16,6.06Zm-51.62-50.46a3.4,3.4,0,0,1-2.59-1.19c-6-7-11.86-14.27-17.38-21.63a3.41,3.41,0,1,1,5.46-4.1c5.43,7.24,11.19,14.4,17.1,21.28a3.41,3.41,0,0,1-2.59,5.64ZM2241,1234a3.41,3.41,0,0,1-2.93-1.66c-4.73-7.93-9.26-16.1-13.45-24.28a3.41,3.41,0,1,1,6.07-3.12c4.13,8.06,8.58,16.1,13.24,23.9a3.41,3.41,0,0,1-1.18,4.68A3.47,3.47,0,0,1,2241,1234ZM2209.44,1169a3.4,3.4,0,0,1-3.18-2.19c-3.3-8.6-6.34-17.43-9.06-26.24a3.41,3.41,0,1,1,6.52-2c2.67,8.67,5.67,17.36,8.91,25.82a3.4,3.4,0,0,1-3.19,4.63Zm-19.85-69.42a3.4,3.4,0,0,1-3.34-2.76c-1.76-9.06-3.23-18.28-4.37-27.42a3.41,3.41,0,0,1,6.77-.85c1.13,9,2.57,18.06,4.3,27a3.4,3.4,0,0,1-2.7,4A3,3,0,0,1,2189.59,1099.6Z" transform="translate(-28.28 -7.3)"/><path class="cls-4" d="M2182.09,1027.58a3.41,3.41,0,0,1-3.41-3.35q-.12-6.88,0-13.76a3.42,3.42,0,0,1,3.42-3.36h0a3.41,3.41,0,0,1,3.36,3.47q-.11,6.76,0,13.53a3.41,3.41,0,0,1-3.36,3.47Z" transform="translate(-28.28 -7.3)"/><path class="cls-4" d="M2282,971.61a5,5,0,0,0,2.11,5.41l51,33.42a265.28,265.28,0,0,0,12.36,85.14l-39.32,46.53a5,5,0,0,0-.48,5.8l37.42,62.82a5,5,0,0,0,5.32,2.34l59.64-12.41a265.62,265.62,0,0,0,69,51.42l5.1,60.74a5,5,0,0,0,3.76,4.43l70.88,18a5,5,0,0,0,5.42-2.11l33.42-51a265.26,265.26,0,0,0,85.13-12.36l46.54,39.32a5,5,0,0,0,5.79.48l62.82-37.42a5,5,0,0,0,2.34-5.32l-12.41-59.64a265.4,265.4,0,0,0,51.42-69l60.74-5.1a5,5,0,0,0,4.44-3.76l18-70.88a5,5,0,0,0-2.11-5.42l-51-33.42a265.36,265.36,0,0,0-12.36-85.14L2896.23,888a5,5,0,0,0,.48-5.79l-37.42-62.82A5,5,0,0,0,2854,817l-59.64,12.41a265.4,265.4,0,0,0-69-51.42l-5.1-60.74a5,5,0,0,0-3.76-4.44l-70.88-18a5,5,0,0,0-5.42,2.11l-33.42,51a265.53,265.53,0,0,0-85.13,12.35L2475.1,721a5,5,0,0,0-5.79-.48l-62.82,37.42a5,5,0,0,0-2.34,5.32l12.41,59.64a265.74,265.74,0,0,0-51.42,69L2304.4,897a5,5,0,0,0-4.44,3.76Z" transform="translate(-28.28 -7.3)"/><path class="cls-5" d="M2602.18,1085.08h-.07a70.12,70.12,0,1,1,.07,0Zm0-129.82a59.79,59.79,0,0,0-42.33,102h0a59.42,59.42,0,0,0,42.27,17.55h.06a59.79,59.79,0,1,0,0-119.58Z" transform="translate(-28.28 -7.3)"/><path class="cls-5" d="M2604,1196.92a182.85,182.85,0,0,1-44.92-5.64,180.35,180.35,0,0,1-111.38-83.09h0c-.56-1-1.13-1.91-1.68-2.88h0l0,0a182.14,182.14,0,0,1-13.21-28.59l-.21-.59a.88.88,0,0,1,0-.15c-.34-.94-.66-1.88-1-2.83l9.7-3.27a172.37,172.37,0,0,0,15.26,33.13,170.05,170.05,0,0,0,97.82,76.39q3.6,1.08,7.28,2A171.34,171.34,0,0,0,2750.9,927.63c-48.34-81.15-153.69-107.85-234.85-59.52A171.05,171.05,0,0,0,2452.9,934l-9-4.85a181.37,181.37,0,0,1,66.93-69.82c86-51.21,197.65-22.93,248.89,63.08A181.67,181.67,0,0,1,2604,1196.92Z" transform="translate(-28.28 -7.3)"/><path class="cls-4" d="M489.24,575.22c-6.9-16,11-31.3,25.84-22.28C665.89,644.51,1043,934.47,1098.37,1568.78c69.45,795.84,290.9,1044.79,528.58,1175,0,0-293.45-22.81-528-273.35C523.11,1855.28,611.93,858.73,489.24,575.22Z" transform="translate(-28.28 -7.3)"/><path class="cls-6" d="M623.1,799.71c34.26,82.94,66.86,166.51,96.36,251.15q44.91,126.71,82,255.89c24.34,86.16,47,172.76,66,260.2,19.4,87.35,35,175.43,50.4,263.93,15.86,88.35,31.33,177.45,56,265.24,24.52,87.63,59.88,173.73,109.93,250.83,12.5,19.2,25.4,38.26,39.29,56.36,13.56,18.38,27.94,36.15,42.63,53.66a977.41,977.41,0,0,0,95.72,98.32c68.62,60.76,146.45,111,228.68,150a17.34,17.34,0,0,0,15.33-31.11l-.06,0c-19.73-10.06-39.32-20.33-58.38-31.44-9.63-5.4-19-11.22-28.46-16.86-9.25-6-18.73-11.63-27.77-17.9a914,914,0,0,1-104.14-80.92c-65.58-58.51-122.74-127.13-170.69-200.69a873.83,873.83,0,0,1-62.09-116A990.19,990.19,0,0,1,1009.21,2086c-24.58-85.07-40.63-173.13-57.12-261.37s-33.92-176.78-54.83-264.49q-15.51-65.81-33.37-131c-5.83-21.76-12.07-43.41-18.28-65.06q-9.61-32.4-19.65-64.66-40.49-128.92-88.83-255.07C704.48,960.46,669.62,877.47,631.62,796a4.65,4.65,0,0,0-8.52,3.74Z" transform="translate(-28.28 -7.3)"/><path class="cls-5" d="M1452.58,2956.07c2.43,20.88-17.24,37.46-37.48,31.78-111.66-31.34-419.34-148.49-578.49-515.86-134.39-310.22-236.74-465.66-288.1-533-10.86-14.24,2.78-34.07,20-29.06C758.18,1965.18,1364.4,2199.59,1452.58,2956.07Z" transform="translate(-28.28 -7.3)"/><path class="cls-6" d="M1427.2,2969a8.69,8.69,0,0,1-.92,1.29,8.22,8.22,0,0,1-11.58.83c-3.88-3.37-390.53-341.4-596.88-764.3a8.21,8.21,0,1,1,14.75-7.2c204.85,419.82,589,755.75,592.88,759.1A8.2,8.2,0,0,1,1427.2,2969Z" transform="translate(-28.28 -7.3)"/><path class="cls-7" d="M1883,3004.26c-1.3,89.85-116.62,185.59-249.86,185.59s-234-70.22-241.24-159.78c-17.34-213.62,108-211.39,241.24-211.39S1886.25,2782.22,1883,3004.26Z" transform="translate(-28.28 -7.3)"/><ellipse class="cls-8" cx="1644.27" cy="2900.28" rx="337.77" ry="88.29" transform="translate(-256.05 134.22) rotate(-4.61)"/><ellipse class="cls-9" cx="1644.27" cy="2814.83" rx="337.77" ry="88.29" transform="translate(-249.18 133.94) rotate(-4.61)"/><ellipse class="cls-10" cx="1644.27" cy="2729.38" rx="337.77" ry="88.29" transform="translate(-242.32 133.67) rotate(-4.61)"/><ellipse class="cls-11" cx="1644.27" cy="2643.93" rx="337.77" ry="88.29" transform="translate(-235.45 133.39) rotate(-4.61)"/><path class="cls-12" d="M1551.13,2996.9c-55.22,0-105.75-4.06-147.5-12.06a4.46,4.46,0,0,1,1.68-8.77c65.33,12.51,152.58,15.26,245.69,7.76,76.19-6.15,147.44-18.44,206-35.54a4.47,4.47,0,0,1,2.51,8.57c-59.19,17.27-131.06,29.68-207.84,35.87C1617.14,2995.52,1583.34,2996.9,1551.13,2996.9Z" transform="translate(-28.28 -7.3)"/><path class="cls-13" d="M1552.06,2911.37c-71.75,0-135.87-6.75-181.1-19.63a4.47,4.47,0,0,1,2.45-8.59c64.45,18.36,168.22,24,277.59,15.23,108.19-8.73,209.09-30.68,269.91-58.73a4.47,4.47,0,0,1,3.75,8.11c-61.73,28.47-163.76,50.72-272.94,59.52C1617.65,2910,1584.09,2911.37,1552.06,2911.37Z" transform="translate(-28.28 -7.3)"/><path class="cls-14" d="M1551.14,2826c-77.47,0-145.26-7.93-190.89-23a4.47,4.47,0,0,1,2.8-8.49c63.49,20.94,171.14,27.81,288,18.4,108.19-8.72,209.09-30.68,269.91-58.73a4.47,4.47,0,1,1,3.75,8.11c-61.73,28.47-163.77,50.72-272.94,59.52C1617.13,2824.62,1583.3,2826,1551.14,2826Z" transform="translate(-28.28 -7.3)"/><path class="cls-15" d="M1551.74,2740.5c-61.45,0-117.35-5-160.8-14.62a4.47,4.47,0,0,1,1.94-8.72c65.34,14.52,159.42,18.28,258.12,10.32,107.22-8.64,207.61-30.36,268.54-58.1a4.46,4.46,0,0,1,3.69,8.13c-61.81,28.14-163.31,50.15-271.51,58.87C1617.53,2739.14,1583.87,2740.5,1551.74,2740.5Z" transform="translate(-28.28 -7.3)"/><path class="cls-16" d="M1182.79,2297.69a629,629,0,0,0-112.61-219.86c-110.69-139.51-291.28-423.23-313.5-810.45-32.33-563.24,467.19-845.23,923-806.95s905.62,377.68,856.38,901.66c-30.3,322.41-210.75,567-345.11,707.41-85.32,89.18-146.18,198.41-179.13,317.36-40.32,145.58-136.27,327-364.35,338.06C1352.36,2739.23,1229.78,2464.14,1182.79,2297.69Z" transform="translate(-28.28 -7.3)"/><path class="cls-17" d="M1722.88,2585.83l159.49-1037.37c3.29-21.43,13.84-35.82,23.56-32.14s14.92,24,11.62,45.46c-.09.57-.2,1.28-.3,1.84L1735.57,2591.34c-1.36,7.73-5.29,12.61-8.77,10.9S1721.73,2593.31,1722.88,2585.83Z" transform="translate(-28.28 -7.3)"/><path class="cls-18" d="M1557.31,2594.06,1397.82,1556.7c-3.29-21.43-13.84-35.82-23.56-32.15s-14.92,24-11.62,45.47c.09.57.2,1.27.3,1.83l181.68,1027.73c1.36,7.73,5.29,12.61,8.76,10.9S1558.46,2601.55,1557.31,2594.06Z" transform="translate(-28.28 -7.3)"/><path class="cls-19" d="M1881.22,1459.4c-4-6.52-13.42-9-20.93-5.44l-88.81,41.49-30.83-87.83a18.82,18.82,0,0,0-10.8-10.87c-10.21-4.21-22.43-.44-27.29,8.41l-.15.29-73,133.17L1561.59,1349l-.11-.31a21.68,21.68,0,0,0-10.26-11.57c-11.36-6.2-26.37-3.24-33.53,6.61l-102.11,140.56c-4.15,5.76-2.72,13.48,3.6,17.74,6.75,4.55,16.47,3.49,21.71-2.36l89.91-100.29,80.94,180.34.06.14a14.36,14.36,0,0,0,7.13,7c7.6,3.56,17.08,1.1,21.18-5.48l78.12-125.35,29.4,63.4.26.56a11.06,11.06,0,0,0,.73,1.35c4,6.51,13.41,8.94,20.92,5.43L1875,1477.55C1882.47,1474,1885.27,1465.91,1881.22,1459.4Z" transform="translate(-28.28 -7.3)"/><path class="cls-19" d="M2194.45,1893.87a5.12,5.12,0,0,1-4.11-8.18,1190.48,1190.48,0,0,0,74.94-113.83,5.12,5.12,0,1,1,8.87,5.12,1202.92,1202.92,0,0,1-75.59,114.82A5.11,5.11,0,0,1,2194.45,1893.87Z" transform="translate(-28.28 -7.3)"/><path class="cls-19" d="M2325.66,1668.68a5.11,5.11,0,0,1-4.69-7.15c89.39-205.87,90.51-393.21,75.71-514.1-16.06-131.1-53.77-214.57-54.14-215.4a5.11,5.11,0,0,1,9.3-4.26c.39.84,38.66,85.44,54.95,218,15,122.26,13.95,311.69-76.43,519.85A5.13,5.13,0,0,1,2325.66,1668.68Z" transform="translate(-28.28 -7.3)"/><path class="cls-20" d="M1450.53,1046.33a3.4,3.4,0,0,1-2.8-1.46q-3.88-5.55-7.92-11a3.41,3.41,0,1,1,5.48-4.07q4.1,5.51,8,11.15a3.4,3.4,0,0,1-.84,4.75A3.37,3.37,0,0,1,1450.53,1046.33Z" transform="translate(-28.28 -7.3)"/><path class="cls-20" d="M1068.75,1800.85a3.41,3.41,0,0,1-.09-6.82c9.26-.23,18.65-.75,27.91-1.52a3.41,3.41,0,0,1,.58,6.8c-9.4.79-18.93,1.31-28.32,1.54Zm-45.72-1.06h-.25c-9.38-.66-18.87-1.62-28.21-2.85a3.41,3.41,0,0,1-2.94-3.83,3.38,3.38,0,0,1,3.83-2.94c9.21,1.21,18.56,2.16,27.81,2.82a3.41,3.41,0,0,1-.24,6.81Zm119.17-6.48a3.42,3.42,0,0,1-.61-6.78c9.1-1.65,18.3-3.6,27.34-5.79a3.42,3.42,0,0,1,1.61,6.64c-9.17,2.22-18.5,4.2-27.73,5.87A3.23,3.23,0,0,1,1142.2,1793.31Zm71.44-18.68a3.41,3.41,0,0,1-1.11-6.64c8.78-3,17.58-6.34,26.14-9.86a3.41,3.41,0,1,1,2.59,6.31c-8.68,3.57-17.6,6.94-26.51,10A3.37,3.37,0,0,1,1213.64,1774.63Zm67.75-29.3a3.41,3.41,0,0,1-1.59-6.43c8.21-4.33,16.39-9,24.32-13.76a3.41,3.41,0,0,1,3.53,5.84c-8,4.87-16.34,9.57-24.67,14A3.37,3.37,0,0,1,1281.39,1745.33Zm62.43-39.39a3.41,3.41,0,0,1-2-6.15c7.45-5.56,14.81-11.39,21.88-17.34a3.41,3.41,0,0,1,4.39,5.22c-7.17,6-14.64,12-22.19,17.59A3.4,3.4,0,0,1,1343.82,1705.94Zm55.56-48.53a3.41,3.41,0,0,1-2.44-5.8c6.5-6.62,12.88-13.52,19-20.51a3.41,3.41,0,1,1,5.14,4.49c-6.17,7.08-12.65,14.08-19.23,20.8A3.42,3.42,0,0,1,1399.38,1657.41Zm47.47-56.5a3.41,3.41,0,0,1-2.77-5.4c5.41-7.56,10.66-15.36,15.61-23.18a3.41,3.41,0,1,1,5.77,3.64c-5,7.94-10.35,15.85-15.84,23.51A3.4,3.4,0,0,1,1446.85,1600.91Zm38.29-63.11a3.27,3.27,0,0,1-1.54-.37,3.4,3.4,0,0,1-1.5-4.58c4.19-8.28,8.19-16.79,11.89-25.3a3.41,3.41,0,1,1,6.26,2.73c-3.75,8.63-7.81,17.26-12.07,25.65A3.4,3.4,0,0,1,1485.14,1537.8Zm28.22-68.23a3.31,3.31,0,0,1-1.06-.17,3.4,3.4,0,0,1-2.18-4.3c2.87-8.81,5.53-17.83,7.89-26.83a3.41,3.41,0,1,1,6.6,1.74c-2.39,9.12-5.09,18.27-8,27.21A3.41,3.41,0,0,1,1513.36,1469.57Zm17.45-71.76a3.4,3.4,0,0,1-3.38-4c1.49-9.15,2.73-18.47,3.67-27.72a3.48,3.48,0,0,1,3.75-3.05,3.42,3.42,0,0,1,3.05,3.74c-1,9.38-2.22,18.85-3.73,28.13A3.41,3.41,0,0,1,1530.81,1397.81Zm6.16-73.6h0a3.42,3.42,0,0,1-3.39-3.44v-2.85c0-8.31-.22-16.75-.67-25.1a3.41,3.41,0,1,1,6.82-.36c.45,8.47.68,17,.68,25.46v2.9A3.43,3.43,0,0,1,1537,1324.21Zm-5.27-73.66a3.42,3.42,0,0,1-3.38-2.9c-1.38-9.19-3-18.45-5-27.52a3.41,3.41,0,1,1,6.68-1.4c1.93,9.19,3.63,18.58,5,27.9a3.42,3.42,0,0,1-2.87,3.89Zm-16.5-72a3.4,3.4,0,0,1-3.26-2.4c-2.76-8.88-5.81-17.77-9.07-26.44a3.41,3.41,0,1,1,6.39-2.4c3.3,8.79,6.4,17.81,9.2,26.82a3.41,3.41,0,0,1-2.25,4.27A3.58,3.58,0,0,1,1515.2,1178.57ZM1488,1110a3.42,3.42,0,0,1-3.07-1.92c-4.06-8.32-8.44-16.64-13-24.73a3.42,3.42,0,0,1,5.95-3.36c4.63,8.22,9.06,16.66,13.19,25.1a3.42,3.42,0,0,1-1.57,4.56A3.33,3.33,0,0,1,1488,1110Z" transform="translate(-28.28 -7.3)"/><path class="cls-20" d="M949.77,1788.8a3.37,3.37,0,0,1-.77-.09q-6.71-1.55-13.35-3.28a3.41,3.41,0,1,1,1.72-6.6q6.55,1.71,13.16,3.23a3.41,3.41,0,0,1-.76,6.74Z" transform="translate(-28.28 -7.3)"/><path class="cls-20" d="M648.89,1573.39a3.41,3.41,0,0,1-2.91-1.62q-3.6-5.83-7.05-11.8a3.41,3.41,0,0,1,5.91-3.42q3.39,5.88,6.95,11.63a3.42,3.42,0,0,1-1.11,4.7A3.36,3.36,0,0,1,648.89,1573.39Z" transform="translate(-28.28 -7.3)"/><path class="cls-20" d="M621.22,1521.7a3.43,3.43,0,0,1-3.11-2c-3.86-8.43-7.52-17.07-10.89-25.69a3.41,3.41,0,0,1,6.36-2.48c3.32,8.49,6.93,17,10.74,25.32a3.41,3.41,0,0,1-3.1,4.84ZM596,1453.55a3.4,3.4,0,0,1-3.27-2.47c-2.57-8.94-4.91-18-6.94-27a3.41,3.41,0,0,1,6.66-1.51c2,8.86,4.3,17.83,6.84,26.65a3.41,3.41,0,0,1-2.34,4.22A3.45,3.45,0,0,1,596,1453.55ZM581.2,1382.4a3.41,3.41,0,0,1-3.38-3c-1.19-9.18-2.13-18.52-2.79-27.76a3.41,3.41,0,0,1,3.15-3.65,3.37,3.37,0,0,1,3.65,3.16c.65,9.11,1.58,18.32,2.76,27.37a3.41,3.41,0,0,1-3,3.82A3.25,3.25,0,0,1,581.2,1382.4Zm-3.85-72.59h-.08a3.42,3.42,0,0,1-3.33-3.49c.21-9.24.71-18.62,1.46-27.89a3.46,3.46,0,0,1,3.68-3.12,3.41,3.41,0,0,1,3.12,3.68c-.74,9.13-1.22,18.38-1.44,27.49A3.4,3.4,0,0,1,577.35,1309.81Zm7.24-72.33a3,3,0,0,1-.6,0,3.41,3.41,0,0,1-2.77-4c1.62-9.08,3.53-18.27,5.68-27.33a3.41,3.41,0,1,1,6.64,1.58c-2.12,8.93-4,18-5.6,27A3.4,3.4,0,0,1,584.59,1237.48Zm18.11-70.38a3.47,3.47,0,0,1-1.1-.18,3.41,3.41,0,0,1-2.13-4.33c3-8.8,6.26-17.6,9.73-26.15a3.41,3.41,0,0,1,6.33,2.56c-3.42,8.43-6.65,17.11-9.6,25.79A3.41,3.41,0,0,1,602.7,1167.1Zm28.5-66.84a3.41,3.41,0,0,1-3-5c4.26-8.2,8.82-16.41,13.55-24.38a3.41,3.41,0,1,1,5.87,3.48c-4.66,7.87-9.16,16-13.36,24A3.41,3.41,0,0,1,631.2,1100.26Zm38.21-61.78a3.41,3.41,0,0,1-2.75-5.42c5.44-7.48,11.18-14.91,17.05-22.07a3.41,3.41,0,0,1,5.28,4.33c-5.79,7.06-11.44,14.38-16.81,21.76A3.43,3.43,0,0,1,669.41,1038.48Zm47.06-55.32a3.38,3.38,0,0,1-2.4-1,3.42,3.42,0,0,1,0-4.83c6.5-6.56,13.29-13,20.18-19.23a3.42,3.42,0,0,1,4.57,5.08c-6.8,6.11-13.49,12.49-19.89,19A3.43,3.43,0,0,1,716.47,983.16Zm54.87-47.56a3.42,3.42,0,0,1-2-6.16c7.44-5.51,15.12-10.87,22.85-15.93a3.41,3.41,0,1,1,3.74,5.71c-7.62,5-15.19,10.27-22.52,15.71A3.43,3.43,0,0,1,771.34,935.6Zm61.45-38.67a3.41,3.41,0,0,1-1.6-6.43c8.21-4.33,16.63-8.46,25-12.29a3.41,3.41,0,1,1,2.83,6.21c-8.29,3.77-16.59,7.85-24.68,12.12A3.49,3.49,0,0,1,832.79,896.93ZM899.42,868a3.42,3.42,0,0,1-1.12-6.64c7.71-2.67,15.64-5.2,23.58-7.52l3-.88a3.41,3.41,0,1,1,1.86,6.57l-3,.86c-7.83,2.29-15.65,4.78-23.25,7.42A3.38,3.38,0,0,1,899.42,868Zm70.23-18.65a3.41,3.41,0,0,1-.62-6.77c9.1-1.69,18.38-3.15,27.56-4.32a3.41,3.41,0,0,1,.87,6.77c-9.06,1.15-18.2,2.59-27.18,4.27A4.46,4.46,0,0,1,969.65,849.36Zm172.24-.56a3.14,3.14,0,0,1-.61,0c-9-1.62-18.16-3-27.2-4.09a3.41,3.41,0,0,1,.82-6.78c9.17,1.11,18.45,2.5,27.59,4.15a3.41,3.41,0,0,1-.6,6.77Zm-100-7.31a3.41,3.41,0,0,1-.1-6.82c9.3-.31,18.66-.34,27.9-.1a3.42,3.42,0,0,1-.09,6.83h-.09c-9.1-.24-18.33-.21-27.5.09Z" transform="translate(-28.28 -7.3)"/><path class="cls-20" d="M1199.08,862.8a3.18,3.18,0,0,1-1-.16q-6.46-2-13-3.83a3.42,3.42,0,1,1,1.84-6.58q6.61,1.86,13.18,3.89a3.42,3.42,0,0,1-1,6.68Z" transform="translate(-28.28 -7.3)"/><path class="cls-21" d="M1209.67,982.21a5.76,5.76,0,0,0-6.66.57l-53.37,45.42a305.42,305.42,0,0,0-97.93-13.93l-38.6-58.43a5.75,5.75,0,0,0-6.24-2.4l-81.41,20.94a5.76,5.76,0,0,0-4.31,5.11l-5.62,69.81a305.49,305.49,0,0,0-79,59.45l-68.66-14a5.76,5.76,0,0,0-6.11,2.71L719,1169.81a5.76,5.76,0,0,0,.57,6.66l45.42,53.37A305.35,305.35,0,0,0,751,1327.76l-58.44,38.61a5.76,5.76,0,0,0-2.4,6.24L711.12,1454a5.73,5.73,0,0,0,5.11,4.3l69.82,5.62a304.89,304.89,0,0,0,59.44,79l-14,68.66a5.76,5.76,0,0,0,2.71,6.11l72.38,42.76a5.76,5.76,0,0,0,6.66-.57l53.37-45.42a305.36,305.36,0,0,0,97.92,13.93l38.61,58.44a5.77,5.77,0,0,0,6.24,2.4l81.41-20.94a5.77,5.77,0,0,0,4.31-5.12l5.61-69.81a305.15,305.15,0,0,0,79-59.45l68.67,14a5.74,5.74,0,0,0,6.11-2.71l42.76-72.37a5.76,5.76,0,0,0-.58-6.67l-45.42-53.37A305.08,305.08,0,0,0,1365.2,1315l58.44-38.61a5.74,5.74,0,0,0,2.4-6.23l-20.94-81.42a5.76,5.76,0,0,0-5.12-4.3l-69.81-5.62a305.32,305.32,0,0,0-59.45-79l14-68.66A5.76,5.76,0,0,0,1282,1025Z" transform="translate(-28.28 -7.3)"/><path class="cls-4" d="M1058.22,1401.17a79.78,79.78,0,0,1-38.28-149.84h0a79.76,79.76,0,1,1,38.28,149.84Zm-.23-149.32a69.13,69.13,0,0,0-33.15,8.47h0a69.54,69.54,0,1,0,33.15-8.47Zm-35.6,4h0Z" transform="translate(-28.28 -7.3)"/><path class="cls-4" d="M1057.36,1531c-92.62,0-177.32-62.43-201.44-156.18a208.46,208.46,0,0,1-6.58-51.75c0-92.63,62.43-177.35,156.18-201.46q8.82-2.27,17.78-3.76l.41-.07h0l.24,0h0c6.67-1.09,13.38-1.85,20.08-2.29,1.76-.12,3.51-.21,5.27-.28l.4,10.24a199,199,0,0,0-41.66,6.13h0a196.35,196.35,0,0,0-118.78,87.27c-.75,1.21-1.48,2.42-2.2,3.64a196.53,196.53,0,0,0-27.57,100.22,198.85,198.85,0,0,0,6.31,49.61C893,1477.82,1001,1541.62,1106.59,1514.46c89.13-22.92,148.5-103.47,148.48-191.54a198,198,0,0,0-58.68-140.54l7.19-7.29a208.32,208.32,0,0,1,61.74,147.83c0,92.63-62.43,177.35-156.18,201.46A207.76,207.76,0,0,1,1057.36,1531Z" transform="translate(-28.28 -7.3)"/><path class="cls-5" d="M1724.15,741.28a3.39,3.39,0,0,1-2.86-1.54c-2.44-3.73-5-7.44-7.69-11a3.41,3.41,0,0,1,5.48-4.07c2.74,3.7,5.41,7.52,7.92,11.36a3.41,3.41,0,0,1-2.85,5.28Z" transform="translate(-28.28 -7.3)"/><path class="cls-5" d="M1528.9,1102.42h-1a3.42,3.42,0,0,1-3.38-3.45,3.34,3.34,0,0,1,3.45-3.38h1a229.24,229.24,0,0,0,25.91-1.48,3.41,3.41,0,1,1,.78,6.78A233.74,233.74,0,0,1,1528.9,1102.42Zm69.73-10.73a3.41,3.41,0,0,1-1-6.67,231.72,231.72,0,0,0,25.21-9.51,3.41,3.41,0,0,1,2.78,6.23,238.38,238.38,0,0,1-25.95,9.8A3.28,3.28,0,0,1,1598.63,1091.69Zm64.2-31.52a3.41,3.41,0,0,1-2-6.21,228.55,228.55,0,0,0,21.1-16.71,3.41,3.41,0,1,1,4.54,5.09,236.12,236.12,0,0,1-21.72,17.22A3.46,3.46,0,0,1,1662.83,1060.17Zm51.54-49.55a3.42,3.42,0,0,1-2.72-5.48,229.83,229.83,0,0,0,15-22.35,3.41,3.41,0,0,1,5.87,3.48,237.07,237.07,0,0,1-15.48,23A3.4,3.4,0,0,1,1714.37,1010.62Zm34.16-62.84a3.32,3.32,0,0,1-1.15-.2,3.43,3.43,0,0,1-2.06-4.37,231.16,231.16,0,0,0,7.61-25.85,3.41,3.41,0,0,1,6.65,1.54,237.93,237.93,0,0,1-7.83,26.62A3.43,3.43,0,0,1,1748.53,947.78Zm13.57-70.24H1762a3.4,3.4,0,0,1-3.28-3.53q.13-4.1.14-8.22c0-6.25-.26-12.55-.77-18.74a3.42,3.42,0,0,1,6.81-.56c.52,6.37.79,12.86.79,19.3q0,4.25-.15,8.47A3.42,3.42,0,0,1,1762.1,877.54Zm-8.47-71.06a3.44,3.44,0,0,1-3.29-2.49l-.75-2.64a236.91,236.91,0,0,0-8-22.87,3.41,3.41,0,0,1,6.32-2.58,241.53,241.53,0,0,1,8.2,23.53l.78,2.71a3.41,3.41,0,0,1-2.37,4.21A3.3,3.3,0,0,1,1753.63,806.48Z" transform="translate(-28.28 -7.3)"/><path class="cls-5" d="M1483.58,1098a3.88,3.88,0,0,1-.67-.06c-4.55-.91-9.08-2-13.49-3.1a3.42,3.42,0,0,1,1.72-6.61c4.28,1.12,8.69,2.13,13.11,3a3.41,3.41,0,0,1-.67,6.76Z" transform="translate(-28.28 -7.3)"/><path class="cls-5" d="M1330.43,991.75a3.39,3.39,0,0,1-2.9-1.62c-2.4-3.88-4.73-7.92-6.93-12a3.41,3.41,0,1,1,6-3.24c2.13,4,4.4,7.87,6.72,11.64a3.41,3.41,0,0,1-1.11,4.7A3.36,3.36,0,0,1,1330.43,991.75Z" transform="translate(-28.28 -7.3)"/><path class="cls-5" d="M1306.59,939.7a3.42,3.42,0,0,1-3.26-2.38c-.57-1.79-1.11-3.59-1.64-5.41-2-6.91-3.73-14-5.12-21a3.41,3.41,0,1,1,6.7-1.31c1.35,6.84,3,13.72,5,20.43q.78,2.65,1.6,5.25a3.41,3.41,0,0,1-2.22,4.29A3.35,3.35,0,0,1,1306.59,939.7Zm-11-69.52a3.41,3.41,0,0,1-3.41-3.38v-1.24a236.45,236.45,0,0,1,1.45-26,3.47,3.47,0,0,1,3.77-3,3.43,3.43,0,0,1,3,3.77,227.77,227.77,0,0,0-1.41,25.29v1.18a3.41,3.41,0,0,1-3.38,3.44Zm10.33-69.63a3.53,3.53,0,0,1-1-.15,3.43,3.43,0,0,1-2.26-4.27,238.49,238.49,0,0,1,9.53-25.57,3.41,3.41,0,0,1,6.25,2.74,230.72,230.72,0,0,0-9.25,24.84A3.41,3.41,0,0,1,1305.92,800.55Zm30.59-63.38a3.41,3.41,0,0,1-2.81-5.34,237.74,237.74,0,0,1,16.68-21.59,3.41,3.41,0,0,1,5.15,4.48,232.69,232.69,0,0,0-16.2,21A3.42,3.42,0,0,1,1336.51,737.17Zm48-51.4a3.41,3.41,0,0,1-2.12-6.09,235.68,235.68,0,0,1,22.38-15.62,3.41,3.41,0,1,1,3.58,5.81A228.81,228.81,0,0,0,1386.67,685,3.42,3.42,0,0,1,1384.56,685.77Zm61.23-34.66a3.41,3.41,0,0,1-1.21-6.6c5.91-2.25,12-4.29,18.1-6.06q3.94-1.16,7.91-2.16a3.41,3.41,0,1,1,1.69,6.61q-3.85,1-7.69,2.1c-5.92,1.73-11.84,3.71-17.59,5.89A3.44,3.44,0,0,1,1445.79,651.11Zm68.78-14.9a3.41,3.41,0,0,1-.21-6.82,236.66,236.66,0,0,1,27.3-.13,3.42,3.42,0,0,1,3.23,3.59,3.37,3.37,0,0,1-3.59,3.23,229.73,229.73,0,0,0-26.51.12Z" transform="translate(-28.28 -7.3)"/><path class="cls-5" d="M1598,646.24a3.18,3.18,0,0,1-1-.16c-4.26-1.32-8.62-2.54-13-3.61a3.41,3.41,0,0,1,1.64-6.63c4.46,1.11,8.95,2.36,13.33,3.72a3.42,3.42,0,0,1-1,6.68Z" transform="translate(-28.28 -7.3)"/><path class="cls-22" d="M1603.1,702.54a2.82,2.82,0,0,0-3.24.28l-25.95,22.09a148.22,148.22,0,0,0-47.61-6.77l-18.77-28.42a2.82,2.82,0,0,0-3-1.17l-39.58,10.19a2.79,2.79,0,0,0-2.1,2.48l-2.73,33.95a148.43,148.43,0,0,0-38.43,28.9l-33.39-6.82a2.8,2.8,0,0,0-3,1.32l-20.79,35.19a2.79,2.79,0,0,0,.28,3.24l22.08,26a148.22,148.22,0,0,0-6.77,47.61l-28.42,18.77a2.81,2.81,0,0,0-1.16,3L1360.69,932a2.81,2.81,0,0,0,2.49,2.1l33.94,2.73A148.24,148.24,0,0,0,1426,975.21l-6.83,33.39a2.8,2.8,0,0,0,1.32,3l35.19,20.79a2.79,2.79,0,0,0,3.24-.28l26-22.08a148.24,148.24,0,0,0,47.62,6.77l18.77,28.42a2.8,2.8,0,0,0,3,1.16l39.59-10.18a2.82,2.82,0,0,0,2.09-2.49l2.73-33.94a148.46,148.46,0,0,0,38.44-28.91l33.38,6.83a2.81,2.81,0,0,0,3-1.32l20.79-35.19a2.82,2.82,0,0,0-.28-3.24L1672,912a148.24,148.24,0,0,0,6.77-47.62l28.42-18.77a2.82,2.82,0,0,0,1.17-3L1698.12,803a2.79,2.79,0,0,0-2.48-2.09l-34-2.73a148.65,148.65,0,0,0-28.9-38.44l6.82-33.38a2.81,2.81,0,0,0-1.32-3Z" transform="translate(-28.28 -7.3)"/><path class="cls-5" d="M1529.46,908.89a41.55,41.55,0,0,1-11.75-1.71,41.13,41.13,0,1,1,11.75,1.71Zm-.1-72.62a31.25,31.25,0,1,0,8.85,1.28A31,31,0,0,0,1529.36,836.27Z" transform="translate(-28.28 -7.3)"/><path class="cls-5" d="M1528.85,972a103.87,103.87,0,0,1-100.3-77.95,104.33,104.33,0,0,1-3.31-26,103.91,103.91,0,0,1,98.58-103.45l.48,0,.73,0,.4,10.24a93.57,93.57,0,0,0-88.11,111.74q.51,2.51,1.15,5a93.51,93.51,0,1,0,156.33-89.79l7.19-7.28A103.84,103.84,0,0,1,1528.85,972Z" transform="translate(-28.28 -7.3)"/><path class="cls-20" d="M2363.51,795a3.4,3.4,0,0,1-2.82-1.49c-2.55-3.73-5.18-7.44-7.84-11a3.41,3.41,0,1,1,5.48-4.07c2.71,3.65,5.4,7.42,8,11.23a3.42,3.42,0,0,1-2.82,5.34Z" transform="translate(-28.28 -7.3)"/><path class="cls-20" d="M2071.84,1341.15h0c-9.14-.08-18.4-.52-27.53-1.33a3.41,3.41,0,1,1,.6-6.8c8.95.79,18,1.23,27,1.31a3.41,3.41,0,0,1,0,6.82Zm44.27-2.44a3.41,3.41,0,0,1-.41-6.8c8.89-1.06,17.87-2.49,26.7-4.25a3.41,3.41,0,1,1,1.33,6.69c-9,1.8-18.15,3.26-27.21,4.34A2.88,2.88,0,0,1,2116.11,1338.71Zm69.81-15.69a3.41,3.41,0,0,1-1.08-6.65c8.5-2.84,17-6,25.27-9.54a3.41,3.41,0,0,1,2.66,6.28c-8.43,3.57-17.1,6.84-25.77,9.73A3.44,3.44,0,0,1,2185.92,1323Zm65.17-29.45a3.42,3.42,0,0,1-1.72-6.37c7.75-4.51,15.41-9.39,22.79-14.5a3.41,3.41,0,1,1,3.88,5.61c-7.51,5.21-15.33,10.19-23.24,14.79A3.34,3.34,0,0,1,2251.09,1293.57Zm57.73-42.17a3.41,3.41,0,0,1-2.29-5.94c6.66-6,13.16-12.36,19.34-18.88a3.41,3.41,0,1,1,5,4.7c-6.29,6.65-12.93,13.12-19.71,19.24A3.41,3.41,0,0,1,2308.82,1251.4Zm47.9-53.1a3.36,3.36,0,0,1-2-.66,3.42,3.42,0,0,1-.74-4.77c5.29-7.23,10.37-14.77,15.1-22.41a3.41,3.41,0,1,1,5.8,3.59c-4.82,7.79-10,15.48-15.39,22.86A3.42,3.42,0,0,1,2356.72,1198.3Zm36.14-61.73a3.39,3.39,0,0,1-1.42-.3,3.43,3.43,0,0,1-1.69-4.53c3.72-8.14,7.17-16.56,10.25-25a3.41,3.41,0,0,1,6.41,2.34c-3.14,8.62-6.65,17.2-10.44,25.51A3.43,3.43,0,0,1,2392.86,1136.57Zm22.87-67.78a4,4,0,0,1-.76-.08,3.41,3.41,0,0,1-2.57-4.09c2-8.74,3.64-17.68,4.93-26.57a3.37,3.37,0,0,1,3.87-2.88,3.41,3.41,0,0,1,2.89,3.86c-1.32,9.07-3,18.19-5,27.1A3.41,3.41,0,0,1,2415.73,1068.79Zm8.54-71h0a3.41,3.41,0,0,1-3.37-3.47c0-1.87,0-3.73,0-5.61,0-7.1-.22-14.31-.66-21.43a3.41,3.41,0,1,1,6.81-.42c.45,7.25.68,14.61.68,21.85,0,1.91,0,3.82-.05,5.72A3.41,3.41,0,0,1,2424.27,997.75Zm-6.21-71.29a3.4,3.4,0,0,1-3.35-2.77c-1.7-8.82-3.76-17.68-6.13-26.33a3.42,3.42,0,0,1,6.59-1.8c2.41,8.82,4.51,17.85,6.24,26.85a3.4,3.4,0,0,1-2.71,4A3.47,3.47,0,0,1,2418.06,926.46Zm-20.54-68.53a3.42,3.42,0,0,1-3.15-2.11c-3.44-8.29-7.24-16.55-11.31-24.55a3.41,3.41,0,1,1,6.09-3.09c4.14,8.15,8,16.57,11.53,25a3.42,3.42,0,0,1-1.85,4.46A3.56,3.56,0,0,1,2397.52,857.93Z" transform="translate(-28.28 -7.3)"/><path class="cls-20" d="M2000.58,1333.11a3.63,3.63,0,0,1-.73-.08c-4.47-1-9-2.06-13.4-3.21a3.42,3.42,0,1,1,1.72-6.61c4.33,1.13,8.75,2.19,13.14,3.15a3.42,3.42,0,0,1-.73,6.75Z" transform="translate(-28.28 -7.3)"/><path class="cls-20" d="M1778,1175.52a3.44,3.44,0,0,1-2.91-1.62c-2.44-4-4.79-8-7-11.87a3.41,3.41,0,1,1,5.94-3.35c2.17,3.84,4.48,7.75,6.88,11.63a3.42,3.42,0,0,1-1.12,4.7A3.36,3.36,0,0,1,1778,1175.52Z" transform="translate(-28.28 -7.3)"/><path class="cls-20" d="M1752,1124.5a3.42,3.42,0,0,1-3.16-2.12c-3.39-8.31-6.52-16.88-9.29-25.47a3.42,3.42,0,0,1,6.5-2.1c2.71,8.43,5.78,16.84,9.11,25a3.42,3.42,0,0,1-1.86,4.46A3.53,3.53,0,0,1,1752,1124.5ZM1732,1057a3.41,3.41,0,0,1-3.35-2.77c-1.69-8.84-3.05-17.86-4.06-26.81a3.41,3.41,0,1,1,6.78-.77c1,8.78,2.33,17.63,4,26.3a3.4,3.4,0,0,1-2.71,4A3.47,3.47,0,0,1,1732,1057Zm-6.15-70.14h0a3.42,3.42,0,0,1-3.37-3.46c.13-9,.61-18.12,1.44-27.09a3.41,3.41,0,1,1,6.8.63c-.82,8.79-1.29,17.73-1.41,26.55A3.42,3.42,0,0,1,1725.86,986.87Zm8.13-69.93a3.71,3.71,0,0,1-.73-.08,3.41,3.41,0,0,1-2.6-4.07c1.94-8.77,4.24-17.6,6.86-26.23a3.42,3.42,0,0,1,6.54,2c-2.57,8.46-4.83,17.12-6.74,25.72A3.4,3.4,0,0,1,1734,916.94Zm22-66.86a3.24,3.24,0,0,1-1.38-.3,3.4,3.4,0,0,1-1.73-4.5c3.67-8.25,7.7-16.43,12-24.33a3.41,3.41,0,0,1,6,3.24c-4.19,7.75-8.13,15.78-11.74,23.86A3.39,3.39,0,0,1,1756,850.08ZM1790.94,789a3.41,3.41,0,0,1-2.78-5.4c5.24-7.34,10.82-14.56,16.58-21.45a3.41,3.41,0,0,1,5.24,4.38c-5.65,6.76-11.12,13.84-16.26,21A3.43,3.43,0,0,1,1790.94,789Zm46.41-52.89a3.41,3.41,0,0,1-2.32-5.91c6.59-6.13,13.5-12.09,20.54-17.69a3.42,3.42,0,0,1,4.26,5.34c-6.91,5.5-13.69,11.33-20.15,17.35A3.41,3.41,0,0,1,1837.35,736.08Zm56.12-42.47a3.41,3.41,0,0,1-1.77-6.33c7.7-4.69,15.67-9.12,23.7-13.18a3.41,3.41,0,0,1,3.08,6.09c-7.87,4-15.68,8.33-23.24,12.92A3.35,3.35,0,0,1,1893.47,693.61ZM1957,663.33a3.41,3.41,0,0,1-1.15-6.63c6.72-2.41,13.63-4.65,20.55-6.67q2.65-.78,5.3-1.5a3.41,3.41,0,1,1,1.81,6.58c-1.73.48-3.47,1-5.2,1.47-6.78,2-13.57,4.18-20.16,6.55A3.57,3.57,0,0,1,1957,663.33Zm68.3-17a3.41,3.41,0,0,1-.49-6.79c8.9-1.3,18-2.26,27-2.87a3.42,3.42,0,0,1,.46,6.82c-8.82.59-17.72,1.53-26.45,2.8A2.77,2.77,0,0,1,2025.3,646.29Zm97.07-.39a3.71,3.71,0,0,1-.47,0c-8.75-1.2-17.66-2.08-26.47-2.6a3.4,3.4,0,0,1-3.2-3.6,3.46,3.46,0,0,1,3.6-3.21c9,.53,18.07,1.42,27,2.64a3.42,3.42,0,0,1-.46,6.8Z" transform="translate(-28.28 -7.3)"/><path class="cls-20" d="M2178.4,658.36a3.58,3.58,0,0,1-1-.15c-4.33-1.34-8.69-2.61-13-3.76a3.41,3.41,0,0,1,1.77-6.59c4.37,1.17,8.82,2.46,13.23,3.83a3.41,3.41,0,0,1-1,6.67Z" transform="translate(-28.28 -7.3)"/><path class="cls-23" d="M2186.11,744.34a4.19,4.19,0,0,0-4.85.42l-38.84,33.06a222,222,0,0,0-71.27-10.14l-28.1-42.53a4.2,4.2,0,0,0-4.54-1.75l-59.25,15.24a4.19,4.19,0,0,0-3.13,3.72L1972,793.17a222,222,0,0,0-57.53,43.27l-50-10.21a4.19,4.19,0,0,0-4.45,2L1829,880.87a4.19,4.19,0,0,0,.42,4.85l33,38.84a222.22,222.22,0,0,0-10.13,71.27l-42.53,28.1a4.19,4.19,0,0,0-1.75,4.54l15.24,59.25a4.19,4.19,0,0,0,3.72,3.13l50.81,4.09a222,222,0,0,0,43.27,57.53l-10.22,50a4.21,4.21,0,0,0,2,4.45L1965.5,1238a4.19,4.19,0,0,0,4.85-.42l38.84-33.06a222.23,222.23,0,0,0,71.27,10.14l28.09,42.53a4.21,4.21,0,0,0,4.54,1.75l59.26-15.24a4.19,4.19,0,0,0,3.13-3.73l4.09-50.8a222,222,0,0,0,57.53-43.27l50,10.21a4.19,4.19,0,0,0,4.45-2l31.12-52.67a4.19,4.19,0,0,0-.42-4.85l-33.06-38.84a222.23,222.23,0,0,0,10.14-71.27l42.53-28.1a4.2,4.2,0,0,0,1.75-4.54l-15.24-59.25a4.19,4.19,0,0,0-3.73-3.13l-50.8-4.09a222.26,222.26,0,0,0-43.27-57.53l10.21-50a4.19,4.19,0,0,0-2-4.45Z" transform="translate(-28.28 -7.3)"/><path class="cls-4" d="M2075.89,1050.65a59.69,59.69,0,0,1-16.88-2.45A59.44,59.44,0,0,1,2047.36,939h0a59.44,59.44,0,1,1,28.53,111.67Zm-.15-108.7a49,49,0,0,0-23.48,6h0a49.2,49.2,0,1,0,37.44-4A49.57,49.57,0,0,0,2075.74,942Zm-25.93,1.53h0Z" transform="translate(-28.28 -7.3)"/><path class="cls-4" d="M2075.26,1145.1c-68,0-130.24-45.85-148-114.7a153.61,153.61,0,0,1-4.88-38.33,152.92,152.92,0,0,1,114.76-147.65h0l1-.27a154,154,0,0,1,29.66-4.4l.51,0,1,0,.4,10.24a142.51,142.51,0,1,0,41,280.43c64.24-16.52,107-74.57,107-138a142.79,142.79,0,0,0-42.3-101.3l7.2-7.28A153,153,0,0,1,2228,992.31c0,68-45.85,130.25-114.71,148A152.48,152.48,0,0,1,2075.26,1145.1Z" transform="translate(-28.28 -7.3)"/><path class="cls-24" d="M2847.67,3115.85a387.63,387.63,0,0,1,4.67,40.68,17.53,17.53,0,0,1-15.79,18.49c-32.67,3.17-107,9-154.5,2.17a8,8,0,0,1-4.38-13.71c19.58-18.24,66.86-53.72,144.68-61.48Z" transform="translate(-28.28 -7.3)"/><path class="cls-25" d="M2863.91,3073.92l-16.52,40.49a13.5,13.5,0,0,1-13.85,8.37,73.69,73.69,0,0,1-13.49-2.61,17.74,17.74,0,0,1-11.79-22.05l12.47-41.69Z" transform="translate(-28.28 -7.3)"/><path class="cls-26" d="M3146.28,3148.09s-33.07,27.67-46,63.17c-3.54,9.76,3.95,20,14.33,20h68.06a16.06,16.06,0,0,0,15.87-18.78C3194.24,3188,3181.74,3148.19,3146.28,3148.09Z" transform="translate(-28.28 -7.3)"/><path class="cls-27" d="M3187.25,3112.08s-6.68,29.57-11.81,49.11a6.26,6.26,0,0,1-8.18,4.25c-10.3-3.68-18.68-5.31-24.77-4.49a4.81,4.81,0,0,1-5.31-4.8l-.64-49.12Z" transform="translate(-28.28 -7.3)"/><path class="cls-28" d="M3011.35,2446.72l-201.16,613.71s38.58,25.27,57,24.22l238.95-493.22s41.81,303.9,21.55,522.08l68.44,5.23s111.28-557.56,27-748.53Z" transform="translate(-28.28 -7.3)"/><path class="cls-29" d="M3104.8,2586.13l.25,0a2,2,0,0,0,1.69-2.17l-7.81-62a1.95,1.95,0,1,0-3.86.49l7.8,62A2,2,0,0,0,3104.8,2586.13Z" transform="translate(-28.28 -7.3)"/><path class="cls-30" d="M2973.64,1906.68s163,14.48,139.93,130.61c0,0,90.09,169.54,132.21,369.27a11.74,11.74,0,0,1-9.53,14L2964.83,2467a14.61,14.61,0,0,1-16.61-10.74l-64.85-250.64-25.28,116.53-80.29-20.92,67.59-342.43S2854.82,1908.83,2973.64,1906.68Z" transform="translate(-28.28 -7.3)"/><path class="cls-4" d="M2882,2194.4a2.18,2.18,0,0,0,.43-.05,2,2,0,0,0,1.54-2.41l-22.62-103.88a2,2,0,1,0-4,.86L2880,2192.8A2,2,0,0,0,2882,2194.4Z" transform="translate(-28.28 -7.3)"/><path class="cls-31" d="M2898.37,2503.54a38.69,38.69,0,0,1,28-3.65l18.88,4.7a6.83,6.83,0,0,0,8.45-5.88l19.55-173.94c24.43,11.61,59.68,10.22,71.31,9.37l-45,205.06h-157.4Z" transform="translate(-28.28 -7.3)"/><path class="cls-32" d="M2480.17,2126.24l4.75-15.81a31.31,31.31,0,0,1,18.28-20l86.05-34.6s1.3-11-18.18-18.53-14.93-29.32-14.93-29.32,26.61,12.14,65.57,31.39c22.28,11,34.78,30.46,41.41,45.09l195,237.69-22.89,15.73a61.11,61.11,0,0,1-88.6-21.75L2641,2113.58C2587.94,2129.51,2534.28,2132.56,2480.17,2126.24Z" transform="translate(-28.28 -7.3)"/><path class="cls-33" d="M2920.84,1795.8,2971,1936.1s-44.39,34.7-76.78,23l-25.27-80.42S2888.22,1780.35,2920.84,1795.8Z" transform="translate(-28.28 -7.3)"/><path class="cls-34" d="M2771.23,1745.42c0,2.16,48.28,136.69,48.28,136.69l76.24-29.2-26.83-134.31S2771.23,1709.22,2771.23,1745.42Z" transform="translate(-28.28 -7.3)"/><path class="cls-35" d="M2855.55,1751.32l19.66,69.6a10,10,0,0,1,.38,2.72c0,5.67-1.4,25.2-21.29,22.55-18.06-2.41-34.57-4.34-45.07.6a10.1,10.1,0,0,0-5.21,12.55c4.39,12.22,14.8,39.58,27.46,62a10.07,10.07,0,0,0,13,4.15c14.32-6.51,44.13-21.09,65.36-38.44a10.12,10.12,0,0,0,3.58-9.7c-3.34-17.81-13.29-72-13.73-87.48-.41-14.56,15.93-25.68,23.13-29.86a10,10,0,0,0,4.67-6.28c2.26-9.38,4.18-30.6-22.89-35.27a10.12,10.12,0,0,1-8.21-12c2.3-11.22,1.56-27.72-19.73-33.8-21.64-6.17-35.26,6.86-42.19,16.84a10.11,10.11,0,0,1-12.52,3.35c-2.56-1.14-5.65-1.19-9,1.6a10,10,0,0,1-14.56-2.21c-6.31-9.29-17.77-18.56-37.18-12.28-34.44,11.14-32.8,50.85-20.17,72.44s49.28,7.38,66.63-6.92c13.19-10.88,33.28-4.37,42.15-.63A10,10,0,0,1,2855.55,1751.32Z" transform="translate(-28.28 -7.3)"/><path class="cls-36" d="M2906.55,1815.25s-20.38-38.55-6.9-50.66,36.31-10.13,35.7,20C2934.58,1822.12,2906.55,1815.25,2906.55,1815.25Z" transform="translate(-28.28 -7.3)"/><path class="cls-4" d="M3028.77,2336.75a193.17,193.17,0,0,0,19.92-.94l1.45-.16,59.35-276.7a2,2,0,1,0-3.95-.85l-58.73,273.83c-8.84.78-56,3.91-80.9-13.73l51.41-240.4-10.73-20.22a2,2,0,1,0-3.57,1.89l10,18.93-51.64,241.5,1,.77C2980.44,2334.19,3009.42,2336.75,3028.77,2336.75Z" transform="translate(-28.28 -7.3)"/><path class="cls-4" d="M2952,3255a10.92,10.92,0,0,0,4.61-1c5.93-2.79,8.67-10.29,6.12-16.76l-245.12-621.94c-2.55-6.47-9.42-9.46-15.35-6.68s-8.67,10.29-6.12,16.76l245.11,621.94A11.72,11.72,0,0,0,2952,3255Z" transform="translate(-28.28 -7.3)"/><path class="cls-4" d="M2675.84,3255a11.7,11.7,0,0,0,10.74-7.72l245.12-621.94c2.55-6.47-.19-14-6.12-16.76s-12.8.2-15.35,6.68L2665.11,3237.2c-2.55,6.47.19,14,6.12,16.76A10.89,10.89,0,0,0,2675.84,3255Z" transform="translate(-28.28 -7.3)"/><path class="cls-4" d="M1908.61,3255a10.93,10.93,0,0,0,4.62-1c5.93-2.79,8.67-10.29,6.12-16.76l-245.12-621.94c-2.55-6.47-9.42-9.46-15.36-6.68s-8.67,10.29-6.11,16.76l245.11,621.94A11.71,11.71,0,0,0,1908.61,3255Z" transform="translate(-28.28 -7.3)"/><path class="cls-4" d="M1632.48,3255a11.7,11.7,0,0,0,10.74-7.72l245.12-621.94c2.55-6.47-.19-14-6.12-16.76s-12.8.2-15.35,6.68L1621.75,3237.2c-2.55,6.47.19,14,6.12,16.76A10.89,10.89,0,0,0,1632.48,3255Z" transform="translate(-28.28 -7.3)"/><rect class="cls-37" x="2015.73" y="2828.59" width="28.98" height="313.41"/><path class="cls-37" d="M1931.59,3155.35h253.83v-9.51a9.35,9.35,0,0,0-9.35-9.35H1940.94a9.34,9.34,0,0,0-9.35,9.35Z" transform="translate(-28.28 -7.3)"/><rect class="cls-37" x="1865.63" y="2758.37" width="319.14" height="90.51" rx="31.17"/><path class="cls-38" d="M2272.45,2626.92s43.07,6.68,91.49,39a24.12,24.12,0,0,1,10.65,23.06c-5.8,45.93-29.64,194.57-108.24,339.75a36.53,36.53,0,0,0-3.51,25.08l13.65,63.55,25.33,23.75h-65.23l-43.44-117.54,18.58-5.87a35.15,35.15,0,0,0,24.54-32.9l2.18-126.09c-1.86-56.18,34.44-94.94,34.44-94.94l-104.18-5.06Z" transform="translate(-28.28 -7.3)"/><path class="cls-39" d="M2327.29,3152.63c5.94,7.77-63.94,18-99.24,1,0,0-49-85.15-49-129,0,0,3.89-8.94,32.63-6.91,0,0,16.43,100.82,33.78,112.12s48.55,1.14,48.55,1.14S2318.53,3141.15,2327.29,3152.63Z" transform="translate(-28.28 -7.3)"/><path class="cls-40" d="M2181.89,2765.67c.56-1,112.17-13.42,112.17-13.42s-3.65,33.94,7.76,80.65S2477.11,3082,2477.11,3082l-17.18,54.47c53.12,18.5,105.38,21.46,156.8,9.43L2510.25,3082s-99.66-339.62-160.71-400.21l-111.87-38.7Z" transform="translate(-28.28 -7.3)"/><path class="cls-41" d="M1931.59,2568.06s-64.31,95.65-69.59,139.28,17.62,61.35,85.09,64.28,247.6,2.87,247.6,2.87l153.73-131.38s-112-40-141.16-51.28S1931.59,2568.06,1931.59,2568.06Z" transform="translate(-28.28 -7.3)"/><path class="cls-42" d="M2466.42,3118.14s-18.5,17.92-6,37.86c0,0,146.54,26,186.32,14.18,0,0-8.26-18.85-53.06-40.31l3.31,2.53a5.35,5.35,0,0,1-3.54,9.6C2563.93,3140.32,2502.83,3134.91,2466.42,3118.14Z" transform="translate(-28.28 -7.3)"/><path class="cls-43" d="M2061.54,2030.75c-9.72,3-44.74,15.6-40.22,38.13a4.12,4.12,0,0,1-5.16,4.72c-15.09-4.06-48.43-9.18-69.1,16.72-18.24,22.86-4.61,44.44,6.51,56.28a4.14,4.14,0,0,1-3.46,7c-27.75-3.5-88-4.34-97.9,52.14-9.2,52.66,27.46,67.52,49.2,71.7a4.12,4.12,0,0,1,1.37,7.55c-10.84,6.88-23.41,21.1-18.33,49.16,8,44,94.18,40.38,104.26,39.81a4.1,4.1,0,0,0,1.8-.54l138.11-78.77a4.11,4.11,0,0,0,2-2.9l27.88-161a4.16,4.16,0,0,0-1.09-3.59l-91.7-95.3A4.13,4.13,0,0,0,2061.54,2030.75Z" transform="translate(-28.28 -7.3)"/><path class="cls-44" d="M2105.49,2555.4s74.88-71.3,111.74-118.53a100.18,100.18,0,0,0,17-90.18c-16.83-56.7-46.73-115.42-49.46-124.56-4.18-14-88.15-13.43-88.15-13.43s-165.22,107.23-230.14,288.87l72.91,22.7s43.14-72.37,85.76-118.39c0,0-73.75,97.44-76.35,137.32Z" transform="translate(-28.28 -7.3)"/><path class="cls-45" d="M2194.89,2143.83c-.87,2.91-22.79,75.57-24.5,77.07s-48.06,4-69.88-10.91l37-77.47Z" transform="translate(-28.28 -7.3)"/><path class="cls-46" d="M2158.89,1991.24s39.57,16.7,66.47,73.87,6.81,83.57-18.42,87.19-63,3.08-102.89-33.86S2107.46,1971.44,2158.89,1991.24Z" transform="translate(-28.28 -7.3)"/><path class="cls-47" d="M2130.88,2087.92s-29.85-83.64,44.31-84.63l17.45,12.2s27.21-46.37-17.45-68.51-96.92-3.85-115.93,56.31-22.25,100.44,9.37,129.23,44.65-3.85,44.65-3.85-17.22-26.93-10.21-41.33,23.17,3,23.17,3Z" transform="translate(-28.28 -7.3)"/><path class="cls-48" d="M2122.57,2097.24s-15.1-43.09-35.23-25.93,16.36,39.8,30.65,47.13Z" transform="translate(-28.28 -7.3)"/><path class="cls-49" d="M2258.05,2560.69l-55-53-76.11,32.16s-75.76,11.73-119.12,0l-43.36-11.74-98-30.51-15.39,43.5a26.19,26.19,0,0,0,9.57,30.08c8.48,6,18.42,12.65,24.75,15.42,12.9,5.64,318.09-3.91,318.09-3.91Z" transform="translate(-28.28 -7.3)"/><path class="cls-50" d="M2049.84,2585.69c.24,0,.49,0,.73,0l319.15-.35a14.29,14.29,0,1,0,0-28.57l-319.15.35a14.28,14.28,0,0,0-.7,28.55Z" transform="translate(-28.28 -7.3)"/><path class="cls-51" d="M2656.62,2295.93H2390.83A50.64,50.64,0,0,0,2345,2325l-122.88,260.54h330.31a30.79,30.79,0,0,0,28.63-19.47l95.29-241.1A21.23,21.23,0,0,0,2656.62,2295.93Z" transform="translate(-28.28 -7.3)"/><ellipse class="cls-4" cx="2489.31" cy="2435.93" rx="34.04" ry="20.94" transform="translate(-620.46 4051.87) rotate(-72.16)"/><path class="cls-4" d="M2689.94,2575.5H3004v-32.41h-314.1C2696.66,2543.09,2696.66,2575.5,2689.94,2575.5Z" transform="translate(-28.28 -7.3)"/><path class="cls-52" d="M3000.62,2575.5a3.42,3.42,0,0,0,3.42-3.41V2546.5a3.42,3.42,0,0,0-3.42-3.41H2683.77a3.43,3.43,0,0,1-3.41-3.41v-.51a3.43,3.43,0,0,1,3.41-3.41H3022a13.57,13.57,0,0,1,13.57,13.56V2570a12.79,12.79,0,0,1-12.79,12.79h-339a3.42,3.42,0,0,1-3.41-3.41v-.5a3.43,3.43,0,0,1,3.41-3.42Z" transform="translate(-28.28 -7.3)"/><path class="cls-4" d="M1603.79,2597.35a11.17,11.17,0,0,1,3-10.2,15.16,15.16,0,0,1,11-4.49H3055.2a17.11,17.11,0,0,1,13.79,6.55,12.64,12.64,0,0,1,1.07,13.62l-15.58,29.28c-3.57,6.71-11.3,11-19.8,11H1627.61c-7.91,0-14.71-4.87-16.21-11.62Z" transform="translate(-28.28 -7.3)"/></g></g></svg>