<svg id="Calque_1" data-name="Calque 1" xmlns="http://www.w3.org/2000/svg" viewBox="0 0 1295 387"><defs><style>.cls-1{fill:#848dc4;}.cls-2{fill:#838cc4;}.cls-3{fill:#9889b8;}.cls-4{fill:#1c2141;}.cls-5{fill:#f17e82;}.cls-6{fill:#edf3f8;}.cls-7{fill:#1c2344;}.cls-8{fill:#998bb9;}.cls-9{fill:#d5c0d6;}.cls-10{fill:#253466;}.cls-11{fill:#a33a78;}.cls-12{fill:#9d2367;}.cls-13{fill:#783576;}.cls-14{fill:#1e2549;}.cls-15{fill:#edf4f9;}.cls-16{fill:#faecea;}.cls-17{fill:#594b89;}.cls-18{fill:#fafafb;}.cls-19{fill:#c8c5da;}.cls-20{fill:#b6cce0;}.cls-21{fill:#d0c2d6;}.cls-22{fill:#032f58;}.cls-23{fill:#eed3b6;}.cls-24{fill:#abcfe3;}.cls-25{fill:#ad454c;}.cls-26{fill:#d63e3c;}.cls-27{fill:#c0c9db;}.cls-28{fill:#3d1555;}.cls-29{fill:#5a56a3;}.cls-30{fill:#d5403e;}.cls-31{fill:red;opacity:0.72;}</style></defs><path class="cls-1" d="M1074,.89h221v387H1146a33,33,0,0,1,1-3.61c.6-1.54,1.45-3,2.06-4.5.73-1.8.81-3.49-.83-5s-3.35-2.06-5.45-1.18a18.66,18.66,0,0,0-3.22,1.29c-5.29,3.51-10.18,7.46-13.52,13h-24l-.06-7.5,10.87-.87,4.22-.38,2.42-1.1c5.61-2.8,6.38-6.3,2-9.3-1.6-1.84-3.38-2.17-5.36-.61-4.84.5-7.78,4-11.07,7l-3.11,1.39V363.05l9.08-.76,5.93-.3c2,.9,3.92,1,5.48-.92a11,11,0,0,0,8.27-4.73c2.64-3.59,1.16-8-3.09-9.5s-8.09-.45-11.58,2.22l-1.09.81-10.11,8c-4.2,2.23-2.4-1.74-3.17-3.06,0-.59,0-1.18,0-1.77l.35-9.36a.87.87,0,0,0,.78-.31l18.21-.43c2.62.94,4.75.15,6.52-1.87l1.49-.55,3-2.59a6.16,6.16,0,0,0,1.66-7.68c-1.3-2.87-4-3.61-7.09-3.69a18.6,18.6,0,0,0-12,4.05c-4.2,3.18-8.44,6.31-12.66,9.47l-.05-.08-.31-14.1c.16-2.15,1.34-3.13,3.47-3l12,0a52.43,52.43,0,0,0,5.47-.17c4.7-.64,9.07-2.08,12.25-5.91,1.77-2.14,3-4.56,1.91-7.33a7.62,7.62,0,0,0-6.6-4.64,18.06,18.06,0,0,0-12.74,3.35c-3.65,2.57-7,5.51-10.53,8.31-1.32,1.06-2.6,2.16-4.51,3.75-.39-6.19-.7-11.29-1-16.39a.91.91,0,0,0,0-.65,1.59,1.59,0,0,0,.74-.41L1119,302a19.39,19.39,0,0,0,15-6.39c4-4.3,2.57-9.87-3-11.46a14,14,0,0,0-11,1.36c-3.28,1.89-6.3,4.23-9.44,6.37l-8.78,6q.12-8.1.25-16.2c7.64-.28,15.31-.27,22.91-1a13.17,13.17,0,0,0,10.95-6.92c2.15-4,1.19-7.68-2.88-9.52s-8.33-2.29-12,.26c-6.5,4.54-12.63,9.62-18.91,14.48H1099a39.34,39.34,0,0,0-3.44-3.51c-6.63-5.36-12.49-12-21.74-13,0-1-.09-2-.09-3q0-127.36,0-254.73C1073.72,3.53,1073.9,2.21,1074,.89Zm25.7,273.68c.83-.61,1.42-.81,1.55-1.18,2.52-7,5.37-13.92,7.32-21.08,1.26-4.62,1-9.57-2.09-13.82-2.85-3.9-6.58-4.39-10.21-1.22-3.89,3.39-4.74,8-4.17,12.7C1093.14,258.52,1096.43,266.42,1099.7,274.57Z" transform="translate(0 -0.89)"/><path class="cls-2" d="M224,387.89H0V.89H199q0,51,0,102,0,124.74,0,249.47c0,15.94,7.55,27.18,22,33.84C222.09,386.66,223,387.32,224,387.89Z" transform="translate(0 -0.89)"/><path class="cls-3" d="M800,.89h252c.1,1.82.3,3.64.3,5.46q0,101.78,0,203.55c0,2-.16,4-.25,6-8.27-.31-16.53-.7-24.8-.92-13.13-.36-25.91-3-38.69-5.68l-16.46-3.45c-1.06-6-2.16-12-3.18-18.06-.89-5.21-1.31-10.59-5.88-14.26l-2.29-1.58a17.43,17.43,0,0,0-11.62-10c-3.17-.93-6.25-2.16-9.37-3.25.79-2.45-.28-4.27-2-5.87,1.86-2.56.81-5.12,0-7.68,1.35-1.19,3.22-2.12,4-3.61,3.59-7.08,9.69-12,14.94-17.58,2.38-2.55,3.44-5.22,2.28-8.54a14.22,14.22,0,0,0-8.75-8.9l-.67-1.51c.53-4-.14-7.48-4.53-9.06a.62.62,0,0,0-.57-.28c-2.82-2.39-5.83-3.56-9.34-1.42l-2.06.16a19,19,0,0,1-9.42-2.63c-3-1.76-6.45-1.34-9.39.87-2.13,1.61-3.93,4-2.87,6.4,1.61,3.62.62,7.12.79,10.66a42,42,0,0,0-3,5c-2.86,6.62-2.12,13.61-1.87,20.55-2,2.42-3.81,5-6,7.24-1.47,1.54-3.1,3.14-1.88,5.12a6.62,6.62,0,0,0,4.33,2.71c3.94.45,8,.29,11.93.37l.78,1.47L913.9,154l-7.46,2.35a16.26,16.26,0,0,0-14.66,3.54,14.73,14.73,0,0,1-2.55,1.44c-8.59-9.17-17.59-18-25.66-27.62a96.71,96.71,0,0,1-17.7-31.4c-2.9-8.6-6.54-17-9.84-25.41a37.83,37.83,0,0,0-1.26-4.25c-5-11.47-10-22.94-15.12-34.34-1.62-3.58-3.72-7-5.6-10.41-.84-1.95-1.55-4-2.55-5.83C807.72,15,803.84,7.94,800,.89Z" transform="translate(0 -0.89)"/><path class="cls-4" d="M720,387.89H339c-.74-4.86-1.31-9.76-2.26-14.58-1.48-7.53-3.23-15-4.87-22.51-.07-.55-.15-1.11-.22-1.66-.41-1.57-.82-3.15-1.24-4.72-.1-.82-.21-1.63-.32-2.45l-.72-2.58c-.09-.47-.19-.93-.28-1.4-.34-.82-.69-1.65-1-2.47q-.53-6-1.06-12,67.65,0,135.31,0c1.81,0,3.61-.3,5.42-.45l1.72.26c3.46.39,6.91,1.14,10.36,1.13q79.86-.22,159.73-.61,22.41-.09,44.82-.23a4.54,4.54,0,0,1,.65.74q17.24,30.21,34.42,60.47A9.8,9.8,0,0,1,720,387.89Zm-83.42-51c-11.17,0-20.12,8.65-20,19.36.15,11.43,8.48,19.82,19.89,20,10.31.2,19.5-9.25,19.46-20A19.52,19.52,0,0,0,636.58,336.87Z" transform="translate(0 -0.89)"/><path class="cls-5" d="M470,.89H799c0,15.26,0,30.52-.11,45.77,0,3.14-.21,6.28-.33,9.42-1.82-.09-3.65-.25-5.48-.25q-158.16,0-316.32,0c-1.77,0-3.55.19-5.92.32,0,5.38.05,10.29,0,15.21-.2,18.8-.57,37.61-.58,56.41,0,5.09,1,10.18,1.6,15.27l-2,0-.8-1.19q-.07-26.44-.14-52.9,0-7,0-14c.07-19.23.08-38.46.24-57.69C469.2,11.76,469.71,6.33,470,.89ZM755,22.82h-6.47q-112.74,0-225.49,0c-11,0-9.83-1.22-9.88,9.9,0,6.07.06,6.13,6.12,6.13h229c1.17,0,2.33,0,3.5,0,2,0,3.2-.94,3.22-3C755,31.72,755,27.61,755,22.82Z" transform="translate(0 -0.89)"/><path class="cls-6" d="M720,387.89a9.8,9.8,0,0,0-.58-3.08Q702.28,354.54,685,324.34a4.54,4.54,0,0,0-.65-.74l-7.89-13.87c-.14-1.28-.29-2.57-.43-3.85,3-1.42,6-2.64,8.82-4.3,3.7-2.2,3.69-3,1.62-6.65-1.68-3-3.13-6.08-4.69-9.12a5.45,5.45,0,0,1,1-1q34-19.38,68.11-38.75L779,230.12l17.05,29.74c.87,1.07,1.75,2.13,2.63,3.19L811,286c-.94,4-2.32,5.4-6.11,5.85-1.3.15-2.66-.05-4,.14-3.6.54-6.41,4.91-4.4,7.13a11.48,11.48,0,0,0,6.12,3.61c4.78.76,9.62.56,13.07-3.9.41-.54,1.46-.58,2.22-.86l6,9.09q4.41,8.38,8.81,16.79L856.84,367c-1.44,1-2.47,1.77-3.6,2.41-7.36,4.22-14.77,8.35-22.1,12.62-3.12,1.81-6.1,3.88-9.14,5.84H771q-4.23-7.69-8.47-15.39l-2.31-3.81L738.9,381c.81,2.66,1.46,4.78,2.1,6.91Zm66.21-105.14-48.37,27.62,2.89,4.47,48.1-27.4Zm13.66,23.91-48.4,27.53,2.91,4.57,48-27.44C801.42,309.56,800.82,308.43,799.87,306.66Zm24.59,43.81-48.07,27.45,3,4.43L827.45,355Zm-19.19-33.83-48.09,27.47c1.11,1.82,1.85,3,2.75,4.52l48.26-27.46ZM735,305l48.34-27.51-3-4.51-48,27.4Zm83.49,35.79-47.83,27.31,3,4.39c15.37-8.74,30.28-17.17,45.14-25.69C821.82,345,821.72,344.53,818.48,340.77Zm-64,16.52-13.07-22.83-22.81,13,12.93,22.83Zm-19.4-33.81c-3.78-6.85-7.13-12.94-10.51-19-1.38-2.49-3-3.7-6-1.9-5.39,3.27-10.91,6.33-16.44,9.35-2.35,1.28-2.46,2.78-1.19,4.86,1.72,2.83,3.35,5.72,5,8.58l6.44,11Z" transform="translate(0 -0.89)"/><path class="cls-7" d="M224,387.89c-1-.57-1.91-1.23-2.92-1.7-14.46-6.66-22-17.9-22-33.84q-.07-124.74,0-249.47,0-51,0-102h21l.12,35.05.2,46.94q0,18,0,36c-.1,8.93-.29,17.85-.28,26.77,0,11.08.17,22.15.27,33.23-.1,1.81-.28,3.62-.28,5.43q0,23.35,0,46.7c0,5,.17,9.91.27,14.87v16c-.07,16.13-.37,32.27-.11,48.39.11,7.11,6,12.64,13.41,13,7.28.38,14.61,0,21.92-.08-.14,5.28-.36,10.56-.39,15.84-.09,16.27-.11,32.54-.16,48.81Z" transform="translate(0 -0.89)"/><path class="cls-4" d="M1054,.89h15c0,7.74-.22,15.48-.19,23.23,0,9.24,0,18.48.17,27.72.11,5.09,0,10.18,0,15.27,0,9.24-.73,18.48,0,27.72.13,1.78-.45,3.6-.55,5.41-.13,2.31-.22,4.63-.12,6.93s.66,4.6.69,6.89c.08,8.09.34,16.19-.06,24.25-.35,6.94.35,13.87-.07,20.73-.57,9.28.21,18.49.17,27.74,0,7.1.07,14.21,0,21.31,0,2.79-.85,5.58-.8,8.36.12,6.63.6,13.24.81,19.87.29,8.93-1.13,17.94,1,26.81-1.14.61-2.32,1.15-3.41,1.84-4.17,2.63-4.81,5.42-1.49,8.91,2.44,2.56,5.49,4.54,8.27,6.78-.11.85-.23,1.7-.34,2.56-3.91.78-8.25,1.34-9,6.2-.81,5,2.88,7.68,6.61,10a4.42,4.42,0,0,0,1.4.33l1.08,1-.09,3.44c-1.29.34-2.61.57-3.86,1-5.64,2-7.11,6.83-3.12,11.32,1.92,2.16,4.74,3.52,7.15,5.25l0,4.14c-.56.26-1.12.53-1.7.76-5.26,2.12-6.5,7-2.68,11.22a40.68,40.68,0,0,0,4.5,3.73l-.15,5.28c-5,3.31-5.5,6.26-1.69,10.63.64.73,1.36,1.4,2,2.1-.22,6.93-3.55,12.79-6.48,18.79-.86-.48-2-.74-2.52-1.47-4.17-6.3-8.21-12.69-12.29-19.05-.2-4.83-1.3-6-5.66-6.21-1.82-.07-3.65-.1-5.48-.14,1.29-5.3,1.53-10.38-2-15.11-5.44-7.25-12.16-8.56-18.1-1.33-4,4.85-4.78,10.42-3,16.39-1.64.11-3.29.1-4.91.33a4.6,4.6,0,0,0-4.33,4.58,4.75,4.75,0,0,0,4.45,4.95c2,.23,3.93.21,5.9.3-.14,2.28-1.5,3.2-3.63,3.21-1.5,0-3,0-4.5-.07-3.23-.25-5.94.28-7.28,3.77s-.75,6.63,1.87,9.16c1.66,1.6,3.91,2.58,5.56,4.17a65.28,65.28,0,0,1,4.92,5.93H949c-.66-4.56-1.65-9.09-1.91-13.67-.56-10.23-.67-20.48-1.14-30.71-.27-5.92-.88-11.82-1.36-17.89l2.45-1.93c4.33-.05,8.65-.14,13-.14q40.44,0,80.89,0c8.26,0,11.69-3.36,11.7-11.25,0-5,.05-10,0-15-.13-11.13-.3-22.27-.45-33.4V257c.15-1.79.42-3.57.44-5.36.11-11.55.16-23.11.24-34.66a26.07,26.07,0,0,1,3.51-3.08c2.3-1.4,2.13-3,.15-4.07-2.41-1.29-2.35-3.19-2.56-5.41-.33-3.66.48-6.63,4-8.37-1.51-1.56-3.63-2.72-3.73-4-.4-5.21-.16-10.47-.16-15.53,6.23-1.21,8-2.3,7.76-4.39s-4-4.67-7.83-5.13c0-3.09.48-6.33-.12-9.36-.78-4,2.9-5.51,4.23-8.63l-4.11-2.06c0-3.28.12-6.44,0-9.59-.17-3.39-.19-6.57,4.74-7.63-1.38-1.28-2.2-2-2.93-2.74s-1.64-1.41-1.66-2.14c-.15-5.1-.08-10.21-.08-15.11,3.16-1.35,7.07-.39,7.74-4.35.38-2.18-4-5.15-7.38-5.36-.9-7.41-.78-8,3.49-18.32-4.33-.29-4-3.42-3.9-6.44,0-2.66-.19-5.35.11-8,.13-1.21,1.19-2.35,2-3.44a16.6,16.6,0,0,1,1.66-1.84c-1.39-1.74-3.4-3.1-3.53-4.62-.43-4.91-.16-9.87-.16-14.61,3.12-1.42,7-.43,7.76-4.35a3.24,3.24,0,0,0-1.38-2.46c-1.86-1.29-3.91-2.3-6.4-3.71,0-1.68.09-4,0-6.31-.17-3.79-.44-7.55,3.67-9.72.2-.11,0-.92,0-1.37C1054,13,1054,13,1054,8.88,1054,6.21,1054,3.55,1054,.89Z" transform="translate(0 -0.89)"/><path class="cls-8" d="M220.12,35.94,220,.89H451c-.57.94-.92,2.2-1.75,2.77-6.16,4.2-12.31,8.42-18.65,12.33a262,262,0,0,1-49.22,23.69c-13.15,4.71-26.51,8.55-40.39,10.45L338,51l-2,.22L331,52l-6,.2-6,.76-34-1-3-.8-4-.19-5-1c-5.39.23-10.41-1.18-15.5-2.92-7.46-2.57-15.14-4.53-22.73-6.76Z" transform="translate(0 -0.89)"/><path class="cls-9" d="M278,50.94l4,.19c.52,2,1.53,2.2,3,.8l34,1c.6.89,1.2,2.54,1.78,2.53,2,0,3.86-.86,4.22-3.29l6-.2c1.9,1.29,3.69,1.91,5-.78l2-.22c1.45,1.37,2.46,1.18,3-.82,13.88-1.9,27.24-5.74,40.39-10.45A262,262,0,0,0,430.6,16c6.34-3.91,12.49-8.13,18.65-12.33.83-.57,1.18-1.83,1.75-2.77h19c-.29,5.44-.8,10.87-.85,16.31-.16,19.23-.17,38.46-.24,57.69-3-3.4-7-3-10.9-3-6.83.07-13.66,0-20.48,0-1.48,0-3.27.17-4.37-.56-4.55-3-9.56-2.44-14.52-2.4-3.48,0-7.47-.76-10.32.65C403.19,72.12,398,72,392.76,71.79a9.82,9.82,0,0,1-5.28-2c-5.11-4-8.34-4.1-13.07.22-4.27,3.89-6.6,3.69-10.29-.86-3-3.64-11.69-5-14.81-1.56-2.94,3.25-6.16,3.34-9.85,3.37a41.79,41.79,0,0,0-6.38.78c-2.6.43-4.86.18-6.79-2-3.78-4.21-9.05-4.85-14.16-4.64-3.11.12-6.88.34-8.93,3.53-1.79,2.8-4.34,3.31-7.3,3.28-4.67,0-9.34.17-14-.08a23.15,23.15,0,0,1-7.14-1.62,25.45,25.45,0,0,0-17.56-.49,39.77,39.77,0,0,1-14.57,2.14c-6.08-.18-12-.85-14.42-7.93-.11-.31-.8-.41-1.72-.85-.59,9.93-1.16,19.57-1.73,29.21l-1.77,0c0-2-.06-4.1,0-6.15s-.39-3.32-2.69-3.2l-.2-46.94,14.65,4.3C242.36,42.47,250,44.43,257.5,47c5.09,1.74,10.11,3.15,15.5,2.92C274.12,52.9,276,52.26,278,50.94Zm187.1,8.34c-3.88,3.29-4,4.54-.84,9.35C467.78,66.66,468.13,62.75,465.08,59.28Z" transform="translate(0 -0.89)"/><path class="cls-10" d="M947,323.69l-2.45,1.93c.48,6.07,1.09,12,1.36,17.89.47,10.23.58,20.48,1.14,30.71.26,4.58,1.25,9.11,1.91,13.67H925c-.32-8.44-.92-16.88-.89-25.33q0-14.42,1-28.82A32.58,32.58,0,0,1,928,322.9c2.22-4.94,5.29-9.48,7.77-14.3,1.65-3.23,2.91-6.66,4.46-10.27-1.25,0-1.7-.14-1.87,0-4.66,4.23-9.31,8.47-13.88,12.79a6.58,6.58,0,0,0-1.34,2.65c-1.35,3.91-2.72,7.82-3.92,11.78-4.12,13.6-8.23,27.21-12.24,40.85-2.1,7.13-4,14.31-6,21.47H877c.34-9.92.62-19.84,1-29.76.15-3.62.64-7.22,1-10.84.29-3.28.84-6.56.81-9.84-.06-4.59-.56-9.18-.86-13.77a16.17,16.17,0,0,0,1.2-3.64c.4-5.12.58-10.26.91-15.39.26-3.92.62-7.85.93-11.77l1.49,2.79q3.75-8.93,7.47-17.79l1.91-.76,9.21.83,4.92.89c6,0,11.93.41,17.83-.09,7.49-.64,14.92-2,22.38-3.1v.12l.51,1.09a4,4,0,0,0,.56.43c.17.54.33,1.08.49,1.61,2.33,10.36,1.76,20.42-3.53,29.83-2.33,4.15-1.12,8.4-.91,12.6C944.37,322.16,946.1,322.91,947,323.69Z" transform="translate(0 -0.89)"/><path class="cls-11" d="M331.87,350.8c1.64,7.5,3.39,15,4.87,22.51.95,4.82,1.52,9.72,2.26,14.58H307a63.23,63.23,0,0,0-2.27-6.94c-3.81-8.44-7.77-16.82-11.67-25.22q-7.67-17.24-15.33-34.47c-1.44-3.25-3.18-6-6.89-7.31-2.06-.74-3.81-2.62-5.42-4.25-2.78-2.82-5.34-5.85-8.43-9.28,0,6.55.1,12.36-.07,18.17,0,1.46-1,2.9-1.46,4.35-.1-6.06-.4-12.13-.23-18.18.13-4.52-.22-8.82-2.42-12.83,3.45-2.37,6.27.51,9.36,1.11,7.27,4.13,15.35,4.93,23.42,5.66,8.74.79,17.09-1.83,25.56-3.27,2.27-.39,3.39-.16,4,2.18q5.49,21.09,11.14,42.15c.61,2.3,1.58,4.51,2.68,7.58.77-1.54,1.11-2.23,1.45-2.92.42,1.57.83,3.15,1.24,4.72l-1.9,2.36.7.55Z" transform="translate(0 -0.89)"/><path class="cls-12" d="M255.46,322.94c.51-1.45,1.42-2.89,1.46-4.35.17-5.81.07-11.62.07-18.17,3.09,3.43,5.65,6.46,8.43,9.28,1.61,1.63,3.36,3.51,5.42,4.25,3.71,1.35,5.45,4.06,6.89,7.31q7.63,17.25,15.33,34.47a29.55,29.55,0,0,0-2.93,4.72,40.32,40.32,0,0,0-1.53,6.24q-2.31,10.59-4.6,21.2H255c.05-16.27.07-32.54.16-48.81,0-5.28.25-10.56.39-15.84Z" transform="translate(0 -0.89)"/><path class="cls-7" d="M879,323.68c.3,4.59.8,9.18.86,13.77,0,3.28-.52,6.56-.81,9.84-.33,3.62-.82,7.22-1,10.84-.42,9.92-.7,19.84-1,29.76H822c3-2,6-4,9.14-5.84,7.33-4.27,14.74-8.4,22.1-12.62,1.13-.64,2.16-1.44,3.6-2.41l-24.12-43.19Z" transform="translate(0 -0.89)"/><path class="cls-13" d="M1018,351.56c-1.8-6-1-11.54,3-16.39,5.94-7.23,12.66-5.92,18.1,1.33,3.56,4.73,3.32,9.81,2,15.11-.76,2.55-1.67,5.07-2.19,7.67-.09.5,1.32,1.3,2,2,1.18,3.51,3.18,4.59,7.09,3.75,5.7-1.23,9.65,3.65,7.8,9.05a34.56,34.56,0,0,1-1.93,4c-4.87,2.2-9.23,5-11.87,9.88h-26a65.28,65.28,0,0,0-4.92-5.93c-1.65-1.59-3.9-2.57-5.56-4.17-2.62-2.53-3.22-5.65-1.87-9.16s4.05-4,7.28-3.77c1.5.11,3,.08,4.5.07,2.13,0,3.49-.93,3.63-3.21C1022.11,358,1020.22,354.74,1018,351.56Z" transform="translate(0 -0.89)"/><path class="cls-14" d="M1070,263.13c-2.18-8.87-.76-17.88-1-26.81-.21-6.63-.69-13.24-.81-19.87-.05-2.78.75-5.57.8-8.36.12-7.1,0-14.21,0-21.31,0-9.25-.74-18.46-.17-27.74.42-6.86-.28-13.79.07-20.73.4-8.06.14-16.16.06-24.25,0-2.29-.58-4.58-.69-6.89s0-4.62.12-6.93c.1-1.81.68-3.63.55-5.41-.68-9.24.08-18.48,0-27.72,0-5.09.09-10.18,0-15.27-.21-9.24-.12-18.48-.17-27.72,0-7.75.24-15.49.19-23.23h5c-.1,1.32-.28,2.64-.28,4q0,127.37,0,254.73c0,1,.06,2,.09,3Z" transform="translate(0 -0.89)"/><path class="cls-15" d="M1073.49,359.69c-.68-.7-1.4-1.37-2-2.1-3.81-4.37-3.33-7.32,1.69-10.63,4.76-1.48,9-.35,12.89,2.57,3.4,2.57,6.78,5.17,10.08,7.86,1.39,1.13,2.47,1.88,3.11-.55.1-.09.28-.22.27-.28a4.08,4.08,0,0,0-.31-.63c-.07-2.16-.2-4.31-.2-6.47,0-5.92-.06-6-6-6.66.44-1.82.89-3.65,1.34-5.47l4.85,2.68V325.87h2.37l.31,14.1-.17.4.22-.32c4.22-3.16,8.46-6.29,12.66-9.47a18.6,18.6,0,0,1,12-4.05c3,.08,5.79.82,7.09,3.69a6.16,6.16,0,0,1-1.66,7.68l-3,2.59-1.49.55-6.52,1.87-18.21.43a.52.52,0,0,0-.78.31l-.35,9.36c0,.59,0,1.18,0,1.77.77,1.32-1,5.29,3.17,3.06,3.17-.06,5.92.47,6.19,4.45l-9.08.76v13.43c1.89,1.46,2.61.27,3.11-1.39,3.29-2.95,6.23-6.46,11.07-7l5.36.61c4.35,3,3.58,6.5-2,9.3l-2.42,1.1-4.22.38c-3.7-.56-7.46-2-10.87.87l.06,7.5h-3v-8c-4.42,0-8.2.06-12,0a11,11,0,0,1-9.09-4.37c-2.37-3.21-1-7.17,2.86-7.42a17.21,17.21,0,0,1,8.48,1.79c3.26,1.65,6,4.26,9.32,6.69V363l-14.62-.82-1.94-.42Z" transform="translate(0 -0.89)"/><path class="cls-4" d="M901,387.89c2-7.16,3.88-14.34,6-21.47,4-13.64,8.12-27.25,12.24-40.85,1.2-4,2.57-7.87,3.92-11.78a6.58,6.58,0,0,1,1.34-2.65c4.57-4.32,9.22-8.56,13.88-12.79.17-.16.62,0,1.87,0-1.55,3.61-2.81,7-4.46,10.27-2.48,4.82-5.55,9.36-7.77,14.3a32.58,32.58,0,0,0-2.85,10.84q-1,14.38-1,28.82c0,8.45.57,16.89.89,25.33Z" transform="translate(0 -0.89)"/><path class="cls-14" d="M1054,.89c0,2.66,0,5.32,0,8,0,4.07,0,4.07,3.68,5.91,0,.45.17,1.26,0,1.37-4.11,2.17-3.84,5.93-3.67,9.72.11,2.31,0,4.63,0,6.31,2.49,1.41,4.54,2.42,6.4,3.71a3.24,3.24,0,0,1,1.38,2.46c-.79,3.92-4.64,2.93-7.76,4.35,0,4.74-.27,9.7.16,14.61.13,1.52,2.14,2.88,3.53,4.62a16.6,16.6,0,0,0-1.66,1.84c-.76,1.09-1.82,2.23-2,3.44-.3,2.63-.06,5.32-.11,8-.06,3-.43,6.15,3.9,6.44-4.27,10.3-4.39,10.91-3.49,18.32,3.39.21,7.76,3.18,7.38,5.36-.67,4-4.58,3-7.74,4.35,0,4.9-.07,10,.08,15.11,0,.73,1,1.48,1.66,2.14s1.55,1.46,2.93,2.74c-4.93,1.06-4.91,4.24-4.74,7.63.15,3.15,0,6.31,0,9.59l4.11,2.06c-1.33,3.12-5,4.62-4.23,8.63.6,3,.12,6.27.12,9.36,3.85.46,7.56,3,7.83,5.13s-1.53,3.18-7.76,4.39c0,5.06-.24,10.32.16,15.53.1,1.31,2.22,2.47,3.73,4-3.55,1.74-4.36,4.71-4,8.37.21,2.22.15,4.12,2.56,5.41,2,1.07,2.15,2.67-.15,4.07a26.07,26.07,0,0,0-3.51,3.08l-.78-1.08c.09-2,.25-4,.25-6q0-101.77,0-203.55c0-1.82-.2-3.64-.3-5.46Z" transform="translate(0 -0.89)"/><path class="cls-9" d="M798.56,56.08c.12-3.14.32-6.28.33-9.42C799,31.41,799,16.15,799,.89h1C803.84,7.94,807.72,15,811.5,22c1,1.87,1.71,3.88,2.55,5.83-.64,5-.91,9.9,2.59,14.25,2.39,3,1.34,6.05-2,6.74-6.17,1.27-9.33,5-9.67,11.15-.1,1.8-.82,3.57-.83,5.35,0,3.59-2.1,4.53-5.14,4.53Z" transform="translate(0 -0.89)"/><path class="cls-1" d="M1084,362.22l14.62.82v13.48c-3.29-2.43-6.06-5-9.32-6.69a17.21,17.21,0,0,0-8.48-1.79c-3.91.25-5.23,4.21-2.86,7.42a11,11,0,0,0,9.09,4.37c3.77.08,7.55,0,12,0v8h-17c-.76-1.6-1.25-3.42-2.33-4.77-2.87-3.55-5.7-3.17-8.11.86l-1,1.74-2.49-1.89,0,0-.93-2.19-.13-3.19c2.93-6,6.26-11.86,6.48-18.79l8.55,2.11Z" transform="translate(0 -0.89)"/><path class="cls-4" d="M284,387.89q2.29-10.61,4.6-21.2a40.32,40.32,0,0,1,1.53-6.24,29.55,29.55,0,0,1,2.93-4.72c3.9,8.4,7.86,16.78,11.67,25.22a63.23,63.23,0,0,1,2.27,6.94Z" transform="translate(0 -0.89)"/><path class="cls-9" d="M1067,378.48l.13,3.19c-1.59,1.54-.77,2.05.93,2.19l0,0c-.35,1.35-.69,2.71-1,4.06h-12l4.21-3.37-5.34-6.51a34.56,34.56,0,0,0,1.93-4c1.85-5.4-2.1-10.28-7.8-9.05-3.91.84-5.91-.24-7.09-3.75.58-.79,1.1-1.62,1.73-2.37,3.18-3.71,3.72-3.77,8.12-1.25a5.42,5.42,0,0,0,1.44.34c4.08,6.36,8.12,12.75,12.29,19.05C1065,377.74,1066.15,378,1067,378.48Z" transform="translate(0 -0.89)"/><path class="cls-16" d="M1126,387.89c3.34-5.55,8.23-9.5,13.52-13a18.66,18.66,0,0,1,3.22-1.29c2.1-.88,3.82-.34,5.45,1.18s1.56,3.21.83,5c-.61,1.53-1.46,3-2.06,4.5a33,33,0,0,0-1,3.61Z" transform="translate(0 -0.89)"/><path class="cls-17" d="M741,387.89c-.64-2.13-1.29-4.25-2.1-6.91l21.32-12.29,2.31,3.81-.68,2.14c-.56.1-1.53.07-1.61.32-1,3.07-1.78,6.17-2.73,9.59l7.53,2.29,0,1.05Zm3.82-7.82c.07.38.13.77.2,1.15l9,2.53c.83-3.37,1.56-6.39,2.57-10.49Z" transform="translate(0 -0.89)"/><path class="cls-14" d="M1053.87,378l5.34,6.51-4.21,3.37h-13C1044.64,383,1049,380.21,1053.87,378Z" transform="translate(0 -0.89)"/><path class="cls-16" d="M1067,387.89c.35-1.35.69-2.71,1-4.06l2.49,1.89,1-1.74c2.41-4,5.24-4.41,8.11-.86,1.08,1.35,1.57,3.17,2.33,4.77Z" transform="translate(0 -0.89)"/><path class="cls-6" d="M765,386.84l-7.53-2.29c1-3.42,1.77-6.52,2.73-9.59.08-.25,1-.22,1.61-.32l2.46,5.29,3.69,8h-2Z" transform="translate(0 -0.89)"/><path class="cls-3" d="M768,387.89l-3.69-8-2.46-5.29.68-2.14q4.25,7.69,8.47,15.39Z" transform="translate(0 -0.89)"/><path class="cls-3" d="M765,386.84l1,1.05h-1Z" transform="translate(0 -0.89)"/><path class="cls-18" d="M1101.55,325.87h-2.37l-2.19-3a3.47,3.47,0,0,0-5,0l-18.81-1c-2.41-1.73-5.23-3.09-7.15-5.25-4-4.49-2.52-9.28,3.12-11.32,1.25-.45,2.57-.68,3.86-1,7.33.85,13,4.86,18.42,9.45a89.67,89.67,0,0,0,7.53,5.19c.14-.08.39-.16.38-.22a3.83,3.83,0,0,0-.19-.74q0-7,0-14l2-.06c.32,5.1.63,10.2,1,16.39,1.91-1.59,3.19-2.69,4.51-3.75,3.49-2.8,6.88-5.74,10.53-8.31a18.06,18.06,0,0,1,12.74-3.35,7.62,7.62,0,0,1,6.6,4.64c1.14,2.77-.14,5.19-1.91,7.33-3.18,3.83-7.55,5.27-12.25,5.91a52.43,52.43,0,0,1-5.47.17,16,16,0,0,0-12,0C1102.89,322.74,1101.71,323.72,1101.55,325.87Z" transform="translate(0 -0.89)"/><path class="cls-18" d="M1073.12,300.8l-1.08-1c-.12-2.07-.58-4.19-.28-6.2.49-3.22,1.47-6.36,2.25-9.54l6,1.05,1.1.77,2.94,1.88,2.2,1.85h.06c1.06,4,2.84,5.24,5.79,4l6.88,4.26,2.72.08,8.78-6c3.14-2.14,6.16-4.48,9.44-6.37a14,14,0,0,1,11-1.36c5.62,1.59,7.08,7.16,3,11.46a19.39,19.39,0,0,1-15,6.39c-5.35-1.8-10.76-1.28-16.16-.34-.35.06-.6.71-.9,1.09a1.59,1.59,0,0,1-.74.41l-2.44-1.19-4.75-.09c-1.35-1.44-2.69-1.43-4,0Z" transform="translate(0 -0.89)"/><path class="cls-15" d="M1101.72,298l-2.72-.08-.06-15.8-.87-.44-24.68-1c-2.78-2.24-5.83-4.22-8.27-6.78-3.32-3.49-2.68-6.28,1.49-8.91,1.09-.69,2.27-1.23,3.41-1.84l3.79-.55c9.25,1,15.11,7.65,21.74,13a39.34,39.34,0,0,1,3.44,3.51l3,1.79a6.33,6.33,0,0,1,0,.87Q1101.85,289.86,1101.72,298Z" transform="translate(0 -0.89)"/><path class="cls-18" d="M1099.7,274.57c-3.27-8.15-6.56-16.05-7.6-24.6-.57-4.7.28-9.31,4.17-12.7,3.63-3.17,7.36-2.68,10.21,1.22,3.1,4.25,3.35,9.2,2.09,13.82-2,7.16-4.8,14.08-7.32,21.08C1101.12,273.76,1100.53,274,1099.7,274.57Z" transform="translate(0 -0.89)"/><path class="cls-18" d="M1102,281.76a6.33,6.33,0,0,0,0-.87l.06-1.79c6.28-4.86,12.41-9.94,18.91-14.48,3.65-2.55,8-2.07,12-.26s5,5.54,2.88,9.52a13.17,13.17,0,0,1-10.95,6.92C1117.28,281.49,1109.61,281.48,1102,281.76Z" transform="translate(0 -0.89)"/><path class="cls-18" d="M1111,362.29c-.27-4-3-4.51-6.19-4.45l10.11-8,1.09-.81c3.49-2.67,7.27-3.76,11.58-2.22s5.73,5.91,3.09,9.5a11,11,0,0,1-8.27,4.73L1117,362Z" transform="translate(0 -0.89)"/><path class="cls-19" d="M1101.94,302.79c.3-.38.55-1,.9-1.09,5.4-.94,10.81-1.46,16.16.34Z" transform="translate(0 -0.89)"/><path class="cls-6" d="M1105,322.84a16,16,0,0,1,12,0Z" transform="translate(0 -0.89)"/><path class="cls-6" d="M1101.94,380.39c3.41-2.9,7.17-1.43,10.87-.87Z" transform="translate(0 -0.89)"/><path class="cls-6" d="M1121,342.91l6.52-1.87C1125.74,343.06,1123.61,343.85,1121,342.91Z" transform="translate(0 -0.89)"/><path class="cls-6" d="M1117,362l5.48-.92C1120.87,363,1119,362.89,1117,362Z" transform="translate(0 -0.89)"/><path class="cls-6" d="M1121.48,368.74l-5.36-.61C1118.1,366.57,1119.88,366.9,1121.48,368.74Z" transform="translate(0 -0.89)"/><path class="cls-6" d="M1129,340.49l3-2.59Z" transform="translate(0 -0.89)"/><path class="cls-6" d="M1105.05,375.09c-.5,1.66-1.22,2.85-3.11,1.39Z" transform="translate(0 -0.89)"/><path class="cls-6" d="M1102.06,279.1l-.06,1.79-3-1.79Z" transform="translate(0 -0.89)"/><path class="cls-6" d="M1117,379.14l2.42-1.1Z" transform="translate(0 -0.89)"/><path class="cls-6" d="M1098.76,302l2.44,1.19a.91.91,0,0,1,0,.65l-2,.06Z" transform="translate(0 -0.89)"/><path class="cls-6" d="M1101.66,354.78c0-.59,0-1.18,0-1.77C1101.65,353.6,1101.66,354.19,1101.66,354.78Z" transform="translate(0 -0.89)"/><path class="cls-6" d="M1102,343.65a.52.52,0,0,1,.78-.31A.87.87,0,0,1,1102,343.65Z" transform="translate(0 -0.89)"/><path class="cls-6" d="M1116,349.06l-1.09.81Z" transform="translate(0 -0.89)"/><path class="cls-13" d="M902.08,278l-9.21-.83a13.41,13.41,0,0,1,.12-3c2.94-11.2,3.25-22.61,3-34.08a9.51,9.51,0,0,1,.76-3.87c3.51-8.18,7.12-16.3,10.69-24.45,2.51-5.76,5.46-11.39,7.39-17.34,2.09-6.43,3.75-13.09,3.1-20-.23-2.44,0-5-2.7-6.4a14.24,14.24,0,0,0-8.78-11.66L913.9,154l25.86,4.68c3.12,1.09,6.2,2.32,9.37,3.25a17.43,17.43,0,0,1,11.62,10q.66,2.47,1.33,5,0,3,0,6c-2.42,7.18-4.66,14.42-7.3,21.52-2.08,5.56-4.64,10.93-7,16.38-6.91,13-5.68,26.5-2.74,40.14q1,7.35,2.11,14.7c-7.46,1.07-14.89,2.46-22.38,3.1-5.9.5-11.88.09-17.83.09C905.81,276.07,904,276.51,902.08,278Z" transform="translate(0 -0.89)"/><path class="cls-20" d="M1052.05,215.86l.78,1.08c-.08,11.55-.13,23.11-.24,34.66,0,1.79-.29,3.57-.44,5.36-1.08-1.55-2.46-3-3.15-4.67-1.1-2.67-1.74-5.53-2.64-8.54a8.41,8.41,0,0,0-6.34,7.43,51.89,51.89,0,0,0-.74,5.38c-.17,3.45-2,4.68-5.23,4.34-.66-.07-1.33,0-2,0-7.61-.33-15.23-1-22.84-.89-5.74.05-11.48,1-17.77,1.6-.44-1.15-1-2.47-1.44-3.82a55.52,55.52,0,0,0-2.16-6.61c-.56-1.19-1.87-2.68-3-2.83-6-.77-10.4,4.15-10,10.3.13,1.95-.26,4.85-1.52,5.76-2.41,1.73-5.62,2.33-8.5,3.4,1.1-2.18,2.19-4.37,3.31-6.54.59-1.15,1.85-2.33,1.76-3.4-.29-3.33,1.73-5.16,3.71-7.2,3.72-3.81,5.21-8.31,3.92-13.61-.74-3.06-1.52-6.12-2-9.22-1.22-7.32-2.28-14.68-3.4-22l16.46,3.45c12.78,2.67,25.56,5.32,38.69,5.68C1035.52,215.16,1043.78,215.55,1052.05,215.86Z" transform="translate(0 -0.89)"/><path class="cls-19" d="M836,76.87c3.3,8.46,6.94,16.81,9.84,25.41a96.71,96.71,0,0,0,17.7,31.4c8.07,9.62,17.07,18.45,25.66,27.62l-5.14,9.64c-2.82-1.32-1.92-3.91-2.09-6.13-.3-3.75-1.28-4.58-4.9-4.12s-7.07,1-8.62-3.53c-.18-.53-1-.87-1.48-1.27-6.08-4.5-13.58-2.55-18,4.65-3.28,1.06-5.68.1-7.7-2.71-2.18-3-5.34-4.15-9.16-4a129,129,0,0,1-16.45-.06c-4.37-.38-8.35-.9-12,2.45-1,.9-3.16.48-4.79.67v-50c2-.12,3.08.69,3.06,2.89a26.82,26.82,0,0,0,.58,4.06c4.36-3.66,8.13-7,12.06-10.09,3.61-2.86,11.38-2.37,15.18.12a13.8,13.8,0,0,0,6.94,1.88c3.08,0,4.44-2.62,3.32-5.6-.69-1.86-1.48-3.68-2.07-5.57a72.76,72.76,0,0,1-2.48-9C835.07,82.73,832.79,79.6,836,76.87Z" transform="translate(0 -0.89)"/><path class="cls-18" d="M884.09,170.94l5.14-9.64a14.73,14.73,0,0,0,2.55-1.44,16.26,16.26,0,0,1,14.66-3.54A14.24,14.24,0,0,1,915.22,168a51.8,51.8,0,0,1-5.15,19.3q-10.47,20.6-20.46,41.44c-2.34,4.87-4.08,10-6.09,15.06-2.44,2-6.78,2.42-5.91,7.24.09.5-.9,1.27-1.48,1.8a31.79,31.79,0,0,0-3.71,3.29c-2.06,2.65-4.39,3.26-7.32,1.67-2.8-5.12-5.67-10.17-11.13-13-.3-5.17,4-7,7-9.82,1-1.15,2.38-2.14,3-3.48,1.27-2.87,2.13-5.91,3.19-8.88,3.68-10.25,7.55-20.44,11-30.78C880.46,185,882.14,177.91,884.09,170.94Z" transform="translate(0 -0.89)"/><path class="cls-21" d="M836,76.87c-3.24,2.73-1,5.86-.47,8.74a72.76,72.76,0,0,0,2.48,9c.59,1.89,1.38,3.71,2.07,5.57,1.12,3-.24,5.65-3.32,5.6a13.8,13.8,0,0,1-6.94-1.88c-3.8-2.49-11.57-3-15.18-.12-3.93,3.11-7.7,6.43-12.06,10.09a26.82,26.82,0,0,1-.58-4.06c0-2.2-1-3-3.06-2.89l0-37c3,0,5.12-.94,5.14-4.53,0-1.78.73-3.55.83-5.35.34-6.16,3.5-9.88,9.67-11.15,3.34-.69,4.39-3.77,2-6.74-3.5-4.35-3.23-9.23-2.59-14.25,1.88,3.46,4,6.83,5.6,10.41,5.14,11.4,10.12,22.87,15.12,34.34A37.83,37.83,0,0,1,836,76.87Z" transform="translate(0 -0.89)"/><path class="cls-22" d="M944.45,95.62a.62.62,0,0,1,.57.28c.26,3.65.34,7.39,4.53,9.06l.67,1.51c.83,1.52,1.58,3.09,2.49,4.55,1.53,2.47,3.15,4.87,4.36,6.7-3.72,6.81-10.81,9.59-13.08,16.48-.37,1.14-2.23,1.79-3.39,2.69-.87.68-2.06,1.22-2.53,2.13-1.37,2.6-3.11,4.34-6.26,3.69s-4.48-2.56-4.81-7c-.16-2.09-.85-3.48-3-4,.26-.95.53-1.9.79-2.85,1-.54,2.74-.93,2.89-1.65.45-2.21-1-3.54-3.07-4.23a.87.87,0,0,1-.61-.62,9.43,9.43,0,0,0,.31-1.59c-3.5-1.26-3.76-3.73-2.28-6.85-1.79-1.45-3.24-3.18-5.09-4-2.69-1.17-3.45-2.78-2.74-5.44a8.71,8.71,0,0,0,.42-2.88c-.67-8.16,2.17-10.34,9.63-7.29.43.18.8.92,1.14.88,2.54-.25,5.42,2.42,7.61-.82l2.06-.16C937.89,96.88,941.4,94.71,944.45,95.62Z" transform="translate(0 -0.89)"/><path class="cls-18" d="M972.1,205.81c1.12,7.34,2.18,14.7,3.4,22,.51,3.1,1.29,6.16,2,9.22,1.29,5.3-.2,9.8-3.92,13.61-2,2-4,3.87-3.71,7.2.09,1.07-1.17,2.25-1.76,3.4-1.12,2.17-2.21,4.36-3.31,6.54l-2.79,0-1-1.12c-2.66-4.2-5.32-8.41-8-12.59-.13-.2-.63-.16-1-.23-1.63-3.4-1.28-6.36,2-8.59,3.8-2.58,4.58-6.16,3.58-10.38-.17-2.94-.42-5.88-.48-8.82-.12-6.49-1.12-12.81,2.52-19.18,4.16-7.3,4.39-15.69,2.43-24q0-3,0-6l1-3.39c4.57,3.67,5,9,5.88,14.26C969.94,193.78,971,199.79,972.1,205.81Z" transform="translate(0 -0.89)"/><path class="cls-10" d="M933.05,94.36c-2.19,3.24-5.07.57-7.61.82-.34,0-.71-.7-1.14-.88-7.46-3-10.3-.87-9.63,7.29a8.71,8.71,0,0,1-.42,2.88c-.71,2.66,0,4.27,2.74,5.44,1.85.81,3.3,2.54,5.09,4-1.48,3.12-1.22,5.59,2.28,6.85a9.43,9.43,0,0,1-.31,1.59c-2.87-.89-4.55,0-4.66,3.15-.07,2.16-.23,4.32-.13,6.47.18,3.94.53,7.87.81,11.81-.4.69-.79,1.39-1.18,2.08q-1.6,2.4-3.2,4.8c-4-.08-8,.08-11.93-.37a6.62,6.62,0,0,1-4.33-2.71c-1.22-2,.41-3.58,1.88-5.12,2.15-2.26,4-4.82,6-7.24,4.18,2.44,4.61,2.29,6.08-2.19.92-2.81,1.6-5.71,2.71-8.44,2.44-6,2.13-11.18-3.9-14.92-.17-3.54.82-7-.79-10.66-1.06-2.38.74-4.79,2.87-6.4,2.94-2.21,6.37-2.63,9.39-.87A19,19,0,0,0,933.05,94.36Z" transform="translate(0 -0.89)"/><path class="cls-10" d="M924.05,131.69c2.1.52,2.79,1.91,3,4,.33,4.46,1.7,6.37,4.81,7s4.89-1.09,6.26-3.69c.47-.91,1.66-1.45,2.53-2.13,1.16-.9,3-1.55,3.39-2.69,2.27-6.89,9.36-9.67,13.08-16.48-1.21-1.83-2.83-4.23-4.36-6.7-.91-1.46-1.66-3-2.49-4.55a14.22,14.22,0,0,1,8.75,8.9c1.16,3.32.1,6-2.28,8.54-5.25,5.61-11.35,10.5-14.94,17.58-.76,1.49-2.63,2.42-4,3.61l-10.66-1.22L924,140.77C923.19,137.74,922.08,134.7,924.05,131.69Z" transform="translate(0 -0.89)"/><path class="cls-23" d="M912.16,109.66c6,3.74,6.34,8.9,3.9,14.92-1.11,2.73-1.79,5.63-2.71,8.44-1.47,4.48-1.9,4.63-6.08,2.19-.25-6.94-1-13.93,1.87-20.55A42,42,0,0,1,912.16,109.66Z" transform="translate(0 -0.89)"/><path class="cls-16" d="M939.76,158.65,913.9,154l2.57-1.85,2.49-.3,10.35-1.15,8.45,2.11C939.48,154.38,940.55,156.2,939.76,158.65Z" transform="translate(0 -0.89)"/><path class="cls-5" d="M937.76,152.78l-8.45-2.11q-1.09-3.4-2.2-6.79l10.66,1.22C938.57,147.66,939.62,150.22,937.76,152.78Z" transform="translate(0 -0.89)"/><path class="cls-10" d="M949.55,105c-4.19-1.67-4.27-5.41-4.53-9.06C949.41,97.48,950.08,100.92,949.55,105Z" transform="translate(0 -0.89)"/><path class="cls-10" d="M944.45,95.62c-3.05-.91-6.56,1.26-9.34-1.42C938.62,92.06,941.63,93.23,944.45,95.62Z" transform="translate(0 -0.89)"/><path class="cls-21" d="M919,151.82l-2.49.3-.78-1.47q1.59-2.4,3.2-4.8Z" transform="translate(0 -0.89)"/><path class="cls-9" d="M963,173.49l-1,3.39q-.68-2.49-1.33-5Z" transform="translate(0 -0.89)"/><path class="cls-24" d="M467.72,323.05c-1.81.15-3.61.44-5.42.45q-67.65,0-135.31,0l-.9-4.63c2.33-4.76.35-8.54-2.75-12.07l-.24-2.94c.25-2.56.88-5.15.67-7.67a44.08,44.08,0,0,0-1.95-9,36.55,36.55,0,0,0-2.62-5.38l-.06-1.13a1.08,1.08,0,0,0,.05-.59v-1.51a4.1,4.1,0,0,1,.26-.77c2.47-.19,5-.24,7.4-.59,2.07-.29,4.09-1.29,6.14-1.33,5.44-.12,11-.88,15.91,2.64a3.75,3.75,0,0,0,2.44.26,105.21,105.21,0,0,0,12.7-2c2.25-.6,4.19-2.47,6.2-3.86a25.75,25.75,0,0,0,2.64-2.49c.82,1.41,1.7,2.31,1.89,3.34.55,3.09.76,6.24,1.25,9.34.59,3.68.17,7.68,3.06,10.71.85,4.89.85,4.92,5.56,4.92q33.69,0,67.37,0c-.1,2.28.58,3.79,3.22,4,3.86.36,5-.23,6.76-4l4,0c.66,1.83.27,4.27,2.86,5q0,6,0,12C465.64,317.8,466.94,320.47,467.72,323.05Z" transform="translate(0 -0.89)"/><path class="cls-2" d="M636.58,336.87A19.52,19.52,0,0,1,656,356.26c0,10.75-9.15,20.2-19.46,20-11.41-.21-19.74-8.6-19.89-20C616.46,345.52,625.41,336.85,636.58,336.87Z" transform="translate(0 -0.89)"/><path class="cls-25" d="M676.46,309.73l7.89,13.87q-22.41.12-44.82.23-79.87.35-159.73.61c-3.45,0-6.9-.74-10.36-1.13a1.81,1.81,0,0,1,.14-.8l.49-23.27a21.75,21.75,0,0,1,3.71-.67c8.49,0,17,.05,25.46,0a56,56,0,0,0,5.88-.67l.69-.95.39-2.86,0-1.39q-.06-60.19-.11-120.39c0-4.16-.08-8.32-.12-12.48l.55-.92c2.77-.22,1.43,2,1.43,2.89q.12,66.68.06,133.34c0,5-.65,5.66-5.86,5.71-8.15.06-16.31,0-24.47,0-1.75,0-3.5.2-5.23.3v19.18c7.64,1.23,203.89.77,207.75-.6-1.48-2.75-3-5.41-4.31-8.16C675.65,311.18,676.24,310.37,676.46,309.73Z" transform="translate(0 -0.89)"/><path class="cls-3" d="M323.1,303.9l.24,2.94q1.38,6,2.75,12.07l.9,4.63q.52,6,1.06,12c.35.82.7,1.65,1,2.47.09.47.19.93.28,1.4l.72,2.58c.11.82.22,1.63.32,2.45-.34.69-.68,1.38-1.45,2.92-1.1-3.07-2.07-5.28-2.68-7.58q-5.65-21.06-11.14-42.15c-.6-2.34-1.72-2.57-4-2.18-8.47,1.44-16.82,4.06-25.56,3.27-8.07-.73-16.15-1.53-23.42-5.66a107.82,107.82,0,0,0,29.21-.07c7.31-1.14,14.84-1.45,20.94-6.61,1.84-1.55,4.23-2.46,6.37-3.66Z" transform="translate(0 -0.89)"/><path class="cls-20" d="M469.58,322.51a1.81,1.81,0,0,0-.14.8l-1.72-.26c-.78-2.58-2.08-5.25,1.16-7.18Q469.23,319.2,469.58,322.51Z" transform="translate(0 -0.89)"/><path class="cls-3" d="M331.87,350.8l-1.42,1.25-.7-.55,1.9-2.36C331.72,349.69,331.8,350.25,331.87,350.8Z" transform="translate(0 -0.89)"/><path class="cls-11" d="M330.09,342l-.72-2.58Z" transform="translate(0 -0.89)"/><path class="cls-11" d="M329.09,338c-.34-.82-.69-1.65-1-2.47C328.4,336.34,328.75,337.17,329.09,338Z" transform="translate(0 -0.89)"/><path class="cls-26" d="M676.46,309.73c-.22.64-.81,1.45-.6,1.87,1.33,2.75,2.83,5.41,4.31,8.16-3.86,1.37-200.11,1.83-207.75.6V301.18c1.73-.1,3.48-.29,5.23-.3,8.16,0,16.32,0,24.47,0,5.21,0,5.86-.7,5.86-5.71q0-66.67-.06-133.34c0-.92,1.34-3.11-1.43-2.89l-1.1-.31-.08-.1-.2-1.65c1.35-2.77-.65-2.62-2.37-2.73l0,0c-1.74-5.36-6.07-8.31-10.46-11.17-.34-.22-1,0-1.47.06l-19,0c-.56-5.09-1.6-10.18-1.6-15.27,0-18.8.38-37.61.58-56.41.06-4.92,0-9.83,0-15.21,2.37-.13,4.15-.32,5.92-.32q158.16,0,316.32,0c1.83,0,3.66.16,5.48.25L799,69.89l0,37v50c-.08,12.73-.22,25.47-.23,38.2,0,8.27.16,16.53.26,24.8-.09,3.49-.21,7-.26,10.46-.14,9.81-.24,19.62-.36,29.43l-2.29.08L779,230.12l-28.11,15.94q-34.06,19.37-68.11,38.75a5.45,5.45,0,0,0-1,1q-2.88,10-5.75,20.07C676.17,307.16,676.32,308.45,676.46,309.73ZM736.88,87.49a37.31,37.31,0,0,0-3.94-.41q-98.61,0-197.21,0c-1.76,0-3.51.29-5.62.47v6q0,32.21,0,64.41c0,8,.12,16,.18,23.95-1.12,5,2.75,3.55,5,3.55q99.16.1,198.34.05c5,0,5,0,5-5q.08-44.71.08-89.43a10,10,0,0,0-.3-2.94C738.31,87.83,737.42,87.72,736.88,87.49Z" transform="translate(0 -0.89)"/><path class="cls-15" d="M471.85,143l19,0,.64,1.32V158l13.82.49.08.1c.19.41.37.82.55,1.23,0,4.16.11,8.32.12,12.48q.06,60.19.11,120.39l0,1.39-.39,2.86-.69.95a56,56,0,0,1-5.88.67c-8.48.06-17,0-25.46,0a21.75,21.75,0,0,0-3.71.67,1.44,1.44,0,0,0-.89-.29l-3.17,0-4,0H452q-33.69,0-67.37,0c-4.71,0-4.71,0-5.56-4.92.28-.59.81-1.17.8-1.76-.19-14.45-.46-28.9-.63-43.36A28.63,28.63,0,0,1,380,244c2.31.82,4.6,1.69,6.93,2.44,10,3.25,17.7.47,20.06-6.56,3.81,0,7.63.12,11.43-.12,1.44-.08,2.82-1,4.23-1.56l.12-16.34v-7.32H407.26l-3.19-.54c.32-2.73.56-5.47,1-8.18a32.61,32.61,0,0,1,1.14-4l12.08-.53c4.27-.2,4.27-.2,4.48-5.24l.42-1c.21-5.55.54-11.1.56-16.65,0-2.25-1.44-3.56-3.93-3.39a43.67,43.67,0,0,0-4.44.07c-2.7.47-4.26-.87-5.52-2.93.08-1.74.17-3.47.25-5.21,1.14-.24,2.22-.51.78-1.84q.11-4.11.19-8.22c2.43-.45,1.45-2.44,1.84-3.88a54.73,54.73,0,0,1,1.95-5.17c4.88.92,9-1.53,13.23-3.19l5.87-1.75,35,.08a5.16,5.16,0,0,0,.88.11ZM414,277.92c8.16,1.93,9.29,1.1,9.08-6.68,0-.82-.18-1.64-.28-2.46,0-4.13,0-8.26.1-12.39.1-2.74-1-4-3.74-3.95q-9.64.13-19.29.23c-2.35-.13-2.72,1.51-2.74,3.26-.05,6.3,0,12.59,0,18.89,0,2.51,1.3,3.69,3.64,3.68a29.14,29.14,0,0,0,4.32-.6ZM485,219.07q-25.92,0-51.83,0c-.27,0-.54.33-1.21.78l.25,3.65a6.79,6.79,0,0,0,1.44.48q12.72.06,25.43.07l23.94,0c2.09,0,4.29.09,3.48-3.13Zm-52.86,54.12h54.07c.63-4.9.63-5-3.59-5q-23.5-.06-47,0C431.92,268.21,431.92,268.32,432.17,273.19Zm26.68-87.41h22.46c.83,0,1.66,0,2.49,0,1.65,0,2.93-.42,3-2.48.05-2.26-1.23-2.87-3.16-2.85-.83,0-1.66,0-2.49,0q-21.72,0-43.43,0a12.91,12.91,0,0,0-4.42.35,3.48,3.48,0,0,0-1.45,2.69,2.8,2.8,0,0,0,1.6,2.07,10.37,10.37,0,0,0,3.45.18Zm-26.52,76.27h54.08v-4.71h-54a9.56,9.56,0,0,0-.5,2.12A17.11,17.11,0,0,0,432.33,262.05Zm-.11-27h54.42c-.08-1.8-.14-3.3-.21-4.79H432.22Zm-.45-43c.25,2,.43,3.35.63,5,17.26,0,34.07,0,50.88,0,3.59,0,3.74-.47,2.61-5Z" transform="translate(0 -0.89)"/><path class="cls-21" d="M220.32,82.88c2.3-.12,2.76,1.27,2.69,3.2s0,4.1,0,6.15l1.77,0c.57-9.64,1.14-19.28,1.73-29.21.92.44,1.61.54,1.72.85,2.38,7.08,8.34,7.75,14.42,7.93a39.77,39.77,0,0,0,14.57-2.14,25.45,25.45,0,0,1,17.56.49,23.15,23.15,0,0,0,7.14,1.62c4.65.25,9.32,0,14,.08,3,0,5.51-.48,7.3-3.28,2.05-3.19,5.82-3.41,8.93-3.53,5.11-.21,10.38.43,14.16,4.64,1.93,2.16,4.19,2.41,6.79,2a41.79,41.79,0,0,1,6.38-.78c3.69,0,6.91-.12,9.85-3.37,3.12-3.46,11.85-2.08,14.81,1.56,3.69,4.55,6,4.75,10.29.86,4.73-4.32,8-4.25,13.07-.22a9.82,9.82,0,0,0,5.28,2c5.27.22,10.43.33,15.56-2.23,2.85-1.41,6.84-.62,10.32-.65,5,0,10-.61,14.52,2.4,1.1.73,2.89.55,4.37.56,6.82,0,13.65.07,20.48,0,3.94,0,7.92-.38,10.9,3q0,7,0,14l-4.09-1.33c-1.28,1-2.52,2.46-4.1,3.18-3.36,1.52-5.38,3.92-5.65,7.53-.21,2.87-1.72,3.82-4.26,3.57a52.22,52.22,0,0,1-5.81-1c-4.17-.91-8.31-1.92-12.48-2.82a3,3,0,0,0-1.43.35c-5.92,2.18-11.89,4-18.35,3.59-1.29-.07-2.74.91-4,1.66-3.15,1.93-5.24,1.93-7.23-1.11-1.58-2.39-3.51-2.46-5.9-2.75-2.72-.32-5.73-.82-7.94-2.26a16.3,16.3,0,0,0-9.85-2.68c-4,.11-8.35.88-11.89-.42-5-1.81-9.82-1.27-14.75-1.54-2.93-.16-4.15,1.15-4.27,4.13a35.76,35.76,0,0,1-1.29,7.28c-.56,2.22-1.41,4.36-2.13,6.54-4.5-2.07-8.85-4.67-13.56-6-3.62-1-7.57-.73-9.61-4.8a2.67,2.67,0,0,0-1.68-1c-5.43-1.16-9.15-4.62-12.61-8.7a13.31,13.31,0,0,0-5.64-3.94,24.58,24.58,0,0,0-17.11.45c-11.06,4.43-15.21,14.19-7.62,25.36,1.49,2.2,1.91,5.11,2.83,7.7-2.09-.51-5.23-.35-6.06-1.65-2.47-3.89-6.45-4.24-10-5.78-5.37-2.32-10,.29-10.41,6.12-.14,2,0,4-.06,6a4,4,0,0,1-3.52,4.18c-2.29.34-3.21-1-3.52-3.2a4.91,4.91,0,0,0-5.52-4.61,7.32,7.32,0,0,1-6.76-3.25c-1.85-2.43-3.63-2.19-5.86,0-.68.67-1.25,1.46-1.77,2.06l-4.69-.88Q220.32,100.88,220.32,82.88Z" transform="translate(0 -0.89)"/><path class="cls-19" d="M343.51,110.84c.72-2.18,1.57-4.32,2.13-6.54A35.76,35.76,0,0,0,346.93,97c.12-3,1.34-4.29,4.27-4.13,4.93.27,9.78-.27,14.75,1.54,3.54,1.3,7.9.53,11.89.42a16.3,16.3,0,0,1,9.85,2.68c2.21,1.44,5.22,1.94,7.94,2.26,2.39.29,4.32.36,5.9,2.75,2,3,4.08,3,7.23,1.11,1.22-.75,2.67-1.73,4-1.66,6.46.39,12.43-1.41,18.35-3.59a3,3,0,0,1,1.43-.35c4.17.9,8.31,1.91,12.48,2.82a52.22,52.22,0,0,0,5.81,1c2.54.25,4-.7,4.26-3.57.27-3.61,2.29-6,5.65-7.53,1.58-.72,2.82-2.16,4.1-3.18l4.09,1.33q.08,26.45.14,52.9l-.08,1.08-35-.08L430,140.89c0-1,0-2,0-3,1.46-1.59.22-1.78-1-2-3.08-.29-6.16-.63-9.24-.83-1.12-.08-2.55-.24-3.33.33-3.27,2.39-6.35,5-9.5,7.6-7.39,0-14.79-.1-22.19,0a26.65,26.65,0,0,0-4.76.92L378.06,140c-3.24.22-5.92.94-8,3.56-.95,1.18-2.7,1.74-4.12,2.5a3.45,3.45,0,0,1-4.82-1.13c-1.25-1.67-1.4-3.33.28-4.89,2.29-2.12,1.24-3.83-.79-5.26a48.39,48.39,0,0,0-4.47-2.41c.64,6.37-3.65,11.95,2.19,17-2.28,1.84-4,3.71-6.14,4.84-2.41,1.28-3.24,2.9-3.28,5.54a8.09,8.09,0,0,1-1.61,5.05,9.18,9.18,0,0,0-2.34,7.32l-3.42-.28L346,153.86c6.79-2.36,5-9.21,7.3-14a9.54,9.54,0,0,0,.54-2.85,1.81,1.81,0,0,0-.33-.92q-2.88-5.47-5.8-10.94C349,119.62,346.9,115,343.51,110.84Z" transform="translate(0 -0.89)"/><path class="cls-26" d="M755,22.82c0,4.79,0,8.9,0,13,0,2.05-1.25,3-3.22,3-1.17,0-2.33,0-3.5,0h-229c-6.06,0-6.14-.06-6.12-6.13,0-11.12-1.15-9.89,9.88-9.9q112.75,0,225.49,0Z" transform="translate(0 -0.89)"/><path class="cls-9" d="M469,142.89c0-.36.05-.72.08-1.08l.8,1.19A5.16,5.16,0,0,1,469,142.89Z" transform="translate(0 -0.89)"/><path class="cls-20" d="M798.38,259.78c.12-9.81.22-19.62.36-29.43,0-3.49.17-7,.26-10.46,3.6.05,4.92-1.89,5-5.31a66.44,66.44,0,0,1,1.05-10.83c1.1-5.34,3.35-5.79,8.12-3.32,5.52,2.85,11.54,1.81,17.35.53.78-.17,1.39-1.34,2-2.13s1-1.67,1.88-3.35c1.67,2.53,2.92,3.72,3.31,5.15.71,2.64,2.28,3.27,4.75,3.3,6.83.08,13.47.19,19.24-4.71,3.33-2.82,7.07-1.17,7,3.05s-.46,8.91-2.47,12.38c-3.73,6.44-5.8,12.94-5.24,20.31-3,2.81-7.34,4.65-7,9.82a32.72,32.72,0,0,0-4.57,3.54c-3.77,4.13-7.24,8.54-11,12.65-6.28,6.79-12.71,13.43-19.09,20.12C817,283.5,814.75,286,811,286q-6.15-11.46-12.29-22.93C798.61,262,798.49,260.87,798.38,259.78Z" transform="translate(0 -0.89)"/><path class="cls-24" d="M879,323.68l-46.24.15q-4.4-8.4-8.81-16.79c-.34-3.68-.63-7.37-1-11-.23-2.07-.62-4.13-.93-6.2l2-.92c2.64,1.74,2.56-.52,3-2l.41-.06h.41a39.53,39.53,0,0,1,3.85-1.93,25.89,25.89,0,0,1,3.73-.86c-1.52,3.52-1.66,5.68,2.74,6.87.65-1.69,1.38-3.24,1.84-4.87s.67-3.58,1.07-5.35c.58-2.57,1.86-3.12,4.35-1.91,3.55,1.73,4.72.75,4.34-3.23-.07-.74-.16-1.48-.33-3.13,3.93,3,7.26,1.88,10.74.75,1.67-.54,3.63-.19,5.46-.23a42.61,42.61,0,0,0,6-.16c3.57-.58,4.22-2.69,1.94-5.55-.55-.69-1-1.47-1.72-2.59,1.45-.33,2.37-.55,3.3-.73,5.46-1.06,6.63.18,5.76,5.84a52.4,52.4,0,0,0-.75,8.37c0,.95,1.27,1.88,2,2.82q0,6-.08,12c-.31,3.92-.67,7.85-.93,11.77-.33,5.13-.51,10.27-.91,15.39A16.17,16.17,0,0,1,879,323.68Z" transform="translate(0 -0.89)"/><path class="cls-23" d="M827.81,286.78h-.41l-.41.06-3,2-2,.92c-3,1.91-3.9,4.83-4,8.15-.76.28-1.81.32-2.22.86-3.45,4.46-8.29,4.66-13.07,3.9a11.48,11.48,0,0,1-6.12-3.61c-2-2.22.8-6.59,4.4-7.13,1.3-.19,2.66,0,4-.14,3.79-.45,5.17-1.83,6.11-5.85,3.74,0,6-2.48,8.26-4.89,6.38-6.69,12.81-13.33,19.09-20.12,3.8-4.11,7.27-8.52,11-12.65a32.72,32.72,0,0,1,4.57-3.54c5.46,2.83,8.33,7.88,11.13,13a6.55,6.55,0,0,0-1.87.64c-10.52,7.76-21.06,15.49-31.47,23.4C830.12,283.06,829.11,285.11,827.81,286.78Z" transform="translate(0 -0.89)"/><path class="cls-17" d="M786.21,282.75l2.62,4.69-48.1,27.4-2.89-4.47Z" transform="translate(0 -0.89)"/><path class="cls-17" d="M799.87,306.66c1,1.77,1.55,2.9,2.5,4.66l-48,27.44-2.91-4.57Z" transform="translate(0 -0.89)"/><path class="cls-17" d="M824.46,350.47l3,4.48-48.11,27.4-3-4.43Z" transform="translate(0 -0.89)"/><path class="cls-17" d="M805.27,316.64l2.92,4.53-48.26,27.46c-.9-1.49-1.64-2.7-2.75-4.52Z" transform="translate(0 -0.89)"/><path class="cls-17" d="M735,305l-2.59-4.62,48-27.4,3,4.51Z" transform="translate(0 -0.89)"/><path class="cls-17" d="M818.48,340.77c3.24,3.76,3.34,4.27.3,6-14.86,8.52-29.77,17-45.14,25.69l-3-4.39Z" transform="translate(0 -0.89)"/><path class="cls-3" d="M754.52,357.29l-22.95,13-12.93-22.83,22.81-13Zm-3.69-1.08-10.51-18-17.92,10.3c3.57,6.24,6.83,11.92,10.27,17.94Z" transform="translate(0 -0.89)"/><path class="cls-3" d="M735.12,323.48l-22.67,12.9-6.44-11c-1.67-2.86-3.3-5.75-5-8.58-1.27-2.08-1.16-3.58,1.19-4.86,5.53-3,11.05-6.08,16.44-9.35,3-1.8,4.61-.59,6,1.9C728,310.54,731.34,316.63,735.12,323.48Zm-3.7-1.12-10.14-18-18.09,10.22,10.25,18.25Z" transform="translate(0 -0.89)"/><path class="cls-19" d="M676,305.88q2.88-10,5.75-20.07c1.56,3,3,6.15,4.69,9.12,2.07,3.66,2.08,4.45-1.62,6.65C682.05,303.24,679,304.46,676,305.88Z" transform="translate(0 -0.89)"/><path class="cls-20" d="M818,298c.1-3.32,1-6.24,4-8.15.31,2.07.7,4.13.93,6.2.4,3.67.69,7.36,1,11Z" transform="translate(0 -0.89)"/><path class="cls-5" d="M798.38,259.78c.11,1.09.23,2.18.34,3.27-.88-1.06-1.76-2.12-2.63-3.19Z" transform="translate(0 -0.89)"/><path class="cls-19" d="M220.33,118.88l4.69.88c.52-.6,1.09-1.39,1.77-2.06,2.23-2.19,4-2.43,5.86,0a7.32,7.32,0,0,0,6.76,3.25,4.91,4.91,0,0,1,5.52,4.61c.31,2.16,1.23,3.54,3.52,3.2a4,4,0,0,0,3.52-4.18c.06-2-.08-4,.06-6,.4-5.83,5-8.44,10.41-6.12,3.56,1.54,7.54,1.89,10,5.78.83,1.3,4,1.14,6.06,1.65a71.35,71.35,0,0,1-4.38,7.48c-3.49,4.63-3.55,6,.36,10.22a32.25,32.25,0,0,1,2.59,3c3.25,4.43,2.72,7.27-1.95,10.3-1.52,1-3.17,1.8-4.72,2.76-3.09,1.91-5,4.3-3.65,8.26.91,2.73.16,5-2,7.17-1.08,1.11-1.36,3.67-1,5.37.72,3.38,3.91,5.19,8.29,5.42l3.9-.06,2.05-.07L267,192l-6.11-5.38a33.12,33.12,0,0,0,4.63-1.8,4.8,4.8,0,0,0,2.15-2.31c.16-.45-.93-1.68-1.69-2-2.8-1.3-5-2.93-6.36-5.92a4.86,4.86,0,0,0-3.83-2.27c-1.92.11-3.43,1.35-3.88,3.8-.91,4.94-2.72,5.71-7.23,3.67-7.56-3.42-10.85-2.35-15.05,4.79-.68,1.17-1.57,2.21-2.79,3.92-1.53-3.07-2.49-5.36-3.78-7.45-.58-.93-1.83-1.43-2.77-2.13-.1-11.08-.26-22.15-.27-33.23C220,136.73,220.23,127.81,220.33,118.88Z" transform="translate(0 -0.89)"/><path class="cls-27" d="M220.32,178.88c.94.7,2.19,1.2,2.77,2.13,1.29,2.09,2.25,4.38,3.78,7.45,1.22-1.71,2.11-2.75,2.79-3.92,4.2-7.14,7.49-8.21,15.05-4.79,4.51,2,6.32,1.27,7.23-3.67.45-2.45,2-3.69,3.88-3.8a4.86,4.86,0,0,1,3.83,2.27c1.34,3,3.56,4.62,6.36,5.92.76.35,1.85,1.58,1.69,2a4.8,4.8,0,0,1-2.15,2.31,33.12,33.12,0,0,1-4.63,1.8L267,192c-1.26,1.72-2.62,3.38-3.77,5.17-5.07,7.87-10.34,15.64-15,23.75-2.08,3.62-2.9,8-4.29,12l-3.39-4.81-5.49,9.09c-4.06-1.55-4.41-7.24-9.92-5.81-.69,3.8-1.56,7.8-2.1,11.84-.25,1.84-.84,2.79-2.74,2.68-.1-5-.26-9.91-.27-14.87q-.06-23.35,0-46.7C220,182.5,220.22,180.69,220.32,178.88Z" transform="translate(0 -0.89)"/><path class="cls-24" d="M255.46,322.94l.09.3c-7.31.06-14.64.46-21.92.08-7.45-.4-13.3-5.93-13.41-13-.26-16.12,0-32.26.11-48.39,5.55.21,5.61.27,5.67,5.54a27.49,27.49,0,0,0,0,4c.29,1.79.86,3.53,1.31,5.3,1.86-1,2.43-2.19,3.34-3s2.24-1.76,3.15-1.56c4.87,1.08,10.28.22,14.47,3.84-.8,3.32-2.68,6.59.16,9.92,1.6,1.88,2.9,4,4.34,6,2.2,4,2.55,8.31,2.42,12.83C255.06,310.81,255.36,316.88,255.46,322.94Z" transform="translate(0 -0.89)"/><path class="cls-20" d="M248.31,276c-4.19-3.62-9.6-2.76-14.47-3.84-.91-.2-2.28.79-3.15,1.56s-1.48,2-3.34,3c-.45-1.77-1-3.51-1.31-5.3a27.49,27.49,0,0,1,0-4c-.06-5.27-.12-5.33-5.67-5.54v-16c1.9.11,2.49-.84,2.74-2.68.54-4,1.41-8,2.1-11.84,5.51-1.43,5.86,4.26,9.92,5.81l5.49-9.09,3.39,4.81.27,2.88c-1.73,1.43-.7,1.86.77,2.11l1.23,2.88c-.3.53-1,1.18-.84,1.56,1.54,4.56,4,8.43,8.55,10.58l2.08,2.94,2,2,1,1,1.4,2.3Z" transform="translate(0 -0.89)"/><path class="cls-24" d="M962,267.78l2.79,0c2.88-1.07,6.09-1.67,8.5-3.4,1.26-.91,1.65-3.81,1.52-5.76-.4-6.15,4-11.07,10-10.3,1.12.15,2.43,1.64,3,2.83a55.52,55.52,0,0,1,2.16,6.61c.44,1.35,1,2.67,1.44,3.82,6.29-.6,12-1.55,17.77-1.6,7.61-.07,15.23.56,22.84.89.67,0,1.34-.06,2,0,3.24.34,5.06-.89,5.23-4.34a51.89,51.89,0,0,1,.74-5.38,8.41,8.41,0,0,1,6.34-7.43c.9,3,1.54,5.87,2.64,8.54.69,1.7,2.07,3.12,3.15,4.67v3.92l-2,1.51,2,1.51c.15,11.13.32,22.27.45,33.4.06,5,0,10,0,15,0,7.89-3.44,11.24-11.7,11.25q-40.46,0-80.89,0c-4.32,0-8.64.09-13,.14-.94-.78-2.67-1.53-2.71-2.36-.21-4.2-1.42-8.45.91-12.6,5.29-9.41,5.86-19.47,3.53-29.83l2.23-2,5-5C959,272,960.4,269.73,962,267.78Z" transform="translate(0 -0.89)"/><path class="cls-18" d="M1094.33,337.33c-.45,1.82-.9,3.65-1.34,5.47-6.69,1.81-13.21.56-19.7-1.12a40.68,40.68,0,0,1-4.5-3.73c-3.82-4.19-2.58-9.1,2.68-11.22.58-.23,1.14-.5,1.7-.76C1082.08,326.32,1088.5,331.27,1094.33,337.33Z" transform="translate(0 -0.89)"/><path class="cls-1" d="M1098.76,302l.45,1.9q0,7,0,14a1.68,1.68,0,0,0-.19,1,89.67,89.67,0,0,1-7.53-5.19c-5.43-4.59-11.09-8.6-18.42-9.45l.09-3.44,16.86,1.13h4Z" transform="translate(0 -0.89)"/><path class="cls-1" d="M1094.33,337.33c-5.83-6.06-12.25-11-21.16-11.36l0-4.14,18.81,1h5l2.19,3V340Z" transform="translate(0 -0.89)"/><path class="cls-1" d="M1073.39,280.66l24.68,1a1.9,1.9,0,0,0,.87.44l.06,15.8-6.88-4.26-5.79-4h-.06l-2.2-1.85-2.94-1.88-1.1-.77-6-1.05-1-.8C1073.16,282.36,1073.28,281.51,1073.39,280.66Z" transform="translate(0 -0.89)"/><path class="cls-8" d="M1073.29,341.68c6.49,1.68,13,2.93,19.7,1.12,5.93.68,6,.74,6,6.66,0,2.16.13,4.31.2,6.47a1.15,1.15,0,0,0,0,.91c-.64,2.43-1.72,1.68-3.11.55-3.3-2.69-6.68-5.29-10.08-7.86-3.87-2.92-8.13-4-12.89-2.57Z" transform="translate(0 -0.89)"/><path class="cls-15" d="M1073.05,283.22l1,.8c-.78,3.18-1.76,6.32-2.25,9.54-.3,2,.16,4.13.28,6.2a4.42,4.42,0,0,1-1.4-.33c-3.73-2.33-7.42-5-6.61-10C1064.8,284.56,1069.14,284,1073.05,283.22Z" transform="translate(0 -0.89)"/><path class="cls-6" d="M1018,351.56c2.27,3.18,4.16,6.4,1.11,10.16-2-.09-3.95-.07-5.9-.3a4.75,4.75,0,0,1-4.45-4.95,4.6,4.6,0,0,1,4.33-4.58C1014.66,351.66,1016.31,351.67,1018,351.56Z" transform="translate(0 -0.89)"/><path class="cls-6" d="M1052.2,358a5.42,5.42,0,0,1-1.44-.34c-4.4-2.52-4.94-2.46-8.12,1.25-.63.75-1.15,1.58-1.73,2.37-.72-.66-2.13-1.46-2-2,.52-2.6,1.43-5.12,2.19-7.67,1.83,0,3.66.07,5.48.14C1050.9,351.91,1052,353.13,1052.2,358Z" transform="translate(0 -0.89)"/><path class="cls-20" d="M1052.14,263.9l-2-1.51,2-1.51Z" transform="translate(0 -0.89)"/><path class="cls-21" d="M325,52.15c-.36,2.43-2.18,3.28-4.22,3.29-.58,0-1.18-1.64-1.78-2.53Z" transform="translate(0 -0.89)"/><path class="cls-21" d="M336,51.17c-1.26,2.69-3.05,2.07-5,.78Z" transform="translate(0 -0.89)"/><path class="cls-21" d="M278,50.94c-2,1.32-3.86,2-5-1Z" transform="translate(0 -0.89)"/><path class="cls-21" d="M285,51.93c-1.44,1.4-2.45,1.22-3-.8Z" transform="translate(0 -0.89)"/><path class="cls-21" d="M341,50.13c-.5,2-1.51,2.19-3,.82Z" transform="translate(0 -0.89)"/><path class="cls-21" d="M465.08,59.28c3.05,3.47,2.7,7.38-.84,9.35C461.08,63.82,461.2,62.57,465.08,59.28Z" transform="translate(0 -0.89)"/><path class="cls-28" d="M883.52,243.78c2-5,3.75-10.19,6.09-15.06q10-20.83,20.46-41.44a51.8,51.8,0,0,0,5.15-19.3c2.7,1.38,2.47,4,2.7,6.4.65,6.93-1,13.59-3.1,20-1.93,5.95-4.88,11.58-7.39,17.34-3.57,8.15-7.18,16.27-10.69,24.45a9.51,9.51,0,0,0-.76,3.87c.26,11.47-.05,22.88-3,34.08a13.41,13.41,0,0,0-.12,3l-1.91.76-7-.91-1-.06c.23-5.28.59-10.57.67-15.85C883.72,255.3,883.57,249.54,883.52,243.78Z" transform="translate(0 -0.89)"/><path class="cls-23" d="M956,271.86l-5,5-2.72.4a4,4,0,0,1-.56-.43l-.51-1.09v-.12q-1.05-7.35-2.11-14.7c1.92-1,3.69-1.92,4.3-4.38.26-1.06,1.74-1.83,2.66-2.73.32.07.82,0,1,.23,2.69,4.18,5.35,8.39,8,12.59C958.11,267.21,957.08,269.58,956,271.86Z" transform="translate(0 -0.89)"/><path class="cls-4" d="M884,277l7,.91q-3.72,8.88-7.47,17.79L882,292.88q0-6,.08-12l.64-.93C883.13,279,883.55,278,884,277Z" transform="translate(0 -0.89)"/><path class="cls-28" d="M902.08,278c1.95-1.44,3.73-1.88,4.92.89Z" transform="translate(0 -0.89)"/><path class="cls-20" d="M948.28,277.29l2.72-.4-2.23,2C948.61,278.37,948.45,277.83,948.28,277.29Z" transform="translate(0 -0.89)"/><path class="cls-13" d="M947.21,275.77l.51,1.09Z" transform="translate(0 -0.89)"/><path class="cls-29" d="M248.31,276l12.13-14.87,1.83-2.14,5-8.09c1.94.39,3.89.74,5.81,1.19,20.44,4.79,39.4-9.8,43.47-27.58.72-3.17.42-6.59.41-9.9a28.72,28.72,0,0,1,6.2-18.41c4.31-5.45,8.85-10.72,13.1-16.21,2-2.55,3.54-5.44,5.28-8.17l3.42.28c11.13,5.59,21.67,12,30.63,20.84,1.07,1,2.95,1.28,4.45,1.89,6.83.59,9.53-1.38,12.67-9.25l1.9.41.4,3.92c-.59,3.6-2,7.29-1.6,10.79,1,9.14,2.75,18.21,4.22,27.3,1.13,7.06-3.43,12.41-10.45,11.84a30.42,30.42,0,0,1-8.58-2.13c-5-2-9.86-4.37-14.78-6.59-3.42-3.28-6.8-6.62-10.3-9.83a49.29,49.29,0,0,0-4.49-3.34c-1.53-6.1-5.51-10.73-8.66-16-.72.65-.93.74-.94.86-.55,6.83,2.64,12.64,5.27,18.57.2.43,1.49.38,2.28.55-3.12,5.21-7.4,9-13.47,10.13a12.54,12.54,0,0,0-7.81,4.78A52.85,52.85,0,0,0,316,256.27c-2.1,7.54.23,14.42,2.74,21.33-.07.14-.23.35-.19.41a5.26,5.26,0,0,0,.61.64v1.51l-.39.08.34.51.06,1.13a2.81,2.81,0,0,0-.51.82c-2.14,1.2-4.53,2.11-6.37,3.66-6.1,5.16-13.63,5.47-20.94,6.61a107.82,107.82,0,0,1-29.21.07c-3.09-.6-5.91-3.48-9.36-1.11-1.44-2-2.74-4.14-4.34-6C245.63,282.58,247.51,279.31,248.31,276Z" transform="translate(0 -0.89)"/><path class="cls-6" d="M1084,362.22l-1.94-.42Z" transform="translate(0 -0.89)"/><path class="cls-6" d="M1101.91,340.05l-.22.32.17-.4Z" transform="translate(0 -0.89)"/><path class="cls-6" d="M1099.22,356.84a1.15,1.15,0,0,1,0-.91,4.08,4.08,0,0,1,.31.63C1099.5,356.62,1099.32,356.75,1099.22,356.84Z" transform="translate(0 -0.89)"/><path class="cls-16" d="M1068.07,383.86c-1.7-.14-2.52-.65-.93-2.19Z" transform="translate(0 -0.89)"/><path class="cls-6" d="M744.82,380.07l11.74-6.81c-1,4.1-1.74,7.12-2.57,10.49l-9-2.53C745,380.84,744.89,380.45,744.82,380.07Z" transform="translate(0 -0.89)"/><path class="cls-6" d="M1097,322.86h-5A3.47,3.47,0,0,1,1097,322.86Z" transform="translate(0 -0.89)"/><path class="cls-6" d="M1099,318.88a1.68,1.68,0,0,1,.19-1,3.83,3.83,0,0,1,.19.74C1099.37,318.72,1099.12,318.8,1099,318.88Z" transform="translate(0 -0.89)"/><path class="cls-15" d="M1086.33,289.58l5.79,4C1089.17,294.82,1087.39,293.58,1086.33,289.58Z" transform="translate(0 -0.89)"/><path class="cls-6" d="M1094,301.92h-4C1091.32,300.49,1092.66,300.48,1094,301.92Z" transform="translate(0 -0.89)"/><path class="cls-15" d="M1084.07,287.72l2.2,1.85Z" transform="translate(0 -0.89)"/><path class="cls-15" d="M1080,285.07l1.1.77Z" transform="translate(0 -0.89)"/><path class="cls-6" d="M1098.94,282.08a1.9,1.9,0,0,1-.87-.44Z" transform="translate(0 -0.89)"/><path class="cls-27" d="M952.06,253.84c-.92.9-2.4,1.67-2.66,2.73C948.79,259,947,260,945.1,261c-2.94-13.64-4.17-27.17,2.74-40.14,5.48.49,7.68,3,8.19,9,.15,1.76-1.1,4.11,1.63,5.09,1,4.22.22,7.8-3.58,10.38C950.78,247.48,950.43,250.44,952.06,253.84Z" transform="translate(0 -0.89)"/><path class="cls-9" d="M957.66,234.87c-2.73-1-1.48-3.33-1.63-5.09-.51-6-2.71-8.48-8.19-9,2.35-5.45,4.91-10.82,7-16.38,2.64-7.1,4.88-14.34,7.3-21.52,2,8.27,1.73,16.66-2.43,24-3.64,6.37-2.64,12.69-2.52,19.18C957.24,229,957.49,231.93,957.66,234.87Z" transform="translate(0 -0.89)"/><path class="cls-27" d="M861,235c-.56-7.37,1.51-13.87,5.24-20.31,2-3.47,2.44-8.21,2.47-12.38s-3.7-5.87-7-3.05c-5.77,4.9-12.41,4.79-19.24,4.71-2.47,0-4-.66-4.75-3.3-.39-1.43-1.64-2.62-3.31-5.15-.93,1.68-1.33,2.57-1.88,3.35s-1.17,2-2,2.13c-5.81,1.28-11.83,2.32-17.35-.53-4.77-2.47-7-2-8.12,3.32A66.44,66.44,0,0,0,804,214.58c-.12,3.42-1.44,5.36-5,5.31-.1-8.27-.27-16.53-.26-24.8,0-12.73.15-25.47.23-38.2,1.63-.19,3.82.23,4.79-.67,3.63-3.35,7.61-2.83,12-2.45a129,129,0,0,0,16.45.06c3.82-.15,7,1,9.16,4,2,2.81,4.42,3.77,7.7,2.71,4.37-7.2,11.87-9.15,18-4.65.52.4,1.3.74,1.48,1.27,1.55,4.51,5.09,4,8.62,3.53s4.6.37,4.9,4.12c.17,2.22-.73,4.81,2.09,6.13-2,7-3.63,14-5.91,20.88-3.45,10.34-7.32,20.53-11,30.78-1.06,3-1.92,6-3.19,8.88C863.39,232.82,862,233.81,861,235Z" transform="translate(0 -0.89)"/><path class="cls-20" d="M882.72,280l-.64.93c-.69-.94-2-1.87-2-2.82a52.4,52.4,0,0,1,.75-8.37c.87-5.66-.3-6.9-5.76-5.84-.93.18-1.85.4-3.3.73.74,1.12,1.17,1.9,1.72,2.59,2.28,2.86,1.63,5-1.94,5.55a42.61,42.61,0,0,1-6,.16c-1.83,0-3.79-.31-5.46.23-3.48,1.13-6.81,2.27-10.74-.75.17,1.65.26,2.39.33,3.13.38,4-.79,5-4.34,3.23-2.49-1.21-3.77-.66-4.35,1.91-.4,1.77-.59,3.6-1.07,5.35s-1.19,3.18-1.84,4.87c-4.4-1.19-4.26-3.35-2.74-6.87a25.89,25.89,0,0,0-3.73.86,39.53,39.53,0,0,0-3.85,1.93c1.3-1.67,2.31-3.72,4-5,10.41-7.91,21-15.64,31.47-23.4a6.55,6.55,0,0,1,1.87-.64c2.93,1.59,5.26,1,7.32-1.67a31.79,31.79,0,0,1,3.71-3.29c.58-.53,1.57-1.3,1.48-1.8-.87-4.82,3.47-5.23,5.91-7.24.05,5.76.2,11.52.11,17.28-.08,5.28-.44,10.57-.67,15.85Z" transform="translate(0 -0.89)"/><path class="cls-21" d="M924.05,131.69c-2,3-.86,6.05-.08,9.08l-3.9,3c-.28-3.94-.63-7.87-.81-11.81-.1-2.15.06-4.31.13-6.47.11-3.16,1.79-4,4.66-3.15a.87.87,0,0,0,.61.62l.18,5.88C924.58,129.79,924.31,130.74,924.05,131.69Z" transform="translate(0 -0.89)"/><path class="cls-10" d="M924.84,128.84l-.18-5.88c2,.69,3.52,2,3.07,4.23C927.58,127.91,925.85,128.3,924.84,128.84Z" transform="translate(0 -0.89)"/><path class="cls-20" d="M956,271.86c1.13-2.28,2.16-4.65,5.07-5.2l1,1.12C960.4,269.73,959,272,956,271.86Z" transform="translate(0 -0.89)"/><path class="cls-23" d="M920.07,143.77l3.9-3,3.14,3.11q1.11,3.39,2.2,6.79L919,151.82l-.07-6C919.28,145.16,919.67,144.46,920.07,143.77Z" transform="translate(0 -0.89)"/><path class="cls-20" d="M349,217.94a49.29,49.29,0,0,1,4.49,3.34c3.5,3.21,6.88,6.55,10.3,9.83a15.55,15.55,0,0,0,2.41,2.9c4.54,3.4,9.18,6.66,13.79,10a28.63,28.63,0,0,0-.76,4.81c.17,14.46.44,28.91.63,43.36,0,.59-.52,1.17-.8,1.76-2.89-3-2.47-7-3.06-10.71-.49-3.1-.7-6.25-1.25-9.34-.19-1-1.07-1.93-1.89-3.34a25.75,25.75,0,0,1-2.64,2.49c-2,1.39-3.95,3.26-6.2,3.86a105.21,105.21,0,0,1-12.7,2,3.75,3.75,0,0,1-2.44-.26C344,275.08,338.43,275.84,333,276c-2.05,0-4.07,1-6.14,1.33-2.44.35-4.93.4-7.4.59l-.68-.28c-2.51-6.91-4.84-13.79-2.74-21.33a52.85,52.85,0,0,1,9.66-19.48A12.54,12.54,0,0,1,333.5,232c6.07-1.13,10.35-4.92,13.47-10.13Z" transform="translate(0 -0.89)"/><path class="cls-27" d="M318.69,282.7a2.81,2.81,0,0,1,.51-.82,36.55,36.55,0,0,1,2.62,5.38,44.08,44.08,0,0,1,1.95,9c.21,2.52-.42,5.11-.67,7.67Z" transform="translate(0 -0.89)"/><path class="cls-20" d="M452,298.86h10c-1.72,3.8-2.9,4.39-6.76,4C452.59,302.65,451.91,301.14,452,298.86Z" transform="translate(0 -0.89)"/><path class="cls-27" d="M326.09,318.91q-1.38-6-2.75-12.07C326.44,310.37,328.42,314.15,326.09,318.91Z" transform="translate(0 -0.89)"/><path class="cls-5" d="M469.18,299a1.44,1.44,0,0,1,.89.29l-.49,23.27q-.36-3.31-.7-6.64,0-6,0-12C469,302.25,469.08,300.6,469.18,299Z" transform="translate(0 -0.89)"/><path class="cls-20" d="M469.18,299c-.1,1.65-.21,3.3-.31,4.95-2.59-.72-2.2-3.16-2.86-5Z" transform="translate(0 -0.89)"/><path class="cls-3" d="M319.14,280.75l-.34-.51.39-.08A1.08,1.08,0,0,1,319.14,280.75Z" transform="translate(0 -0.89)"/><path class="cls-3" d="M318.77,277.6l.68.28a4.1,4.1,0,0,0-.26.77,5.26,5.26,0,0,1-.61-.64C318.54,278,318.7,277.74,318.77,277.6Z" transform="translate(0 -0.89)"/><path class="cls-9" d="M505.12,297.89l.69-.95Z" transform="translate(0 -0.89)"/><path class="cls-9" d="M505.94,159.82c-.18-.41-.36-.82-.55-1.23l1.1.31Z" transform="translate(0 -0.89)"/><path class="cls-5" d="M506.2,294.08l0-1.39Z" transform="translate(0 -0.89)"/><path class="cls-16" d="M530.29,181.92c-.06-8-.18-16-.18-23.95q0-32.2,0-64.41v-6c2.11-.18,3.86-.47,5.62-.47q98.6,0,197.21,0a37.31,37.31,0,0,1,3.94.41c0,.5.13,1,.13,1.49q0,45.69,0,91.37a21.12,21.12,0,0,1-.66,3.62H559.9c-8.16,0-16.31,0-24.47,0C533.4,184,531.4,184.12,530.29,181.92Zm203.92-1c.58-1.37,1.66-2.74,1.66-4.11q.17-40.59,0-81.19c0-1.28-.9-2.55-1.39-3.83a38.38,38.38,0,0,0-6.22-1q-96.69-.1-193.36-.09l-1.58-.12.48,1.23c0,1.66,0,3.32,0,5q.07,42.06.13,84.11c.86,3.27,3.55,1.86,5.4,1.86q94.53.1,189.07,0a19.42,19.42,0,0,0,4-.14c.62-.13,1.08-1,1.62-1.58Z" transform="translate(0 -0.89)"/><path class="cls-23" d="M530.29,181.92c1.11,2.2,3.11,2.06,5.14,2.05,8.16,0,16.31,0,24.47,0H736.34a21.12,21.12,0,0,0,.66-3.62q0-45.67,0-91.37c0-.49-.08-1-.13-1.49.54.23,1.43.34,1.54.7a10,10,0,0,1,.3,2.94q0,44.72-.08,89.43c0,4.92-.08,5-5,5q-99.18,0-198.34-.05C533,185.47,529.17,186.94,530.29,181.92Z" transform="translate(0 -0.89)"/><path class="cls-9" d="M505.31,158.49,491.49,158V144.36q2.2,1.89,4.4,3.79l6.89,6,0,0,2.37,2.73Z" transform="translate(0 -0.89)"/><path class="cls-25" d="M502.78,154.15l-6.89-6q-2.19-1.91-4.4-3.79l-.64-1.32c.49,0,1.13-.28,1.47-.06C496.71,145.84,501,148.79,502.78,154.15Z" transform="translate(0 -0.89)"/><path class="cls-25" d="M505.11,156.84l-2.37-2.73C504.46,154.22,506.46,154.07,505.11,156.84Z" transform="translate(0 -0.89)"/><path class="cls-23" d="M395,189.9l-.4-3.92-.81-3.35c2.43-7,4.94-13.91,7.27-20.91,2.06-6.2,3.92-12.48,5.87-18.72,3.15-2.56,6.23-5.21,9.5-7.6.78-.57,2.21-.41,3.33-.33,3.08.2,6.16.54,9.24.83l1,2c0,1,0,2,0,3l-1.94,3.67c-4.27,1.66-8.35,4.11-13.23,3.19-2.72-1.72-3.55.05-3.76,2.23a67.44,67.44,0,0,0,0,6.82q-.09,4.11-.19,8.22l-.78,1.84c-.08,1.74-.17,3.47-.25,5.21q-.84,6.63-1.66,13.26c-.36,2.23-.71,4.47-1.06,6.7,0,2.25,0,4.5,0,6.76-.32,1-.64,2-1,3a32.61,32.61,0,0,0-1.14,4c-.43,2.71-.67,5.45-1,8.18a2.49,2.49,0,0,0,.1,1h-2c-1.19-3.57-2.53-7.09-3.55-10.71C397.29,199.49,396.2,194.68,395,189.9Z" transform="translate(0 -0.89)"/><path class="cls-2" d="M395,189.9c1.2,4.78,2.29,9.59,3.62,14.33,1,3.62,2.36,7.14,3.55,10.71.35,1,.71,1.95,1.06,2.93q2.22,5.38,4.46,10.77l1,2.5v3.5l-.6,2.72L407,239.87c-2.36,7-10,9.81-20.06,6.56-2.33-.75-4.62-1.62-6.93-2.44-4.61-3.32-9.25-6.58-13.79-10a15.55,15.55,0,0,1-2.41-2.9c4.92,2.22,9.77,4.6,14.78,6.59a30.42,30.42,0,0,0,8.58,2.13c7,.57,11.58-4.78,10.45-11.84-1.47-9.09-3.23-18.16-4.22-27.3C393,197.19,394.41,193.5,395,189.9Z" transform="translate(0 -0.89)"/><path class="cls-17" d="M432.17,273.19c-.25-4.87-.25-5,3.48-5q23.5-.06,47,0c4.22,0,4.22.11,3.59,5Z" transform="translate(0 -0.89)"/><path class="cls-17" d="M458.85,185.78h-22a10.37,10.37,0,0,1-3.45-.18,2.8,2.8,0,0,1-1.6-2.07,3.48,3.48,0,0,1,1.45-2.69,12.91,12.91,0,0,1,4.42-.35q21.72,0,43.43,0c.83,0,1.66,0,2.49,0,1.93,0,3.21.59,3.16,2.85,0,2.06-1.33,2.45-3,2.48-.83,0-1.66,0-2.49,0H458.85Z" transform="translate(0 -0.89)"/><path class="cls-17" d="M432.33,262.05a17.11,17.11,0,0,1-.41-2.59,9.56,9.56,0,0,1,.5-2.12h54v4.71Z" transform="translate(0 -0.89)"/><path class="cls-17" d="M432.22,235v-4.79h54.21c.07,1.49.13,3,.21,4.79Z" transform="translate(0 -0.89)"/><path class="cls-17" d="M431.77,192h54.12c1.13,4.49,1,4.94-2.61,5-16.81.07-33.62,0-50.88,0C432.2,195.33,432,194,431.77,192Z" transform="translate(0 -0.89)"/><path class="cls-17" d="M486.53,220.89c.81,3.22-1.39,3.13-3.48,3.13l-23.94,0q-12.72,0-25.43-.07a6.79,6.79,0,0,1-1.44-.48L432,219.8c.67-.45.94-.78,1.21-.78q25.92,0,51.83,0Z" transform="translate(0 -0.89)"/><path class="cls-17" d="M407.13,192c.35-2.23.7-4.47,1.06-6.7,4.81-.71,6.75-4.44,8.47-8.1h5.45c.11,1.48.2,2.62.29,3.76l-1.6.09c-3.92,1.09-5.49,4.63-8.5,7.67l8.45,6.9,2,.36c-.21,5-.21,5-4.48,5.24l-1.2-2.37c-1.59-1.82-3.3-3.55-4.76-5.47S409.14,191.44,407.13,192Z" transform="translate(0 -0.89)"/><path class="cls-9" d="M422.4,181c-.09-1.14-.18-2.28-.29-3.76h-5.45c-1.72,3.66-3.66,7.39-8.47,8.1q.82-6.63,1.66-13.26c1.26,2.06,2.82,3.4,5.52,2.93a43.67,43.67,0,0,1,4.44-.07c2.49-.17,3.93,1.14,3.93,3.39,0,5.55-.35,11.1-.56,16.65Z" transform="translate(0 -0.89)"/><path class="cls-29" d="M399.84,252.67q9.65-.1,19.29-.23c2.71,0,3.84,1.21,3.74,3.95-.15,4.13-.08,8.26-.1,12.39l-1.88.09V255.2H400.08Z" transform="translate(0 -0.89)"/><path class="cls-3" d="M399.84,252.67l.24,2.53v20l5,.75,0,1.93a29.14,29.14,0,0,1-4.32.6c-2.34,0-3.66-1.17-3.64-3.68,0-6.3,0-12.59,0-18.89C397.12,254.18,397.49,252.54,399.84,252.67Z" transform="translate(0 -0.89)"/><path class="cls-29" d="M407,239.87l1.08-2.51a2.53,2.53,0,0,0,.77-.22,29.17,29.17,0,0,0,2.93.44c9.06.5,9.06.49,9-8.43,0-4.21,0-8.43,0-13H404l-.26-1.2h.39l3.09-.44h15.52v7.32l-.12,16.34c-1.41.55-2.79,1.48-4.23,1.56C414.63,240,410.81,239.86,407,239.87Z" transform="translate(0 -0.89)"/><path class="cls-3" d="M420.89,268.87l1.88-.09c.1.82.26,1.64.28,2.46.21,7.78-.92,8.61-9.08,6.68,0-.65,0-1.31,0-2l5.86-.57C420.2,273.05,420.54,271,420.89,268.87Z" transform="translate(0 -0.89)"/><path class="cls-3" d="M417.08,198.88l1.2,2.37-12.08.53c.33-1,.65-2,1-3Z" transform="translate(0 -0.89)"/><path class="cls-3" d="M422.4,181l.78,14-.42,1-2-.36.05-14.57Z" transform="translate(0 -0.89)"/><path class="cls-9" d="M411.07,156.8a67.44,67.44,0,0,1,0-6.82c.21-2.18,1-3.95,3.76-2.23a54.73,54.73,0,0,0-1.95,5.17C412.52,154.36,413.5,156.35,411.07,156.8Z" transform="translate(0 -0.89)"/><path class="cls-29" d="M414,276c0,.65,0,1.31,0,2l-8.94,0c0-.64,0-1.29,0-1.93Z" transform="translate(0 -0.89)"/><path class="cls-8" d="M422.66,238.19l.12-16.34Z" transform="translate(0 -0.89)"/><path class="cls-9" d="M428.09,144.56l1.94-3.67,3.93,1.92Z" transform="translate(0 -0.89)"/><path class="cls-9" d="M410.1,166.86l.78-1.84C412.32,166.35,411.24,166.62,410.1,166.86Z" transform="translate(0 -0.89)"/><path class="cls-29" d="M486.53,220.89l-1.5-1.82Z" transform="translate(0 -0.89)"/><path class="cls-8" d="M407.26,214.52l-3.09.44a2.49,2.49,0,0,1-.1-1Z" transform="translate(0 -0.89)"/><path class="cls-8" d="M418.29,214.53h0Z" transform="translate(0 -0.89)"/><path class="cls-28" d="M341.53,171.81c-1.74,2.73-3.3,5.62-5.28,8.17-4.25,5.49-8.79,10.76-13.1,16.21A28.72,28.72,0,0,0,317,214.6c0,3.31.31,6.73-.41,9.9-4.07,17.78-23,32.37-43.47,27.58-1.92-.45-3.87-.8-5.81-1.19l-10.2-5.57a15,15,0,0,0-1.3-2.67c-5.64-7.22-5.45-15.46-2.27-23.08a75.64,75.64,0,0,1,11.89-19.28A161.27,161.27,0,0,1,290,176c.92-.7,1.24-2.18,1.84-3.3,3.63-1.83,5.74-4.94,7.26-8.56,3.31-7.88,2.42-16,1.19-24.08-.17-1-.34-2.09-.52-3.13l-.36-5.87q1.4-9.69,2.81-19.4c-4.77,1.61-6.88,4.7-5.3,8.81a12.53,12.53,0,0,1-.32,10.1c-1.12.61-2.23,1.24-3.36,1.83-1.83.94-2.6,2.3-1.84,4.33l1.15,2.59c1,2.09,2,4.16,3,6.27,2.77,6.07,1.22,9.8-5,12-5.24,1.89-5.87,3.33-4.91,8.95.46,2.71.15,5.55.2,8.33L278,179.76l-2.05.07-3.9.06c-4.38-.23-7.57-2-8.29-5.42-.36-1.7-.08-4.26,1-5.37,2.15-2.21,2.9-4.44,2-7.17-1.32-4,.56-6.35,3.65-8.26,1.55-1,3.2-1.76,4.72-2.76,4.67-3,5.2-5.87,1.95-10.3a32.25,32.25,0,0,0-2.59-3c-3.91-4.18-3.85-5.59-.36-10.22a71.35,71.35,0,0,0,4.38-7.48c-.92-2.59-1.34-5.5-2.83-7.7-7.59-11.17-3.44-20.93,7.62-25.36a24.58,24.58,0,0,1,17.11-.45,13.31,13.31,0,0,1,5.64,3.94c3.46,4.08,7.18,7.54,12.61,8.7a2.67,2.67,0,0,1,1.68,1c2,4.07,6,3.75,9.61,4.8,4.71,1.35,9.06,4,13.56,6,3.39,4.2,5.53,8.78,4.2,14.36-1.17,2.3-2.35,4.59-3.66,7.13a32.47,32.47,0,0,0-3.47-2.48c-2.07-1.07-4.84.16-4.87,2.41a6.2,6.2,0,0,0,1.84,4.28A23,23,0,0,1,346,153.86Z" transform="translate(0 -0.89)"/><path class="cls-27" d="M380,194.82c-1.5-.61-3.38-.84-4.45-1.89-9-8.81-19.5-15.25-30.63-20.84a9.18,9.18,0,0,1,2.34-7.32,8.09,8.09,0,0,0,1.61-5.05c0-2.64.87-4.26,3.28-5.54,2.13-1.13,3.86-3,6.14-4.84-5.84-5.06-1.55-10.64-2.19-17a48.39,48.39,0,0,1,4.47,2.41c2,1.43,3.08,3.14.79,5.26-1.68,1.56-1.53,3.22-.28,4.89a3.45,3.45,0,0,0,4.82,1.13c1.42-.76,3.17-1.32,4.12-2.5,2.09-2.62,4.77-3.34,8-3.56l1.92,3.93Q380,169.35,380,194.82Z" transform="translate(0 -0.89)"/><path class="cls-15" d="M380,194.82q0-25.47,0-50.93a26.65,26.65,0,0,1,4.76-.92c7.4-.07,14.8,0,22.19,0-1.95,6.24-3.81,12.52-5.87,18.72-2.33,7-4.84,13.94-7.27,20.91l-1.09,2.94C389.56,193.44,386.86,195.41,380,194.82Z" transform="translate(0 -0.89)"/><path class="cls-23" d="M346,153.86a23,23,0,0,0-8.45-17.32,6.2,6.2,0,0,1-1.84-4.28c0-2.25,2.8-3.48,4.87-2.41a32.47,32.47,0,0,1,3.47,2.48c1.31-2.54,2.49-4.83,3.66-7.13q2.91,5.47,5.8,10.94a1.81,1.81,0,0,1,.33.92,9.54,9.54,0,0,1-.54,2.85C351,144.65,352.79,151.5,346,153.86Z" transform="translate(0 -0.89)"/><path class="cls-9" d="M430,137.88l-1-2C430.24,136.1,431.48,136.29,430,137.88Z" transform="translate(0 -0.89)"/><path class="cls-20" d="M824,288.88l3-2C826.56,288.36,826.64,290.62,824,288.88Z" transform="translate(0 -0.89)"/><path class="cls-6" d="M750.83,356.21l-18.16,10.27c-3.44-6-6.7-11.7-10.27-17.94l17.92-10.3Z" transform="translate(0 -0.89)"/><path class="cls-6" d="M731.42,322.36l-18,10.51-10.25-18.25,18.09-10.22Z" transform="translate(0 -0.89)"/><path class="cls-29" d="M278,179.76l7.89-4.86,6-2.19c-.6,1.12-.92,2.6-1.84,3.3a161.27,161.27,0,0,0-24.65,24.28,75.64,75.64,0,0,0-11.89,19.28c-3.18,7.62-3.37,15.86,2.27,23.08a15,15,0,0,1,1.3,2.67l-5.06-.4-5.76-4.16L245,237.88l-.77-2.11-.27-2.88c1.39-4,2.21-8.36,4.29-12,4.66-8.11,9.93-15.88,15-23.75,1.15-1.79,2.51-3.45,3.77-5.17Z" transform="translate(0 -0.89)"/><path class="cls-29" d="M272.06,179.89l3.9-.06Z" transform="translate(0 -0.89)"/><path class="cls-23" d="M252,244.92l5.06.4,10.2,5.57-5,8.09-3.23-.16-1-1-2-2L254,252.9Z" transform="translate(0 -0.89)"/><path class="cls-27" d="M252,244.92l1.95,8c-4.55-2.15-7-6-8.55-10.58-.13-.38.54-1,.84-1.56Z" transform="translate(0 -0.89)"/><path class="cls-27" d="M259,258.82l3.23.16-1.83,2.14Z" transform="translate(0 -0.89)"/><path class="cls-27" d="M244.24,235.77l.77,2.11C243.54,237.63,242.51,237.2,244.24,235.77Z" transform="translate(0 -0.89)"/><path class="cls-27" d="M256,255.84l2,2Z" transform="translate(0 -0.89)"/><path class="cls-10" d="M882.72,280l.24-3,1,.06C883.55,278,883.13,279,882.72,280Z" transform="translate(0 -0.89)"/><path class="cls-17" d="M349,217.94l-2,3.94c-.79-.17-2.08-.12-2.28-.55-2.63-5.93-5.82-11.74-5.27-18.57,0-.12.22-.21.94-.86C343.51,207.21,347.49,211.84,349,217.94Z" transform="translate(0 -0.89)"/><path class="cls-2" d="M392.7,185.57l1.09-2.94.81,3.35Z" transform="translate(0 -0.89)"/><path class="cls-30" d="M534.93,90.71q96.68,0,193.36.09a38.38,38.38,0,0,1,6.22,1c-.11,1.81-.31,3.63-.31,5.45q0,41.83,0,83.68l-.15.16q-74.59,0-149.18,0c-17,0-33.92-.09-50.88-.14q-.06-42.06-.13-84.11c0-1.66,0-3.32,0-5Zm101.24,47.17c0-20.31-18-27.24-31.58-20.55-10.66,5.26-14.65,20.21-8.89,31.79,2.14,4.32,5.14,7.77,9.66,9.65C620.58,165.12,636.72,155.52,636.17,137.88Zm79.34,3.19v-8H695.24c-1.14-8.94-1.14-8.88,6.84-8.86,5.07,0,10.14-.17,15.34-.27v-7.71H685.34v43.17h32c1.59-7.51,1.25-8-5.51-8-5.44,0-10.89,0-16.68,0V141.07Zm-151,18.69h4.86c6.07,0,6.08,0,7.91-5.81q4.26-13.57,8.45-27.17c1-3.4,1.93-6.85,3-10.6-1.51-.15-2.31-.28-3.12-.29-5.59-.13-5.63-.13-7.38,5.19-2.08,6.33-4.07,12.68-6.14,19-.44,1.32-1.09,2.57-2.14,5-1-2.81-1.67-4.45-2.21-6.13-2.14-6.65-4.34-13.29-6.31-20-.7-2.36-2-3.25-4.31-3.1-1.89.11-3.8,0-6.79,0C555.18,131.07,559.72,145.1,564.47,159.76Zm79.17-43.66c-1.49,7.74-1.2,8.12,5.65,8.18.67,0,1.33,0,2,0,4.24.16,4.57.38,4.62,4.62.08,8.15,0,16.31,0,24.47,0,1.94.17,3.89.26,6.13,1.88.1,3.33.25,4.78.24,4.53,0,4.72-.21,4.77-4.83.07-5.66,0-11.32,0-17V124.53l12.44-.65V116.1Z" transform="translate(0 -0.89)"/><path class="cls-23" d="M534,180.91c17,.05,33.92.13,50.88.14q74.6,0,149.18,0c-.54.55-1,1.45-1.62,1.58a19.42,19.42,0,0,1-4,.14q-94.53,0-189.07,0C537.55,182.77,534.86,184.18,534,180.91Z" transform="translate(0 -0.89)"/><path class="cls-23" d="M734.21,180.94q0-41.83,0-83.68c0-1.82.2-3.64.31-5.45.49,1.28,1.39,2.55,1.39,3.83q.12,40.61,0,81.19C735.87,178.2,734.79,179.57,734.21,180.94Z" transform="translate(0 -0.89)"/><path class="cls-23" d="M534.93,90.71l-1.1,1.11-.48-1.23Z" transform="translate(0 -0.89)"/><path class="cls-6" d="M417.08,198.88l-9.91-.09c0-2.26,0-4.51,0-6.76,2-.59,3.75-.53,5.19,1.38S415.49,197.06,417.08,198.88Z" transform="translate(0 -0.89)"/><path class="cls-27" d="M403.78,215l.26,1.2-.81,1.72c-.35-1-.71-2-1.06-2.93Z" transform="translate(0 -0.89)"/><path class="cls-15" d="M403.23,217.87l.81-1.72h16.78c0,4.57,0,8.79,0,13,0,8.92,0,8.93-9,8.43a29.17,29.17,0,0,1-2.93-.44c-.06-.84-.11-1.67-.17-2.5v-3.5l-1-2.5Q405.46,223.26,403.23,217.87Z" transform="translate(0 -0.89)"/><path class="cls-27" d="M408.68,234.64c.06.83.11,1.66.17,2.5a2.53,2.53,0,0,1-.77.22Z" transform="translate(0 -0.89)"/><path class="cls-27" d="M407.69,228.64l1,2.5Z" transform="translate(0 -0.89)"/><path class="cls-6" d="M420.8,181.08l-.05,14.57-8.45-6.9C415.31,185.71,416.88,182.17,420.8,181.08Z" transform="translate(0 -0.89)"/><path class="cls-6" d="M414,276h-8.9l-5-.75v-20h20.81v13.67c-.35,2.09-.69,4.18-1.08,6.52Z" transform="translate(0 -0.89)"/><path class="cls-19" d="M291.87,172.71l-6,2.19c0-2.78.26-5.62-.2-8.33-1-5.62-.33-7.06,4.91-8.95,6.18-2.22,7.73-6,5-12-1-2.11-2-4.18-3-6.27l-1.15-2.59c-.76-2,0-3.39,1.84-4.33,1.13-.59,2.24-1.22,3.36-1.83l2.81.49.36,5.87c.18,1,.35,2.08.52,3.13,1.23,8.1,2.12,16.2-1.19,24.08C297.61,167.77,295.5,170.88,291.87,172.71Z" transform="translate(0 -0.89)"/><path class="cls-8" d="M299.44,131.07l-2.81-.49a12.53,12.53,0,0,0,.32-10.1c-1.58-4.11.53-7.2,5.3-8.81Q300.84,121.39,299.44,131.07Z" transform="translate(0 -0.89)"/><path class="cls-8" d="M300.32,140.07c-.17-1-.34-2.09-.52-3.13C300,138,300.15,139,300.32,140.07Z" transform="translate(0 -0.89)"/><path class="cls-8" d="M291.43,136.74l1.15,2.59Z" transform="translate(0 -0.89)"/><path class="cls-16" d="M636.17,137.88c.55,17.64-15.59,27.24-30.81,20.89-4.52-1.88-7.52-5.33-9.66-9.65-5.76-11.58-1.77-26.53,8.89-31.79C618.14,110.64,636.2,117.57,636.17,137.88Zm-33.51.1a54.87,54.87,0,0,0,1.52,6.76c1.9,5.26,5.88,8,10.9,7.84,4.82-.15,8.67-3.36,10.47-8.48a20.63,20.63,0,0,0,0-12.7,10.53,10.53,0,0,0-10.63-8.12c-5.35,0-9,2.51-10.79,7.86A57.44,57.44,0,0,0,602.66,138Z" transform="translate(0 -0.89)"/><path class="cls-16" d="M715.51,141.07H695.12v10.34c5.79,0,11.24,0,16.68,0,6.76,0,7.1.51,5.51,8h-32V116.27h32.08V124c-5.2.1-10.27.29-15.34.27-8,0-8-.08-6.84,8.86h20.27Z" transform="translate(0 -0.89)"/><path class="cls-16" d="M564.47,159.76c-4.75-14.66-9.29-28.69-14.2-43.88,3,0,4.9.09,6.79,0,2.35-.15,3.61.74,4.31,3.1,2,6.7,4.17,13.34,6.31,20,.54,1.68,1.19,3.32,2.21,6.13,1.05-2.43,1.7-3.68,2.14-5,2.07-6.32,4.06-12.67,6.14-19,1.75-5.32,1.79-5.32,7.38-5.19.81,0,1.61.14,3.12.29-1,3.75-1.93,7.2-3,10.6q-4.17,13.6-8.45,27.17c-1.83,5.85-1.84,5.85-7.91,5.81Z" transform="translate(0 -0.89)"/><path class="cls-16" d="M643.64,116.1h34.61v7.78l-12.44.65v13.41c0,5.66,0,11.32,0,17,0,4.62-.24,4.79-4.77,4.83-1.45,0-2.9-.14-4.78-.24-.09-2.24-.25-4.19-.26-6.13,0-8.16,0-16.32,0-24.47,0-4.24-.38-4.46-4.62-4.62-.67,0-1.33,0-2,0C642.44,124.22,642.15,123.84,643.64,116.1Z" transform="translate(0 -0.89)"/><path class="cls-30" d="M602.66,138a57.44,57.44,0,0,1,1.43-6.84c1.81-5.35,5.44-7.88,10.79-7.86a10.53,10.53,0,0,1,10.63,8.12,20.63,20.63,0,0,1,0,12.7c-1.8,5.12-5.65,8.33-10.47,8.48-5,.16-9-2.58-10.9-7.84A54.87,54.87,0,0,1,602.66,138Z" transform="translate(0 -0.89)"/><polygon class="cls-31" points="1295 263.06 0 0.97 0 123.41 1295 385.5 1295 263.06"/></svg>