<svg xmlns="http://www.w3.org/2000/svg" xmlns:xlink="http://www.w3.org/1999/xlink" viewBox="0 0 3650.28849 3672.06922">
  <defs>
    <style>
      .cls-1 {
        fill: url(#linear-gradient);
      }

      .cls-2 {
        fill: #f5f8ff;
      }

      .cls-3 {
        fill: url(#linear-gradient-2);
      }

      .cls-4 {
        fill: #91b3fa;
      }

      .cls-5 {
        fill: #bdd0fb;
      }

      .cls-6 {
        opacity: 0.88;
      }

      .cls-13, .cls-7 {
        fill: #fff;
      }

      .cls-7 {
        opacity: 0.51;
      }

      .cls-8 {
        fill: url(#linear-gradient-3);
      }

      .cls-9 {
        fill: url(#linear-gradient-4);
      }

      .cls-10 {
        fill: url(#linear-gradient-5);
      }

      .cls-11 {
        fill: url(#linear-gradient-6);
      }

      .cls-12 {
        fill: #7d97f4;
      }

      .cls-13 {
        opacity: 0.63;
      }

      .cls-14 {
        fill: url(#linear-gradient-7);
      }

      .cls-15 {
        fill: url(#linear-gradient-8);
      }

      .cls-16 {
        fill: url(#linear-gradient-9);
      }

      .cls-17 {
        fill: url(#linear-gradient-10);
      }

      .cls-18 {
        fill: url(#linear-gradient-11);
      }

      .cls-19 {
        fill: url(#linear-gradient-12);
      }

      .cls-20 {
        fill: url(#linear-gradient-13);
      }

      .cls-21 {
        fill: url(#linear-gradient-14);
      }

      .cls-22 {
        fill: url(#linear-gradient-15);
      }

      .cls-23 {
        fill: url(#linear-gradient-16);
      }

      .cls-24 {
        fill: url(#linear-gradient-17);
      }

      .cls-25 {
        fill: url(#linear-gradient-18);
      }

      .cls-26 {
        fill: url(#linear-gradient-19);
      }

      .cls-27 {
        fill: url(#linear-gradient-20);
      }

      .cls-28 {
        fill: url(#linear-gradient-21);
      }

      .cls-29 {
        fill: url(#linear-gradient-22);
      }

      .cls-30 {
        fill: url(#linear-gradient-23);
      }

      .cls-31 {
        fill: url(#linear-gradient-24);
      }

      .cls-32 {
        fill: url(#linear-gradient-25);
      }

      .cls-33 {
        fill: url(#linear-gradient-26);
      }

      .cls-34 {
        fill: url(#linear-gradient-27);
      }

      .cls-35 {
        fill: url(#linear-gradient-28);
      }

      .cls-36 {
        fill: url(#linear-gradient-29);
      }

      .cls-37 {
        fill: url(#linear-gradient-30);
      }

      .cls-38 {
        fill: url(#linear-gradient-31);
      }
    </style>
    <linearGradient id="linear-gradient" x1="64.23833" y1="2088.13814" x2="3600.55153" y2="2088.13814" gradientTransform="matrix(-0.50835, 0.84938, -0.8517, -0.51065, 4339.63592, 1261.2333)" gradientUnits="userSpaceOnUse">
      <stop offset="0" stop-color="#4f52ff"/>
      <stop offset="1" stop-color="#4042e2"/>
    </linearGradient>
    <linearGradient id="linear-gradient-2" x1="3473.79552" y1="3648.51185" x2="1534.32105" y2="1583.91052" gradientUnits="userSpaceOnUse">
      <stop offset="0" stop-color="#dae3fe"/>
      <stop offset="1" stop-color="#e9effd"/>
    </linearGradient>
    <linearGradient id="linear-gradient-3" x1="258.78854" y1="-448.27635" x2="1665.63855" y2="1894.04119" gradientUnits="userSpaceOnUse">
      <stop offset="0" stop-color="#febbba"/>
      <stop offset="1" stop-color="#ff928e"/>
    </linearGradient>
    <linearGradient id="linear-gradient-4" x1="1835.84523" y1="658.77394" x2="2914.23563" y2="24.71909" gradientTransform="matrix(1, 0, 0, 1, 0, 0)" xlink:href="#linear-gradient"/>
    <linearGradient id="linear-gradient-5" x1="1255.90835" y1="246.69468" x2="882.39053" y2="1161.81238" gradientUnits="userSpaceOnUse">
      <stop offset="0" stop-color="#e1473d"/>
      <stop offset="1" stop-color="#e9605a"/>
    </linearGradient>
    <linearGradient id="linear-gradient-6" x1="1260.20847" y1="709.49813" x2="1444.93353" y2="1533.26952" gradientUnits="userSpaceOnUse">
      <stop offset="0" stop-color="#ff928e"/>
      <stop offset="1" stop-color="#fe7062"/>
    </linearGradient>
    <linearGradient id="linear-gradient-7" x1="2724.75459" y1="456.28945" x2="1603.36329" y2="1553.30263" gradientUnits="userSpaceOnUse">
      <stop offset="0" stop-color="#2b3582"/>
      <stop offset="1" stop-color="#150e42"/>
    </linearGradient>
    <linearGradient id="linear-gradient-8" x1="1487.95294" y1="1267.64726" x2="1378.4515" y2="1374.76823" gradientTransform="translate(748.4066 -491.11227) rotate(26.56494)" gradientUnits="userSpaceOnUse">
      <stop offset="0" stop-color="#09005d"/>
      <stop offset="1" stop-color="#1a0f91"/>
    </linearGradient>
    <linearGradient id="linear-gradient-9" x1="1913.96928" y1="1034.87569" x2="1804.46787" y2="1141.99663" gradientTransform="translate(2332.7927 -983.57009) rotate(72.23119)" xlink:href="#linear-gradient-8"/>
    <linearGradient id="linear-gradient-10" x1="2313.63405" y1="1201.76854" x2="2204.13245" y2="1308.88967" gradientTransform="translate(1556.76227 -1210.91198) rotate(45)" xlink:href="#linear-gradient-8"/>
    <linearGradient id="linear-gradient-11" x1="2610.96734" y1="853.71504" x2="2501.46586" y2="960.83604" gradientTransform="matrix(1, 0, 0, 1, 0, 0)" xlink:href="#linear-gradient-8"/>
    <linearGradient id="linear-gradient-12" x1="3060.26042" y1="635.21077" x2="2950.75897" y2="742.33175" gradientTransform="translate(1374.82729 -1904.79748) rotate(45)" xlink:href="#linear-gradient-8"/>
    <linearGradient id="linear-gradient-13" x1="3426.17508" y1="1134.47939" x2="2427.61747" y2="2825.37196" xlink:href="#linear-gradient-6"/>
    <linearGradient id="linear-gradient-14" x1="2468.44483" y1="3285.03408" x2="1942.53713" y2="2399.64595" xlink:href="#linear-gradient-6"/>
    <linearGradient id="linear-gradient-15" x1="2063.04648" y1="1931.38035" x2="1264.20095" y2="3089.70588" xlink:href="#linear-gradient-6"/>
    <linearGradient id="linear-gradient-16" x1="1302.68181" y1="3181.60202" x2="617.00495" y2="2495.92516" xlink:href="#linear-gradient-6"/>
    <linearGradient id="linear-gradient-17" x1="1758.99626" y1="1538.92951" x2="1859.86532" y2="1791.95739" gradientTransform="matrix(1, 0, 0, 1, 0, 0)" xlink:href="#linear-gradient-8"/>
    <linearGradient id="linear-gradient-18" x1="1550.88876" y1="1685.11449" x2="1737.24074" y2="2109.10725" xlink:href="#linear-gradient-3"/>
    <linearGradient id="linear-gradient-19" x1="2127.73016" y1="3158.83999" x2="2213.26326" y2="3158.83999" gradientTransform="matrix(1, 0, 0, 1, 0, 0)" xlink:href="#linear-gradient-8"/>
    <linearGradient id="linear-gradient-20" x1="1766.30896" y1="3496.1353" x2="1889.39723" y2="2057.54059" xlink:href="#linear-gradient-3"/>
    <linearGradient id="linear-gradient-21" x1="1730.35105" y1="3143.2238" x2="1868.75012" y2="3143.2238" gradientTransform="matrix(1, 0, 0, 1, 0, 0)" xlink:href="#linear-gradient-8"/>
    <linearGradient id="linear-gradient-22" x1="2013.90854" y1="3517.54093" x2="2137.02917" y2="2078.56794" xlink:href="#linear-gradient-3"/>
    <linearGradient id="linear-gradient-23" x1="1769.34964" y1="2045.40125" x2="1830.8965" y2="2616.42341" gradientTransform="matrix(1, 0, 0, 1, 0, 0)" xlink:href="#linear-gradient"/>
    <linearGradient id="linear-gradient-24" x1="1918.02901" y1="2235.75562" x2="1791.54515" y2="2748.34918" gradientTransform="matrix(1, 0, 0, 1, 0, 0)" xlink:href="#linear-gradient-8"/>
    <linearGradient id="linear-gradient-25" x1="1752.81028" y1="2078.11161" x2="1775.93203" y2="1908.95869" xlink:href="#linear-gradient-3"/>
    <linearGradient id="linear-gradient-26" x1="1882.56999" y1="2246.74828" x2="2062.95461" y2="1659.20962" xlink:href="#linear-gradient-3"/>
    <linearGradient id="linear-gradient-27" x1="1694.45009" y1="1860.02186" x2="1896.18866" y2="1500.99501" xlink:href="#linear-gradient-3"/>
    <linearGradient id="linear-gradient-28" x1="1737.83378" y1="1547.36588" x2="1838.7027" y2="1800.3934" gradientTransform="matrix(1, 0, 0, 1, 0, 0)" xlink:href="#linear-gradient-8"/>
    <linearGradient id="linear-gradient-29" x1="1737.39237" y1="1884.15161" x2="1939.13071" y2="1525.12517" xlink:href="#linear-gradient-3"/>
    <linearGradient id="linear-gradient-30" x1="1514.06441" y1="1701.29972" x2="1700.41644" y2="2125.29261" xlink:href="#linear-gradient-3"/>
    <linearGradient id="linear-gradient-31" x1="1425.49666" y1="1544.9634" x2="1468.9806" y2="1544.9634" xlink:href="#linear-gradient-3"/>
  </defs>
  <g id="Calque_3" data-name="Calque 3">
    <path class="cls-1" d="M150.58923,1222.05271c-83.3004,1288.49466,932.44712,2509.9166,1491.57816,2467.608,79.44454-1.48006,239.98274-18.84477,606.73876-287.55039,307.82012-225.526,798.7389-594.732,1120.03961-1297.1705,501.8695-1005.03252,251.92929-1335.59534-781.513-1747.03238-572.72-245.53918-1065.51679-456.80395-1602.17829-247.404C681.33675,221.58092,169.06029,561.5296,150.58923,1222.05271Z" transform="translate(-36.45253 -18.65947)"/>
  </g>
  <g id="Calque_4" data-name="Calque 4">
    <path class="cls-2" d="M798.15953,433.66173C-125.98333,1412.48637-124.34366,3073.22805,352.087,3413.57451c64.67884,51.99684,204.94341,145.52844,677.78234,175.30229,396.856,24.98933,1036.11386,57.18931,1761.11292-291.73149,1071.113-471.00308,1090.68025-903.753,535.89431-1925.9668C3031.08344,790.60856,2776.5621,291.06482,2206.96455,99.92613,1889.39059-14.34653,1252.47709-84.33675,798.15953,433.66173Z" transform="translate(-36.45253 -18.65947)"/>
  </g>
  <g id="Illustration">
    <g>
      <path class="cls-3" d="M2891.47,2820.2024c-71.5974,73.8003-135.6603,117.1825-184.7091,149.9331-478.3631,319.4074-1025.1848,227.3466-1194.2484,195.8803-272.7633-50.7671-503.0133-86.581-700.8392-265.3086-449.52-406.1237-427.6563-1253.3279-84.168-1778.1341,40.7274-62.2269,383.6956-570.6122,931.7008-642.2481,13.4034-1.7521,23.4041-2.7499,32.1633-3.6773,84.7751-8.9757,610.1098-56.348,1038.4677,302.5303,61.3176,51.3716,159.9948,144.0329,251.5006,285.3566C3315.925,1581.2774,3316.985,2381.5982,2891.47,2820.2024Z" transform="translate(-36.45253 -18.65947)"/>
      <g>
        <g>
          <g>
            <path class="cls-4" d="M1976.447,1344.6853a3.3295,3.3295,0,0,1-2.8442-1.596c-2.2949-3.7609-4.5767-7.6583-6.7838-11.5849a3.32991,3.32991,0,1,1,5.8054-3.2635c2.1681,3.8584,4.4109,7.6907,6.6603,11.3833a3.329,3.329,0,0,1-2.8377,5.0611Z" transform="translate(-36.45253 -18.65947)"/>
            <path class="cls-4" d="M1950.5924,1293.831a3.333,3.333,0,0,1-3.075-2.0544c-3.4488-8.3083-6.644-16.8799-9.5045-25.471a3.32937,3.32937,0,0,1,6.319-2.0998c2.8052,8.4383,5.9484,16.8571,9.3355,25.0224a3.32867,3.32867,0,0,1-3.075,4.6028Zm-20.787-67.523a3.32566,3.32566,0,0,1-3.2538-2.6492c-.3088-1.4789-.6079-2.9644-.8971-4.4467-1.4433-7.4046-2.685-14.9263-3.6829-22.3537a3.32879,3.32879,0,0,1,6.5986-.8842c.9816,7.2974,2.1973,14.6858,3.6178,21.9637q.4242,2.18445.8776,4.3622a3.33329,3.33329,0,0,1-3.2602,4.0079Zm-7.8208-70.2143a3.33053,3.33053,0,0,1-3.3285-3.2766q-.04875-3.08625-.052-6.1662c0-7.0081.1983-14.078.5916-21.0113a3.32734,3.32734,0,0,1,6.644.377c-.3835,6.8099-.5786,13.7497-.5786,20.6278.0033,2.0153.0195,4.0437.052,6.0687a3.32905,3.32905,0,0,1-3.2765,3.3806Zm5.5747-70.4419a3.25853,3.25853,0,0,1-.5819-.052,3.3239,3.3239,0,0,1-2.6979-3.8552c1.5667-8.9096,3.4813-17.8583,5.6884-26.5957a3.32927,3.32927,0,1,1,6.4555,1.6318c-2.1681,8.5781-4.0469,17.3675-5.5909,26.1211A3.32752,3.32752,0,0,1,1927.5593,1085.6518Zm18.8237-68.1113a3.32748,3.32748,0,0,1-3.1108-4.515c3.2213-8.4416,6.7904-16.8637,10.6097-25.0354a3.32869,3.32869,0,1,1,6.033,2.8149c-3.7511,8.0288-7.2584,16.3046-10.4212,24.5934A3.33274,3.33274,0,0,1,1946.383,1017.5405Zm31.3089-63.3298a3.2904,3.2904,0,0,1-1.7455-.4973,3.32819,3.32819,0,0,1-1.0824-4.58c4.7522-7.6875,9.836-15.2904,15.1116-22.5976a3.32715,3.32715,0,0,1,5.3959,3.8941c-5.1813,7.1804-10.1774,14.6501-14.8451,22.2011A3.32414,3.32414,0,0,1,1977.6919,954.2107Zm42.6208-56.3249a3.32852,3.32852,0,0,1-2.4542-5.5779c6.0883-6.6408,12.508-13.1548,19.0741-19.3568a3.32721,3.32721,0,1,1,4.5702,4.8368c-6.449,6.0947-12.755,12.4949-18.736,19.0187A3.32289,3.32289,0,0,1,2020.3127,897.8858Zm52.4178-47.3112a3.32867,3.32867,0,0,1-1.9893-6.0005c7.2551-5.3926,14.7833-10.5772,22.3733-15.4074a3.32918,3.32918,0,1,1,3.5755,5.6169c-7.4567,4.7425-14.8516,9.836-21.9767,15.1344A3.32749,3.32749,0,0,1,2072.7305,850.5746Zm60.4238-36.5521a3.32875,3.32875,0,0,1-1.4465-6.3287c8.11-3.9006,16.4866-7.564,24.9022-10.8893a3.32712,3.32712,0,1,1,2.4444,6.189c-8.2661,3.2668-16.4964,6.8684-24.4601,10.7007A3.30168,3.30168,0,0,1,2133.1543,814.0225Zm66.2552-24.4503a3.32868,3.32868,0,0,1-.8484-6.5466c8.0776-2.1388,16.3469-4.0371,24.5869-5.6461l1.9406-.3706a3.328,3.328,0,1,1,1.2027,6.5465l-1.8691.3576c-8.0937,1.5798-16.2233,3.4456-24.1578,5.5486A3.371,3.371,0,0,1,2199.4095,789.5722Zm166.9464-5.7925a3.28448,3.28448,0,0,1-.6371-.0617c-8.7178-1.6935-17.595-3.0815-26.3844-4.1314a3.32911,3.32911,0,0,1,.7866-6.6116c8.952,1.0694,17.9884,2.4867,26.8655,4.2094a3.32815,3.32815,0,0,1-.6306,6.5953Zm-97.2618-5.8411a3.32791,3.32791,0,0,1-.2341-6.6473c8.8869-.6371,17.8778-.9589,26.7225-.9589a3.46063,3.46063,0,0,1,3.6211,3.3285,3.27166,3.27166,0,0,1-3.3091,3.3285c-9.0006,0-17.829.3153-26.5599.9394C2269.2533,777.9353,2269.1721,777.9386,2269.0941,777.9386Z" transform="translate(-36.45253 -18.65947)"/>
            <path class="cls-4" d="M2421.5529,798.9889a3.2762,3.2762,0,0,1-1.1279-.1983c-4.1314-1.4855-8.3343-2.9157-12.4852-4.2484a3.32855,3.32855,0,1,1,2.0348-6.3385c4.2257,1.3554,8.5001,2.8117,12.7063,4.3264a3.32807,3.32807,0,0,1-1.128,6.4588Z" transform="translate(-36.45253 -18.65947)"/>
          </g>
          <g>
            <path class="cls-4" d="M2635.1865,995.7165a3.32588,3.32588,0,0,1-3.0327-1.9503c-1.8496-4.0664-3.7544-8.0743-5.6689-11.9099a3.32743,3.32743,0,1,1,5.9549-2.9709c1.9503,3.9071,3.8941,7.9865,5.7729,12.1244a3.32867,3.32867,0,0,1-3.0262,4.7067Z" transform="translate(-36.45253 -18.65947)"/>
            <path class="cls-4" d="M2295.355,1523.7561c-6.7221-.0715-13.3857-.1658-19.9907-.5103a3.33219,3.33219,0,0,1-3.1498-3.5008,3.25572,3.25572,0,0,1,3.5009-3.1498c6.4847.3446,13.0313.5721,19.6363.5038q3.3204,0,6.6343-.065h.0455a3.32889,3.32889,0,0,1,.0845,6.6571Q2298.7323,1523.7544,2295.355,1523.7561Zm49.6386-3.3838a3.32863,3.32863,0,0,1-.4389-6.6278c7.1577-.9621,14.4453-2.1648,21.6582-3.5723q2.1258-.41445,4.2484-.8549a3.32963,3.32963,0,0,1,1.3523,6.5205q-2.16.4437-4.3265.8679c-7.3429,1.4335-14.7606,2.6557-22.0482,3.6374A3.45318,3.45318,0,0,1,2344.9936,1520.3723Zm-112.2663-1.869a3.31367,3.31367,0,0,1-.5623-.0488c-8.7504-1.4887-17.5658-3.3155-26.1992-5.4284a3.33008,3.33008,0,0,1,1.5863-6.4685c8.4773,2.0771,17.1334,3.8714,25.731,5.3374a3.32788,3.32788,0,0,1-.5558,6.6083Zm180.0037-13.7205a3.328,3.328,0,0,1-1.0434-6.488c8.3116-2.7467,16.6004-5.8119,24.6389-9.1144a3.32778,3.32778,0,1,1,2.5289,6.1564c-8.1815,3.3643-16.6199,6.4848-25.081,9.277A3.25965,3.25965,0,0,1,2412.731,1504.7828Zm63.6776-27.8439a3.32826,3.32826,0,0,1-1.6187-6.2377c7.6419-4.2387,15.2091-8.7959,22.4935-13.5449a3.32865,3.32865,0,1,1,3.6341,5.5779c-7.4177,4.8335-15.1214,9.472-22.8966,13.7854A3.2976,3.2976,0,0,1,2476.4086,1476.9389Zm57.3293-39.2174a3.32851,3.32851,0,0,1-2.1323-5.8867c6.7058-5.5746,13.2979-11.4646,19.5908-17.5008a3.32892,3.32892,0,1,1,4.6093,4.8043c-6.4068,6.1467-13.1191,12.1407-19.9419,17.8128A3.32574,3.32574,0,0,1,2533.7379,1437.7215Zm49.0698-49.1998a3.32847,3.32847,0,0,1-2.5614-5.4511c5.5551-6.7156,10.9477-13.7204,16.025-20.8228a3.32938,3.32938,0,0,1,5.4154,3.8746c-5.1683,7.2259-10.6552,14.3575-16.3111,21.1933A3.32736,3.32736,0,0,1,2582.8077,1388.5217Zm39.1622-57.4268a3.32831,3.32831,0,0,1-2.9092-4.9408c4.2322-7.6355,8.24-15.518,11.9164-23.4265a3.33024,3.33024,0,1,1,6.0394,2.8085c-3.7446,8.0482-7.824,16.0705-12.1309,23.8425A3.32713,3.32713,0,0,1,2621.9699,1331.0949Zm27.9024-63.6809a3.37175,3.37175,0,0,1-1.0467-.169,3.3261,3.3261,0,0,1-2.1128-4.2062c2.7499-8.3115,5.2301-16.8019,7.3689-25.2337a3.33011,3.33011,0,0,1,6.4556,1.6382c-2.1811,8.5847-4.7068,17.2278-7.5055,25.6889A3.32651,3.32651,0,0,1,2649.8723,1267.414Zm15.596-67.77a3.40322,3.40322,0,0,1-.4421-.0292,3.32451,3.32451,0,0,1-2.8604-3.7381c1.1506-8.6496,2.0023-17.4488,2.5321-26.1504a3.32816,3.32816,0,0,1,6.6441.4031c-.5396,8.8609-1.4075,17.8193-2.5777,26.6249A3.32663,3.32663,0,0,1,2665.4683,1199.644Zm2.6557-69.4537a3.32775,3.32775,0,0,1-3.3188-3.1432c-.4876-8.7179-1.2872-17.5236-2.3826-26.1732a3.329,3.329,0,0,1,6.605-.8386c1.1149,8.8056,1.9308,17.7673,2.4216,26.6412a3.32281,3.32281,0,0,1-3.1367,3.5073C2668.2507,1130.1871,2668.1857,1130.1903,2668.124,1130.1903Zm-10.2392-68.7679a3.33048,3.33048,0,0,1-3.231-2.5386c-2.0836-8.5131-4.4824-17.0262-7.1349-25.2923a3.32855,3.32855,0,0,1,6.3385-2.0348c2.698,8.4188,5.1424,17.0782,7.2649,25.7473a3.32606,3.32606,0,0,1-3.2375,4.1184Z" transform="translate(-36.45253 -18.65947)"/>
            <path class="cls-4" d="M2165.3279,1500.3816a3.32631,3.32631,0,0,1-1.1637-.2112c-4.3167-1.6123-8.5196-3.2636-12.495-4.9116a3.3285,3.3285,0,1,1,2.5484-6.1499c3.9039,1.6187,8.0353,3.2407,12.274,4.827a3.32807,3.32807,0,0,1-1.1637,6.4457Z" transform="translate(-36.45253 -18.65947)"/>
          </g>
          <g>
            <path class="cls-4" d="M2153.4089,1396.2587a4.4805,4.4805,0,0,0,5.2017.0264l44.5644-31.4306a237.54572,237.54572,0,0,0,74.9,17.7051l25.7913,48.0083a4.48,4.48,0,0,0,4.6648,2.3032l64.5673-10.4803a4.48372,4.48372,0,0,0,3.6974-3.6593l9.2814-53.7025a237.54522,237.54522,0,0,0,65.4534-40.488l52.2188,15.7212a4.482,4.482,0,0,0,4.926-1.6711l38.2452-53.0667a4.48047,4.48047,0,0,0,.0264-5.2022l-31.4301-44.5639a237.56255,237.56255,0,0,0,17.7045-74.9l48.0095-25.7918a4.47935,4.47935,0,0,0,2.302-4.6644l-10.4803-64.5677a4.479,4.479,0,0,0-3.6598-3.697l-53.7025-9.2813a237.5123,237.5123,0,0,0-40.4869-65.4534l15.7206-52.2194a4.4811,4.4811,0,0,0-1.6705-4.926l-53.0668-38.2446a4.47933,4.47933,0,0,0-5.2021-.0269l-44.5645,31.4311a237.5042,237.5042,0,0,0-74.9-17.7051l-25.7912-48.0099a4.48131,4.48131,0,0,0-4.6644-2.3026l-64.5683,10.4814a4.478,4.478,0,0,0-3.6964,3.6592l-9.2819,53.7026a237.50563,237.50563,0,0,0-65.4539,40.4874l-52.2178-15.7207a4.47949,4.47949,0,0,0-4.9265,1.6706l-38.2452,53.0667a4.48309,4.48309,0,0,0-.0269,5.2022l31.4306,44.5645a237.531,237.531,0,0,0-17.7045,74.8994l-48.01,25.7918a4.47848,4.47848,0,0,0-2.3014,4.6649l10.4802,64.5667a4.48115,4.48115,0,0,0,3.6592,3.6975l53.7026,9.2818a237.56621,237.56621,0,0,0,40.487,65.4529l-15.7197,52.2188a4.48012,4.48012,0,0,0,1.67,4.9266Z" transform="translate(-36.45253 -18.65947)"/>
            <path class="cls-5" d="M2294.8121,1207.2438a63.14065,63.14065,0,1,1,25.0257-5.2139h0A62.94843,62.94843,0,0,1,2294.8121,1207.2438Zm23.0429-9.7971h0Zm-23.0656-106.4283a53.1032,53.1032,0,1,0,21.0828,101.8451h0a53.11926,53.11926,0,0,0-21.0828-101.8451Z" transform="translate(-36.45253 -18.65947)"/>
            <path class="cls-5" d="M2295.2802,1305.7961c-1.0467,0-2.0901-.0098-3.1367-.0293-.7152-.013-1.4335-.0325-2.1486-.0552-.6274-.0228-1.2515-.0455-1.8756-.0715-.312-.0163-.6241-.0293-.9329-.0455l-.195-.0098.5136-9.9726a153.81482,153.81482,0,0,0,32.4986-1.7975q2.7744-.4485,5.5031-.9979c73.1854-14.6078,124.485-80.0602,122.8305-153.2358a153.6944,153.6944,0,0,0-1.9503-21.1283c-13.5059-83.1904-92.1651-139.8534-175.362-126.38-74.9244,12.1634-128.3564,77.1802-128.3694,150.7556a153.22393,153.22393,0,0,0,35.9442,98.6011l-7.6322,6.4425a163.24352,163.24352,0,0,1-38.2975-105.0501c.013-78.3829,56.936-147.6481,136.7556-160.6047,88.6253-14.3835,172.43,46.0111,186.8168,134.6363a163.3626,163.3626,0,0,1,2.1194,26.1504c.013,78.4057-56.9198,147.7067-136.7589,160.6665h0A164.60611,164.60611,0,0,1,2295.2802,1305.7961Z" transform="translate(-36.45253 -18.65947)"/>
          </g>
        </g>
        <g>
          <g>
            <path class="cls-4" d="M2564.6536,965.9386a3.32214,3.32214,0,0,1-2.8442-1.596c-2.3241-3.8096-4.567-7.7655-6.6636-11.7604a3.32671,3.32671,0,0,1,5.89-3.0945c2.0348,3.8681,4.2061,7.7005,6.4555,11.3898a3.32454,3.32454,0,0,1-1.1084,4.5735A3.29141,3.29141,0,0,1,2564.6536,965.9386Z" transform="translate(-36.45253 -18.65947)"/>
            <path class="cls-4" d="M2541.2531,911.4762a3.32481,3.32481,0,0,1-3.2082-2.4574c-1.362-5.0188-2.5549-10.1449-3.5463-15.2352-.8322-4.2646-1.5505-8.6431-2.1389-13.0183a3.32878,3.32878,0,0,1,6.5986-.8841c.5688,4.2419,1.2677,8.4903,2.0738,12.6282.9621,4.9343,2.1193,9.9044,3.4358,14.7671a3.32624,3.32624,0,0,1-2.3404,4.0827A3.255,3.255,0,0,1,2541.2531,911.4762Zm-6.6505-73.8744c-.0975,0-.1918-.0033-.2926-.013a3.32773,3.32773,0,0,1-3.0262-3.6049,213.301,213.301,0,0,1,4.4402-28.4972,3.3293,3.3293,0,1,1,6.4945,1.4692,206.39032,206.39032,0,0,0-4.3037,27.6066A3.32639,3.32639,0,0,1,2534.6026,837.6018Zm19.3665-71.6024a3.32864,3.32864,0,0,1-3.0067-4.749,216.1108,216.1108,0,0,1,14.0227-25.185,3.32783,3.32783,0,0,1,5.5844,3.6211,209.28708,209.28708,0,0,0-13.5871,24.4049A3.33172,3.33172,0,0,1,2553.9691,765.9994Zm42.8873-60.5083a3.32855,3.32855,0,0,1-2.3371-5.6982,215.11954,215.11954,0,0,1,21.824-18.8139,3.32915,3.32915,0,1,1,3.9981,5.3243,208.73825,208.73825,0,0,0-21.1479,18.2289A3.31016,3.31016,0,0,1,2596.8564,705.4911Zm61.1324-41.9576a3.32812,3.32812,0,0,1-1.3717-6.3613,214.8649,214.8649,0,0,1,27.0118-10.0571,3.327,3.327,0,0,1,1.8983,6.3775,209.5496,209.5496,0,0,0-26.1731,9.7451A3.30546,3.30546,0,0,1,2657.9888,663.5335Zm71.8884-18.2029a3.32814,3.32814,0,0,1-.2405-6.6473,213.70381,213.70381,0,0,1,28.8255-.1658,3.3283,3.3283,0,1,1-.4095,6.644,209.53474,209.53474,0,0,0-27.9284.1593C2730.0398,645.3273,2729.9585,645.3306,2729.8772,645.3306Z" transform="translate(-36.45253 -18.65947)"/>
            <path class="cls-4" d="M2816.4742,657.2112a3.2762,3.2762,0,0,1-1.1279-.1983c-4.0794-1.4692-8.2694-2.8312-12.456-4.0501a3.32774,3.32774,0,0,1,1.8593-6.3905c4.3199,1.2547,8.6431,2.6621,12.8525,4.1801a3.32807,3.32807,0,0,1-1.1279,6.4588Z" transform="translate(-36.45253 -18.65947)"/>
          </g>
          <g>
            <path class="cls-4" d="M2939.6524,773.8072a3.32909,3.32909,0,0,1-3.0685-2.0381c-1.6772-3.9819-3.5138-7.9898-5.4641-11.9067a3.32893,3.32893,0,0,1,5.9615-2.9644c2.012,4.0436,3.9071,8.1783,5.6396,12.2902a3.32831,3.32831,0,0,1-3.0685,4.619Z" transform="translate(-36.45253 -18.65947)"/>
            <path class="cls-4" d="M2744.8198,1067.2506a213.742,213.742,0,0,1-23.8522-1.3392,3.3301,3.3301,0,0,1,.7476-6.6181,206.3116,206.3116,0,0,0,27.4506,1.2547h.065a3.32886,3.32886,0,0,1,.065,6.6571Q2747.0578,1067.2489,2744.8198,1067.2506Zm49.3526-5.8249a3.32862,3.32862,0,0,1-.7704-6.5661,209.58666,209.58666,0,0,0,26.2479-8.1132,3.32741,3.32741,0,1,1,2.3794,6.2149,215.7219,215.7219,0,0,1-27.08,8.3734A3.3602,3.3602,0,0,1,2794.1724,1061.4257Zm66.9834-28.9166a3.3283,3.3283,0,0,1-1.8333-6.1077,207.80566,207.80566,0,0,0,21.8792-16.5841,3.32725,3.32725,0,0,1,4.3622,5.0253,214.01093,214.01093,0,0,1-22.5814,17.1172A3.31615,3.31615,0,0,1,2861.1558,1032.5091Zm53.0548-50.0384a3.32866,3.32866,0,0,1-2.6621-5.3211,210.34227,210.34227,0,0,0,14.9621-23.0429,3.32956,3.32956,0,0,1,5.8119,3.2505,217.59182,217.59182,0,0,1-15.4432,23.7775A3.323,3.323,0,0,1,2914.2106,982.4707Zm32.9765-65.0883a3.32653,3.32653,0,0,1-3.1855-4.2972,207.88454,207.88454,0,0,0,6.2475-26.768,3.28979,3.28979,0,0,1,3.8226-2.7434,3.32427,3.32427,0,0,1,2.7434,3.8226,214.84063,214.84063,0,0,1-6.4425,27.6261A3.33264,3.33264,0,0,1,2947.1871,917.3824Zm8.8057-72.4442a3.332,3.332,0,0,1-3.3221-3.1498,209.73825,209.73825,0,0,0-3.2765-27.2881,3.32985,3.32985,0,0,1,6.5466-1.2221,217.92608,217.92608,0,0,1,3.3805,28.1527,3.33211,3.33211,0,0,1-3.1465,3.504C2956.113,844.9382,2956.0545,844.9382,2955.9928,844.9382Z" transform="translate(-36.45253 -18.65947)"/>
            <path class="cls-4" d="M2676.9556,1055.9681a3.36241,3.36241,0,0,1-1.0759-.1788c-4.2874-1.466-8.5424-3.0718-12.6478-4.7718a3.3285,3.3285,0,1,1,2.5484-6.1499c3.9754,1.648,8.1003,3.2017,12.2512,4.6222a3.32851,3.32851,0,0,1-1.0759,6.4783Z" transform="translate(-36.45253 -18.65947)"/>
          </g>
          <g>
            <path class="cls-4" d="M2664.7699,993.673a2.53562,2.53562,0,0,0,2.9433.0151l25.2125-17.7821a134.40064,134.40064,0,0,0,42.3744,10.0168l14.5917,27.1608a2.53457,2.53457,0,0,0,2.639,1.3028l36.5294-5.9289a2.53651,2.53651,0,0,0,2.0916-2.0706l5.2512-30.3824a134.3795,134.3795,0,0,0,37.0306-22.9062l29.5425,8.8943a2.53429,2.53429,0,0,0,2.7871-.9454l21.6373-30.0222a2.53449,2.53449,0,0,0,.015-2.9432l-17.7815-25.2125a134.38323,134.38323,0,0,0,10.0162-42.3749l27.1619-14.5918a2.53488,2.53488,0,0,0,1.3023-2.639l-5.9295-36.5294a2.53372,2.53372,0,0,0-2.0705-2.0916l-30.3824-5.2511a134.37487,134.37487,0,0,0-22.9056-37.0301l8.8942-29.5436a2.53574,2.53574,0,0,0-.9453-2.7866l-30.0228-21.6373a2.53349,2.53349,0,0,0-2.9432-.015l-25.2125,17.782a134.3667,134.3667,0,0,0-42.3743-10.0167l-14.5919-27.1619a2.53481,2.53481,0,0,0-2.639-1.3023l-36.5299,5.9295a2.53433,2.53433,0,0,0-2.091,2.0705l-5.2512,30.3824a134.36474,134.36474,0,0,0-37.0306,22.9056l-29.5426-8.8937a2.535,2.535,0,0,0-2.7876.9448l-21.6367,30.0228a2.53563,2.53563,0,0,0-.0157,2.9432l17.7821,25.2126a134.38653,134.38653,0,0,0-10.0167,42.3749l-27.1614,14.5917a2.53415,2.53415,0,0,0-1.3023,2.6391l5.9295,36.5288a2.5357,2.5357,0,0,0,2.07,2.0921l30.3824,5.2506a134.40361,134.40361,0,0,0,22.9057,37.0306l-8.8937,29.5431a2.53461,2.53461,0,0,0,.9453,2.7871Z" transform="translate(-36.45253 -18.65947)"/>
            <path class="cls-5" d="M2744.8133,888.8851a37.84911,37.84911,0,1,1,14.9752-3.1075h0A37.67812,37.67812,0,0,1,2744.8133,888.8851Zm12.9923-7.6907h0Zm-13.0865-58.0282a27.86726,27.86726,0,1,0,11.1037,53.445h0a27.867,27.867,0,0,0-11.1037-53.445Z" transform="translate(-36.45253 -18.65947)"/>
            <path class="cls-5" d="M2745.0214,944.6639c-.5819,0-1.1605-.0065-1.7391-.0162q-1.5066-.02925-3.0099-.104a.12.12,0,0,0-.026-.0033l.4973-9.9726a85.05286,85.05286,0,0,0,17.9298-.9914h0a84.35228,84.35228,0,0,0,70.819-83.0441,85.429,85.429,0,0,0-1.1084-13.6814,84.30558,84.30558,0,1,0-147.7067,67.8285l-7.6322,6.4425a94.297,94.297,0,1,1,165.1944-75.8703,95.52649,95.52649,0,0,1,1.2417,15.3002,94.346,94.346,0,0,1-79.2085,92.8802c-.0585.0098-.117.0195-.1788.0293A95.45348,95.45348,0,0,1,2745.0214,944.6639Z" transform="translate(-36.45253 -18.65947)"/>
          </g>
        </g>
      </g>
      <g class="cls-6">
        <path class="cls-5" d="M541.388,1257.0112c-14.3457-21.1418-47.4069-7.8406-43.1575,17.3528,21.9032,129.854,50.3786,356.8408,14.3683,507.0321C459.6507,2002.2312,372.909,2649.4883,989.973,2791.811,989.973,2791.811,897.6257,1782.0142,541.388,1257.0112Z" transform="translate(-36.45253 -18.65947)"/>
        <path class="cls-7" d="M604.8079,1524.2372s.7021,1.11,1.9861,3.4195c1.2904,2.3014,3.1205,5.6819,5.2821,10.2278a339.86955,339.86955,0,0,1,16.3013,40.3746c3.1692,8.8463,6.0167,18.8286,9.2217,29.6934q2.09175,8.22555,4.3524,17.1091c1.5505,5.9192,2.685,12.1374,4.1152,18.5231q1.02885,4.80015,2.0901,9.7515.88245,4.9806,1.7943,10.1108c1.1409,6.8488,2.5809,13.8748,3.5528,21.1445q1.41885,10.91445,2.9092,22.3798c1.1117,7.6387,1.544,15.5034,2.3696,23.5159,1.7163,16.0315,2.3729,32.7814,3.218,50.1343.2243,8.674.2178,17.4943.3381,26.4592q.0633,6.7236.1332,13.5481c-.0325,4.5459-.2177,9.1193-.3185,13.7286q-.3705,13.83255-.7509,28.0292c-.4746,9.7206-.9686,18.8416-1.8008,28.6175-1.5797,19.4998-3.6113,39.0208-5.8184,58.8863q-3.3399,29.66415-6.7773,60.2369c-1.1344,10.1351-2.3371,20.3369-3.335,30.5695q-.78015,7.67685-1.5603,15.3912-.6729,7.7085-1.3457,15.4497c-3.5268,41.2766-5.2983,83.1806-3.9266,124.888a690.86587,690.86587,0,0,0,14.9068,123.1587,601.86177,601.86177,0,0,0,36.4741,114.3304q2.8767,6.73335,5.7274,13.41,3.1692,6.53835,6.3027,13.015c4.2224,8.6204,8.1328,17.3058,12.8786,25.4515,4.6027,8.2157,8.9161,16.4883,13.6099,24.4179q7.3038,11.75055,14.4192,23.2071,1.7895,2.8596,3.5659,5.6981,1.9161,2.75235,3.8128,5.4836,3.79335,5.4756,7.525,10.8681c4.9895,7.1869,9.6637,14.4502,14.9653,21.0845q7.7184,10.1319,15.1702,19.9126,1.86255,2.4477,3.7088,4.8693,1.96005,2.3307,3.9039,4.6401,3.89085,4.61745,7.6972,9.1453,7.6257,9.06165,14.9231,17.7381,7.65015,8.3766,14.9394,16.3598,7.294,7.989,14.2047,15.5602,7.2357,7.26255,14.052,14.1008,6.82605,6.8334,13.2068,13.2247c2.1324,2.1226,4.1542,4.2874,6.267,6.2735q3.1839,2.96445,6.2443,5.8135,12.2625,11.4093,22.461,20.9057c3.3708,3.1855,6.6116,6.1435,9.7646,8.8073q4.671,4.06635,8.7503,7.6176c5.4382,4.7343,10.0636,8.7601,13.8147,12.0252,7.512,6.5385,11.5166,10.0246,11.5166,10.0246l.0488.0423a1.66358,1.66358,0,0,1-2.0771,2.5955s-4.2907-3.1481-12.3325-9.0494c-4.0241-2.9547-8.9909-6.5986-14.8256-10.8827-5.7859-4.3525-12.7127-9.0283-19.8411-15.0434-14.4225-11.8221-32.4661-25.6271-51.5694-43.357q-7.2795-6.5214-15.0239-13.4539-7.4307-7.2624-15.2839-14.9328-7.8549-7.68435-16.0998-15.7569-7.8207-8.4912-15.9958-17.3659a757.00881,757.00881,0,0,1-65.2801-81.0646q-7.71345-11.5701-15.6284-23.4459c-5.1099-8.0272-9.8524-16.4281-14.8842-24.7803-5.1715-8.2775-9.5305-17.1367-14.1949-25.9408q-3.4716-6.6237-6.9724-13.3076-3.12045-6.8748-6.2637-13.8098a627.9965,627.9965,0,0,1-40.3487-118.4861c-9.6052-41.644-14.7703-84.8937-16.5158-128.0816l-.3739-8.1019-.117-8.0955-.195-16.1875c-.052-10.782.2795-21.5314.5396-32.2679.6078-10.699,1.0076-21.4062,1.791-32.024.8322-10.6113,1.4953-21.2194,2.5809-31.7072q.7461-7.8768,1.4888-15.7227.8532-7.8183,1.7-15.5976c1.0922-10.387,2.3794-20.6554,3.6048-30.8783,2.5354-20.4213,5.4284-40.4835,8.032-60.1719,2.6459-19.6656,5.1001-39.0582,7.0471-57.7324.5559-4.6466.9167-9.4476,1.3425-14.1576.4128-4.6466.9589-9.5711,1.271-13.9106q.897-13.87635,1.7682-27.405c.2698-4.5101.6241-8.9893.8224-13.4393q.18525-6.6774.3673-13.2556c.2113-8.7715.5461-17.4179.6501-25.918-.3153-16.9774.1756-33.4413-.7671-49.1786a819.957,819.957,0,0,0-7.4892-85.7356,608.63358,608.63358,0,0,0-12.6087-65.2102,393.50794,393.50794,0,0,0-12.4365-40.9418c-1.7098-4.6239-3.14-8.1572-4.1282-10.4634-.9784-2.3128-1.5699-3.5236-1.5699-3.5236a1.66455,1.66455,0,0,1,2.8994-1.6253Z" transform="translate(-36.45253 -18.65947)"/>
      </g>
      <g>
        <g>
          <path class="cls-8" d="M1227.8126,455.0369c-1.922-.0208-3.8453-.0369-5.7722-.0369-291.1235,0-527.1257,238.5865-527.1257,532.8979h532.8979Z" transform="translate(-36.45253 -18.65947)"/>
          <path class="cls-4" d="M1225.4971,988.9189l287.1644-448.9883a530.40171,530.40171,0,0,0-280.2384-83.8645c-3.2519-.0423-6.4948-.0448-9.7336-.0289Z" transform="translate(-36.45253 -18.65947)"/>
          <path class="cls-9" d="M1227.8126,987.9049l532.3531,23.8892c.1487-3.3392.2775-6.6838.3647-10.0394,5.0298-193.4642-93.6985-365.5182-245.5549-462.8442Z" transform="translate(-36.45253 -18.65947)"/>
          <path class="cls-10" d="M1170.3979,1041.3674l-526.0674-18.3075c-8.5424,245.4666,150.3465,457.8892,374.1118,527.4249l154.563-505.4622A2.82953,2.82953,0,0,0,1170.3979,1041.3674Z" transform="translate(-36.45253 -18.65947)"/>
          <path class="cls-11" d="M1225.7216,987.0614l-142.6839,512.5322c44.729,13.2081,83.6573,18.3523,132.5406,19.3089,228.0476,4.4626,425.4014-135.0211,505.3613-334.9778Z" transform="translate(-36.45253 -18.65947)"/>
          <path class="cls-12" d="M1721.4391,1188.6499a531.25269,531.25269,0,0,0,39.0284-177.5043h0l-532.3278-24.4482Z" transform="translate(-36.45253 -18.65947)"/>
        </g>
        <path class="cls-13" d="M1229.9729,1502.0264c-7.46,0-14.9849-.1593-22.3636-.4746a6.65656,6.65656,0,0,1,.5656-13.3011c7.1934.3056,14.5266.4616,21.798.4616,161.0142,0,313.8469-77.7881,408.8237-208.0784a6.65637,6.65637,0,0,1,10.7592,7.8402,518.19493,518.19493,0,0,1-419.5829,213.5523Z" transform="translate(-36.45253 -18.65947)"/>
        <path class="cls-4" d="M1737.1831,917.9187a6.65952,6.65952,0,0,1-6.5823-5.7306c-19.5713-139.3789-97.6064-265.359-214.0984-345.637a6.65588,6.65588,0,0,1,7.5542-10.9607c119.5507,82.3843,199.6401,211.6865,219.7283,354.7449a6.65722,6.65722,0,0,1-5.6656,7.5184A6.54034,6.54034,0,0,1,1737.1831,917.9187Z" transform="translate(-36.45253 -18.65947)"/>
        <path class="cls-13" d="M792.6649,722.9399a6.65771,6.65771,0,0,1-5.6722-10.1286,517.48432,517.48432,0,0,1,237.0958-206.0957,6.65794,6.65794,0,1,1,5.2854,12.222A504.25379,504.25379,0,0,0,798.35,719.7544,6.64713,6.64713,0,0,1,792.6649,722.9399Z" transform="translate(-36.45253 -18.65947)"/>
        <path class="cls-13" d="M1005.4403,1531.8044l-6.7285-2.7857c-43.1181-17.8356-83.7105-39.8058-127.7485-69.1417a6.65513,6.65513,0,1,1,7.3787-11.0778c40.9987,27.3076,78.9224,48.1109,118.7445,65.0948l77.5345-248.2775a6.65787,6.65787,0,1,1,12.7095,3.9721Z" transform="translate(-36.45253 -18.65947)"/>
        <path class="cls-13" d="M1127.8514,1124.1053a6.66479,6.66479,0,0,1-6.358-8.6463l14.7346-47.1455-270.7743-7.5509a6.65674,6.65674,0,0,1,.182-13.3109c.0618,0,.1268,0,.1885.0033l276.7196,7.7167a8.80959,8.80959,0,0,1,8.1685,11.4353l-16.5094,52.8241A6.66579,6.66579,0,0,1,1127.8514,1124.1053Zm14.3251-55.626h0Z" transform="translate(-36.45253 -18.65947)"/>
      </g>
      <g>
        <rect class="cls-4" x="814.09757" y="2160.06093" width="276.2677" height="1015.2007" rx="28.2173"/>
        <path class="cls-4" d="M764.0084,2725.8275c0-7.3409-15.3181-14.5428-30.9021-14.5428H510.5626c-15.584,0-29.479,7.2019-29.479,14.5428V3176.819c0,7.3409,13.895,17.1021,29.479,17.1021H733.1063c15.584,0,30.9021-9.7612,30.9021-17.1021Z" transform="translate(-36.45253 -18.65947)"/>
        <path class="cls-4" d="M1817.0745,2088.8502H1594.7218c-15.5838,0-28.5384,14.1388-28.5384,31.1508V3162.3124c0,17.012,12.9546,34.9372,28.5384,34.9372h222.3527c15.5838,0,35.3622-17.9252,35.3622-34.9372V2120.001C1852.4367,2102.989,1832.6583,2088.8502,1817.0745,2088.8502Z" transform="translate(-36.45253 -18.65947)"/>
        <path class="cls-4" d="M1195.13867,1847.17943h219.8331a28.2174,28.2174,0,0,1,28.2174,28.2174v1271.6475a28.2173,28.2173,0,0,1-28.2173,28.2173h-219.8332a28.2173,28.2173,0,0,1-28.2173-28.2173V1875.39673a28.2173,28.2173,0,0,1,28.2173-28.2173Z"/>
        <path class="cls-4" d="M3080.663,1346.4183c0-16.3854-15.7719-29.7863-31.3559-29.7863H2826.7634c-15.584,0-29.0251,13.4009-29.0251,29.7863V3161.508c0,16.3855,13.4411,32.4131,29.0251,32.4131h222.5437c15.584,0,31.3559-16.0276,31.3559-32.4131Z" transform="translate(-36.45253 -18.65947)"/>
        <rect class="cls-4" x="1959.11077" y="1637.48223" width="276.2677" height="1537.7794" rx="28.2173"/>
        <path class="cls-4" d="M2403.394,1394.49983h219.8331a28.2173,28.2173,0,0,1,28.2173,28.2173v1727.6558a28.2172,28.2172,0,0,1-28.2172,28.2172h-219.8331a28.2174,28.2174,0,0,1-28.2174-28.2174V1422.71713A28.2173,28.2173,0,0,1,2403.394,1394.49983Z"/>
      </g>
      <g>
        <polygon class="cls-14" points="1380.34 1325.324 1375.556 1316.56 1803.723 1082.611 2202.542 1257.918 2545.331 921.678 2947.716 684.205 2952.793 692.806 2551.455 929.661 2204.713 1269.776 2201.619 1268.417 1804.201 1093.728 1380.34 1325.324"/>
        <circle class="cls-15" cx="1414.40013" cy="1339.6011" r="46.115" transform="translate(-486.21711 755.30146) rotate(-26.56494)"/>
        <circle class="cls-16" cx="1840.4165" cy="1106.82933" r="46.1153" transform="translate(188.28259 2503.0118) rotate(-72.23119)"/>
        <circle class="cls-17" cx="2240.0812" cy="1273.7223" r="46.11535" transform="translate(-281.00562 1938.38176) rotate(-45)"/>
        <circle class="cls-18" cx="2537.41467" cy="925.66883" r="46.11515"/>
        <circle class="cls-19" cx="2986.7076" cy="707.1646" r="46.11505" transform="translate(338.29298 2300.38544) rotate(-45)"/>
      </g>
      <g>
        <path class="cls-20" d="M2229.9081,3002.9688l511.1555-979.2662H2636.3373c-19.3117,0-29.9319-22.4528-17.6834-37.3818l544.7897-663.9878c23.6114-28.778,70.2532-10.5256,68.061,26.6339l-38.2954,649.299a64.88,64.88,0,0,1-72.1443,60.6389l-73.0157-8.3563-507.169,1098.3463a80.75562,80.75562,0,0,1-73.3168,46.9007H2291.7853Z" transform="translate(-36.45253 -18.65947)"/>
        <path class="cls-13" d="M2715.2597,1954.407a4.99286,4.99286,0,0,1-3.9527-8.0385l449.8615-584.5335a18.79819,18.79819,0,0,1,33.5745,13.5839l-7.9377,70.0648a4.99208,4.99208,0,1,1-9.9206-1.1247l7.9378-70.0648a8.81382,8.81382,0,0,0-15.7423-6.3678l-449.8614,584.5335A4.982,4.982,0,0,1,2715.2597,1954.407Z" transform="translate(-36.45253 -18.65947)"/>
        <g>
          <path class="cls-5" d="M3221.6891,2188.4783c-159.0958,70.5369-581.702,314.6196-764.1567,972.5519,0,0,246.1333,4.1257,430.796-390.5988,157.922-337.5654,248.7452-473.9429,345.4513-563.7281C3242.9453,2198.1936,3233.1224,2183.4092,3221.6891,2188.4783Z" transform="translate(-36.45253 -18.65947)"/>
          <path class="cls-7" d="M2486.963,3123.7536s.2926-.9378.8549-2.7581c.5624-1.83,1.427-4.5312,2.6004-8.0223,2.2949-7.013,5.8119-17.2358,10.5805-30.1371,4.6514-12.9533,10.8112-28.4664,17.9525-46.2483,7.2487-17.7316,15.8105-37.576,25.4548-59.0976,9.8166-21.4372,20.7578-44.5288,32.8497-68.7045,12.378-24.0213,25.3735-49.4127,39.8806-75.1015q5.4219-9.64185,10.9347-19.4381,5.68035-9.69555,11.4418-19.5242c7.5965-13.1451,15.726-26.1959,23.849-39.3881,8.2108-13.1403,16.6914-26.261,25.159-39.4564,8.7309-13.0313,17.2408-26.2788,26.2122-39.2224,8.9812-12.9386,17.7348-26.0301,27.1353-38.6031q6.9333-9.50775,13.8374-18.9683c4.6287-6.2865,9.42-12.4284,14.0942-18.6141q7.0602-9.2421,14.0553-18.4077,7.182-9.0153,14.2925-17.9379c9.3257-12.0042,19.1358-23.3907,28.6988-34.6521,9.4362-11.3622,19.2008-22.1344,28.663-32.7441,9.368-10.6909,18.9213-20.8147,28.3152-30.5727,4.697-4.8774,9.238-9.7678,13.8797-14.4323q7.0212-6.93825,13.8212-13.657,6.7968-6.714,13.3564-13.1939c4.3817-4.3069,8.8934-8.3245,13.1971-12.3682,8.7764-7.9199,16.9319-15.7601,25.1297-22.7471q12.26745-10.49745,23.2249-19.8736,2.7402-2.32575,5.3926-4.5784,2.7402-2.15025,5.3861-4.2256,5.2854-4.1493,10.1904-7.9947,9.7857-7.67685,17.9266-14.0633c22.396-15.9698,35.1933-25.0956,35.1933-25.0956a2.62318,2.62318,0,0,1,3.2408,4.1184l-.091.078s-11.8352,10.1806-32.5474,27.9967q-7.5477,6.9138-16.6687,15.2676-4.54425,4.16145-9.4525,8.6578-2.4525,2.2428-4.9895,4.5702-2.4672,2.40615-5.0156,4.8953-10.20495,9.91485-21.6776,21.0617c-7.6453,7.3917-15.219,15.6577-23.3647,24.0002-4.0437,4.2045-8.2921,8.37-12.404,12.8379q-6.14835,6.71145-12.5275,13.6684-6.3726,6.9504-12.9533,14.1283c-4.3427,4.8222-8.5846,9.8751-12.976,14.9085q-6.5775,7.55745-13.3272,15.3148c-4.5799,5.0952-8.8674,10.5674-13.3921,15.9227-8.9584,10.7949-18.1964,21.741-27.106,33.2869q-6.76275,8.5788-13.6392,17.2992c-4.5799,5.807-8.9909,11.8237-13.5774,17.7576q-6.8163,8.9445-13.7139,17.9899-6.7041,9.1908-13.4734,18.4646c-4.4792,6.202-9.0722,12.3568-13.5059,18.6596q-6.61155,9.4809-13.2556,19.0155c-8.9259,12.651-17.5365,25.6043-26.3096,38.4422-8.7667,12.8395-17.0815,25.9927-25.6108,38.9216-8.2758,13.0996-16.5614,26.1228-24.5804,39.1671-15.9568,26.1439-31.608,51.9107-46.2256,77.1737q-10.9704,18.94485-21.5509,37.2054c-6.9983,12.1829-13.6489,24.218-20.1824,35.9019-12.9078,23.4541-25.3085,45.5544-36.1295,66.2845-11.2078,20.54-21.0438,39.6043-29.8592,56.468-8.8479,16.8506-16.2819,31.686-22.5456,43.8494-12.2609,24.4617-19.269,38.4406-19.269,38.4406l-.013.0325a2.63148,2.63148,0,0,1-4.8661-1.9584Z" transform="translate(-36.45253 -18.65947)"/>
        </g>
        <g>
          <path class="cls-5" d="M2461.958,3174.448s66.1972-259.5515,428.2841-294.4563c241.6222-23.2921,318.4232-82.3829,340.9892-108.3818a3.98466,3.98466,0,0,1,6.9663,3.1909c-7.5179,48.9956-48.2745,200.4098-267.694,288.8536C2706.0602,3170.2467,2573.5767,3086.4333,2461.958,3174.448Z" transform="translate(-36.45253 -18.65947)"/>
          <path class="cls-7" d="M2480.6375,3123.8722s1.9861-2.212,5.903-6.0801c3.9136-3.8827,9.706-9.5305,17.4357-16.3159,7.6615-6.8716,17.2798-14.8516,28.6143-23.6475,11.276-8.8902,24.5284-18.211,39.2662-28.0227,14.7736-9.7597,31.2797-19.6087,49.2421-29.188a596.42234,596.42234,0,0,1,58.1517-27.0508,512.46831,512.46831,0,0,1,65.5206-21.2762,479.87354,479.87354,0,0,1,70.3639-12.2902c5.9907-.4389,11.9521-1.1475,17.9558-1.3555q9.00075-.3243,17.9754-.6501,8.986.12435,17.9298.2487c5.9549.1576,11.8904.7151,17.7966,1.0564q17.02125,1.08975,33.7208,2.1567c11.3963,1.1133,21.7622.4209,32.3524.6485q3.9444.0195,7.8597.0374l3.9071.0227,3.9006-.2617q7.7964-.5484,15.4367-1.0889,3.8226-.2682,7.6095-.5331l3.7738-.2616c1.245-.1398,2.4704-.3608,3.7024-.5364q7.377-1.11165,14.5753-2.1973a292.15841,292.15841,0,0,0,52.9769-12.9143,51.39733,51.39733,0,0,0,5.8476-2.225q2.8719-1.16535,5.6754-2.3046c3.7089-1.5846,7.499-2.8605,10.9218-4.6011q5.139-2.63775,10.0051-5.1374c1.6155-.8484,3.257-1.622,4.7945-2.4997q2.2428-1.41645,4.4174-2.7873,4.3833-2.73285,8.4806-5.2886c2.6167-1.8544,5.0741-3.7397,7.4827-5.5031,4.9538-3.3952,8.8089-7.2795,12.6217-10.4894,3.5171-3.4667,6.7351-6.5644,9.2868-9.4541,2.5061-2.9239,4.7034-5.4024,6.2149-7.5835,1.6415-2.1128,2.7532-3.7982,3.5008-4.944.7672-1.1426,1.063-1.7049,1.063-1.7049a1.93582,1.93582,0,0,1,3.5398,1.5424l-.0098.0325s-.2763.7801-.8939,2.0933a63.60422,63.60422,0,0,1-2.8962,5.7339,128.99822,128.99822,0,0,1-13.8504,19.9256c-3.5626,3.8015-7.2227,8.3961-11.9782,12.5519-2.3176,2.1486-4.697,4.4451-7.2486,6.7286q-4.04685,3.1473-8.3766,6.5189-2.1795,1.6797-4.4337,3.4114c-1.5407,1.0873-3.1822,2.0706-4.8108,3.1351q-4.9245,3.1473-10.1253,6.475c-3.4846,2.2023-7.3202,3.9315-11.1168,5.9956-3.8583,1.9194-7.6939,4.2354-11.8806,5.8769a307.18309,307.18309,0,0,1-55.249,17.9136q-7.572,1.5579-15.3457,3.1579c-1.3002.2552-2.5971.5558-3.9071.7753l-3.9526.4957q-3.96885.49725-7.98.9995-8.04015.99945-16.2428,2.0202l-4.1217.4924-4.1834.2097q-4.19325.2097-8.4286.4193c-11.224.4713-23.0461,1.3799-34.0751.746q-8.42055-.2292-16.9352-.4616-8.63985-.29985-17.3643-.6013a404.11352,404.11352,0,0,0-67.0581,2.0641,504.04121,504.04121,0,0,0-66.2942,11.8936,616.14831,616.14831,0,0,0-62.7382,19.126c-40.1471,14.5444-76.4391,31.7608-106.9582,47.82-15.3197,7.9507-28.9426,16.0315-41.1417,23.0624-12.1277,7.1446-22.5261,13.7009-31.114,19.1016-8.5261,5.4853-15.1799,9.8978-19.6916,12.9468-4.4792,3.0799-6.8683,4.723-6.8683,4.723a1.94593,1.94593,0,0,1-2.5517-2.9027Z" transform="translate(-36.45253 -18.65947)"/>
        </g>
        <path class="cls-21" d="M1807.293,2316.1646l360.8651,801.6175a132.33847,132.33847,0,0,0,120.6743,78.0134h186.034a67.92551,67.92551,0,0,0,59.3976-34.9738l6.6162-11.9269h0a53.189,53.189,0,0,1-47.3751-29.0097L2012.6949,2177.808Z" transform="translate(-36.45253 -18.65947)"/>
        <path class="cls-22" d="M2061.26,2272.9642h0a78.91848,78.91848,0,0,0-114.606,18.2093l-530.5735,797.1464a229.19909,229.19909,0,0,1-190.7996,102.2052h-74.6578l-60.7588-175.0278s493.2499-756.309,620.3825-870.7165c0,0,126.606-114.1061,251.4371-27.8336,32.9793,22.7927,58.0186,55.3228,73.3127,92.38Z" transform="translate(-36.45253 -18.65947)"/>
        <path class="cls-23" d="M512.7937,2544.7655s88.8138-111.0136,260.9172-128.2828c0,0,81.7411,27.8489,244.5877,319.6497,162.8473,291.8012,270.9399,424.868,397.7819,352.1875l-10.501,17.436a191.2877,191.2877,0,0,1-163.8638,92.5966h-70.1523a239.98957,239.98957,0,0,1-194.849-99.8345C849.9704,2922.3275,590.6514,2572.1173,512.7937,2544.7655Z" transform="translate(-36.45253 -18.65947)"/>
        <path class="cls-13" d="M3170.0359,1554.2037a4.81985,4.81985,0,0,1-.5689-.0325,4.98918,4.98918,0,0,1-4.3979-5.5227l3.5918-31.7055a4.99208,4.99208,0,0,1,9.9206,1.1247l-3.5918,31.7055A4.99256,4.99256,0,0,1,3170.0359,1554.2037Z" transform="translate(-36.45253 -18.65947)"/>
      </g>
      <g>
        <path class="cls-24" d="M1818.8057,1675.038s34.0057,16.5407,40.258,35.5415c5.0167,15.2459,42.6179,17.2112,46.3322,47.1954,1.9177,15.4809,13.3736,27.8789,28.7928,30.2423,38.403,5.8862,97.5858,25.8281,107.0552,92.5044,7.2278,50.8934-18.7167,70.1914-45.945,76.871-19.9984,4.906-33.2884,24.3577-29.2433,44.5478,3.8798,19.3654-1.906,41.7525-35.4553,59.4553-75.1812,39.6706-150.2617-93.9826-150.2617-93.9826l-15.3868-233.367Z" transform="translate(-36.45253 -18.65947)"/>
        <path class="cls-25" d="M1464.9086,1551.9685s96.7393,263.72,261.5762,346.1438c0,0-54.8636,89.516-83.4949,94.9455,0,0-176.0884-225.373-194.0398-410.015Z" transform="translate(-36.45253 -18.65947)"/>
        <path class="cls-26" d="M2127.8321,3138.3266l4.8654,39.9945a16.522,16.522,0,0,0,14.4904,14.4542c12.8211,1.4646,33.3961,2.9658,53.5265.8378a14.14862,14.14862,0,0,0,11.8807-18.3492c-4.9074-15.4394-13.8852-38.6163-26.829-52.2553h-44.3665A13.66749,13.66749,0,0,0,2127.8321,3138.3266Z" transform="translate(-36.45253 -18.65947)"/>
        <path class="cls-27" d="M1780.3386,2669.8152l-7.4884,44.0502s25.0771,254.0099,29.5376,355.6136a79.60922,79.60922,0,0,1-11.7825,45.2486l-43.6048,70.81,110.8208-65.394,2.2061-13.5238-18.1414-24.9433,23.7624-284.5539a87.30484,87.30484,0,0,0-9.9354-48.2881l-22.9225-43.0629Z" transform="translate(-36.45253 -18.65947)"/>
        <path class="cls-28" d="M1739.7027,3195.7955h35.3651a21.29137,21.29137,0,0,0,16.8997-8.2851c11.025-14.3255,33.867-42.2748,44.7895-43.0044,14.7033-.9821,12.8224,51.2895,12.8224,51.2895h8.2419l10.4397-64.9535a38.44972,38.44972,0,0,0-20.176-40.1899h0s-3.3612,24.8565-21.5859,35.8513-74.1625,50.3689-74.1625,50.3689a50.53139,50.53139,0,0,0-14.3734.3826C1726.8046,3179.2715,1728.3634,3195.7955,1739.7027,3195.7955Z" transform="translate(-36.45253 -18.65947)"/>
        <path class="cls-29" d="M1932.1267,2690.7371s146.9092,278.6722,170.2621,342.2975,31.5338,116.7033,31.8471,121.7293c.4894,7.8539,10.2578,15.3869,37.1848,15.3869,13.8964,0,20.7019-5.5706,24.0344-10.962a15.69838,15.69838,0,0,0,.5943-15.2043c-8.498-17.1982-35.4661-72.159-45.454-97.0869-11.9251-29.7625-37.576-164.6416-51.6438-211.5373s-29.9694-97.7658-91.2316-144.6232C2007.72,2690.7371,1965.6658,2649.5476,1932.1267,2690.7371Z" transform="translate(-36.45253 -18.65947)"/>
        <path class="cls-30" d="M1839.3216,2234.1183c-37.8958-160.5801,58.1057-251.4022,58.1057-251.4022-60.575-58.1452-170.9425-84.6038-170.9425-84.6038s-105.3143,76.9943-92.8209,137.2594c7.3224,35.3216,74.0259,211.569,74.0259,211.569S1769.3699,2276.1316,1839.3216,2234.1183Z" transform="translate(-36.45253 -18.65947)"/>
        <path class="cls-31" d="M1923.3422,2313.617c-15.4222-46.4611-84.0206-79.4987-84.0206-79.4987-69.9517,42.0133-131.6318,12.8224-131.6318,12.8224s-13.8325,52.8722-4.2852,102.0079c9.5469,49.1357,69.4455,364.9164,69.4455,364.9164,94.3799,19.1234,239.5345-19.24,239.5345-19.24C1952.2682,2587.8926,1938.7644,2360.078,1923.3422,2313.617Z" transform="translate(-36.45253 -18.65947)"/>
        <path class="cls-32" d="M1795.3338,1791.9957l30.8102,138.393c2.9498,12.1898-8.1628,10.195-20.4873,7.8715-20.1828-3.8051-46.1959-11.642-54.8919-27.3469a14.90709,14.90709,0,0,1-1.5767-5.2153l-13.2366-95.965a17.24256,17.24256,0,0,1,10.0916-18.1184l25.5428-11.3259A17.24241,17.24241,0,0,1,1795.3338,1791.9957Z" transform="translate(-36.45253 -18.65947)"/>
        <path class="cls-33" d="M1897.4273,1982.7161s215.0403,153.8499,27.502,315.514c0,0-7.151,8.0901-21.2185,12.2951-7.1019,2.1229-28.1111,18.0178-38.7627,26.3054a7.29538,7.29538,0,0,1-10.6739-1.9201h0a9.97475,9.97475,0,0,1-.5625-9.5567l26.6222-56.2948a20.53411,20.53411,0,0,1,26.6704-1.1542h0a10.1318,10.1318,0,0,0,15.3619-3.4788c14.4971-29.5271,41.8716-116.3674-70.1715-214.4945a12.14082,12.14082,0,0,1-2.6923-14.7561C1857.3741,2020.0529,1875.3779,1990.0224,1897.4273,1982.7161Z" transform="translate(-36.45253 -18.65947)"/>
        <g>
          <path class="cls-34" d="M1759.1843,1660.2259s-36.4895,15.4081-61.3005,68.1366-6.2827,77.0746,16.9904,80.4167,58.0777,2.8333,94.8924-31.2286S1806.6191,1641.9619,1759.1843,1660.2259Z" transform="translate(-36.45253 -18.65947)"/>
          <path class="cls-35" d="M1785.0193,1749.4s27.5299-77.144-40.8654-78.0558l-16.0939,11.2487s-25.0951-42.7711,16.0939-63.1882,89.3955-3.5524,106.9236,51.9395,20.5215,92.6385-8.6399,119.1881-41.1794-3.5541-41.1794-3.5541,15.8802-24.8322,9.4156-38.1178-21.3756,2.7482-21.3756,2.7482Z" transform="translate(-36.45253 -18.65947)"/>
          <path class="cls-36" d="M1792.6899,1757.9924s13.9191-39.7386,32.4879-23.913-15.0917,36.7076-28.269,43.4712Z" transform="translate(-36.45253 -18.65947)"/>
        </g>
        <g>
          <path class="cls-37" d="M1455.6228,1599.969c-1.476,4.692,15.6157,11.8367,25.6791-7.3537.3517-9.1973,5.9451-48.5994.4495-56.0918-29.2704-39.9055-86.019-89.9286-86.019-89.9286-9.591,9.4636-1.6894,18.7601-1.6894,18.7601l27.5289,28.6785c-5.7579,10.4055-12.7813,19.1886-16.0731,31.7751a38.57543,38.57543,0,0,0,3.8463,28.3922c4.8324,8.7061,11.4252,20.0229,17.6578,28.8794C1438.8003,1599.8429,1455.6228,1599.969,1455.6228,1599.969Z" transform="translate(-36.45253 -18.65947)"/>
          <path class="cls-38" d="M1441.686,1580.3474c-2.0695-11.5533-8.3968-43.0961-12.7716-50.2152-3.0441-4.9523-4.0409-9.0834-3.0457-12.6291.8338-2.9722,2.9856-5.3099,6.5772-7.1452l1.5221-.7785,26.9006,22.8059,8.112,21.8035-4.8068,1.7879-7.6436-20.5457-23.1919-19.6612a5.76476,5.76476,0,0,0-2.5315,3.1185c-.5791,2.064.2547,4.9428,2.4777,8.5581,5.775,9.3999,13.1386,50.2627,13.4487,51.9975Z" transform="translate(-36.45253 -18.65947)"/>
        </g>
      </g>
    </g>
  </g>
</svg>
