<svg xmlns="http://www.w3.org/2000/svg" xmlns:xlink="http://www.w3.org/1999/xlink" viewBox="0 0 138.66113 64.40959">
  <defs>
    <style>
      .cls-1 {
        fill: url(#Dégradé_sans_nom_17);
      }

      .cls-2 {
        fill: #e6e7f7;
      }
    </style>
    <linearGradient id="Dégradé_sans_nom_17" data-name="Dégradé sans nom 17" x1="49.90103" y1="7.3194" x2="88.61038" y2="29.54487" gradientUnits="userSpaceOnUse">
      <stop offset="0.02701" stop-color="#fb9690"/>
      <stop offset="0.9448" stop-color="#aa648f"/>
    </linearGradient>
  </defs>
  <g id="Calque_1" data-name="Calque 1">
    <path class="cls-1" d="M90.30851,13.76662V23.28a11.57477,11.57477,0,0,1-5.59938,9.88786L70.66387,41.595a1.87075,1.87075,0,0,1-1.91016,0L54.70845,33.16781A11.57478,11.57478,0,0,1,49.10908,23.28V8.14852A1.88816,1.88816,0,0,1,50.4387,6.35073L69.16571.73262a1.732,1.732,0,0,1,1.06744,0l18.727,5.61811A1.878,1.878,0,1,1,87.874,9.94631L69.70879,4.478,52.85448,9.53432V23.28a7.80353,7.80353,0,0,0,3.76413,6.66681l13.09018,7.84662L82.799,29.94676A7.80353,7.80353,0,0,0,86.5631,23.28V13.76662a1.87271,1.87271,0,0,1,3.74541,0ZM67.83609,26.87553V24.66574a5.61812,5.61812,0,1,1,3.7454,0v2.20979a1.8727,1.8727,0,0,1-3.7454,0Zm0-7.4908a1.8727,1.8727,0,1,0,1.8727-1.8727A1.87821,1.87821,0,0,0,67.83609,19.38473Z" transform="translate(-0.38659 -0.64835)"/>
  </g>
  <g id="Calque_3" data-name="Calque 3">
    <g>
      <path class="cls-2" d="M2.30749,53.11458H.38659V50.85433h1.9209Zm6.78125,6.16211,1.86035.81934a5.01261,5.01261,0,0,1-5.26074,4.90136c-3.041,0-5.30176-2-5.30176-5.78125V55.075h1.9209v4.08154c0,2.83985,1.41992,3.94043,3.38086,3.94043C7.62878,63.097,9.0487,62.03645,9.08874,59.27669Zm1.90039-8.42236v6.88134l-1.90039-.82031v-6.061Z" transform="translate(-0.38659 -0.64835)"/>
      <path class="cls-2" d="M16.4071,53.11458H14.4862V50.85433h1.9209Zm0,8.12207L14.4862,63.137V55.075h1.9209Zm6.501,1.7002v1.92089H15.7069l1.94043-1.92089Z" transform="translate(-0.38659 -0.64835)"/>
      <path class="cls-2" d="M32.8485,50.85433v1.90039H22.7069V50.85433ZM26.827,55.47542h1.90039v9.38232H26.827Z" transform="translate(-0.38659 -0.64835)"/>
      <path class="cls-2" d="M40.96764,59.8763H37.66686v4.98144H35.746V57.97591h5.24122a2.61062,2.61062,0,1,0,0-5.22119H35.746V50.85433h5.24122a4.53283,4.53283,0,0,1,1.96093,8.64209l3.02051,5.36132H43.788Z" transform="translate(-0.38659 -0.64835)"/>
      <path class="cls-2" d="M59.88757,64.85774H57.788L53.92663,53.71468,50.06628,64.85774H47.96569L52.9862,50.85433h1.86035Z" transform="translate(-0.38659 -0.64835)"/>
      <path class="cls-2" d="M63.40612,61.11653a3.49121,3.49121,0,0,0,1.54,1.5l-.83984,1.76075a5.10134,5.10134,0,0,1-2.52051-2.5Zm8.78223-.12011c0,2.18066-1.74024,4.06152-4.96094,4.06152a7.27658,7.27658,0,0,1-.96094-.06055l.90039-1.87988c1.68067.01953,3.001-.80078,3.001-2.06055,0-1.26074-1.26074-1.74023-3.64063-2.4209-2.80078-.7998-4.6416-1.66064-4.56152-4.081.06055-2.28027,1.9209-3.84082,4.82129-3.84082a6.17737,6.17737,0,0,1,1.78027.24023l-1.08007,1.72022c-.18067-.02-.44043-.04-.64063-.04-2.06055,0-2.83984,1.00049-2.83984,1.98047,0,1.08008.97949,1.56054,3.20019,2.18066C70.04772,57.596,72.18835,58.47591,72.18835,60.99642Z" transform="translate(-0.38659 -0.64835)"/>
      <path class="cls-2" d="M84.26843,52.75472H75.08581V50.85433h9.18262Zm-.62012,6.021h-8.5625V56.91536h8.5625Zm.74023,4.16114v1.92089H75.08581V62.93685Z" transform="translate(-0.38659 -0.64835)"/>
      <path class="cls-2" d="M97.88757,60.85677l1.76074.87988a6.647,6.647,0,0,1-5.78125,3.26074,7.13959,7.13959,0,0,1,0-14.26318A6.62342,6.62342,0,0,1,99.64831,54.015l-1.76074.86035a4.59681,4.59681,0,0,0-4.02051-2.2207c-2.90039,0-4.84082,2.32031-4.84082,5.22168a4.90161,4.90161,0,0,0,4.84082,5.2207A4.57121,4.57121,0,0,0,97.88757,60.85677ZM93.9071,56.67561a1.22511,1.22511,0,0,1,1.2207,1.22022,1.21049,1.21049,0,0,1-2.4209,0A1.221,1.221,0,0,1,93.9071,56.67561Z" transform="translate(-0.38659 -0.64835)"/>
      <path class="cls-2" d="M104.44616,53.11458h-1.9209V50.85433h1.9209Zm6.78125,6.16211,1.86035.81934a5.01288,5.01288,0,0,1-5.26172,4.90136c-3.04,0-5.30078-2-5.30078-5.78125V55.075h1.9209v4.08154c0,2.83985,1.41992,3.94043,3.37988,3.94043C109.76647,63.097,111.18737,62.03645,111.22741,59.27669Zm1.90039-8.42236v6.88134l-1.90039-.82031v-6.061Z" transform="translate(-0.38659 -0.64835)"/>
      <path class="cls-2" d="M121.84655,59.8763h-3.30078v4.98144h-1.9209V57.97591h5.24121a2.61062,2.61062,0,1,0,0-5.22119h-5.24121V50.85433h5.24121a4.53283,4.53283,0,0,1,1.96094,8.64209l3.02051,5.36132h-2.18067Z" transform="translate(-0.38659 -0.64835)"/>
      <path class="cls-2" d="M138.92761,52.75472H129.745V50.85433h9.18262Zm-.62012,6.021H129.745V56.91536h8.5625Zm.74023,4.16114v1.92089H129.745V62.93685Z" transform="translate(-0.38659 -0.64835)"/>
    </g>
  </g>
</svg>
