<svg xmlns="http://www.w3.org/2000/svg" xmlns:xlink="http://www.w3.org/1999/xlink" viewBox="0 0 172.2675 27.39084">
  <defs>
    <style>
      .cls-1 {
        fill: url(#Dégradé_sans_nom_17);
      }

      .cls-2 {
        fill: #e6e7f7;
      }
    </style>
    <linearGradient id="Dégradé_sans_nom_17" data-name="Dégradé sans nom 17" x1="1.13079" y1="5.0992" x2="26.86029" y2="19.87212" gradientUnits="userSpaceOnUse">
      <stop offset="0.02701" stop-color="#fb9690"/>
      <stop offset="0.9448" stop-color="#aa648f"/>
    </linearGradient>
  </defs>
  <g id="Calque_1" data-name="Calque 1">
    <path class="cls-1" d="M27.989,9.38457v6.32335a7.69356,7.69356,0,0,1-3.72182,6.57231l-9.33566,5.6014a1.24339,1.24339,0,0,1-1.26965,0l-9.33567-5.6014A7.69357,7.69357,0,0,1,.6044,15.70792V5.6503a1.255,1.255,0,0,1,.88377-1.195L13.93572.72107a1.15129,1.15129,0,0,1,.70951,0L27.09279,4.45534a1.2483,1.2483,0,0,1-.722,2.38993L14.2967,3.21058,3.09391,6.57142v9.1365a5.18689,5.18689,0,0,0,2.502,4.43133l8.70084,5.21553,8.70084-5.21553a5.18688,5.18688,0,0,0,2.502-4.43133V9.38457a1.24476,1.24476,0,1,1,2.48951,0ZM13.052,18.09785V16.629a3.73428,3.73428,0,1,1,2.48951,0v1.46881a1.24476,1.24476,0,1,1-2.48951,0Zm0-4.979a1.24476,1.24476,0,1,0,1.24475-1.24475A1.24841,1.24841,0,0,0,13.052,13.11883Z" transform="translate(-0.6044 -0.66506)"/>
  </g>
  <g id="Calque_3" data-name="Calque 3">
    <g>
      <path class="cls-2" d="M36.13166,11.04865H34.21077V8.78839h1.92089Zm6.78125,6.16211,1.86036.81933a5.01263,5.01263,0,0,1-5.26075,4.90137c-3.041,0-5.30175-2-5.30175-5.78125V13.00909h1.92089v4.08155c0,2.83984,1.41993,3.94043,3.38086,3.94043C41.453,21.03107,42.87288,19.97052,42.91291,17.21076ZM44.8133,8.78839v6.88135l-1.90039-.82031v-6.061Z" transform="translate(-0.6044 -0.66506)"/>
      <path class="cls-2" d="M50.23127,11.04865H48.31038V8.78839h1.92089Zm0,8.12207-1.92089,1.90039v-8.062h1.92089Zm6.501,1.70019v1.9209H49.53108l1.94043-1.9209Z" transform="translate(-0.6044 -0.66506)"/>
      <path class="cls-2" d="M66.67268,8.78839v1.90039H56.53108V8.78839Zm-6.02148,4.6211h1.90039v9.38232H60.6512Z" transform="translate(-0.6044 -0.66506)"/>
      <path class="cls-2" d="M74.79182,17.81036H71.491v4.98145h-1.9209V15.91h5.24121a2.514,2.514,0,0,0,2.6211-2.60058,2.51884,2.51884,0,0,0-2.6211-2.62061H69.57014V8.78839h5.24121a4.36317,4.36317,0,0,1,4.58106,4.521,4.32665,4.32665,0,0,1-2.62012,4.12109l3.02051,5.36133H77.61213Z" transform="translate(-0.6044 -0.66506)"/>
      <path class="cls-2" d="M93.71174,22.79181H91.61213L87.7508,11.64874,83.89045,22.79181H81.78987L86.81038,8.78839h1.86035Z" transform="translate(-0.6044 -0.66506)"/>
      <path class="cls-2" d="M97.2303,19.0506a3.49121,3.49121,0,0,0,1.54,1.5l-.83985,1.76074a5.10138,5.10138,0,0,1-2.52051-2.5Zm8.78222-.12012c0,2.18067-1.74023,4.06153-4.96093,4.06153a7.27658,7.27658,0,0,1-.96094-.06055l.90039-1.87988c1.68066.01953,3.001-.80079,3.001-2.06055,0-1.26074-1.26075-1.74024-3.64063-2.4209-2.80078-.7998-4.6416-1.66064-4.56152-4.081.06054-2.28028,1.9209-3.84082,4.82129-3.84082a6.17707,6.17707,0,0,1,1.78027.24023l-1.08008,1.72021c-.18066-.02-.44043-.04-.64062-.04-2.06055,0-2.83985,1.00048-2.83985,1.98046,0,1.08008.9795,1.56055,3.2002,2.18067C103.8719,15.53009,106.01252,16.41,106.01252,18.93048Z" transform="translate(-0.6044 -0.66506)"/>
      <path class="cls-2" d="M118.0926,10.68878H108.91V8.78839h9.18262Zm-.62012,6.021H108.91V14.84943h8.5625Zm.74024,4.16113v1.9209H108.91v-1.9209Z" transform="translate(-0.6044 -0.66506)"/>
      <path class="cls-2" d="M131.71174,18.79083l1.76074.87989a6.647,6.647,0,0,1-5.78125,3.26074,6.84636,6.84636,0,0,1-6.80175-7.1211,6.85192,6.85192,0,0,1,6.80175-7.14209,6.62342,6.62342,0,0,1,5.78125,3.28077l-1.76074.86035a4.5968,4.5968,0,0,0-4.02051-2.22071c-2.90039,0-4.84082,2.32032-4.84082,5.22168a4.90161,4.90161,0,0,0,4.84082,5.22071A4.5712,4.5712,0,0,0,131.71174,18.79083Zm-3.98047-4.18115A1.22511,1.22511,0,0,1,128.952,15.8299a1.21049,1.21049,0,0,1-2.4209,0A1.221,1.221,0,0,1,127.73127,14.60968Z" transform="translate(-0.6044 -0.66506)"/>
      <path class="cls-2" d="M138.27034,11.04865h-1.9209V8.78839h1.9209Zm6.78125,6.16211,1.86035.81933a5.01289,5.01289,0,0,1-5.26172,4.90137c-3.04,0-5.30078-2-5.30078-5.78125V13.00909h1.9209v4.08155c0,2.83984,1.41992,3.94043,3.37988,3.94043C143.59065,21.03107,145.01155,19.97052,145.05159,17.21076ZM146.952,8.78839v6.88135l-1.90039-.82031v-6.061Z" transform="translate(-0.6044 -0.66506)"/>
      <path class="cls-2" d="M155.67073,17.81036H152.37v4.98145h-1.9209V15.91h5.24121a2.514,2.514,0,0,0,2.62109-2.60058,2.51884,2.51884,0,0,0-2.62109-2.62061h-5.24121V8.78839h5.24121a4.36316,4.36316,0,0,1,4.58105,4.521,4.32666,4.32666,0,0,1-2.62011,4.12109l3.0205,5.36133H158.491Z" transform="translate(-0.6044 -0.66506)"/>
      <path class="cls-2" d="M172.75178,10.68878h-9.18262V8.78839h9.18262Zm-.62012,6.021h-8.5625V14.84943h8.5625Zm.74024,4.16113v1.9209h-9.30274v-1.9209Z" transform="translate(-0.6044 -0.66506)"/>
    </g>
  </g>
</svg>
