<svg id="Calque_1" data-name="Calque 1" xmlns="http://www.w3.org/2000/svg" viewBox="0 0 1295 387"><defs><style>.cls-1{fill:#b5ede2;}.cls-2{fill:#c3f1e9;}.cls-3{fill:#d0efe7;}.cls-4{fill:#e6f4fc;}.cls-5{fill:#caf1e9;}.cls-6{fill:#d8efe7;}.cls-7{fill:#e4efeb;}.cls-8{fill:#b5f0ea;}.cls-9{fill:#b7ece0;}.cls-10{fill:#b9f1ea;}.cls-11{fill:#c3f6ea;}.cls-12{fill:#454c6e;}.cls-13{fill:#d2f5ef;}.cls-14{fill:#8e9cde;}.cls-15{fill:#fc9d9b;}.cls-16{fill:#94c2db;}.cls-17{fill:#b0c4e4;}.cls-18{fill:#28324e;}.cls-19{fill:#e8a584;}.cls-20{fill:#835786;}.cls-21{fill:#efc1a8;}.cls-22{fill:#b5e1f9;}.cls-23{fill:#464d56;}.cls-24{fill:#8494ad;}.cls-25{fill:#31e3c2;}.cls-26{fill:#99a9c2;}.cls-27{fill:#5f4a39;}.cls-28{fill:#b071b7;}.cls-29{fill:#953f3e;}.cls-30{fill:#83dd24;}</style></defs><path class="cls-1" d="M1295,56V387H1069c2.57-3.8,5.58-7.38,7.63-11.45,7.36-14.6,4.48-30.28,3.68-45.53-.77-14.79-10.91-23.46-22.93-30.35-18.69-10.72-37.28-21.63-55.94-32.41-17.67-10.22-35.16-20.77-53.14-30.4-9.8-5.26-16.82-11.15-14.35-23.46.29-1.43-.27-3-.1-4.46A40.51,40.51,0,0,1,935,204a33.69,33.69,0,0,0,5.59-1.88c11.29-6,22.47-12.26,33.76-18.27,32.74-17.43,65.41-35,98.3-52.1,27.17-14.15,54.43-28.15,82-41.42a472.4,472.4,0,0,1,47-19.23C1231.79,60.43,1263.28,57.31,1295,56Z"/><path class="cls-2" d="M259,0H510c.66,7.55,1.37,15.1,2,22.66,1,11.92,7.15,20.3,17.38,26,6.93,3.88,13.75,7.95,20.74,11.72,8.57,4.64,17.26,9.06,25.9,13.58h1l7,5h1c2,3.78,5.24,7.35,2,12h0c-4.11,1.73-8.38,3.14-12.3,5.23-32.1,17.11-64.12,34.37-96.2,51.51-4.09,2.18-8.35,4-12.58,5.92-6.18,2.75-12.35,5.51-18.64,8-1.06.42-2.94-.27-4-1-2.63-1.91-4.88-4.36-7.51-6.27-12.19-8.83-24.72-17.22-36.54-26.51-3.8-3-9.92-3.28-11.54-9.2-.15-.52-2.95-.83-4.28-.43-3.76,1.14-8.59-1.43-8.1-5.09.66-4.84-2.43-5.74-5.69-7.12-5.78-2.45-11.13-5.64-13.69-11.75-3.07-7.35-7.15-9.7-13.66-7.86-1.95-1.19-3.45-2.52-5.2-3.11-2.68-.89-5.63-1-8.28-2-3.54-1.29-6.88-3.14-10.36-4.64a10.47,10.47,0,0,1-5.89-11.9,8.14,8.14,0,0,0,0-1.66l-5-2.46,5.21-.93c1.23-2,1.91-4,3.25-5.19a35.4,35.4,0,0,1,8-5.72,81.11,81.11,0,0,1,12.37-4.48c3.34-1,7.31-.61,10.15-2.28,5.93-3.49,11.33-7.9,16.87-12a15.39,15.39,0,0,0,2.47-3.08,10.09,10.09,0,0,0-5.88,0C344.48,31.26,329.08,36,313.51,40c-27.59,7.17-55.22,14.26-83,20.83-26.93,6.39-54,12.29-81,18C111.26,87,73,94.77,34.66,102.58,23.15,104.93,11.55,106.87,0,109V48l10-1c1,.66,1.85,1.72,2.91,1.92,6.49,1.23,13,2.45,19.55,3.33,8.19,1.09,16.4,2.26,24.63,2.58C62,55,66.93,53.78,71.82,53c19.58-3.19,39.2-6.2,58.71-9.79,10.05-1.84,19.8-5.33,29.86-7.06,18.54-3.18,37.23-5.44,55.8-8.46,6.24-1,13.16-1.8,16.17-8.83.79-1.85,1.29-4.91.32-6.14s-4-.65-6.08-.75a6.69,6.69,0,0,0-2,.59L223.31,11,228,8c3.06-.68,6.14-1.27,9.16-2.07C244.46,4,251.72,2,259,0Z"/><path class="cls-3" d="M0,149V117c6.73.75,13.48,1.39,20.2,2.27,5.54.73,11,1.82,16.57,2.59a50.77,50.77,0,0,0,7.7.44c4.74-.08,9.47-.41,14.21-.51,2.23,0,4.48.23,6.72.31,4.47.17,8.94.15,13.4.49s8.91,1.21,13.39,1.5c3.41.22,6.86-.35,10.26-.14,8.64.53,17.26,1.86,25.88,1.83,10.33,0,20.66-1.57,31-1.63,7.45-.05,14.91,1.22,22.36,2,.88.1,1.61,1.14,2.51,1.49,3,1.17,6,2.41,9.06,3.28a23.59,23.59,0,0,0,7.66,1.25c6.26-.38,11.64,1.2,16.18,5.61.46.44,1.65,0,2.43.24a29.15,29.15,0,0,1,3.18,1.2c4.1,1.6,8.18,3.25,12.3,4.78,3.06,1.14,6.43,1.66,9.22,3.25,3.52,2,6.44,5,9.87,7.23,5.29,3.39,10.3,7.37,17.15,7.61,2.45.08,4.88,1.64,7.27,2.64a51,51,0,0,1,7.9,3.63c3.71,2.38,7.07,5.3,10.71,7.78a21.36,21.36,0,0,0,5.63,2.66c2.82.87,6,.86,8.58,2.14,5.88,2.94,11.12,8.08,17.24,9.4,16.41,3.52,32.27,10,49.38,10,.2,0,.39.47,1,1.19a52.39,52.39,0,0,0-5.25,4.22c-.72.74-1.41,2.73-1,3.16a30.73,30.73,0,0,0,5.86,4.86c.32.21,1.89-1.19,2.67-2,1.61-1.77,2.92-3.85,4.65-5.49s4.8-2.79,6.05-4.87c3.32-5.5,8.6-7.5,14.13-9.37-1.37,1.72-2.49,3.75-4.15,5.11-6.51,5.32-12.63,10.92-14.22,19.69-1,5.68-2.28,11.43-2.29,17.15,0,8.74-.08,17.71,1.85,26.13,2.13,9.29,6.64,17.62,17.89,19.71a17.13,17.13,0,0,1,9.65,5.82c4.56,5.89,10.4,7.24,17.14,7.56,1.4.07,2.72,1.54,5.12,3-3,.9-4.54,1.45-6.12,1.84-23,5.68-46.11,10.93-69,17.11-27.7,7.5-55.35,15.28-82.72,23.87-22.34,7-44.28,15.29-66.31,23.24C204.79,365.15,197,368.72,189,372c-10.93,4.32-21.86,8.62-32.76,13-.58.24-.83,1.3-1.24,2H127a26.74,26.74,0,0,1,3.39-1.95Q158.68,373.48,187,362a11.58,11.58,0,0,0,2.46-.31c23.28-7.94,46.44-16.24,69.84-23.79,19.27-6.2,38.83-11.48,58.23-17.27a48.29,48.29,0,0,0,6.38-2.95l-.7-1.54-49.53,11.64-.52-1.46a35.08,35.08,0,0,1,4.05-2.37c9.45-4,18.89-8.11,28.43-11.94,14.79-6,29.67-11.69,44.47-17.61,3.41-1.36,6.72-3,6.53-8.67-3.91.48-7.58,1.12-11.28,1.31-2.69.14-5.68.33-8.08-.63-12.29-4.92-23.5-12.65-37.46-13.17-3.13-.12-6-3.56-9.27-4.06-11.24-1.73-22.58-2.74-33.85-4.25a38.6,38.6,0,0,1-9.29-2.56c-1.81-.72-3.08-2.72-4.87-3.57-4-1.94-8.29-3.41-12.35-5.31-1.2-.57-2-1.93-3-2.93a16.89,16.89,0,0,1,3.08-2.69c4.42-2.27,8.94-4.36,13.42-6.51-2.12-1.18-4.05-1.66-5.59-1.09-4.28,1.61-7.1-.24-10.33-2.82a99.69,99.69,0,0,0-14.43-9.65c-6.47-3.54-13.42-6.23-19.93-9.73-3.69-2-6.88-4.91-10.35-7.33-2.83-2-5.68-3.94-8.63-5.74-5.48-3.35-11.92-5.7-16.3-10.11a23.55,23.55,0,0,0-12.6-7c-4.83-1-10-1.71-14.24-3.91s-7.42-6.34-12.53-7.63c-7.13-1.81-12.67-7.77-20.47-8.14a22.47,22.47,0,0,1-6.81-1.09c-7.23-2.76-14.32-5.81-22.36-5.18-1.75.14-3.58-.5-5.36-.88-6.27-1.33-12.51-2.84-18.82-4-7.47-1.39-15-2.43-22.49-3.76S7.47,150.43,0,149Z"/><path class="cls-4" d="M836,387H710c-1.15-1.12-2.13-2.52-3.47-3.31-14.66-8.53-29.39-16.95-44.08-25.42q-77.36-44.59-154.7-89.22c-14.1-8.15-28.1-16.46-42.15-24.69,1.73-1,3.47-1.89,5.17-2.87,23.93-13.88,47.8-27.85,71.77-41.64,24.72-14.22,49.55-28.25,74.27-42.47,2.36-1.35,4.28-3.47,6.4-5.22l4.73,2.09c-.64,5-1.88,10.1-1.78,15.13.2,9.83,1.16,19.64,1.81,29.47-14.26,4.41-25.24,11.77-28.91,27.71-3.73,16.25-7.32,32-4.34,49.14,2.54,14.58,6.54,27.47,20.33,34.35a72.7,72.7,0,0,0,22.76,6.48c13.62,1.78,27.23.86,40.16-4.61q11.14-4.87,22.27-9.74c2.22-1,4.4-2,6.59-3.06-4.85,16.42-3.72,32.82-.5,49.4,1.47,7.52,4.37,13.82,9.77,19.16a45.23,45.23,0,0,0,23.63,12.16c24,4.81,46.4-.32,67.39-12,7.19-4,13.55-9.52,20.14-14.54a8,8,0,0,0,3-4.41c2.08-12.64,4.36-25.29,5.49-38a16.88,16.88,0,0,0-4.35-12.09c-6.38-6.22-13.82-11.42-21.12-16.62-5.29-3.76-9.84-7.93-12.31-14.05l3.83-1.43c10.72,1.06,19.72-7.64,20.11-19.73.46-14.39.71-28.79,1-43.18l19,10.78L837.15,223l16.62-2c1.1.74,2.16,1.54,3.3,2.19q64.56,37.3,129.14,74.57c-.7.86-1.23,2-2.13,2.52-10.18,5.9-20.45,11.66-30.64,17.54-20.84,12-41.61,24.13-62.48,36.09-14.09,8.08-28.36,15.83-42.39,24C844.12,380.51,840.18,384,836,387Z"/><path class="cls-5" d="M406,192c-5.53,1.87-10.81,3.87-14.13,9.37-1.25,2.08-4.17,3.09-6.05,4.87s-3,3.72-4.65,5.49c-.78.85-2.35,2.25-2.67,2a30.73,30.73,0,0,1-5.86-4.86c-.39-.43.3-2.42,1-3.16a52.39,52.39,0,0,1,5.25-4.22c-.57-.72-.76-1.19-1-1.19-17.11,0-33-6.46-49.38-10-6.12-1.32-11.36-6.46-17.24-9.4-2.57-1.28-5.76-1.27-8.58-2.14a21.36,21.36,0,0,1-5.63-2.66c-3.64-2.48-7-5.4-10.71-7.78a51,51,0,0,0-7.9-3.63c-2.39-1-4.82-2.56-7.27-2.64-6.85-.24-11.86-4.22-17.15-7.61-3.43-2.19-6.35-5.22-9.87-7.23-2.79-1.59-6.16-2.11-9.22-3.25-4.12-1.53-8.2-3.18-12.3-4.78a29.15,29.15,0,0,0-3.18-1.2c-.78-.21-2,.2-2.43-.24-4.54-4.41-9.92-6-16.18-5.61a23.59,23.59,0,0,1-7.66-1.25c-3.09-.87-6.07-2.11-9.06-3.28-.9-.35-1.63-1.39-2.51-1.49-7.45-.8-14.91-2.07-22.36-2-10.33.06-20.66,1.6-31,1.63-8.62,0-17.24-1.3-25.88-1.83-3.4-.21-6.85.36-10.26.14-4.48-.29-8.92-1.16-13.39-1.5s-8.93-.32-13.4-.49c-2.24-.08-4.49-.35-6.72-.31-4.74.1-9.47.43-14.21.51a50.77,50.77,0,0,1-7.7-.44c-5.53-.77-11-1.86-16.57-2.59C13.48,118.39,6.73,117.75,0,117v-8c11.55-2.13,23.15-4.07,34.66-6.42C73,94.77,111.26,87,149.51,78.86c27.07-5.74,54.11-11.64,81-18,27.74-6.57,55.37-13.66,83-20.83,15.57-4,31-8.74,46.46-13.1a10.09,10.09,0,0,1,5.88,0A15.39,15.39,0,0,1,363.38,30c-5.54,4.14-10.94,8.55-16.87,12-2.84,1.67-6.81,1.3-10.15,2.28A81.11,81.11,0,0,0,324,48.8a35.4,35.4,0,0,0-8,5.72c-1.34,1.2-2,3.15-3.25,5.19l-5.21.93,5,2.46a8.14,8.14,0,0,1,0,1.66,10.47,10.47,0,0,0,5.89,11.9c3.48,1.5,6.82,3.35,10.36,4.64,2.65,1,5.6,1.06,8.28,2,1.75.59,3.25,1.92,5.2,3.11,6.51-1.84,10.59.51,13.66,7.86,2.56,6.11,7.91,9.3,13.69,11.75,3.26,1.38,6.35,2.28,5.69,7.12-.49,3.66,4.34,6.23,8.1,5.09,1.33-.4,4.13-.09,4.28.43,1.62,5.92,7.74,6.21,11.54,9.2,11.82,9.29,24.35,17.68,36.54,26.51,2.63,1.91,4.88,4.36,7.51,6.27,1.07.78,3,1.47,4,1,6.29-2.47,12.46-5.23,18.64-8,4.23-1.89,8.49-3.74,12.58-5.92,32.08-17.14,64.1-34.4,96.2-51.51,3.92-2.09,8.19-3.5,12.3-5.23a23.28,23.28,0,0,1-3,2.47q-35.91,20.5-71.87,40.94c-14.75,8.34-29.6,16.51-44.42,24.71-14.09,7.79-28.27,15.42-42.28,23.35-4.36,2.46-8.3,5.66-12.43,8.53Z"/><path class="cls-6" d="M0,149c7.47,1.43,14.93,2.93,22.41,4.27s15,2.37,22.49,3.76c6.31,1.18,12.55,2.69,18.82,4,1.78.38,3.61,1,5.36.88,8-.63,15.13,2.42,22.36,5.18a22.47,22.47,0,0,0,6.81,1.09c7.8.37,13.34,6.33,20.47,8.14,5.11,1.29,8.24,5.44,12.53,7.63s9.41,2.89,14.24,3.91a23.55,23.55,0,0,1,12.6,7c4.38,4.41,10.82,6.76,16.3,10.11,3,1.8,5.8,3.76,8.63,5.74,3.47,2.42,6.66,5.34,10.35,7.33,6.51,3.5,13.46,6.19,19.93,9.73a99.69,99.69,0,0,1,14.43,9.65c3.23,2.58,6.05,4.43,10.33,2.82,1.54-.57,3.47-.09,5.59,1.09-4.48,2.15-9,4.24-13.42,6.51a16.89,16.89,0,0,0-3.08,2.69c1,1,1.83,2.36,3,2.93,4.06,1.9,8.32,3.37,12.35,5.31,1.79.85,3.06,2.85,4.87,3.57a38.6,38.6,0,0,0,9.29,2.56c11.27,1.51,22.61,2.52,33.85,4.25,3.23.5,6.14,3.94,9.27,4.06,14,.52,25.17,8.25,37.46,13.17,2.4,1,5.39.77,8.08.63,3.7-.19,7.37-.83,11.28-1.31.19,5.63-3.12,7.31-6.53,8.67C335.3,300.31,320.42,306,305.63,312c-9.54,3.83-19,7.91-28.43,11.94a35.08,35.08,0,0,0-4.05,2.37l.52,1.46,49.53-11.64.7,1.54a48.29,48.29,0,0,1-6.38,2.95c-19.4,5.79-39,11.07-58.23,17.27-23.4,7.55-46.56,15.85-69.84,23.79A11.58,11.58,0,0,1,187,362c1.3-1.14,2.42-2.61,3.9-3.37,10.35-5.3,20.8-10.41,31.16-15.69a55.31,55.31,0,0,0,5.67-3.78l-.69-1.37c-9.56,2.4-19,5.51-28.72,7-9.49,1.47-19.24,1.29-28.88,1.84l-.51-1.91c1.55-1.35,2.93-3,4.67-4,7.6-4.43,15.36-8.58,22.95-13,4.68-2.75,9.15-5.87,13.71-8.82-5.19-3.08-10-4.1-14-6.47-7-4.12-13-1.56-19.36,1.14-2.29,1-5.66,1.22-7.81.23-3.71-1.72-8-3.42-8.41-8.87-.07-1.08-2.33-2-3.56-3-6.51-5.42-13-10.86-19.93-16.64L150.63,275a8.49,8.49,0,0,0-5.18.35c-4.29,1.49-8.37,1.06-11.57-2.15-4.47-4.47-11.78-5.2-14.85-11.47-.24-.49-1.12-.66-1.67-1-6.19-4.12-12.5-8.07-18.52-12.42-6.85-5-13.37-10.35-20.19-15.34-1.94-1.42-5-1.55-6.56-3.19-6-6.25-14.34-8.21-21.38-12.48-4.26-2.59-10.21-2.5-14.28-5.27C25.3,204.4,12.42,201.92,0,198Z"/><path class="cls-7" d="M0,198c12.42,3.92,25.3,6.4,36.43,14,4.07,2.77,10,2.68,14.28,5.27,7,4.27,15.41,6.23,21.38,12.48,1.57,1.64,4.62,1.77,6.56,3.19,6.82,5,13.34,10.39,20.19,15.34,6,4.35,12.33,8.3,18.52,12.42.55.36,1.43.53,1.67,1,3.07,6.27,10.38,7,14.85,11.47,3.2,3.21,7.28,3.64,11.57,2.15a8.49,8.49,0,0,1,5.18-.35l-13.49,10.27c6.92,5.78,13.42,11.22,19.93,16.64,1.23,1,3.49,1.93,3.56,3,.36,5.45,4.7,7.15,8.41,8.87,2.15,1,5.52.74,7.81-.23,6.41-2.7,12.37-5.26,19.36-1.14,4,2.37,8.85,3.39,14,6.47-4.56,2.95-9,6.07-13.71,8.82-7.59,4.46-15.35,8.61-22.95,13-1.74,1-3.12,2.64-4.67,4l.51,1.91c9.64-.55,19.39-.37,28.88-1.84,9.71-1.5,19.16-4.61,28.72-7l.69,1.37a55.31,55.31,0,0,1-5.67,3.78c-10.36,5.28-20.81,10.39-31.16,15.69-1.48.76-2.6,2.23-3.9,3.37q-28.31,11.52-56.6,23.06A26.74,26.74,0,0,0,127,387H0Z"/><path class="cls-8" d="M1295,56c-31.72,1.31-63.21,4.43-93.34,15.11a472.4,472.4,0,0,0-47,19.23c-27.61,13.27-54.87,27.27-82,41.42-32.89,17.12-65.56,34.67-98.3,52.1-11.29,6-22.47,12.24-33.76,18.27A33.69,33.69,0,0,1,935,204c-.34-1.72-.73-3.43-1-5.16q-1.53-9.93-3-19.85c2,1.67,4.54,3,5.87,5.1,1.88,3,3.26,3.63,6.24,1.38,7.93-6,16.1-11.72,24.12-17.62,10.61-7.81,21.27-15.55,31.71-23.59,8.46-6.52,16.44-13.66,24.95-20.12,8.3-6.3,17-12,25.52-18.12,4.8-3.45,9.25-7.43,14.23-10.58S1074.2,90,1079.37,87c8.65-4.92,17-10.34,25.81-15,14.53-7.74,29.17-15.3,44-22.49,12.07-5.87,24.32-11.41,36.72-16.53,23.56-9.73,48.07-16.46,73-21.69,12-2.52,24.11-4.22,36.17-6.29Z"/><path class="cls-9" d="M588,387H309c-.25-4.53,1-9.27-2.41-13.32-.62-.75-.29-2.52,0-3.74.8-3.75.08-5.23-4.29-4.37-2.63.52-6.2,2.37-8.27-1.56a55.36,55.36,0,0,1,6.38-2.59q69.33-18.69,138.71-37.22c10.22-2.71,20.59-4.84,30.89-7.24,1.77,1.23,3.46,2.59,5.31,3.66,12.1,6.95,24.24,13.83,36.35,20.75,20.38,11.66,40.81,23.24,61.1,35.08C578.06,379.55,582.93,383.46,588,387Z"/><path class="cls-1" d="M1295,5c-12.06,2.07-24.2,3.77-36.17,6.29-24.89,5.23-49.4,12-73,21.69-12.4,5.12-24.65,10.66-36.72,16.53-14.8,7.19-29.44,14.75-44,22.49-8.78,4.68-17.16,10.1-25.81,15-5.17,2.94-10.72,5.25-15.72,8.43s-9.43,7.13-14.23,10.58c-8.48,6.09-17.22,11.82-25.52,18.12-8.51,6.46-16.49,13.6-24.95,20.12-10.44,8-21.1,15.78-31.71,23.59-8,5.9-16.19,11.61-24.12,17.62-3,2.25-4.36,1.57-6.24-1.38-1.33-2.1-3.87-3.43-5.87-5.1-4.94-8.08-12.89-12.41-20.79-16.85-1.25-.7-2.13-2.07-3.18-3.13,14.26-8.17,28.7-16,42.74-24.56,46.39-28.17,92.39-57,139-84.73,27-16,54.81-30.55,82.28-45.73,2.59-1.43,5.28-2.67,7.92-4h116Z"/><path class="cls-8" d="M830,0h278c-1.47,1.4-2.7,3.26-4.44,4.12q-33.61,16.52-67.37,32.74c-11.24,5.39-22.74,10.24-34,15.58-8.56,4.05-19,5.12-24.27,14.71-.38.7-2.8,1.12-3.62.62-4.28-2.64-8-.42-11.75,1-8.34,3.28-16.52,7-24.89,10.21-1.55.59-4.79.29-5.37-.7-2.57-4.38-4.32-9.22-6.66-13.75-.74-1.43-2.4-2.39-3.63-3.57-4.8-4.73-8.92-10.56-14.52-14-20.94-12.8-42.43-24.72-63.59-37.17C839,7,834.62,3.3,830,0Z"/><path class="cls-10" d="M597,0H753c-.33,6.79-1.22,13.61-.88,20.36.62,12.43,5.06,23.22,15.43,31,5.43,4.07,11,8,11.42,15.91.23,4.85-1.85,7.11-6.74,6.38S762.69,72,757.94,72.1c-16,.37-28.37,7.13-35.88,21.74-3.06,6-4.58,6.59-10.53,3.35-5.67-3.09-11.1-6.63-16.68-9.9C683.1,80.42,671.63,73,658,70.12c-6.5-1.37-8-3.45-8-10,0-1.84,0-3.67,0-5.5C649.7,42.11,645.47,31.8,634.12,25c-11.64-7-23-14.41-34.47-21.75C598.53,2.53,597.87,1.1,597,0Z"/><path class="cls-11" d="M228,8l-4.69,3,1.29,1.57a6.69,6.69,0,0,1,2-.59c2.12.1,5.16-.4,6.08.75s.47,4.29-.32,6.14c-3,7-9.93,7.81-16.17,8.83-18.57,3-37.26,5.28-55.8,8.46-10.06,1.73-19.81,5.22-29.86,7.06C111,46.79,91.4,49.8,71.82,53c-4.89.79-9.85,2-14.73,1.85-8.23-.32-16.44-1.49-24.63-2.58-6.55-.88-13.06-2.1-19.55-3.33C11.85,48.73,11,47.67,10,47l19.41-2.52-.14-1.18L0,45V0H239a21.85,21.85,0,0,1-3.54,1.66Q211.64,7.9,187.78,14c-7.42,1.89-14.88,3.63-22.32,5.44a2.89,2.89,0,0,0,2.74.94Q198.11,14.24,228,8ZM59.35,40.75l-.1-1.66L48.64,40.42,48.81,42ZM32.7,42.52v1h4.64v-1Zm8.92-1.07,0,1,3.74.18,0-1.23Zm27.94-3.9v.91h2.81v-.91Zm-4.14,2,0-1.22-2.81.26.07,1ZM161.64,20l-1.14.95c.3.3.58.82.9.84s.72-.41,1.08-.65Zm-5.23,2.3c.27.11.59.38.78.3s.24-.48.36-.74c-.26-.12-.58-.38-.77-.31S156.53,22,156.41,22.26Z"/><path class="cls-12" d="M465.6,244.36c14,8.23,28,16.54,42.15,24.69q77.32,44.65,154.7,89.22c14.69,8.47,29.42,16.89,44.08,25.42,1.34.79,2.32,2.19,3.47,3.31H681c-1-1.2-1.89-2.77-3.19-3.55q-11.19-6.74-22.57-13.14c-9.92-5.56-20-10.8-29.88-16.49-18.06-10.42-35.93-21.17-54-31.59-15.06-8.69-30.32-17-45.41-25.68-15.92-9.13-31.74-18.43-47.61-27.66-10.82-6.3-21.67-12.56-32.46-18.93-9.69-5.73-19.54-11.23-28.89-17.47-8.67-5.79-8.4-17,.33-22.6,6.93-4.47,14.32-8.22,21.43-12.41,10.47-6.17,20.84-12.49,31.31-18.65q21.1-12.42,42.29-24.68Q531.57,143,550.82,131.9c9.58-5.49,19.21-10.87,28.82-16.3L609.05,99l10.76,17.13c-1.55,1.56-2.84,3.55-4.67,4.62q-33,19.2-66.14,38.18-56,32.27-112,64.56a43.7,43.7,0,0,0-3.65,2.76ZM574.78,136.68c-3.45-3.8-6.28-4.51-9.48-2.78-3.78,2-7.45,4.3-11.18,6.44q-17.4,10-34.81,20c-9.19,5.27-18.42,10.48-27.56,15.84a3.38,3.38,0,0,0-1.42,2.76,3.27,3.27,0,0,0,2.42,1.93,13.17,13.17,0,0,0,5.81-.76,126.52,126.52,0,0,0,12-6.16q24.51-14.06,48.91-28.26C564.38,142.85,569.28,139.93,574.78,136.68Z"/><path class="cls-13" d="M1179,0c-2.64,1.33-5.33,2.57-7.92,4-27.47,15.18-55.33,29.69-82.28,45.73-46.63,27.76-92.63,56.56-139,84.73C935.74,143,921.3,150.85,907,159l-6,4c-6.84-3.67-13.78-7.16-20.49-11.05-11.2-6.5-22.18-13.37-33.42-19.8-2.79-1.6-6.24-3-9.33-2.94-8.42.27-15.66,8.51-15.75,17-.06,5.49.16,11-.13,16.48-.07,1.43-1.3,3.55-2.52,4-3.46,1.34-9-2.38-9.31-6.08-1.41-16.31-3.2-32.62-3.9-49-.62-14.37-10.57-26.89-23.66-29.31-7.13-1.32-14.49-1.37-21.66-2.55-7.81-1.29-14.66.46-21.16,4.71-7.75,5.06-11.36,12.74-13.77,21.2-1.53,5.39-4.34,6.82-9.07,4.1-11.66-6.71-23.17-13.66-34.89-20.26C671.48,83.73,660.65,78.77,648.36,78c-5-.34-7.22-2.89-7.33-8.22-.13-5.83.18-11.67-.09-17.49-.32-7.18-2-14.09-8.71-18C618.1,25.88,603.72,18,589.56,9.73c-5-2.94-9.72-6.47-14.56-9.73h11c1,1.2,1.77,2.78,3,3.55,11.33,6.92,22.67,13.83,34.15,20.49,9.3,5.39,18.79,10.54,21,22.4a80,80,0,0,1,1.2,12.75c.28,11.16,2.17,13.51,13.39,16,1.29.28,2.54.8,3.81,1.19,16.74,5.12,30.88,15.3,45.87,23.78,10.14,5.74,12.13,5.53,17.49-5a13,13,0,0,1,.68-1.34c6.84-11,16.23-18,29.66-17.67,7.76.18,15.49,1.24,23.24,1.89,14.17,1.2,28.11,14.67,29.44,28.53q1.56,16.45,3,32.92c.37,4.11.48,8.27,1.12,12.34.21,1.38,1.69,2.57,2.58,3.84.77-1.24,1.91-2.39,2.21-3.73a44.25,44.25,0,0,0,1-8.35c.26-10.1,15.18-21.32,25.23-15.92,10.43,5.61,21,11,31.31,16.8,2.62,1.48,4.46,1.87,6.5-.4,3.76-1.71,7.62-3.21,11.24-5.18,6.34-3.46,12.52-7.2,18.77-10.83l11-6c2.57-1.15,5.25-2.11,7.69-3.47q14.38-8,28.62-16.22Q990,84.68,1020.58,66.91c17.94-10.45,35.66-21.3,53.75-31.48C1092,25.49,1110,16.26,1127.77,6.52c3-1.66,5.5-4.32,8.23-6.52Z"/><path class="cls-12" d="M986.21,297.78q-64.58-37.27-129.14-74.57c-1.14-.65-2.2-1.45-3.3-2.19,2.54-.64,5.14-1.1,7.59-2,5.39-1.9,9.83.07,14.37,2.78,10.36,6.19,20.94,12,31.25,18.27,3,1.86,5.7,2.3,8.77.67,2.53,1.69,5,3.5,7.61,5,13.14,7.7,26.29,15.39,39.51,22.95,12.53,7.18,25.24,14,37.71,21.32,16.18,9.43,32.08,19.35,48.37,28.58,4.77,2.69,6.6,6.41,7,11.15.71,8.76-6.19,12.2-12.13,16.05-3.59,2.33-7.56,4.06-11.27,6.22-14.83,8.65-29.68,17.27-44.39,26.12-4.27,2.56-8.11,5.85-12.15,8.8H957c.72-9.19-9-12.79-16.4-13.95-15.18-2.38-25.85,7.21-37.6,13.95H888c1.79-1.18,3.53-2.47,5.38-3.54q58.56-33.81,117.12-67.59a49.73,49.73,0,0,0,4.14-3.13Z"/><path class="cls-14" d="M658,387H609c-4-6.65-11.37-8.71-17.39-12.59-6.56-4.24-13.29-8.23-19.94-12.35-3.82-2.37-7.53-4.93-11.45-7.12-5.18-2.9-10.66-5.28-15.77-8.31-7.69-4.56-15-9.68-22.78-14.15-3.16-1.83-7.18-2.15-10.4-3.89-5.07-2.73-9.68-6.29-14.68-9.14-14.43-8.23-29-16.26-43.43-24.41-5.42-3.07-10.75-6.3-16.18-9.35-.44-.25-1.33.32-2,.51l-1-.18a98.61,98.61,0,0,0-8.86-6.75c-1.69-1-4-1-6.08-1.43L415,275c-.56-1-.86-2.47-1.73-3-7.68-4.77-14.72-9.95-15.57-20,0-.39-1-.69-1.52-1q0-8.94-.08-17.9a37,37,0,0,1,5.4,2.86c1.85,1.37,3.16,3.55,5.11,4.71,8.65,5.17,17.43,10.13,26.2,15.1,14.84,8.41,29.78,16.65,44.54,25.2,14.6,8.46,28.94,17.37,43.55,25.81,15.46,8.92,31.18,17.37,46.63,26.3,14.32,8.27,28.34,17.08,42.67,25.32,13.57,7.81,27.43,15.11,41.05,22.84C653.76,382.63,655.75,385,658,387Z"/><path class="cls-15" d="M780,0h13c5.83,3.74,11.52,7.7,17.5,11.16,17.84,10.31,35.78,20.41,53.69,30.59,2.29,1.3,4.62,2.51,6.9,3.83,8.11,4.7,16.17,9.48,24.31,14.12,7.76,4.43,14.27,9.93,14.77,19.58.55,10.59.52,21.21.74,31.81-4.65-.83-9.77-.7-13.86-2.69-8.36-4.05-16.14-9.29-24.22-13.94-7.81-4.5-15.74-8.8-23.51-13.35-3-1.74-5.5-4.3-8.54-5.89-6.46-3.38-13.18-6.26-19.69-9.56-6.87-3.47-13.29-8.19-21.73-4.06-3.06,1.5-5.3.09-5.52-3.93-.09-1.62-1.74-3.15-2.68-4.72-.08-.3-.15-.6-.2-.9-2.07-2.39-3.71-5.51-6.29-7-10.82-6.37-18.13-14.64-17.7-28,.18-5.65,0-11.32,0-17h7c1.84,2.74,3.18,6.09,5.64,8.07,3.57,2.87,8,4.72,12,7.06C800.07,20,808.48,25,817,29.82c1.2.68,3,.3,4.52.42-.1-1.58.38-3.61-.43-4.62A21,21,0,0,0,815.46,21C803.68,14,791.83,7,780,0ZM885.12,77.05c-1.41-1.31-3.22-3.71-5.61-5.11Q848.57,53.79,817.4,36c-1.58-.9-3.85-.58-5.8-.83a40.88,40.88,0,0,0,1.69,6.28c.38.9,1.79,1.4,2.79,2q18.76,10.83,37.55,21.63Q867,72.82,880.37,80.6C883,82.11,884.81,82.14,885.12,77.05ZM805,31.32c-.62-.9-1.25-2.69-2.5-3.45-7.65-4.65-15.42-9.11-23.23-13.49a3.37,3.37,0,0,0-3.14.4c-.57.54-.58,2.15-.24,3.06a7.1,7.1,0,0,0,2.37,3.6c7.24,4.35,14.58,8.54,22,12.66C802.51,35.36,804.84,35.92,805,31.32Zm50.09,20.12c1.84-5,.69-7.56-4.21-10.42-6-3.51-12.12-6.92-18.31-10.16-1.51-.79-3.48-.7-5.24-1,.66,2.22.63,5.53,2.12,6.48C837.7,41.61,846.28,46.31,855.13,51.44Z"/><path class="cls-7" d="M470,317c-10.3,2.4-20.67,4.53-30.89,7.24q-69.39,18.46-138.71,37.22A55.36,55.36,0,0,0,294,364c-8.08,2.31-16.26,4.32-24.22,7-15.33,5.14-30.53,10.65-45.78,16H155c.41-.68.66-1.74,1.24-2,10.9-4.4,21.83-8.7,32.76-13,1.53.1,3.14.57,4.56.23,16.42-3.93,32.86-7.81,49.21-12.05,24.84-6.45,49.6-13.23,74.42-19.74q39.4-10.33,78.88-20.41c14-3.54,28-6.66,42-10,6.28-1.52,7.51-4.55,3.33-8.88-2.26-2.33-2.43-4.43-1.42-7.09,6.21,3.36,12.37,6.84,18.66,10.05,4.77,2.43,9.72,4.52,14.58,6.77l4.86,2Z"/><path class="cls-10" d="M1136,0c-2.73,2.2-5.21,4.86-8.23,6.52-17.76,9.74-35.8,19-53.44,28.91-18.09,10.18-35.81,21-53.75,31.48Q990,84.73,959.31,102.33q-14.25,8.2-28.62,16.22c-2.44,1.36-5.12,2.32-7.69,3.47,1.89-2.62,3.26-6,5.78-7.7,6.59-4.4,13.63-8.13,20.58-12,6.11-3.38,12.35-6.55,18.53-9.81-.23-.53-.47-1.05-.7-1.58a43.8,43.8,0,0,0-4.71,1.84c-8.64,4.59-17.22,9.3-25.87,13.88-7.35,3.91-9.49,2.55-9.63-5.63-.23-13.52,2-27.36-5-40,1.23,1.18,2.89,2.14,3.63,3.57,2.34,4.53,4.09,9.37,6.66,13.75.58,1,3.82,1.29,5.37.7,8.37-3.21,16.55-6.93,24.89-10.21,3.71-1.46,7.47-3.68,11.75-1,.82.5,3.24.08,3.62-.62,5.3-9.59,15.71-10.66,24.27-14.71,11.26-5.34,22.76-10.19,34-15.58q33.8-16.15,67.37-32.74c1.74-.86,3-2.72,4.44-4.12Z"/><path class="cls-16" d="M986.21,297.78l28.43,15a49.73,49.73,0,0,1-4.14,3.13Q952,349.68,893.38,383.46c-1.85,1.07-3.59,2.36-5.38,3.54H836c4.18-3.05,8.12-6.49,12.57-9.07,14-8.17,28.3-15.92,42.39-24,20.87-12,41.64-24.08,62.48-36.09,10.19-5.88,20.46-11.64,30.64-17.54C985,299.78,985.51,298.64,986.21,297.78Z"/><path class="cls-2" d="M575,0c4.84,3.26,9.53,6.79,14.56,9.73C603.72,18,618.1,25.88,632.23,34.2c6.71,3.95,8.39,10.86,8.71,18,.27,5.82,0,11.66.09,17.49.11,5.33,2.3,7.88,7.33,8.22,12.29.82,23.12,5.78,33.58,11.67,11.72,6.6,23.23,13.55,34.89,20.26,4.73,2.72,7.54,1.29,9.07-4.1,2.41-8.46,6-16.14,13.77-21.2,6.5-4.25,13.35-6,21.16-4.71,7.17,1.18,14.53,1.23,21.66,2.55,13.09,2.42,23,14.94,23.66,29.31.7,16.35,2.49,32.66,3.9,49,.32,3.7,5.85,7.42,9.31,6.08,1.22-.48,2.45-2.6,2.52-4,.29-5.48.07-11,.13-16.48.09-8.53,7.33-16.77,15.75-17,3.09-.11,6.54,1.34,9.33,2.94,11.24,6.43,22.22,13.3,33.42,19.8,6.71,3.89,13.65,7.38,20.49,11.05,4.4,2.63,8.67,5.51,13.22,7.84,10.26,5.27,15.76,15.58,14.82,27.06a213.1,213.1,0,0,0-.8,26.85c.15,3.29,2.19,7.88,4.83,9.47,22,13.34,44.27,26.17,66.54,39,14.95,8.64,30.06,17,45,25.62,6.61,3.8,13.41,7.41,19.5,11.95,11.91,8.88,11.91,22.11,11.66,35.25,0,2.42.11,4.84,0,7.26-.24,9.37-.73,18.66-8.33,25.64-2.88,2.64-5.69,5.35-8.53,8h-8l2-2.9c.3-.05.59-.11.89-.18,11.34-5,18-13.85,17.22-24.14a245.47,245.47,0,0,1-.11-25.45c.33-10-4.24-17.58-12.13-22.5-15.42-9.59-31.37-18.33-47.1-27.4q-35.55-20.51-71.1-41c-5.72-3.28-11.54-6.37-17.32-9.55-.14-14.12-.48-28.24-.31-42.35.08-6.83-2.91-11.41-8.49-14.62-22.86-13.18-45.87-26.11-68.57-39.58-5.41-3.21-9.93-4-15-.29-4.75,1.58-4.47,5-3.24,8.79q-.12,15.06-.23,30.12c-9-1.57-16.21-6.46-22.93-12.29,0-3.16.34-6.33.12-9.47-1.07-15.21-1.9-30.45-3.54-45.6-1.54-14.25-17.72-25.75-31.86-23.34a7.32,7.32,0,0,0-2.09,1.15l-2.44-.08c-3.7-.89-7.61-3-11.07-2.46-14.47,2.41-23.25,13.23-24.58,29.07l-7.29,3.12a13.58,13.58,0,0,1-3.32-.84c-11.28-6.3-22.9-12.09-33.67-19.17-14.68-9.66-30.42-14.88-47.93-14.94-.3-2.79-.83-5.57-.88-8.37-.13-7.31,0-14.62-.07-21.93-.06-5.53-2.27-10-7.13-12.86-14.71-8.58-29.5-17-44.17-25.66C578,8.37,571.56,4.11,565,0Z"/><path class="cls-2" d="M922,61c7,12.69,4.75,26.53,5,40.05.14,8.18,2.28,9.54,9.63,5.63,8.65-4.58,17.23-9.29,25.87-13.88A43.8,43.8,0,0,1,967.19,91c.23.53.47,1.05.7,1.58-6.18,3.26-12.42,6.43-18.53,9.81-7,3.84-14,7.57-20.58,12-2.52,1.68-3.89,5.08-5.78,7.7l-11,6c-3.36.17-6.73.2-10.07.56s-6.81,1.56-8.94-2.85a15.7,15.7,0,0,0-4.92-5.56,57.57,57.57,0,0,0-9.11-5.1c-4.59-2.16-9.31-4-14-6-1-1-1.81-2.29-3-3-14.13-8-28.24-16-42.52-23.71a55.6,55.6,0,0,0-13.64-5.12c-1.9-.44-4.35,1.54-6.55,2.42,1,2,1.43,4.49,2.92,5.93,7.78,7.54,10.83,16.75,10.83,27.35a118.79,118.79,0,0,0,1,13.83c.48,4.05,3.19,4.87,6.71,3.06,6.27-3.2,12.8-5.9,19.22-8.81,2.37,1.54,4.67,3.19,7.13,4.58,6.07,3.42,11.89,8,18.43,9.71s12.8,2.24,16.44,8.72c-2,2.27-3.88,1.88-6.5.4-10.32-5.8-20.88-11.19-31.31-16.8-10.05-5.4-25,5.82-25.23,15.92a44.25,44.25,0,0,1-1,8.35c-.3,1.34-1.44,2.49-2.21,3.73-.89-1.27-2.37-2.46-2.58-3.84-.64-4.07-.75-8.23-1.12-12.34q-1.49-16.47-3-32.92C807.65,92.65,793.71,79.18,779.54,78c-7.75-.65-15.48-1.71-23.24-1.89-13.43-.33-22.82,6.66-29.66,17.67A13,13,0,0,0,726,95.1c-5.36,10.55-7.35,10.76-17.49,5-15-8.48-29.13-18.66-45.87-23.78-1.27-.39-2.52-.91-3.81-1.19-11.22-2.45-13.11-4.8-13.39-16a80,80,0,0,0-1.2-12.75c-2.22-11.86-11.71-17-21-22.4C611.71,17.38,600.37,10.47,589,3.55c-1.27-.77-2-2.35-3-3.55h11c.87,1.1,1.53,2.53,2.65,3.24C611.09,10.58,622.48,18,634.12,25,645.47,31.8,649.7,42.11,650,54.67c0,1.83,0,3.66,0,5.5,0,6.5,1.49,8.58,8,10,13.64,2.87,25.11,10.3,36.86,17.17,5.58,3.27,11,6.81,16.68,9.9,6,3.24,7.47,2.63,10.53-3.35,7.51-14.61,19.87-21.37,35.88-21.74,4.75-.11,9.55.82,14.29,1.54s7-1.53,6.74-6.38c-.38-8-6-11.84-11.42-15.91-10.37-7.77-14.81-18.56-15.43-31-.34-6.75.55-13.57.88-20.36h3c0,7,0,14,0,21,.07,11.78,5.13,21,14.3,28.23,5,3.95,10.6,7.34,11.74,14.7,1.75,11.21,6.07,13.65,16.93,10.21,5.49-1.74,10.69-1.74,15.84,1.25q17.65,10.25,35.46,20.25c15.48,8.69,31.11,17.13,46.51,25.95,5.47,3.13,10.84,3.88,16.39,1.16s10.33-5.63,10.06-13.25c-.32-8.76.57-17.56.73-26.35.26-13.67-5-24.59-16.94-31.66-24.7-14.64-49.57-29-74.26-43.66C829.22,5.7,826.24,2.63,823,0h7c4.62,3.3,9,7,13.89,9.85C865.05,22.3,886.54,34.22,907.48,47,913.08,50.44,917.2,56.27,922,61Z"/><path class="cls-17" d="M658,387c-2.25-2-4.24-4.37-6.78-5.81-13.62-7.73-27.48-15-41.05-22.84-14.33-8.24-28.35-17.05-42.67-25.32-15.45-8.93-31.17-17.38-46.63-26.3-14.61-8.44-28.95-17.35-43.55-25.81-14.76-8.55-29.7-16.79-44.54-25.2-8.77-5-17.55-9.93-26.2-15.1-1.95-1.16-3.26-3.34-5.11-4.71a37,37,0,0,0-5.4-2.86c0-1-.05-2-.08-3.05.13-.09.37-.22.35-.28a4,4,0,0,0-.33-.7c-.61-9.68.25-18.79,9.73-24.44,18.23-10.86,36.43-21.77,54.73-32.51,9.87-5.8,19.95-11.22,29.86-16.95,14.78-8.56,29.45-17.31,44.24-25.87,16.93-9.79,34-19.33,50.85-29.25,6.1-3.59,11.73-8,17.58-12l3,6.12c-4.28,2.56-8.53,5.18-12.85,7.68q-80.89,46.67-161.79,93.36c-7.88,4.57-15.83,9.29-22.78,15.1-6.77,5.68-6.66,14.74-.81,21.44a35.05,35.05,0,0,0,8.43,6.89c11.59,6.88,23.36,13.47,35,20.21q70.48,40.69,141,81.43Q632.61,363.61,673,387Z"/><path class="cls-18" d="M673,387q-40.41-23.38-80.82-46.75-70.47-40.74-141-81.43c-11.68-6.74-23.45-13.33-35-20.21a35.05,35.05,0,0,1-8.43-6.89c-5.85-6.7-6-15.76.81-21.44,6.95-5.81,14.9-10.53,22.78-15.1q80.82-46.81,161.79-93.36c4.32-2.5,8.57-5.12,12.85-7.68,1,1.62,2,3.24,3.08,4.85L579.64,115.6C570,121,560.4,126.41,550.82,131.9Q531.56,143,512.36,154.15q-21.17,12.3-42.29,24.68c-10.47,6.16-20.84,12.48-31.31,18.65-7.11,4.19-14.5,7.94-21.43,12.41-8.73,5.61-9,16.81-.33,22.6,9.35,6.24,19.2,11.74,28.89,17.47,10.79,6.37,21.64,12.63,32.46,18.93,15.87,9.23,31.69,18.53,47.61,27.66,15.09,8.65,30.35,17,45.41,25.68,18.06,10.42,35.93,21.17,54,31.59,9.85,5.69,20,10.93,29.88,16.49q11.38,6.39,22.57,13.14c1.3.78,2.14,2.35,3.19,3.55Z"/><path class="cls-5" d="M1059,387c2.84-2.67,5.65-5.38,8.53-8,7.6-7,8.09-16.27,8.33-25.64.06-2.42-.09-4.84,0-7.26.25-13.14.25-26.37-11.66-35.25-6.09-4.54-12.89-8.15-19.5-11.95-15-8.61-30.09-17-45-25.62-22.27-12.85-44.56-25.68-66.54-39-2.64-1.59-4.68-6.18-4.83-9.47a213.1,213.1,0,0,1,.8-26.85c.94-11.48-4.56-21.79-14.82-27.06-4.55-2.33-8.82-5.21-13.22-7.84l6-4c1.05,1.06,1.93,2.43,3.18,3.13,7.9,4.44,15.85,8.77,20.79,16.85q1.49,9.92,3,19.85c.27,1.73.66,3.44,1,5.16a40.51,40.51,0,0,0-1.16,4.93c-.17,1.46.39,3,.1,4.46-2.47,12.31,4.55,18.2,14.35,23.46,18,9.63,35.47,20.18,53.14,30.4,18.66,10.78,37.25,21.69,55.94,32.41,12,6.89,22.16,15.56,22.93,30.35.8,15.25,3.68,30.93-3.68,45.53-2.05,4.07-5.06,7.65-7.63,11.45Z"/><path class="cls-3" d="M791,52.05c0,.3.12.6.2.9-.21,2.64-.58,5.28-.58,7.93a63.07,63.07,0,0,0,.66,6.53c2-.51,4.37-.49,5.92-1.61,6.68-4.8,12.51-3.43,19.16.64,14.25,8.7,29,16.62,43.44,25,10.88,6.28,21.56,12.9,32.5,19,5.41,3,10.72,7.9,17.72,3.56,3.5-1,6-2.81,6.09-6.83.23-8.3.78-16.6.69-24.9C916.65,72.42,913,64,904.19,58.84c-15.73-9.27-31.62-18.27-47.41-27.45Q829.86,15.75,803,0h12c1.76,1.29,3.44,2.72,5.3,3.85,15.59,9.43,31.18,18.87,46.83,28.19,13.42,8,27,15.69,40.37,23.76a25.09,25.09,0,0,1,11,14.27c3.81,11.88,2.58,24,1.85,36.07a17.22,17.22,0,0,1-1.19,5.3c-3.41,8.6-12.45,11.49-22.23,6.44S877.69,107,868.07,101.45c-4-2.31-8.08-4.61-12.1-7-12.76-7.41-25.67-14.58-38.19-22.38-6.32-3.94-12.28-5.61-19.13-2A15.93,15.93,0,0,1,794,71.92c-5.5.9-9.85-2-8.69-6.52,2.28-8.88-2.75-12.47-9.12-16.47-9-5.64-15.93-13.18-16.21-24.68-.2-8.08,0-16.17,0-24.25h4c0,7.29-.08,14.59,0,21.88s2.32,14,8.09,18.47S784.64,48.2,791,52.05Z"/><path class="cls-17" d="M923.4,233.9c5.78,3.18,11.6,6.27,17.32,9.55q35.58,20.44,71.1,41c15.73,9.07,31.68,17.81,47.1,27.4,7.89,4.92,12.46,12.52,12.13,22.5a245.47,245.47,0,0,0,.11,25.45c.75,10.29-5.88,19.17-17.22,24.15,1.5-1.94,2.88-4,4.52-5.77,2.21-2.42,5.07-4.35,6.87-7,4.52-6.73,2.72-14.71,3.57-22.16.17-1.53-1-3.2-1.62-5.22-1.93,1.83-3,3.37-4.55,4.25-18,10.48-36.15,20.8-54.14,31.33-3.74,2.2-7.07,5.09-10.59,7.66H984q18-10.67,36-21.31c11.32-6.67,22.93-12.89,34-20,12-7.74,12.19-20.47,1.07-29.39a31,31,0,0,0-3.69-2.55q-32.83-19-65.7-37.9-31.93-18.43-63.82-36.94Z"/><path class="cls-13" d="M760,0c0,8.08-.19,16.17,0,24.25.28,11.5,7.25,19,16.21,24.68,6.37,4,11.4,7.59,9.12,16.47-1.16,4.55,3.19,7.42,8.69,6.52a15.93,15.93,0,0,0,4.62-1.79c6.85-3.62,12.81-1.95,19.13,2,12.52,7.8,25.43,15,38.19,22.38,4,2.34,8.06,4.64,12.1,7,9.62,5.51,19.07,11.35,28.91,16.43s18.82,2.16,22.23-6.44a17.22,17.22,0,0,0,1.19-5.3c.73-12.08,2-24.19-1.85-36.07a25.09,25.09,0,0,0-11-14.27C894.13,47.73,880.55,40,867.13,32c-15.65-9.32-31.24-18.76-46.83-28.19C818.44,2.72,816.76,1.29,815,0h8c3.24,2.63,6.22,5.7,9.77,7.81,24.69,14.65,49.56,29,74.26,43.66,11.91,7.07,17.2,18,16.94,31.66-.16,8.79-1.05,17.59-.73,26.35.27,7.62-4.62,10.58-10.06,13.25s-10.92,2-16.39-1.16c-15.4-8.82-31-17.26-46.51-25.95q-17.81-10-35.46-20.25c-5.15-3-10.35-3-15.84-1.25-10.86,3.44-15.18,1-16.93-10.21-1.14-7.36-6.74-10.75-11.74-14.7C761.14,42,756.08,32.76,756,21c0-7,0-14,0-21Z"/><path class="cls-18" d="M921.8,238.89q31.91,18.48,63.82,36.94,32.83,19,65.7,37.9a31,31,0,0,1,3.69,2.55c11.12,8.92,10.92,21.65-1.07,29.39-11,7.13-22.64,13.35-34,20q-18,10.6-36,21.31h-8c4-2.95,7.88-6.24,12.15-8.8,14.71-8.85,29.56-17.47,44.39-26.12,3.71-2.16,7.68-3.89,11.27-6.22,5.94-3.85,12.84-7.29,12.13-16.05-.39-4.74-2.22-8.46-7-11.15-16.29-9.23-32.19-19.15-48.37-28.58-12.47-7.28-25.18-14.14-37.71-21.32-13.22-7.56-26.37-15.25-39.51-22.95-2.62-1.54-5.08-3.35-7.61-5Z"/><path class="cls-14" d="M998,387c3.52-2.57,6.85-5.46,10.59-7.66,18-10.53,36.11-20.85,54.14-31.33,1.5-.88,2.62-2.42,4.55-4.25.66,2,1.79,3.69,1.62,5.22-.85,7.45.95,15.43-3.57,22.16-1.8,2.67-4.66,4.6-6.87,7-1.64,1.8-3,3.83-4.52,5.77l-.89.17-4,2.9Z"/><path class="cls-13" d="M413,191c4.13-2.87,8.07-6.07,12.43-8.53,14-7.93,28.19-15.56,42.28-23.35,14.82-8.2,29.67-16.37,44.42-24.71Q548.13,114,584,93.47A23.28,23.28,0,0,0,587,91h0c1.33-1.73,4.13-4.13,3.71-5.06C589.52,83.3,587,81.27,585,79h-1l-7-5h-1c-1-1-1.81-2.28-3-3-12.78-7.31-25.49-14.77-38.48-21.7-10.49-5.6-18.54-12.93-20.26-25.23C513.17,16.13,512.74,8,512,0h5c-.31,2.78-1,5.58-.85,8.32a93.1,93.1,0,0,0,2,15.65c.93,3.84,3.17,7.36,4.83,11,.33.34.66.67,1,1,.71,1,1.2,2.42,2.17,3q12.21,7.54,24.58,14.85c13.71,8.09,27.61,15.87,41.18,24.2,8.1,5,8.15,11,.45,15.65-11.93,7.16-24,14.09-36.06,21q-20.3,11.58-40.72,22.91c-8.82,4.9-17.74,9.6-26.61,14.39a32.43,32.43,0,0,0-5.12,1.61c-4.58,2.31-9.09,4.77-13.58,7.25-14.91,8.24-29.75,16.61-44.73,24.72C421.58,187.76,417.2,189.21,413,191Z"/><path class="cls-5" d="M470,317l8.12-4.11q17.73,10.09,35.45,20.2c19.9,11.36,39.86,22.63,59.69,34.13,11,6.4,21.85,13.2,32.76,19.82H588c-5.07-3.54-9.94-7.45-15.26-10.55C552.45,364.61,532,353,511.64,341.37c-12.11-6.92-24.25-13.8-36.35-20.75C473.44,319.55,471.75,318.19,470,317Z"/><path class="cls-2" d="M224,387c15.25-5.35,30.45-10.86,45.78-16,8-2.67,16.14-4.68,24.22-7,2.07,3.93,5.64,2.08,8.27,1.56,4.37-.86,5.09.62,4.29,4.37-.26,1.22-.59,3,0,3.74,3.41,4.05,2.16,8.79,2.41,13.32Z"/><path class="cls-19" d="M803,0q26.88,15.71,53.78,31.39c15.79,9.18,31.68,18.18,47.41,27.45C913,64,916.65,72.42,916.76,82.29c.09,8.3-.46,16.6-.69,24.9-.11,4-2.59,5.86-6.09,6.83l.93-2.93c-.22-10.6-.19-21.22-.74-31.81-.5-9.65-7-15.15-14.77-19.58-8.14-4.64-16.2-9.42-24.31-14.12-2.28-1.32-4.61-2.53-6.9-3.83-17.91-10.18-35.85-20.28-53.69-30.59C804.52,7.7,798.83,3.74,793,0Z"/><path class="cls-16" d="M565,0c6.56,4.11,13,8.37,19.69,12.3,14.67,8.64,29.46,17.08,44.17,25.66,4.86,2.84,7.07,7.33,7.13,12.86.07,7.31-.06,14.62.07,21.93.05,2.8.58,5.58.88,8.37,0,1.6,0,3.2,0,4.8l-1.53,4L630,92c0-9-1-18.11.35-26.88,1.94-12.81-2-21.1-13.65-27-12.49-6.32-24.28-14-36.45-21C571.21,12,562,7.05,552.93,2L550,0Z"/><path class="cls-16" d="M606,387c-10.91-6.62-21.72-13.42-32.76-19.82-19.83-11.5-39.79-22.77-59.69-34.13q-17.71-10.11-35.45-20.2l-4.86-2c-7.77-4.91-15.55-9.79-23.29-14.75-5-3.23-10-6.58-15-9.88.68-.19,1.57-.76,2-.51,5.43,3.05,10.76,6.28,16.18,9.35,14.47,8.15,29,16.18,43.43,24.41,5,2.85,9.61,6.41,14.68,9.14,3.22,1.74,7.24,2.06,10.4,3.89,7.74,4.47,15.09,9.59,22.78,14.15,5.11,3,10.59,5.41,15.77,8.31,3.92,2.19,7.63,4.75,11.45,7.12,6.65,4.12,13.38,8.11,19.94,12.35,6,3.88,13.38,5.94,17.39,12.59Z"/><path class="cls-20" d="M903,387c11.75-6.74,22.42-16.33,37.6-13.95,7.39,1.16,17.12,4.76,16.4,13.95Z"/><path class="cls-7" d="M780,0c11.83,7,23.68,14,35.46,21a21,21,0,0,1,5.65,4.59c.81,1,.33,3,.43,4.62-1.52-.12-3.32.26-4.52-.42C808.48,25,800.07,20,791.61,15.13c-4-2.34-8.4-4.19-12-7.06-2.46-2-3.8-5.33-5.64-8.07Z"/><path class="cls-13" d="M228,8q-29.9,6.21-59.8,12.4a2.89,2.89,0,0,1-2.74-.94c7.44-1.81,14.9-3.55,22.32-5.44q23.86-6.1,47.68-12.36A21.85,21.85,0,0,0,239,0h20c-7.28,2-14.54,4-21.84,5.93C234.14,6.73,231.06,7.32,228,8Z"/><path class="cls-5" d="M512,0c.74,8,1.17,16.13,2.28,24.12,1.72,12.3,9.77,19.63,20.26,25.23,13,6.93,25.7,14.39,38.48,21.7,1.17.67,2,2,3,3-8.64-4.52-17.33-8.94-25.9-13.58-7-3.77-13.81-7.84-20.74-11.72C519.13,43,512.94,34.58,512,22.66c-.61-7.56-1.32-15.11-2-22.66Z"/><path class="cls-21" d="M791,52.05c-6.32-3.85-13-7.22-18.85-11.7s-8-11.2-8.09-18.47S764,7.29,764,0h3c0,5.66.15,11.33,0,17-.43,13.4,6.88,21.67,17.7,28C787.25,46.54,788.89,49.66,791,52.05Z"/><path class="cls-5" d="M523,35c-1.66-3.66-3.9-7.18-4.83-11a93.1,93.1,0,0,1-2-15.65c-.18-2.74.54-5.54.85-8.32h3c.06.78.13,1.57.19,2.35a.6.6,0,0,1-.37.64c-.5,1.82-1.66,3.73-1.4,5.43C519.75,17.31,521.44,26.14,523,35Z"/><path class="cls-13" d="M0,45l29.27-1.69.14,1.18L10,47,0,48Z"/><path class="cls-9" d="M550,0l2.93,2L554,8.86l-1.35.21C550.29.56,547.37-.68,540.28,4c-2.43,1.61-4.65,3.53-7,5.31a4.93,4.93,0,0,1-.42-.49L541,0Z"/><path class="cls-22" d="M541,0l-8.1,8.82Q531.46,4.41,530,0Z"/><path class="cls-9" d="M530,0q1.46,4.41,2.9,8.82a4.93,4.93,0,0,0,.42.49c-1-.12-2.6.13-2.94-.41a82.34,82.34,0,0,1-3.86-7.4c.18-.18.36-.37.53-.57L528,0Z"/><path class="cls-9" d="M520.19,2.35c-.06-.78-.13-1.57-.19-2.35h7c0,.31,0,.62,0,.93-.17.2-.35.39-.53.57Z"/><path class="cls-17" d="M1049,387l4-2.9-2,2.9Z"/><path class="cls-22" d="M527.05.93c0-.31,0-.62,0-.93h1Z"/><path class="cls-5" d="M585,79c2,2.27,4.52,4.3,5.71,6.94.42.93-2.38,3.33-3.71,5.06C590.24,86.35,587,82.78,585,79Z"/><path class="cls-5" d="M577,74l7,5Z"/><path class="cls-6" d="M413,191c4.2-1.79,8.58-3.24,12.57-5.41,15-8.11,29.82-16.48,44.73-24.72,4.49-2.48,9-4.94,13.58-7.25A32.43,32.43,0,0,1,489,152a68.88,68.88,0,0,1-5.88,4.24c-18.21,10.56-36.49,21-54.69,31.59-7.87,4.57-15.75,9.17-23.32,14.2-6.76,4.49-11.6,10.81-12,19.16-.48,10.46-.25,21-.07,31.44.14,8.24,8.09,18.83,14.94,20.37,3.65,2.81,7.12,5.9,11,8.37,6.88,4.41,14,8.44,21,12.63-1,2.66-.84,4.76,1.42,7.09,4.18,4.33,2.95,7.36-3.33,8.88-14,3.39-28.06,6.51-42,10q-39.48,10-78.88,20.41c-24.82,6.51-49.58,13.29-74.42,19.74-16.35,4.24-32.79,8.12-49.21,12.05-1.42.34-3-.13-4.56-.23,7.95-3.28,15.79-6.85,23.87-9.77,22-8,44-16.23,66.31-23.24,27.37-8.59,55-16.37,82.72-23.87,22.86-6.18,46-11.43,69-17.11,1.58-.39,3.13-.94,6.12-1.84-2.4-1.46-3.72-2.93-5.12-3-6.74-.32-12.58-1.67-17.14-7.56a17.13,17.13,0,0,0-9.65-5.82c-11.25-2.09-15.76-10.42-17.89-19.71-1.93-8.42-1.85-17.39-1.85-26.13,0-5.72,1.26-11.47,2.29-17.15,1.59-8.77,7.71-14.37,14.22-19.69,1.66-1.36,2.78-3.39,4.15-5.11Z"/><path class="cls-23" d="M798,268.12c2.47,6.12,7,10.29,12.31,14.05,7.3,5.2,14.74,10.4,21.12,16.62a16.88,16.88,0,0,1,4.35,12.09c-1.13,12.74-3.41,25.39-5.49,38a8,8,0,0,1-3,4.41c-6.59,5-13,10.54-20.14,14.54-21,11.66-43.36,16.79-67.39,12a45.23,45.23,0,0,1-23.63-12.16c-5.4-5.34-8.3-11.64-9.77-19.16-3.22-16.58-4.35-33,.5-49.41,2.44-11.54,5.74-22.61,16.19-29.8l15-6.37a33.14,33.14,0,0,0,.83,5.32c.77,2.36,1.92,4.59,2.9,6.88-2.16,5.38-4.38,10.74-6.49,16.14-5.84,14.94-10.38,30.13-8.58,46.49l1.2,6.55a57.11,57.11,0,0,0,5.24,26.34c2-3.85,3-7.91,4.65-11.68,3.9-8.89,8.11-17.64,12.2-26.45l4.22-7.12,7.32-11.15,24.84-32.12c4.43-3.69,8.15-7.73,7.17-14.16C795.14,264.17,796.53,267.58,798,268.12Z"/><path class="cls-16" d="M465.6,244.36l-32.28-18.12a43.7,43.7,0,0,1,3.65-2.76q56-32.29,112-64.56,33.09-19.06,66.14-38.18c1.83-1.07,3.12-3.06,4.67-4.62L621,116l.42.2L621,116c-1-8.16-2-16.33-3.2-25.55L626,94.08c.78,6,1.57,11.92,2.47,18.77,5.86-3.28,10.68-6.13,15.64-8.68,1.47-.75,3.82-1.51,5-.86,9.76,5.55,19.33,11.42,29,17.2-.78,1.19-1.55,2.39-2.32,3.58-13.3-2.7-25.67-.85-36.71,7.53a66.47,66.47,0,0,1-7.6,5.55c-7.43,4.1-9,6.68-8.24,15-2.12,1.76-4,3.88-6.4,5.23-24.72,14.22-49.55,28.25-74.27,42.47-24,13.79-47.84,27.76-71.77,41.64C469.07,242.47,467.33,243.4,465.6,244.36Z"/><path class="cls-24" d="M678,311.92c-12.93,5.47-26.54,6.39-40.16,4.61a72.7,72.7,0,0,1-22.76-6.48c-13.79-6.88-17.79-19.77-20.33-34.35-3-17.11.61-32.89,4.34-49.14,3.67-15.94,14.65-23.3,28.91-27.71q1.72,6.66,3.46,13.31c-4.14,11.22-8.68,22.31-12.27,33.69a62.43,62.43,0,0,0-2.1,31c.26,4.42.33,8.87.86,13.26.33,2.65,1.48,5.19,2.07,7.83.36,1.59.06,3.38.61,4.88.43,1.16,1.71,2,2.61,3a19.77,19.77,0,0,0,1.93-3c2.68-6.46,5.24-13,7.9-19.43,2-4.95,4.15-9.86,6.24-14.79A1.28,1.28,0,0,0,640,268v0c3.61-5.35,7-10.84,10.86-16,8.52-11.46,17.22-22.8,25.93-34.12,2-2.63,5.28-4.65,6.38-7.55s.25-6.59.25-11.64c2.34,2.77,4.35,4.39,5.37,6.49,2.76,5.72,6.56,10.27,12.42,12.92l14.11,9.9c.25.65.49,1.31.74,2-1.58.45-3.27,1.5-4.74,1.25-11.08-1.87-22,5.75-23.36,16.17-.93,7.31-2.4,14.54-3.52,21.82Q681.16,290.53,678,311.92Z"/><path class="cls-25" d="M921.8,238.89l-6,1.88c-3.07,1.63-5.72,1.19-8.77-.67-10.31-6.26-20.89-12.08-31.25-18.27-4.54-2.71-9-4.68-14.37-2.78-2.45.87-5.05,1.33-7.59,2l-16.62,2,4.82-8.43,6.6-8.27c-4.38-2.63-7.62-5-11.19-6.65-6.47-3-10.36-7.45-10-14.89l.15-8.78q.12-15.06.23-30.12c1.08-2.92,2.16-5.86,3.24-8.79,5.09-3.73,9.61-2.92,15,.29,22.7,13.47,45.71,26.4,68.57,39.58,5.58,3.21,8.57,7.79,8.49,14.62-.17,14.11.17,28.23.31,42.35ZM857,195.72l2.37,1.23c-.06.69-.11,1.37-.16,2.06.5,1.53.54,3.82,1.59,4.47,7.69,4.75,15.55,9.22,23.42,13.66,2.23,1.25,3.48.54,3-2.22-.14-1-.16-1.94-.24-2.9l-1.38-4-2.54-1.22-4-2.23-2.07-.71-1,1.1c-1.4,3.54-2.76.68-4.13,0a1.33,1.33,0,0,0,.17-.73c3.68-2.34.13-3.77-1-4.5-4.78-3.12-9.8-5.88-14.78-8.68-2.11-1.19-4.34-2.16-6.52-3.23-.44.79-.89,1.58-1.34,2.37l7.69,4.83Zm25.34,3.39c5.42-6.71-1.4-10.08-3.8-15l-4.8,2.49C872.58,193.8,876,197.42,882.33,199.11Zm-33.28-19.55c4-6.16,4-6.16-3.67-13.7l-4.76,1.61C840.19,173.83,841.55,178.77,849.05,179.56Zm41.13,14.89c-.64,8.11,2.07,12.72,8.73,14.25l2.51-6c-1.56-2.3-2.65-5-4.62-6.47C895.12,194.93,892.42,195,890.18,194.45Zm-33-16.82c1.67,9.2,1.67,9.2,9.1,11.77l2.43-5.66c-2.21-2.94-4.34-5.79-6.48-8.65Z"/><path class="cls-21" d="M631.43,212.16q-1.73-6.66-3.46-13.31c-.65-9.83-1.61-19.64-1.81-29.47-.1-5,1.14-10.09,1.78-15.14,5.4-.72,11.15-2.93,16.11-1.77A20.9,20.9,0,0,0,658.82,151c5.21-2.46,13.16,1.6,13.8,7.42.62,5.65.13,11.42.13,18.57,2.7-.85,5.61-1,6-2,1.43-4.18,4.62-4.75,8.15-5.13,1.75,5.51.29,10.5-3.12,14.77-3.7,4.6-6.85,9.14-5.05,15.43l-4.28-9.76c-2,2.64-3.74,4.89-5.4,7.22-4.15,5.82-9.23,10.21-16.18,12.65-2.93,1-5.25,3.83-7.85,5.83Z"/><path class="cls-26" d="M678,311.92q3.22-21.37,6.47-42.75c1.12-7.28,2.59-14.51,3.52-21.82,1.32-10.42,12.28-18,23.36-16.17,1.47.25,3.16-.8,4.74-1.25,9.88,5.72,11.41,14.44,9.18,24.73-1,4.82-1.5,9.76-2.22,14.65-10.45,7.19-13.75,18.26-16.19,29.8-2.19,1-4.37,2.09-6.59,3.07Q689.13,307.07,678,311.92Z"/><path class="cls-27" d="M686.85,169.9c-3.53.38-6.72.95-8.15,5.13-.34,1-3.25,1.15-6,2,0-7.15.49-12.92-.13-18.57-.64-5.82-8.59-9.88-13.8-7.42a20.9,20.9,0,0,1-14.77,1.43c-5-1.16-10.71,1.05-16.11,1.77l-4.73-2.08c-.74-8.31.81-10.89,8.24-15a66.47,66.47,0,0,0,7.6-5.55c11-8.38,23.41-10.23,36.71-7.53,7.14,3.21,13.4,8,14.54,15.87C691.75,150,692.93,160.5,686.85,169.9Z"/><path class="cls-28" d="M823,203.78c-.33,14.39-.58,28.79-1,43.18-.39,12.09-9.39,20.79-20.11,19.73-.54-.52-1-1.38-1.64-1.51-8.76-1.84-10.36-3.93-9.21-12.28.16-.38.31-.76.47-1.13l1.42-1.27a18,18,0,0,0,1.85-3.83c.85-3.78,1.44-7.61,2.13-11.43,2.55-5.87,5.09-11.7,4.19-18.43-.39-2.91.43-6-.22-8.85-.73-3.11-2.51-6-3.83-9,3.87-6.68,8.94-11.46,17.33-11.12.55,0,1.11-.58,1.67-.9.93,1,2.28,1.95,2.71,3.17C820.3,194.64,821.59,199.23,823,203.78Z"/><path class="cls-12" d="M823,203.78c-1.4-4.55-2.69-9.14-4.28-13.62-.43-1.22-1.78-2.12-2.71-3.17-.65-1.33-1.31-2.67-2-4l11.55,5.89.59-4,1.21-.11c-.37,7.45,3.52,11.91,10,14.9,3.57,1.66,6.81,4,11.19,6.65l-6.6,8.27Z"/><path class="cls-20" d="M791,252.9c-1.15,8.35.45,10.44,9.21,12.28.63.13,1.1,1,1.64,1.51L798,268.12c-1.48-.54-2.87-3.95-4.49-.14l-5.45-4.43c.09-3.12.19-6.24.28-9.37Z"/><path class="cls-13" d="M59.35,40.75,48.81,42l-.17-1.57,10.61-1.33Z"/><path class="cls-13" d="M32.7,42.52h4.63v1H32.69Z"/><path class="cls-13" d="M41.62,41.45h3.74l0,1.23-3.74-.18Z"/><ellipse class="cls-13" cx="70.96" cy="38.01" rx="1.98" ry="0.64"/><path class="cls-13" d="M65.42,39.53H62.63l-.07-1,2.81-.26Z"/><path class="cls-13" d="M161.64,20l.84,1.14c-.36.24-.74.68-1.08.65s-.6-.54-.9-.84Z"/><path class="cls-13" d="M156.41,22.26c.12-.27.18-.67.37-.75s.51.19.77.31c-.12.26-.18.67-.36.74S156.68,22.37,156.41,22.26Z"/><path class="cls-22" d="M621,116l-1.17.1L609.05,99c-1-1.61-2-3.23-3.08-4.85L603,88c-.3-6.2-4.66-9.76-9-12.91-5.46-3.92-11.36-7.23-17.12-10.73-6.22-3.77-12.43-7.58-18.78-11.13-5.25-2.94-10.7-5.52-16.06-8.25l-5-8.39c1.21-2.76,2.41-4.67,2.88-6.75C541.41,23.32,543.76,17.44,550,14c12.67,7.67,25.58,14.91,39.4,21.85,1.11-4.87-1-7.61-3.48-9.07-10.5-6.21-21.26-12-31.93-17.91L552.93,2c9.11,5,18.28,10,27.31,15.13,12.17,7,24,14.64,36.45,21,11.65,5.91,15.59,14.2,13.65,27C629,73.89,630,83,630,92l-4,2.08-8.22-3.65C619,99.65,620,107.82,621,116ZM603.71,58.08c.35-2.52,1.27-4.53.64-5.73a12,12,0,0,0-4.59-4.41q-14.87-8.53-30-16.68c-1.21-.65-2.93-.34-4.42-.48.12,1.59-.13,3.34.49,4.71a7.62,7.62,0,0,0,3.13,3q12.64,7.44,25.41,14.72C597,54.64,599.64,55.94,603.71,58.08ZM552.65,35c-2.66,3.23-2,5.87.58,7.67,4.56,3.2,9.36,6.08,14.2,8.85.88.5,3,.27,3.51-.4.68-1,1-3.07.34-3.93a18.69,18.69,0,0,0-5.27-5C561.81,39.56,557.36,37.44,552.65,35Zm43.64-1.53-1.68,1.42c.87,2,1.25,4.49,2.71,5.81a47.16,47.16,0,0,0,9.4,6.38c1.59.85,3.77.6,5.68.85-.54-2.2-.36-5.42-1.75-6.4C606.17,38.35,601.12,36,596.29,33.42ZM586,58c-.12-4.28-4.15-8.64-7.44-8.49-.86,0-2.26,1.75-2.34,2.77-.23,3,4.44,7.78,7.37,7.52C584.57,59.74,585.48,58.42,586,58Z"/><path class="cls-18" d="M574.78,136.68c-5.5,3.25-10.4,6.17-15.33,9Q535,159.87,510.54,174a126.52,126.52,0,0,1-12,6.16,13.17,13.17,0,0,1-5.81.76,3.27,3.27,0,0,1-2.42-1.93,3.38,3.38,0,0,1,1.42-2.76c9.14-5.36,18.37-10.57,27.56-15.84q17.41-10,34.81-20c3.73-2.14,7.4-4.39,11.18-6.44C568.5,132.17,571.33,132.88,574.78,136.68Z"/><path class="cls-1" d="M882,144c-3.64-6.48-10-7-16.44-8.72s-12.36-6.29-18.43-9.71c-2.46-1.39-4.76-3-7.13-4.58,3-1.36,5.92-2.69,8.85-4.1,5.4-2.61,10.77-5.26,16.15-7.9,4.66,2,9.38,3.89,14,6a57.57,57.57,0,0,1,9.11,5.1,15.7,15.7,0,0,1,4.92,5.56c2.13,4.41,5.49,3.23,8.94,2.85s6.71-.39,10.07-.56c-6.25,3.63-12.43,7.37-18.77,10.83C889.62,140.8,885.76,142.3,882,144Z"/><path class="cls-5" d="M542,45c5.36,2.73,10.81,5.31,16.06,8.25,6.35,3.55,12.56,7.36,18.78,11.13,5.76,3.5,11.66,6.81,17.12,10.73,4.38,3.15,8.74,6.71,9,12.91-5.85,4-11.48,8.39-17.58,12-16.85,9.92-33.92,19.46-50.85,29.25-14.79,8.56-29.46,17.31-44.24,25.87-9.91,5.73-20,11.15-29.86,16.95-18.3,10.74-36.5,21.65-54.73,32.51-9.48,5.65-10.34,14.76-9.73,24.44,0,.33,0,.65,0,1,0,1,.06,2,.08,3.05q0,9,.08,17.9c1,4.23,1.25,8.86,3.25,12.55s5.71,6.31,8.68,9.4L408,273c-6.85-1.54-14.8-12.13-14.94-20.37-.18-10.48-.41-21,.07-31.44.39-8.35,5.23-14.67,12-19.16,7.57-5,15.45-9.63,23.32-14.2,18.2-10.59,36.48-21,54.69-31.59A68.88,68.88,0,0,0,489,152c8.87-4.79,17.79-9.49,26.61-14.39q20.42-11.34,40.72-22.91c12.08-6.9,24.13-13.83,36.06-21,7.7-4.62,7.65-10.67-.45-15.65-13.57-8.33-27.47-16.11-41.18-24.2Q538.39,46.58,526.18,39c-1-.61-1.46-2-2.17-3,1.46.63,3,1.17,4.38,1.9C533,40.22,537.46,42.62,542,45Z"/><path class="cls-5" d="M440,294c-7-4.19-14.14-8.22-21-12.63-3.87-2.47-7.34-5.56-11-8.37l.09-.11L415,275l4.06,2.81L434,286l1,.18c5,3.3,9.95,6.65,15,9.88,7.74,5,15.52,9.84,23.29,14.75-4.86-2.25-9.81-4.34-14.58-6.77C452.37,300.85,446.21,297.37,440,294Z"/><path class="cls-16" d="M415,275l-6.89-2.13c-3-3.09-6.71-5.77-8.68-9.4s-2.24-8.32-3.25-12.55c.53.35,1.48.65,1.52,1,.85,10.08,7.89,15.26,15.57,20C414.11,272.56,414.41,274,415,275Z"/><path class="cls-16" d="M434,286l-15-8.18c2.05.44,4.4.4,6.09,1.43A98.61,98.61,0,0,1,434,286Z"/><path class="cls-7" d="M885.12,77.05c-.31,5.09-2.14,5.06-4.75,3.55Q867,72.82,853.63,65.09q-18.76-10.83-37.55-21.63c-1-.57-2.41-1.07-2.79-2a40.88,40.88,0,0,1-1.69-6.28c1.95.25,4.22-.07,5.8.83q31.15,17.77,62.11,35.9C881.9,73.34,883.71,75.74,885.12,77.05Z"/><path class="cls-21" d="M910.91,111.09,910,114c-7,4.34-12.31-.53-17.72-3.56-10.94-6.15-21.62-12.77-32.5-19-14.46-8.35-29.19-16.27-43.44-25-6.65-4.07-12.48-5.44-19.16-.64-1.55,1.12-3.92,1.1-5.92,1.61a63.07,63.07,0,0,1-.66-6.53c0-2.65.37-5.29.58-7.93.94,1.57,2.59,3.1,2.68,4.72.22,4,2.46,5.43,5.52,3.93,8.44-4.13,14.86.59,21.73,4.06,6.51,3.3,13.23,6.18,19.69,9.56,3,1.59,5.56,4.15,8.54,5.89,7.77,4.55,15.7,8.85,23.51,13.35,8.08,4.65,15.86,9.89,24.22,13.94C901.14,110.39,906.26,110.26,910.91,111.09Z"/><path class="cls-7" d="M805,31.32c-.2,4.6-2.53,4-4.78,2.78-7.38-4.12-14.72-8.31-22-12.66a7.1,7.1,0,0,1-2.37-3.6c-.34-.91-.33-2.52.24-3.06a3.37,3.37,0,0,1,3.14-.4c7.81,4.38,15.58,8.84,23.23,13.49C803.79,28.63,804.42,30.42,805,31.32Z"/><path class="cls-7" d="M855.13,51.44c-8.85-5.13-17.43-9.83-25.64-15.11-1.49-.95-1.46-4.26-2.12-6.48,1.76.31,3.73.22,5.24,1,6.19,3.24,12.28,6.65,18.31,10.16C855.82,43.88,857,46.45,855.13,51.44Z"/><path class="cls-29" d="M764.8,86.34l2.43.08c4.83.9,9.71,1.62,14.49,2.76,7.07,1.68,15.76,10,16.23,15.3C799,116.3,799.9,128.14,801,140c.76,8,1.79,16,2.7,24q-.76,3-1.51,6L800.74,173c-1.44.79-3.12,1.32-4.29,2.4-5.17,4.74-11.36,5.91-18.06,5.57-4.12-1.83-3.66-5.44-3.5-8.95.29-6.11,1.2-12.34-3.3-17.55a43.91,43.91,0,0,1-2-22.86c2.26-11.95-5.62-23.57-17.11-27.31a5.61,5.61,0,0,1-2.06-1.06c-3.8-3.57-8.77-3.69-12.49.1-1.94,2-3.37,4.47-5,6.72a8.12,8.12,0,0,1-.86-2.71c.55-10.89,16.26-22.9,27-20.87C760.93,86.85,762.9,86.41,764.8,86.34Z"/><path class="cls-17" d="M637,85.92c0-1.6,0-3.2,0-4.8,17.51.06,33.25,5.28,47.93,14.94,10.77,7.08,22.39,12.87,33.67,19.17a13.58,13.58,0,0,0,3.32.84l9,5.05c-.3,2.29-.61,4.59-.92,6.88-18-10.26-36.13-20.38-54-30.84-10.46-6.11-21-11.36-33.64-10.38C640.55,86.92,638.75,86.23,637,85.92Z"/><path class="cls-20" d="M803.72,164c-.91-8-1.94-16-2.7-24-1.12-11.82-2-23.66-3.07-35.48-.47-5.33-9.16-13.62-16.23-15.3-4.78-1.14-9.66-1.86-14.49-2.76a7.5,7.5,0,0,1,2.1-1.15c14.14-2.41,30.32,9.09,31.86,23.34,1.64,15.15,2.47,30.39,3.54,45.6.22,3.14-.07,6.31-.12,9.47A3.4,3.4,0,0,1,803.72,164Z"/><path class="cls-17" d="M803.72,164a3.4,3.4,0,0,0,.89-.27c6.72,5.83,13.94,10.72,22.93,12.29l-.15,8.78-1.21.1a52.16,52.16,0,0,0-5-3.91c-6.27-3.75-12.62-7.36-18.94-11Q803,166.94,803.72,164Z"/><path class="cls-20" d="M764.8,86.34c-1.9.07-3.87.51-5.7.17-10.74-2-26.45,10-27,20.87a8.12,8.12,0,0,0,.86,2.71L730.9,118c-.58-1.68-1.17-3.36-1.75-5,1.33-15.84,10.11-26.66,24.58-29.07C757.19,83.31,761.1,85.45,764.8,86.34Z"/><path class="cls-6" d="M729.15,113c.58,1.69,1.17,3.37,1.75,5l0,3.12-9-5.05Z"/><path class="cls-17" d="M831,137.06c-1.08,2.93-2.16,5.87-3.24,8.79C826.54,142.07,826.26,138.64,831,137.06Z"/><path class="cls-10" d="M865,109c-5.38,2.64-10.75,5.29-16.15,7.9-2.93,1.41-5.9,2.74-8.85,4.1-6.42,2.91-13,5.61-19.22,8.81-3.52,1.81-6.23,1-6.71-3.06a118.79,118.79,0,0,1-1-13.83c0-10.6-3-19.81-10.83-27.35-1.49-1.44-2-3.92-2.92-5.93,2.2-.88,4.65-2.86,6.55-2.42a55.6,55.6,0,0,1,13.64,5.12C833.78,90,847.89,98.06,862,106.05,863.19,106.71,864,108,865,109Z"/><path class="cls-16" d="M396,230c0-.33,0-.65,0-1a4,4,0,0,1,.33.7C396.36,229.78,396.12,229.91,396,230Z"/><path class="cls-9" d="M542,45c-4.54-2.38-9-4.78-13.61-7.11-1.41-.73-2.92-1.27-4.38-1.9-.34-.33-.67-.66-1-1-1.57-8.85-3.26-17.68-4.59-26.57-.26-1.7.9-3.61,1.4-5.43,1.61,6.22,3.15,12.45,4.84,18.64.94,3.47,1.72,7.08,3.36,10.21.77,1.47,3.47,2.72,5.22,2.62,1.38-.07,3.1-2.12,3.88-3.69,2.2-4.43,3.61-9.29,6.13-13.51,1.37-2.3,4.36-3.63,6.62-5.39L550,14c-6.26,3.45-8.61,9.33-10.09,15.87-.47,2.08-1.67,4-2.88,6.75Z"/><path class="cls-12" d="M626,94.08,630,92l5.47-2.06c11.07.17,21.79,1.85,31.53,7.55,14.56,8.52,29.2,16.93,43.63,25.66,6.93,4.19,15.18,6.56,20,13.84q1.15,6.49,2.3,13l-2.69-.07c-6.36-3.62-12.71-7.25-19.08-10.84q-16.51-9.3-33-18.55c-9.63-5.78-19.2-11.65-29-17.2-1.15-.65-3.5.11-5,.86-5,2.55-9.78,5.4-15.64,8.68C627.61,106,626.82,100,626,94.08Z"/><path class="cls-18" d="M730.6,137c-4.8-7.28-13.05-9.65-20-13.84C696.19,114.42,681.55,106,667,97.49c-9.74-5.7-20.46-7.38-31.53-7.55l1.53-4c1.76.31,3.56,1,5.28.86,12.62-1,23.18,4.27,33.64,10.38,17.91,10.46,36,20.58,54.05,30.84C730.17,131,730.39,134,730.6,137Z"/><path class="cls-30" d="M549.87,11.87c-2.26,1.76-5.25,3.09-6.62,5.39-2.52,4.22-3.93,9.08-6.13,13.51-.78,1.57-2.5,3.62-3.88,3.69-1.75.1-4.45-1.15-5.22-2.62-1.64-3.13-2.42-6.74-3.36-10.21C523,15.44,521.43,9.21,519.82,3a.6.6,0,0,0,.37-.64l6.33-.85a82.34,82.34,0,0,0,3.86,7.4c.34.54,1.92.29,2.94.41,2.31-1.78,4.53-3.7,7-5.31,7.09-4.68,10-3.44,12.37,5.07Z"/><path class="cls-4" d="M549.87,11.87l2.78-2.8L554,8.86c10.67,5.93,21.43,11.7,31.93,17.91,2.45,1.46,4.59,4.2,3.48,9.07C575.6,28.9,562.69,21.66,550,14Z"/><path class="cls-21" d="M791,252.9l-2.64,1.28c-2.73-1.65-4.81-.76-6.15,1.83-6.07,11.71-15.51,19-28.31,22l-12.13-2.87c-1-2.29-2.14-4.52-2.91-6.88a33.14,33.14,0,0,1-.83-5.32,51.07,51.07,0,0,0,0-6.19c-.55-4.56-2.2-9.16-1.84-13.62.83-10.15,2.6-20.22,4-30.33a40.54,40.54,0,0,1,6.33-.9c1.8,0,4.44,0,5.26,1.15,4.89,6.63,10.4,5.47,16.68,2.4,6-2.92,13.59,1.36,14.12,7.91.45,5.54.09,11.16.09,17,2.58.82,5.35,1.73,6.72-2.09s4.15-4.21,7.54-3c-.69,3.81-1.28,7.64-2.13,11.42a18.42,18.42,0,0,1-1.84,3.83l-1.43,1.27C791.3,252.14,791.15,252.52,791,252.9Z"/><path class="cls-4" d="M740.12,212.8c-1.39,10.11-3.16,20.18-4,30.33-.36,4.46,1.29,9.06,1.84,13.62a51.07,51.07,0,0,1,0,6.19l-15,6.37c.72-4.89,1.17-9.83,2.22-14.65,2.23-10.29.7-19-9.18-24.73-.25-.65-.49-1.31-.74-2,1.13-5.1,1.25-10.72,3.57-15.21,7.49-14.53,15.8-28.65,23.79-42.93l1.66.15c-2.24,10-2.79,20-.34,30a18.47,18.47,0,0,0-3.91,2.09c-1.85,1.65-4.69,3.58-4.72,5.43S738.41,211,740.12,212.8Z"/><path class="cls-29" d="M750,332.53c-4.09,8.81-8.3,17.56-12.2,26.45-1.65,3.77-2.64,7.83-4.65,11.68a57.11,57.11,0,0,1-5.24-26.34l.21-5.87c.21-1.2.41-2.39.62-3.59l.24-.18-.13-.28a48.72,48.72,0,0,1,1.27-6.75c3.89-11.6,10.29-21.74,18.17-31a32.39,32.39,0,0,0,4.22-7c1.18-2.47,1.35-6,5.31-5.29,3.8.68,3.56,3.79,3.23,6.72l-.27.12,0,.29c-.95,1.47-2.39,2.83-2.77,4.44-1.57,6.67-2.81,13.42-4.18,20.14-1,2.93-2.16,5.82-2.88,8.81A68.31,68.31,0,0,0,750,332.53Z"/><path class="cls-7" d="M728.71,334.86c-.21,1.2-.41,2.39-.62,3.58l-1.41-.67c-1.8-16.36,2.74-31.55,8.58-46.49,2.11-5.4,4.33-10.76,6.49-16.14L753.89,278c2.39,1.38,4.76,3.89,7.17,3.93,11.33.19,19.56-7.21,28.76-12-.7-2.54-1.22-4.45-1.75-6.36l5.45,4.43c1,6.43-2.74,10.47-7.17,14.16l-3-5-1.17,2c-2.07.61-4.12,1.27-6.2,1.8-4.3,1.1-8,2.75-10.13,7.17-.67,1.39-3.14,1.92-4.79,2.85.33-2.93.57-6-3.23-6.72-4-.72-4.13,2.82-5.31,5.29a32.39,32.39,0,0,1-4.22,7c-7.88,9.31-14.28,19.45-18.17,31a48.72,48.72,0,0,0-1.27,6.75l-.33.17Z"/><path class="cls-4" d="M761,291c1.65-.93,4.12-1.46,4.79-2.85,2.14-4.42,5.83-6.07,10.13-7.17,2.08-.53,4.13-1.19,6.2-1.8l1.17-2,3,5-24.84,32.12c-.61-1.59-1.78-3.19-1.75-4.76.13-6,.65-12.06,1-18.09l0-.29Zm1.72,17.46-.34.78c.26.11.58.36.77.29s.24-.48.35-.74Z"/><path class="cls-7" d="M760.78,291.41c-.37,6-.89,12.06-1,18.09,0,1.57,1.14,3.17,1.75,4.76q-3.66,5.57-7.31,11.15a31.31,31.31,0,0,1-.58-3.93c0-1.83.13-3.66.21-5.49,1.37-6.72,2.61-13.47,4.18-20.14C758.39,294.24,759.83,292.88,760.78,291.41Z"/><path class="cls-21" d="M753.83,316c-.08,1.83-.26,3.66-.21,5.49a31.31,31.31,0,0,0,.58,3.93L750,332.53a68.31,68.31,0,0,1,1-7.73C751.67,321.81,752.85,318.92,753.83,316Z"/><path class="cls-26" d="M726.68,337.77l1.41.67-.21,5.88Z"/><path class="cls-4" d="M678.08,120.51q16.51,9.27,33,18.55c6.37,3.59,12.72,7.22,19.08,10.84q-4.11,8.35-8.24,16.72c-5.06,10.23-9.88,20.6-15.28,30.64-3.55,6.6-6.05,13.24-5.48,20.81-5.86-2.65-9.66-7.2-12.42-12.92-1-2.1-3-3.72-5.37-6.49,0,5.05.86,8.72-.25,11.64s-4.36,4.92-6.38,7.55c-8.71,11.32-17.41,22.66-25.93,34.12-3.84,5.18-7.25,10.67-10.86,16,3.54-13.69,7-27.39,10.67-41.05.75-2.8,1.38-5.29-1.9-6.7-3-1.28-4.5.36-5.8,2.93-1.74,3.43-3.78,6.72-5.79,10-4.5,7.33-9.76,14.28-13.38,22-3.19,6.79-4.57,14.42-6.74,21.68a62.43,62.43,0,0,1,2.1-31c3.59-11.38,8.13-22.47,12.27-33.69L645,216a12.68,12.68,0,0,0,12.71,1c5.57-2.4,10.92-5.3,16.37-8l2.3-1.71,1.94-1,1-2.34-.62-3.87c-1.8-6.29,1.35-10.83,5.05-15.43,3.41-4.27,4.87-9.26,3.12-14.77,6.08-9.4,4.9-19.87,3.45-29.94-1.14-7.91-7.4-12.66-14.54-15.87C676.53,122.9,677.3,121.7,678.08,120.51Z"/><path class="cls-22" d="M621,116l.39.24L621,116Z"/><path class="cls-20" d="M701.21,218.07c-.57-7.57,1.93-14.21,5.48-20.81,5.4-10,10.22-20.41,15.28-30.64q4.14-8.35,8.24-16.72l2.69.07c3.26,6.62,2.34,15.3,9.78,19.86-8,14.28-16.3,28.4-23.79,42.93-2.32,4.49-2.44,10.11-3.57,15.21Z"/><path class="cls-14" d="M617.06,276.86c2.17-7.26,3.55-14.89,6.74-21.68,3.62-7.73,8.88-14.68,13.38-22,2-3.28,4.05-6.57,5.79-10,1.3-2.57,2.82-4.21,5.8-2.93,3.28,1.41,2.65,3.9,1.9,6.7C647,240.6,643.54,254.3,640,268v0c-.23.21-.47.4-.71.59-2.09,4.93-4.21,9.84-6.24,14.79-2.66,6.47-5.22,13-7.9,19.43a19.77,19.77,0,0,1-1.93,3c-.9-1-2.18-1.85-2.61-3-.55-1.5-.25-3.29-.61-4.88-.59-2.64-1.74-5.18-2.07-7.83C617.39,285.73,617.32,281.28,617.06,276.86Z"/><path class="cls-4" d="M639.28,268.6c.24-.19.48-.38.71-.59A1.28,1.28,0,0,1,639.28,268.6Z"/><path class="cls-8" d="M877.06,203.89l2.07.71c-.27,3.59,1.08,4.28,4,2.23l2.54,1.22c-3.67,2.76.25,2.88,1.38,4,.08,1,.1,1.94.24,2.9.43,2.76-.82,3.47-3,2.22-7.87-4.44-15.73-8.91-23.42-13.66-1-.65-1.09-2.94-1.59-4.47l12.7,6c1.37.7,2.73,3.56,4.13,0Z"/><path class="cls-21" d="M882.33,199.11c-6.35-1.69-9.75-5.31-8.6-12.52l4.8-2.49C880.93,189,887.75,192.4,882.33,199.11Z"/><path class="cls-21" d="M849.05,179.56c-7.5-.79-8.86-5.73-8.43-12.09l4.76-1.61C853.05,173.4,853.05,173.4,849.05,179.56Z"/><path class="cls-21" d="M890.18,194.45c2.24.53,4.94.48,6.62,1.76,2,1.5,3.06,4.17,4.62,6.47l-2.51,6C892.25,207.17,889.54,202.56,890.18,194.45Z"/><path class="cls-21" d="M857.2,177.63l5-2.54c2.14,2.86,4.27,5.71,6.48,8.65l-2.43,5.66C858.87,186.83,858.87,186.83,857.2,177.63Z"/><path class="cls-8" d="M859.36,197,857,195.73l-.86-.7-7.69-4.83c.45-.79.9-1.58,1.34-2.37,2.18,1.07,4.41,2,6.52,3.23,5,2.8,10,5.56,14.78,8.68,1.12.73,4.67,2.16,1,4.5Z"/><path class="cls-16" d="M859.36,197l12.71,7.29a1.33,1.33,0,0,1-.17.73l-12.7-6C859.25,198.32,859.3,197.64,859.36,197Z"/><path class="cls-10" d="M887,212c-1.13-1.09-5-1.21-1.38-4Z"/><path class="cls-10" d="M883.1,206.83c-2.89,2-4.24,1.36-4-2.23Z"/><path class="cls-10" d="M877.06,203.89l-1,1.1Z"/><path class="cls-16" d="M856.13,195l.86.7C856.71,195.49,856.42,195.26,856.13,195Z"/><path class="cls-19" d="M674.05,209.06c-5.45,2.68-10.8,5.58-16.37,8A12.68,12.68,0,0,1,645,216c2.6-2,4.92-4.79,7.85-5.83,6.95-2.44,12-6.83,16.18-12.65,1.66-2.33,3.42-4.58,5.4-7.22l4.28,9.76c.21,1.29.41,2.58.61,3.87-.33.78-.66,1.56-1,2.34l-1.94,1Z"/><path class="cls-29" d="M740.12,212.8c-1.71-1.77-4.78-3.56-4.75-5.3s2.87-3.78,4.72-5.43A18.47,18.47,0,0,1,744,200c5.55-2.54,11-5.45,16.7-7.49,4-1.41,8.39-1.64,12.61-2.39a28.36,28.36,0,0,0,3.46,1.79c6.73,2.42,13.48,4.75,20.23,7.12,1.32,3,3.1,5.84,3.83,9,.65,2.82-.17,5.94.22,8.85.9,6.73-1.64,12.56-4.19,18.43-3.39-1.17-6.14-.9-7.54,3s-4.14,2.91-6.72,2.09c0-5.85.36-11.47-.09-17-.53-6.55-8.16-10.83-14.12-7.91-6.28,3.07-11.79,4.23-16.68-2.4-.82-1.1-3.46-1.15-5.26-1.15A40.54,40.54,0,0,0,740.12,212.8Z"/><path class="cls-20" d="M797,199c-6.75-2.37-13.5-4.7-20.23-7.12a29.24,29.24,0,0,1-3.47-1.79l5.09-9.1c6.7.34,12.89-.83,18.06-5.57,1.17-1.08,2.85-1.61,4.29-2.4L812,182l1.12.74,1,.2c.65,1.34,1.31,2.68,2,4-.56.32-1.12.92-1.67.9C805.94,187.55,800.87,192.33,797,199Z"/><path class="cls-20" d="M791.46,251.77l1.43-1.27Z"/><path class="cls-18" d="M812,182l-11.22-9,1.47-3.11c6.32,3.66,12.67,7.27,18.94,11a52.16,52.16,0,0,1,5,3.91l-.59,4L814,183l-1-.2Z"/><path class="cls-19" d="M788.07,263.55c.53,1.91,1,3.82,1.75,6.36-9.2,4.82-17.43,12.22-28.76,12-2.41,0-4.78-2.55-7.17-3.93,12.8-3,22.24-10.29,28.31-22,1.34-2.59,3.42-3.48,6.15-1.83C788.26,257.31,788.16,260.43,788.07,263.55Z"/><path class="cls-4" d="M603.71,58.08c-4.07-2.14-6.74-3.44-9.3-4.9Q581.66,45.88,569,38.46a7.62,7.62,0,0,1-3.13-3c-.62-1.37-.37-3.12-.49-4.71,1.49.14,3.21-.17,4.42.48q15.08,8.16,30,16.68a12,12,0,0,1,4.59,4.41C605,53.55,604.06,55.56,603.71,58.08Z"/><path class="cls-4" d="M552.65,35c4.71,2.49,9.16,4.61,13.36,7.16a18.69,18.69,0,0,1,5.27,5c.62.86.34,3-.34,3.93-.47.67-2.63.9-3.51.4-4.84-2.77-9.64-5.65-14.2-8.85C550.66,40.82,550,38.18,552.65,35Z"/><path class="cls-4" d="M596.29,33.42c4.83,2.62,9.88,4.93,14.36,8.06,1.39,1,1.21,4.2,1.75,6.4-1.91-.25-4.09,0-5.68-.85a47.16,47.16,0,0,1-9.4-6.38c-1.46-1.32-1.84-3.83-2.71-5.81Z"/><path class="cls-4" d="M586,58c-.49.39-1.4,1.71-2.41,1.8-2.93.26-7.6-4.48-7.37-7.52.08-1,1.48-2.73,2.34-2.77C581.82,49.39,585.85,53.75,586,58Z"/><path class="cls-21" d="M742.68,169.83c-7.44-4.56-6.52-13.24-9.78-19.86q-1.15-6.48-2.3-13c-.21-3-.43-6-.64-9,.3-2.29.61-4.59.91-6.88l0-3.12,2.06-7.91c1.65-2.25,3.08-4.74,5-6.72,3.72-3.79,8.69-3.67,12.49-.1a5.61,5.61,0,0,0,2.06,1.06c11.49,3.74,19.37,15.36,17.11,27.31a43.91,43.91,0,0,0,2,22.86c-3.09,2.3-6,5-9.31,6.8-5.83,3.17-11.94,5.82-17.94,8.68Z"/><path class="cls-19" d="M744.34,170c6-2.86,12.11-5.51,17.94-8.68,3.35-1.82,6.22-4.5,9.31-6.8,4.5,5.21,3.59,11.44,3.3,17.55-.16,3.51-.62,7.12,3.5,8.95l-5.09,9.1c-4.21.75-8.62,1-12.6,2.39-5.73,2-11.15,4.95-16.7,7.49C741.55,190,742.1,180,744.34,170Z"/><path class="cls-26" d="M728.71,334.86l-.22-.29.33-.17.13.28Z"/><path class="cls-7" d="M762.74,308.46l.78.33c-.11.26-.16.67-.35.74s-.51-.18-.77-.29C762.52,309,762.63,308.72,762.74,308.46Z"/><path class="cls-21" d="M678.29,206.31c.34-.78.67-1.56,1-2.34C679,204.75,678.63,205.53,678.29,206.31Z"/><path class="cls-21" d="M674.05,209.06l2.3-1.71Z"/><path class="cls-12" d="M812,182l1.12.74Z"/></svg>