<svg xmlns="http://www.w3.org/2000/svg" xmlns:xlink="http://www.w3.org/1999/xlink" viewBox="0 0 3710 3681.5966">
  <defs>
    <style>
      .cls-1 {
        isolation: isolate;
      }

      .cls-2 {
        fill: url(#linear-gradient);
      }

      .cls-3 {
        fill: #f5f8ff;
      }

      .cls-4 {
        fill: url(#linear-gradient-2);
      }

      .cls-5 {
        fill: #7d97f4;
      }

      .cls-11, .cls-20, .cls-28, .cls-52, .cls-6 {
        fill: #fff;
      }

      .cls-6 {
        mix-blend-mode: soft-light;
      }

      .cls-7 {
        fill: #bdd0fb;
      }

      .cls-8 {
        fill: url(#linear-gradient-3);
      }

      .cls-9 {
        fill: #91b3fa;
      }

      .cls-10 {
        fill: #3f67f9;
        opacity: 0.5;
      }

      .cls-11 {
        opacity: 0.78;
      }

      .cls-12 {
        fill: url(#linear-gradient-4);
      }

      .cls-13 {
        fill: url(#linear-gradient-5);
      }

      .cls-14 {
        fill: url(#linear-gradient-6);
      }

      .cls-15 {
        fill: url(#linear-gradient-7);
      }

      .cls-16 {
        fill: url(#linear-gradient-8);
      }

      .cls-17 {
        fill: url(#linear-gradient-9);
      }

      .cls-18 {
        fill: url(#linear-gradient-10);
      }

      .cls-19 {
        fill: url(#linear-gradient-11);
      }

      .cls-21 {
        opacity: 0.3;
      }

      .cls-22 {
        fill: url(#linear-gradient-12);
      }

      .cls-23 {
        fill: url(#linear-gradient-13);
      }

      .cls-24 {
        fill: url(#linear-gradient-14);
      }

      .cls-25 {
        fill: url(#linear-gradient-15);
      }

      .cls-26 {
        fill: url(#linear-gradient-16);
      }

      .cls-27 {
        fill: url(#linear-gradient-17);
      }

      .cls-28 {
        opacity: 0.7;
      }

      .cls-29 {
        fill: url(#linear-gradient-18);
      }

      .cls-30 {
        fill: url(#linear-gradient-19);
      }

      .cls-31 {
        fill: url(#linear-gradient-20);
      }

      .cls-32 {
        fill: url(#linear-gradient-21);
      }

      .cls-33 {
        fill: url(#linear-gradient-22);
      }

      .cls-34 {
        fill: url(#linear-gradient-23);
      }

      .cls-35 {
        fill: url(#linear-gradient-24);
      }

      .cls-36 {
        fill: url(#linear-gradient-25);
      }

      .cls-37 {
        fill: url(#linear-gradient-26);
      }

      .cls-38 {
        fill: url(#linear-gradient-27);
      }

      .cls-39 {
        fill: url(#linear-gradient-28);
      }

      .cls-40 {
        fill: url(#linear-gradient-29);
      }

      .cls-41 {
        fill: url(#linear-gradient-30);
      }

      .cls-42 {
        fill: url(#linear-gradient-31);
      }

      .cls-43 {
        fill: url(#linear-gradient-32);
      }

      .cls-44 {
        fill: url(#linear-gradient-33);
      }

      .cls-45 {
        fill: url(#linear-gradient-34);
      }

      .cls-46 {
        fill: url(#linear-gradient-35);
      }

      .cls-47 {
        fill: url(#linear-gradient-36);
      }

      .cls-48 {
        fill: url(#linear-gradient-37);
      }

      .cls-49 {
        fill: url(#linear-gradient-38);
      }

      .cls-50 {
        fill: url(#linear-gradient-39);
      }

      .cls-51 {
        fill: #aa648f;
      }

      .cls-52 {
        font-size: 599.40082px;
        font-family: Impact;
        letter-spacing: 0.1em;
      }

      .cls-53 {
        letter-spacing: 0.08486em;
      }

      .cls-54 {
        letter-spacing: 0.1em;
      }
    </style>
    <linearGradient id="linear-gradient" x1="77.50542" y1="1944.2961" x2="3673.99052" y2="1944.2961" gradientTransform="matrix(-0.0359, 0.98938, -1.03987, -0.05058, 3963.46737, 126.15382)" gradientUnits="userSpaceOnUse">
      <stop offset="0" stop-color="#4f52ff"/>
      <stop offset="1" stop-color="#4042e2"/>
    </linearGradient>
    <linearGradient id="linear-gradient-2" x1="3415.80984" y1="3608.88581" x2="1363.97411" y2="1394.20577" gradientUnits="userSpaceOnUse">
      <stop offset="0" stop-color="#dae3fe"/>
      <stop offset="1" stop-color="#e9effd"/>
    </linearGradient>
    <linearGradient id="linear-gradient-3" x1="3080.83689" y1="4092.86953" x2="2641.56449" y2="3106.19646" gradientUnits="userSpaceOnUse">
      <stop offset="0" stop-color="#09005d"/>
      <stop offset="1" stop-color="#1a0f91"/>
    </linearGradient>
    <linearGradient id="linear-gradient-4" x1="1506.54288" y1="1065.9114" x2="2482.35378" y2="1065.9114" xlink:href="#linear-gradient-2"/>
    <linearGradient id="linear-gradient-5" x1="1812.77065" y1="1210.74036" x2="2468.34358" y2="1210.74036" xlink:href="#linear-gradient-2"/>
    <linearGradient id="linear-gradient-6" x1="1500.49537" y1="1559.16889" x2="2506.039" y2="1559.16889" xlink:href="#linear-gradient-2"/>
    <linearGradient id="linear-gradient-7" x1="1815.95337" y1="1704.13095" x2="2491.48378" y2="1704.13095" xlink:href="#linear-gradient-2"/>
    <linearGradient id="linear-gradient-8" x1="1487.23682" y1="2069.2973" x2="2438.81611" y2="2069.2973" xlink:href="#linear-gradient-2"/>
    <linearGradient id="linear-gradient-9" x1="1785.94204" y1="2214.01784" x2="2425.25015" y2="2214.01784" xlink:href="#linear-gradient-2"/>
    <linearGradient id="linear-gradient-10" x1="8062.27133" y1="1442.82305" x2="8434.83806" y2="946.06744" gradientTransform="matrix(-0.9997, 0.0256, 0.0256, 0.9997, 11053.2916, -141.5505)" gradientUnits="userSpaceOnUse">
      <stop offset="0" stop-color="#e1473d"/>
      <stop offset="1" stop-color="#e9605a"/>
    </linearGradient>
    <linearGradient id="linear-gradient-11" x1="2005.25006" y1="-215.82997" x2="2100.50914" y2="3022.94829" gradientTransform="matrix(1, 0, 0, 1, 0, 0)" xlink:href="#linear-gradient-10"/>
    <linearGradient id="linear-gradient-12" x1="-755.14538" y1="6310.80788" x2="-191.71432" y2="6310.80788" gradientTransform="matrix(0.9289, 0.3703, 0.3703, -0.9289, 795.7725, 8465.4218)" gradientUnits="userSpaceOnUse">
      <stop offset="0" stop-color="#ff928e"/>
      <stop offset="1" stop-color="#fe7062"/>
    </linearGradient>
    <linearGradient id="linear-gradient-13" x1="-164.32554" y1="6162.41383" x2="-131.41992" y2="6162.41383" xlink:href="#linear-gradient-12"/>
    <linearGradient id="linear-gradient-14" x1="6.46782" y1="6413.85896" x2="29.04782" y2="6413.85896" xlink:href="#linear-gradient-12"/>
    <linearGradient id="linear-gradient-15" x1="-546.47398" y1="6670.7" x2="33.87294" y2="6670.7" xlink:href="#linear-gradient-12"/>
    <linearGradient id="linear-gradient-16" x1="-604.32093" y1="6793.01702" x2="-571.83514" y2="6793.01702" xlink:href="#linear-gradient-12"/>
    <linearGradient id="linear-gradient-17" x1="3102.77141" y1="1859.12458" x2="3792.09103" y2="568.33885" gradientTransform="matrix(1, 0, 0, 1, 0, 0)" xlink:href="#linear-gradient-12"/>
    <linearGradient id="linear-gradient-18" x1="-1052.16566" y1="6781.86935" x2="-1037.1719" y2="6781.86935" xlink:href="#linear-gradient-12"/>
    <linearGradient id="linear-gradient-19" x1="-1058.23493" y1="6613.42536" x2="-764.36084" y2="6613.42536" xlink:href="#linear-gradient-12"/>
    <linearGradient id="linear-gradient-20" x1="-927.08907" y1="6895.1453" x2="-591.68005" y2="6895.1453" xlink:href="#linear-gradient-12"/>
    <linearGradient id="linear-gradient-21" x1="-963.95982" y1="6916.12093" x2="-941.02126" y2="6916.12093" xlink:href="#linear-gradient-12"/>
    <linearGradient id="linear-gradient-22" x1="2733.44843" y1="1515.51256" x2="3395.73701" y2="190.93821" gradientTransform="matrix(1, 0, 0, 1, 0, 0)" xlink:href="#linear-gradient-12"/>
    <linearGradient id="linear-gradient-23" x1="-2301.50811" y1="1194.09923" x2="-2176.04165" y2="1508.82917" gradientTransform="matrix(-1, 0, 0, 1, -1165.4333, 0)" xlink:href="#linear-gradient-3"/>
    <linearGradient id="linear-gradient-24" x1="-2619.31167" y1="1018.67522" x2="-2387.52311" y2="1546.04645" gradientTransform="matrix(-0.9776, -0.2106, -0.2106, 0.9776, -915.0133, -113.5247)" gradientUnits="userSpaceOnUse">
      <stop offset="0" stop-color="#febbba"/>
      <stop offset="1" stop-color="#ff928e"/>
    </linearGradient>
    <linearGradient id="linear-gradient-25" x1="-1700.21922" y1="1759.16074" x2="-1769.33031" y2="2878.75865" gradientTransform="matrix(-1, 0, 0, 1, -1165.4333, 0)" xlink:href="#linear-gradient"/>
    <linearGradient id="linear-gradient-26" x1="-2292.4122" y1="3628.57921" x2="-2139.30824" y2="1839.17594" gradientTransform="matrix(-1, 0, 0, 1, -1165.4333, 0)" xlink:href="#linear-gradient-24"/>
    <linearGradient id="linear-gradient-27" x1="-2160.03565" y1="1730.78393" x2="-2229.14656" y2="2850.379" gradientTransform="matrix(-1, 0, 0, 1, -1165.4333, 0)" xlink:href="#linear-gradient"/>
    <linearGradient id="linear-gradient-28" x1="-1984.43418" y1="3655.20462" x2="-1831.28998" y2="1865.33102" gradientTransform="matrix(-1, 0, 0, 1, -1165.4333, 0)" xlink:href="#linear-gradient-24"/>
    <linearGradient id="linear-gradient-29" x1="2892.80837" y1="728.42045" x2="2021.01995" y2="1296.09712" gradientTransform="matrix(1, 0, 0, 1, 0, 0)" xlink:href="#linear-gradient-12"/>
    <linearGradient id="linear-gradient-30" x1="2442.04927" y1="1304.04508" x2="2046.66439" y2="1608.18739" gradientTransform="matrix(1, 0, 0, 1, 0, 0)" xlink:href="#linear-gradient"/>
    <linearGradient id="linear-gradient-31" x1="-2309.20257" y1="1864.76345" x2="-2280.44248" y2="1654.36178" gradientTransform="matrix(-1, 0, 0, 1, -1165.4333, 0)" xlink:href="#linear-gradient-24"/>
    <linearGradient id="linear-gradient-32" x1="548.51933" y1="2064.70909" x2="1197.85398" y2="1793.06788" gradientTransform="matrix(1, 0, 0, 1, 0, 0)" xlink:href="#linear-gradient-24"/>
    <linearGradient id="linear-gradient-33" x1="-2423.18835" y1="1263.93497" x2="-2172.24466" y2="817.33956" gradientTransform="matrix(-0.9809, -0.1943, -0.1943, 0.9809, -936.3432, -99.2406)" xlink:href="#linear-gradient-24"/>
    <linearGradient id="linear-gradient-34" x1="-2369.22069" y1="875.02153" x2="-2243.74911" y2="1189.76432" gradientTransform="matrix(-0.9809, -0.1943, -0.1943, 0.9809, -936.3432, -99.2406)" xlink:href="#linear-gradient-3"/>
    <linearGradient id="linear-gradient-35" x1="-2369.77294" y1="1293.95313" x2="-2118.82934" y2="847.35786" gradientTransform="matrix(-0.9809, -0.1943, -0.1943, 0.9809, -936.3432, -99.2406)" xlink:href="#linear-gradient-24"/>
    <linearGradient id="linear-gradient-36" x1="-2665.1174" y1="1038.8081" x2="-2433.32879" y2="1566.17944" xlink:href="#linear-gradient-24"/>
    <linearGradient id="linear-gradient-37" x1="1564.8253" y1="1293.08065" x2="1627.23947" y2="1293.08065" gradientTransform="matrix(1, 0, 0, 1, 0, 0)" xlink:href="#linear-gradient-12"/>
    <linearGradient id="linear-gradient-38" x1="1417.80797" y1="1727.11782" x2="2059.82304" y2="1118.89391" gradientTransform="matrix(1, 0, 0, 1, 0, 0)" xlink:href="#linear-gradient"/>
    <linearGradient id="linear-gradient-39" x1="1121.80006" y1="1913.10755" x2="1241.0651" y2="1913.10755" gradientTransform="matrix(1, 0, 0, 1, 0, 0)" xlink:href="#linear-gradient-24"/>
  </defs>
  <g class="cls-1">
    <g id="Calque_3" data-name="Calque 3">
      <path class="cls-2" d="M211.69435,2118.87265c587.65559,1196.429,2172.46642,1805.7428,2675.53015,1499.70578,73.81989-39.41633,215.564-131.96849,421.02466-548.979,172.44416-349.999,442.53633-916.74093,381.18051-1701.25724C3641.22417,225.66208,3235.74715,48.79257,2052.903,174.96659c-664.57367,54.19325-1236.401,100.83219-1632.02135,546.07C192.95721,966.4411-112.30556,1517.16252,211.69435,2118.87265Z" transform="translate(0 -15.32858)"/>
    </g>
    <g id="Calque_4" data-name="Calque 4">
      <path class="cls-3" d="M2657.89916,340.2594c988.07074,883.3149,1138.78093,2549.53854,706.88367,2941.824-58.1019,59.06644-185.86711,167.86794-642.75517,248.205-383.46839,67.42728-1001.89986,167.96081-1738.62727-104.69281C-100.95978,3067.41178-159.66672,2635.36748,285.862,1550.67254,520.14179,936.67613,721.73445,408.37,1257.8773,155.825,1556.09228,7.29115,2168.77928-130.90316,2657.89916,340.2594Z" transform="translate(0 -15.32858)"/>
    </g>
    <g id="Illustration">
      <g>
        <path class="cls-4" d="M3131.2446,2346.3254c-282.248,658.3672-1027.2915,941.1518-1611.0444,892.9365-159.3884-13.1645-480.081-39.6526-730.481-275.9611-480.87529-453.8158-406.816-1402.4169,53.5196-1960.9009,59.28182-71.9211,469.621-553.7855,1109.05792-547.3357,468.1609,4.7225,796.7586,268.6375,836.7147,301.5163,50.4754,41.5347,161.8038,140.2345,262.1375,296.8153C3286.8981,1421.306,3307.6211,1934.9112,3131.2446,2346.3254Z" transform="translate(0 -15.32858)"/>
        <g>
          <path class="cls-5" d="M766.82038,504.9729c-5.016-17.6898,15.8979-31.2991,30.2203-19.7676C942.4801,602.2939,1297.6843,959.0531,1267.3209,1632.2072c-38.0956,844.572,159.5184,1136.6072,390.7068,1306.2976,0,0-304.6617-64.8454-515.7814-360.3679C623.9,1852.5595,856.0078,819.5034,766.82038,504.9729Z" transform="translate(0 -15.32858)"/>
          <path class="cls-6" d="M890.0466,758.4538c24.0872,91.8598,46.3505,184.1457,65.2072,277.1141q29.0121,139.2783,49.4437,280.0268c13.2224,93.8214,24.6828,187.8763,32.1309,282.2785,7.8721,94.3643,11.6822,188.9603,15.1757,283.9502,4.0216,94.9155,7.5336,190.5562,20.8471,286.1289,13.1986,95.384,37.9952,190.7251,79.4774,278.7091,10.3644,21.9259,21.169,43.748,33.1513,64.716,11.5991,21.1994,24.1396,41.8908,37.0457,62.3485a1034.50736,1034.50736,0,0,0,86.3425,116.7637c63.2908,73.5039,137.7268,137.3121,218.3815,189.9674a18.35651,18.35651,0,0,0,20.5222-30.4366l-.0574-.04c-19.2545-13.3622-38.3328-26.9282-56.7403-41.2983-9.3209-7.0394-18.3092-14.477-27.4341-21.7427-8.8381-7.6019-17.9754-14.8638-26.5693-22.7311a967.76958,967.76958,0,0,1-97.6504-99.7154c-60.4122-70.7159-110.5681-150.8261-150.3446-234.8082a924.33643,924.33643,0,0,1-48.5583-130.5027,1048.19248,1048.19248,0,0,1-29.06-136.7875c-13.6378-92.7096-17.8957-187.3441-22.5995-282.2249-4.8277-94.8959-10.3314-190.2233-19.7486-285.1755q-6.87-71.2239-16.2916-142.1518c-3.003-23.6538-6.4638-47.2456-9.8813-70.8393q-5.46615-35.3421-11.3827-70.6016-24.05085-140.97675-56.7468-280.1564c-22.2637-92.6167-46.9781-184.6122-75.1944-275.4998a4.92411,4.92411,0,0,0-9.4659,2.7086Z" transform="translate(0 -15.32858)"/>
        </g>
        <g>
          <path class="cls-7" d="M1280.1012,3072.2353c-7.5706,33.0229-46.4067,47.5821-74.0774,28.0339-152.6835-107.8593-556.79532-451.8545-600.257-1095.727-36.7009-543.7214-108.2715-835.0618-149.9266-965.0682-8.808-27.4911,22.5986-50.2479,46.0116-33.3613C760.16708,1192.4207,1554.4238,1875.6362,1280.1012,3072.2353Z" transform="translate(0 -15.32858)"/>
          <path class="cls-6" d="M1234.6024,3078.0903a13.24648,13.24648,0,0,1-20.122-3.5279c-4.0795-7.2071-408.92832-729.3052-494.11022-1483.008a13.2295,13.2295,0,1,1,26.2917-2.9707c84.5598,748.2169,486.78772,1465.7871,490.83912,1472.9461A13.229,13.229,0,0,1,1234.6024,3078.0903Z" transform="translate(0 -15.32858)"/>
        </g>
        <g>
          <g>
            <path class="cls-8" d="M1276.2507,692.8091c-10.4428,421.2314-44.31,1874.22-28.1428,2389.1152a103.37616,103.37616,0,0,0,99.9876,100.1158c269.7876,8.8287,1045.8877,31.2055,1487.1679,12.6917a174.07328,174.07328,0,0,0,166.9099-170.278c9.1702-442.1366,29.4012-1685.7007-18.6864-2255.3778a142.06157,142.06157,0,0,0-127.4926-129.4294c-293.8105-29.3921-1074.1642-101.2382-1455.4028-76.4983A133.13013,133.13013,0,0,0,1276.2507,692.8091Z" transform="translate(0 -15.32858)"/>
            <path class="cls-9" d="M1385.8726,823.6945c-14.7357,344.986-61.2125,1492.6738-46.4607,1917.0648a120.08141,120.08141,0,0,0,113.0083,115.8128c255.1162,14.9293,909.4673,47.8485,1283.6609,17.8835a134.95467,134.95467,0,0,0,123.8898-127.3844c18.963-351.9584,73.4095-1420.6164,59.269-1840.2511a132.67062,132.67062,0,0,0-120.8252-127.6049c-275.9954-24.7796-984.845-83.7413-1302.8238-66.3919A116.01748,116.01748,0,0,0,1385.8726,823.6945Z" transform="translate(0 -15.32858)"/>
            <path class="cls-10" d="M1943,636.7518v.0004a24.2539,24.2539,0,0,0,22.9798,24.2606c63.7221,3.3367,243.2283,12.7799,323.4513,17.4344a24.27428,24.27428,0,0,0,25.2324-28.8581l-.5126-2.6547a24.27624,24.27624,0,0,0-21.6173-19.5925c-54.2269-4.9689-217.8544-18.7466-326.2676-14.8768A24.22832,24.22832,0,0,0,1943,636.7518Z" transform="translate(0 -15.32858)"/>
          </g>
          <g>
            <g>
              <path class="cls-11" d="M2806.6036,1074.3757l-11.8767,151.6176a56.02931,56.02931,0,0,1-52.2754,51.5386l-87.9522,5.6356a56.0289,56.0289,0,0,1-59.5934-54.4778l-4.1839-163.1213a56.02886,56.02886,0,0,1,59.1668-57.3765l104.0132,5.868A56.02914,56.02914,0,0,1,2806.6036,1074.3757Z" transform="translate(0 -15.32858)"/>
              <path class="cls-12" d="M2448.7827,1034.2052c-156.355-.549-756.5817-3.452-908.1493-4.1887-19.1182-.0928-34.5403,14.6791-34.0805,32.6046h0c.4376,17.0635,15.1873,30.7016,33.3849,30.868l907.6702,8.3161c17.484.1601,32.2625-12.2012,34.0928-28.517l.4631-4.1274C2484.2573,1050.5042,2468.7764,1034.2751,2448.7827,1034.2052Z" transform="translate(0 -15.32858)"/>
              <path class="cls-13" d="M2463.7082,1233.3012h0a14.62815,14.62815,0,0,1-12.5008,6.9044l-623.024,3.2841c-7.8263.0412-14.2328-5.7911-14.421-13.1295l-.9875-38.502c-.1962-7.6499,6.421-13.9434,14.579-13.8667l605.8793,5.7011C2460.2188,1183.9467,2476.9693,1211.2139,2463.7082,1233.3012Z" transform="translate(0 -15.32858)"/>
            </g>
            <g>
              <path class="cls-11" d="M2803.0064,1574.1716l-11.8766,151.6176a56.02933,56.02933,0,0,1-52.2755,51.5386l-87.9522,5.6356a56.02881,56.02881,0,0,1-59.5933-54.4778l-4.1839-163.1213a56.02886,56.02886,0,0,1,59.1668-57.3765l104.0131,5.868A56.029,56.029,0,0,1,2803.0064,1574.1716Z" transform="translate(0 -15.32858)"/>
              <path class="cls-14" d="M2471.4696,1527.1068c-161.1192-.4268-779.6342-2.8608-935.82-3.479-19.7007-.0779-35.6043,14.7064-35.1445,32.6319h0c.4376,17.0635,15.6261,30.6903,34.3781,30.8425l935.3231,7.6068c18.0167.1465,33.2551-12.2266,35.154-28.5442l.4804-4.1278C2508.0124,1543.3784,2492.0725,1527.161,2471.4696,1527.1068Z" transform="translate(0 -15.32858)"/>
              <path class="cls-15" d="M2486.6944,1726.1951h0a15.21015,15.21015,0,0,1-12.8872,6.9143l-642.012,3.7712c-8.0648.0472-14.6619-5.7802-14.8501-13.1186l-.9876-38.5019c-.1962-7.6499,6.6276-13.9487,15.0341-13.8785l624.3378,5.2277C2483.1372,1676.8423,2500.3768,1704.097,2486.6944,1726.1951Z" transform="translate(0 -15.32858)"/>
            </g>
            <g>
              <path class="cls-11" d="M2765.8887,2093.986l-11.8767,151.6176a56.02931,56.02931,0,0,1-52.2754,51.5386l-87.9522,5.6356A56.0289,56.0289,0,0,1,2554.191,2248.3l-4.1839-163.1213a56.02905,56.02905,0,0,1,59.1668-57.3766l104.0132,5.8681A56.02914,56.02914,0,0,1,2765.8887,2093.986Z" transform="translate(0 -15.32858)"/>
              <path class="cls-16" d="M2406.0586,2037.8812c-152.4723-.6486-737.7942-3.9339-885.5982-4.7671-18.6434-.105-33.6731,14.6569-33.2133,32.5824h0c.4377,17.0635,14.8297,30.7107,32.5754,30.8887l885.1337,8.8941c17.0499.1713,31.4534-12.1804,33.2279-28.4947l.449-4.1271C2440.6626,2054.2026,2425.5558,2037.9639,2406.0586,2037.8812Z" transform="translate(0 -15.32858)"/>
              <path class="cls-17" d="M2420.7403,2236.9835h0a14.16711,14.16711,0,0,1-12.186,6.8963l-607.5491,2.8872a13.76011,13.76011,0,0,1-14.0712-13.1385l-.9876-38.5019c-.1962-7.6499,6.2527-13.9391,14.2081-13.8573l590.836,6.087C2417.3061,2187.6275,2433.658,2214.905,2420.7403,2236.9835Z" transform="translate(0 -15.32858)"/>
            </g>
            <path class="cls-18" d="M2809.5672,1067.3492l-100.4827,163.3894c-12.264,19.9422-42.171,16.7529-49.9538-5.3266l-88.1411-250.0402a27.83054,27.83054,0,0,1,19.9399-36.3588l17.6599-4.1094a27.83049,27.83049,0,0,1,33.1743,19.8457l37.0586,137.1314c6.5746,24.3278,39.5157,28.0896,51.4051,5.8699l31.095-58.1109a27.83,27.83,0,0,1,37.5815-11.4545h0A27.83062,27.83062,0,0,1,2809.5672,1067.3492Z" transform="translate(0 -15.32858)"/>
            <g>
              <rect class="cls-19" x="1723.166" y="2493.30432" width="731.596" height="274.226" rx="14.5"/>
              <g>
                <path class="cls-20" d="M1931.682,2546.1913h36.215l-45.4679,193.2371h-45.7333l-45.2024-193.2371h36.215l25.2476,118.0306q3.432,15.0657,6.7365,43.2197,2.779-23.92035,7.0074-43.2197Z" transform="translate(0 -15.32858)"/>
                <path class="cls-20" d="M2117.9117,2642.5444q0,47.9802-17.9748,73.7546-17.9721,25.77165-51.4134,25.773-33.5715,0-51.5462-25.7067-17.98-25.708-17.9801-74.0837,0-47.98,17.9801-73.5554,17.9721-25.57665,51.8116-25.5767,33.4359,0,51.2807,25.7094Q2117.91435,2594.567,2117.9117,2642.5444Zm-102.1686,0q0,33.0459,8.3291,50.3597,8.32125,17.31525,24.4513,17.3139,32.5122,0,32.5149-67.6736,0-67.6722-32.2495-67.6736-16.39545,0-24.7167,17.2502Q2015.74315,2609.3686,2015.7431,2642.5444Z" transform="translate(0 -15.32858)"/>
                <path class="cls-20" d="M2205.4128,2739.4284h-35.8169V2577.7799h-37.0113v-31.5886h109.8395v31.5886h-37.0113Z" transform="translate(0 -15.32858)"/>
                <path class="cls-20" d="M2350.1455,2739.4284h-87.103V2546.1913h87.103v31.0604h-51.1534v45.9961h47.4533v31.1931h-47.4533v53.5289h51.1534Z" transform="translate(0 -15.32858)"/>
              </g>
            </g>
          </g>
        </g>
        <g>
          <g>
            <g class="cls-21">
              <path class="cls-22" d="M2525.5651,2121.9002a9.877,9.877,0,0,1,4.1512,13.3392c-4.9284,9.3835-9.5239,19.1196-13.6565,28.9406a9.877,9.877,0,0,1-12.7578,5.3443l-.1791-.0714a9.87833,9.87833,0,0,1-5.2708-12.9378c4.3508-10.3364,9.1868-20.5874,14.3767-30.4646a9.87776,9.87776,0,0,1,12.3902-4.5853A9.519,9.519,0,0,1,2525.5651,2121.9002Zm-26.3429,91.46c-2.7549,10.2873-5.0949,20.7894-6.9577,31.2247a9.87705,9.87705,0,1,1-19.4463-3.4736c1.9588-10.978,4.4216-22.0338,7.318-32.8585a9.87953,9.87953,0,0,1,12.0978-6.9867,10.05666,10.05666,0,0,1,1.1134.3694A9.87864,9.87864,0,0,1,2499.2222,2213.3602Zm-12.5048,82.8826c-.3944,10.6132-.332,21.3715.1875,31.9836a9.878,9.878,0,1,1-19.7324.9648c-.5465-11.175-.6126-22.5077-.1962-33.6816a9.87736,9.87736,0,1,1,19.7411.7332Zm6.3467,83.5976c1.9894,10.4461,4.4581,20.9254,7.3312,31.1508a9.87812,9.87812,0,1,1-19.0195,5.3449c-3.0245-10.7676-5.6212-21.8007-7.7195-32.7929a9.87894,9.87894,0,0,1,19.4078-3.7028Zm24.8121,80.1002c4.2502,9.7191,8.9767,19.3957,14.052,28.7542a9.87738,9.87738,0,1,1-17.3678,9.4133c-5.3383-9.8457-10.3118-20.0274-14.7837-30.2542a9.8769,9.8769,0,1,1,18.0995-7.9133Zm41.9168,72.6135c6.3029,8.5518,13.0516,16.9368,20.0601,24.9264a9.87823,9.87823,0,0,1-14.851,13.0294c-7.3762-8.4063-14.4794-17.2359-21.1127-26.235a9.878,9.878,0,0,1,15.9036-11.7208Zm329.4479,161.2755a9.87747,9.87747,0,0,1-9.4005,10.3336c-11.1631.5263-22.502.5716-33.6965.1342a9.877,9.877,0,0,1,.7698-19.7389c10.6295.4155,21.3953.3705,31.9958-.1307a9.86816,9.86816,0,0,1,10.3314,9.4018Zm-272.5124-99.7974c8.0425,6.9319,16.4837,13.599,25.0928,19.8137a9.87817,9.87817,0,1,1-11.5664,16.0166c-9.0645-6.5459-17.9547-13.5664-26.4235-20.8673a9.87709,9.87709,0,1,1,12.8971-14.963Zm186.4916,96.3532a9.879,9.879,0,0,1-11.4765,7.9655c-10.9959-1.9867-22.0522-4.4748-32.8616-7.3881a9.87826,9.87826,0,1,1,5.1447-19.0749c10.2727,2.7699,20.7798,5.1348,31.2303,7.0203a9.88334,9.88334,0,0,1,7.9631,11.4772Zm-117.2576-49.1499c9.3855,4.9543,19.1076,9.5689,28.9013,13.7136a9.87693,9.87693,0,0,1-7.502,18.2727c-.0646-.0258-.131-.0523-.1938-.0815-10.3119-4.3598-20.5485-9.2169-30.4269-14.4298a9.87867,9.87867,0,0,1,8.2575-17.9175C2685.323,2640.9224,2685.6454,2641.0717,2685.9625,2641.2355Z" transform="translate(0 -15.32858)"/>
              <path class="cls-23" d="M2951.7319,2675.5869a9.82342,9.82342,0,0,0-5.8836-.4432c-4.9606,1.1544-10.0275,2.2209-15.0621,3.1799a9.87637,9.87637,0,1,0,3.6875,19.4055c5.2955-1.0042,10.624-2.1285,15.8449-3.3412a9.87812,9.87812,0,0,0,1.4133-18.801Z" transform="translate(0 -15.32858)"/>
            </g>
            <g class="cls-21">
              <path class="cls-24" d="M3195.1555,2498.2845a9.88076,9.88076,0,0,0-12.1292,4.1164c-2.609,4.3724-5.3547,8.7648-8.1596,13.0506a9.87806,9.87806,0,1,0,16.5311,10.8179c2.9518-4.5136,5.8442-9.1384,8.5928-13.7418a9.87459,9.87459,0,0,0-4.8351-14.2431Z" transform="translate(0 -15.32858)"/>
              <path class="cls-25" d="M3025.6737,1951.2573a9.878,9.878,0,1,1-8.206,17.9712c-9.4476-4.3142-19.2264-8.2914-29.1732-11.8739a9.87944,9.87944,0,0,1,6.6957-18.5898q6.46455,2.328,12.7985,4.8524C3013.8123,1946.0183,3019.8304,1948.5878,3025.6737,1951.2573Zm-74.8501-15.5349a9.87607,9.87607,0,0,1-11.7182,7.5987c-10.2439-2.1809-20.689-3.9562-31.0483-5.2694a9.8763,9.8763,0,1,1,2.4823-19.596c10.9069,1.3818,21.9036,3.2481,32.682,5.5467a9.867,9.867,0,0,1,7.6022,11.72Zm122.168,41.1922c9.2791,5.888,18.4346,12.2538,27.2086,18.9246a9.87853,9.87853,0,1,1-11.9564,15.7285c-8.3317-6.3368-17.0232-12.381-25.8357-17.9703a9.87834,9.87834,0,0,1,10.5835-16.6828Zm-206.2198-51.7849a9.87592,9.87592,0,0,1-9.7636,9.9894c-10.4566.1188-21.0325.6881-31.4334,1.6883a9.87682,9.87682,0,0,1-1.8943-19.6626c10.9541-1.0541,22.092-1.6529,33.102-1.7791a9.86323,9.86323,0,0,1,9.9893,9.764Zm273.9085,106.127c7.7521,7.7799,15.279,16.0012,22.3734,24.4368a9.87668,9.87668,0,1,1-15.1165,12.7156c-6.7402-8.0115-13.8889-15.821-21.2514-23.2083a9.87781,9.87781,0,1,1,13.9945-13.9441Zm54.1298,67.8699c5.8781,9.3089,11.4312,18.9744,16.5071,28.7274a9.87753,9.87753,0,1,1-17.5247,9.1185c-4.8231-9.2665-10.1005-18.452-15.685-27.2993a9.87684,9.87684,0,1,1,16.7026-10.5466Zm38.0548,78.0564c3.7134,10.3732,7.0293,21.0201,9.8577,31.6385a9.87772,9.87772,0,1,1-19.09,5.0842c-2.6854-10.0923-5.8381-20.2045-9.3678-30.0643a9.878,9.878,0,0,1,18.6001-6.6584Zm20.1205,84.4978c1.3554,10.933,2.259,22.0513,2.6842,33.0452a9.87692,9.87692,0,1,1-19.7391.763c-.4043-10.4373-1.2622-20.9933-2.5504-31.3802a9.87754,9.87754,0,1,1,19.6053-2.428Zm1.0617,86.8991c-1.0842,10.9363-2.6522,21.971-4.6596,32.8009a9.878,9.878,0,0,1-19.4256-3.598c1.9079-10.2881,3.3958-20.7687,4.428-31.157a9.877,9.877,0,1,1,19.6572,1.9541Zm-18.026,84.9228c-2.5344,7.6917-5.3377,15.4009-8.3309,22.9097q-1.6266,4.0806-3.3327,8.1005a9.76666,9.76666,0,0,1-12.9486,5.235,9.87626,9.87626,0,0,1-5.2387-12.9501q1.6197-3.8217,3.169-7.7004c2.8461-7.14,5.5104-14.4639,7.9208-21.7776a9.87618,9.87618,0,0,1,12.4718-6.289c.1943.0652.387.1335.5753.2085A9.87651,9.87651,0,0,1,3236.0211,2433.5027Z" transform="translate(0 -15.32858)"/>
              <path class="cls-26" d="M2776.254,1926.4601a9.84341,9.84341,0,0,0-5.9333-.4336c-5.203,1.2364-10.478,2.6061-15.6788,4.0718a9.87743,9.87743,0,1,0,5.3547,19.0153c4.9406-1.3912,9.9515-2.6918,14.8911-3.8669a9.87647,9.87647,0,0,0,1.3663-18.7866Z" transform="translate(0 -15.32858)"/>
            </g>
            <g>
              <path class="cls-27" d="M2687.293,2070.5502a4.61663,4.61663,0,0,0-2.3039,4.8398l9.7814,55.3313a244.77827,244.77827,0,0,0-49.3312,62.0879l-56.0721,3.0138a4.61753,4.61753,0,0,0-4.1909,3.342l-18.5192,64.8034a4.61451,4.61451,0,0,0,1.7915,5.0513l46.0128,32.1879a244.75374,244.75374,0,0,0,9.074,78.7797l-37.5416,41.8065a4.61717,4.61717,0,0,0-.6004,5.3262l32.7275,58.9189a4.61586,4.61586,0,0,0,4.8398,2.3039l55.3308-9.7821a244.72118,244.72118,0,0,0,62.0884,49.3319l3.0138,56.0721a4.61445,4.61445,0,0,0,3.3412,4.1909l64.8045,18.5206a4.61767,4.61767,0,0,0,5.051-1.7929l32.188-46.0132a244.72423,244.72423,0,0,0,78.7796-9.0745l41.8065,37.5425a4.61488,4.61488,0,0,0,5.3262.6004l58.9189-32.7275a4.61759,4.61759,0,0,0,2.3042-4.8384l-9.7822-55.3326a244.72314,244.72314,0,0,0,49.3312-62.0878l56.0722-3.0142a4.61471,4.61471,0,0,0,4.1912-3.3406l18.5198-64.8048a4.61586,4.61586,0,0,0-1.7926-5.0509l-46.0126-32.1882a244.76451,244.76451,0,0,0-9.074-78.7798l37.5416-41.8065a4.61547,4.61547,0,0,0,.601-5.3264l-32.7281-58.9186a4.61663,4.61663,0,0,0-4.8389-2.3041l-55.3316,9.7822a244.76107,244.76107,0,0,0-62.088-49.3321l-3.0138-56.0721a4.61913,4.61913,0,0,0-3.3417-4.1907l-64.8042-18.5192a4.616,4.616,0,0,0-5.0513,1.7928l-32.1875,46.0117a244.77464,244.77464,0,0,0-78.7796,9.0745l-41.8066-37.5421a4.61666,4.61666,0,0,0-5.3261-.6008Z" transform="translate(0 -15.32858)"/>
              <path class="cls-28" d="M2894.4444,2254.2792a67.70785,67.70785,0,1,1-8.9469-4.3515A67.82468,67.82468,0,0,1,2894.4444,2254.2792Zm-20.6517,108.8022a51.94324,51.94324,0,1,0-39.4053-5.2694,52.72216,52.72216,0,0,0,6.9292,3.3686A51.56663,51.56663,0,0,0,2873.7927,2363.0814Z" transform="translate(0 -15.32858)"/>
              <path class="cls-28" d="M2923.0164,2159.5458a169.773,169.773,0,0,0-16.2013-5.5279h0q-2.60895-.74715-5.2435-1.4087a167.69008,167.69008,0,0,0-26.3082-4.4267q-.18045-.01575-.3611-.0321c-.3417-.0282-.6835-.0564-1.0268-.0809-.6659-.0537-1.333-.0992-1.9984-.1446a3.95047,3.95047,0,1,0-.5217,7.8837,158.86289,158.86289,0,0,1,141.8077,113.3865,157.70585,157.70585,0,0,1,.4483,88.5941,160.91769,160.91769,0,0,1-5.2722,15.4563,158.71712,158.71712,0,0,1-190.8979,93.5124c-84.1618-24.0611-133.0116-112.0485-108.97-196.1722a158.72489,158.72489,0,0,1,44.0101-72.1645,3.95095,3.95095,0,1,0-5.402-5.767,166.67262,166.67262,0,0,0-46.2067,75.7579c-25.242,88.3226,26.1049,180.7116,114.3952,205.945a166.627,166.627,0,0,0,200.4078-98.1705,170.34513,170.34513,0,0,0,5.5347-16.2237,166.615,166.615,0,0,0-98.194-200.4171Z" transform="translate(0 -15.32858)"/>
            </g>
          </g>
          <g>
            <g class="cls-21">
              <path class="cls-29" d="M2343.0346,1767.8772a5.6932,5.6932,0,0,0-6.59,1.7801c-2.9835,3.8051-5.8929,7.7533-8.6447,11.7341a5.69592,5.69592,0,1,0,9.3706,6.4781c2.6225-3.7933,5.3949-7.5563,8.2414-11.1885a5.69924,5.69924,0,0,0-.9685-7.9969A5.758,5.758,0,0,0,2343.0346,1767.8772Z" transform="translate(0 -15.32858)"/>
              <path class="cls-30" d="M2319.8148,1804.9398a5.6969,5.6969,0,0,1,2.4119,7.6862,236.78341,236.78341,0,0,0-9.9646,21.723q-.9297,2.33265-1.8143,4.7023a5.699,5.699,0,0,1-7.3324,3.3347,5.89714,5.89714,0,0,1-3.3363-7.3361q.9294-2.4771,1.9008-4.9192a247.34265,247.34265,0,0,1,10.4503-22.7753,5.69525,5.69525,0,0,1,7.1521-2.6579C2319.4606,1804.7685,2319.6374,1804.8513,2319.8148,1804.9398Zm-17.8439,61.7689a236.108,236.108,0,0,0-5.0371,28.478,5.69589,5.69589,0,0,1-11.3185-1.29,246.96124,246.96124,0,0,1,5.2805-29.8545,5.70064,5.70064,0,0,1,6.8745-4.2059,5.82927,5.82927,0,0,1,.7798.2514A5.69547,5.69547,0,0,1,2301.9709,1866.7087Zm-6.5117,57.3698a233.85614,233.85614,0,0,0,2.1168,28.8505,5.69649,5.69649,0,0,1-11.289,1.5357,245.73657,245.73657,0,0,1-2.2208-30.257,5.69687,5.69687,0,0,1,11.393-.1292Zm7.7829,57.2175a235.018,235.018,0,0,0,9.1106,27.4466,5.69694,5.69694,0,0,1-10.5702,4.2534,246.98166,246.98166,0,0,1-9.5534-28.7845,5.69619,5.69619,0,0,1,11.013-2.9155Zm21.5161,53.5834a237.3089,237.3089,0,0,0,15.5022,24.4137,5.69577,5.69577,0,1,1-9.2263,6.6815,249.22776,249.22776,0,0,1-16.2509-25.586,5.69763,5.69763,0,0,1,9.975-5.5092Zm33.8712,46.7364A233.66954,233.66954,0,0,0,2379.6,2101.49a5.69667,5.69667,0,0,1-7.3099,8.7392,245.14635,245.14635,0,0,1-21.9963-20.8467,5.69657,5.69657,0,0,1,8.3356-7.7667Zm44.2543,37.0178a234.12077,234.12077,0,0,0,25.2307,14.1295,5.6988,5.6988,0,0,1-4.9487,10.2672,246.95642,246.95642,0,0,1-26.4528-14.8202,5.69623,5.69623,0,0,1,6.1708-9.5765Zm84.3633,39.3533a5.69258,5.69258,0,0,1-6.7286,4.4259,247.76115,247.76115,0,0,1-25.4765-6.7c-1.2745-.4007-2.5357-.8195-3.7974-1.2445a5.698,5.698,0,0,1,3.6664-10.79c1.1805.4043,2.3692.7941,3.5846,1.1768a236.21321,236.21321,0,0,0,24.3255,6.4031,5.63454,5.63454,0,0,1,.9631.2883A5.69565,5.69565,0,0,1,2487.247,2157.9869Z" transform="translate(0 -15.32858)"/>
            </g>
            <g class="cls-21">
              <path class="cls-31" d="M2624.3966,1694.2018a248.1341,248.1341,0,0,1,26.814,13.0419,5.69711,5.69711,0,0,1-5.597,9.9248,235.58259,235.58259,0,0,0-25.5749-12.4401,5.69625,5.69625,0,0,1,4.2854-10.5555Zm-24.2527-2.7091a5.69327,5.69327,0,0,1-7.0162,3.952,238.16366,238.16366,0,0,0-27.8232-5.9952,5.69748,5.69748,0,0,1,1.7291-11.263,249.12186,249.12186,0,0,1,29.1565,6.2869,5.80865,5.80865,0,0,1,.586.1974A5.69488,5.69488,0,0,1,2600.1439,1691.4927Zm76.1148,31.9693a247.14375,247.14375,0,0,1,22.8733,19.142,5.69779,5.69779,0,0,1-7.8282,8.2812,236.28139,236.28139,0,0,0-21.8154-18.2654,5.69435,5.69435,0,1,1,6.7703-9.1578Zm-133.424-42.1188a5.69759,5.69759,0,0,1-5.8615,5.5258,233.91173,233.91173,0,0,0-28.4393.8973,5.69553,5.69553,0,1,1-1.0539-11.3422,244.29146,244.29146,0,0,1,29.8289-.9425,5.69764,5.69764,0,0,1,5.5258,5.8616Zm176.6617,83.031a247.69735,247.69735,0,0,1,17.594,24.0795,5.69765,5.69765,0,0,1-9.591,6.1535,234.334,234.334,0,0,0-16.7806-22.9649,5.69806,5.69806,0,0,1,8.7776-7.2681Zm32.1658,50.0981a249.01735,249.01735,0,0,1,11.3279,27.5941,5.69472,5.69472,0,0,1-10.7786,3.6798,238.02725,238.02725,0,0,0-10.8104-26.3221,5.69672,5.69672,0,0,1,10.2611-4.9518Zm19.247,56.3624a246.20756,246.20756,0,0,1,4.3776,29.5181,5.6966,5.6966,0,0,1-11.3506.9843,232.9725,232.9725,0,0,0-4.177-28.1449,5.69493,5.69493,0,0,1,4.3978-6.75,5.63534,5.63534,0,0,1,3.2812.2783A5.69563,5.69563,0,0,1,2770.9092,1870.8347Z" transform="translate(0 -15.32858)"/>
              <path class="cls-32" d="M2481.0488,1681.3136a5.67236,5.67236,0,0,0-3.3234-.2707c-4.7628,1.0417-9.5151,2.2311-14.1288,3.5296a5.69745,5.69745,0,1,0,3.0891,10.9682c4.3988-1.2407,8.934-2.3732,13.4784-3.3701a5.696,5.696,0,0,0,.8847-10.857Z" transform="translate(0 -15.32858)"/>
            </g>
            <g>
              <path class="cls-33" d="M2421.3904,1771.8672a2.88538,2.88538,0,0,0-1.4396,3.0237l6.1109,34.5688a152.927,152.927,0,0,0-30.8195,38.7897l-35.0315,1.8831a2.88483,2.88483,0,0,0-2.6184,2.0878l-11.5696,40.4862a2.88245,2.88245,0,0,0,1.1188,3.1557l28.7471,20.1093a152.90744,152.90744,0,0,0,5.6687,49.2182l-23.4539,26.1189a2.88473,2.88473,0,0,0-.3754,3.3277l20.4468,36.8096a2.88365,2.88365,0,0,0,3.0237,1.4396l34.5678-6.1114a152.897,152.897,0,0,0,38.7905,30.8205l1.8826,35.0313a2.88377,2.88377,0,0,0,2.0873,2.6182l40.4871,11.5706a2.88423,2.88423,0,0,0,3.1555-1.1201l20.1099-28.747a152.87929,152.87929,0,0,0,49.2178-5.6694l26.119,23.4552a2.88392,2.88392,0,0,0,3.3272.3752l36.8104-20.4471a2.88468,2.88468,0,0,0,1.4391-3.0227l-6.1112-34.5695a152.88981,152.88981,0,0,0,30.82-38.7895l35.0315-1.8831a2.88245,2.88245,0,0,0,2.6182-2.0873l11.5706-40.4871a2.88436,2.88436,0,0,0-1.1201-3.1556l-28.7466-20.1091a152.90921,152.90921,0,0,0-5.6692-49.2184l23.4544-26.1186a2.88432,2.88432,0,0,0,.3754-3.3278l-20.4467-36.8096a2.88552,2.88552,0,0,0-3.0236-1.44l-34.5685,6.1116a152.91005,152.91005,0,0,0-38.79-30.8202l-1.8826-35.0313a2.88582,2.88582,0,0,0-2.0878-2.6185l-40.4868-11.5698a2.88362,2.88362,0,0,0-3.1555,1.1201l-20.1094,28.7459a152.91918,152.91918,0,0,0-49.2179,5.6694l-26.1192-23.4546a2.88377,2.88377,0,0,0-3.3272-.3753Z" transform="translate(0 -15.32858)"/>
              <path class="cls-28" d="M2551.1875,1885.9945a42.94456,42.94456,0,1,1-5.7436-2.7923A43.981,43.981,0,0,1,2551.1875,1885.9945Zm5.7984,53.1753a31.691,31.691,0,0,0-11.5111-43.3205h0a31.69493,31.69493,0,0,0-31.8092,54.8311,32.12278,32.12278,0,0,0,4.1866,2.0343A31.74546,31.74546,0,0,0,2556.9859,1939.1698Z" transform="translate(0 -15.32858)"/>
              <path class="cls-28" d="M2569.7503,1824.4343q-5.02245-2.002-10.3264-3.5234a107.90262,107.90262,0,0,0-21.5209-3.8539q-.4899-.03345-.9797-.0668a5.69492,5.69492,0,1,0-.7518,11.365,96.2174,96.2174,0,0,1,20.1167,3.5095l.0026.001c.3604.102.7213.2103,1.0777.3162a94.972,94.972,0,0,1,40.3729,24.0034,96.43723,96.43723,0,0,1,15.6167,20.5669c.0354.0619.0703.1237.1057.1856.106.1925.2143.3791.3179.5701a95.28687,95.28687,0,0,1,8.374,72.9262,97.0296,97.0296,0,0,1-3.1847,9.3417,95.916,95.916,0,1,1-154.6487-105.6644,5.69651,5.69651,0,0,0,.2661-8.0499,5.70057,5.70057,0,0,0-8.0538-.264,107.309,107.309,0,1,0,173.0104,118.2172,109.54893,109.54893,0,0,0,3.5653-10.447A107.4572,107.4572,0,0,0,2569.7503,1824.4343Z" transform="translate(0 -15.32858)"/>
            </g>
          </g>
        </g>
        <g>
          <g>
            <path class="cls-34" d="M1061.6805,1363.3984s-42.2981,20.5742-50.075,44.2084c-6.2401,18.9637-53.0105,21.4083-57.6306,58.7042-2.3853,19.2561-16.6348,34.6774-35.814,37.6171-47.7678,7.3215-121.38262,32.1265-133.16112,115.0621-8.9905,63.3039,23.2808,87.3078,57.1489,95.6163,24.875,6.1024,41.40592,30.2975,36.37442,55.411-4.826,24.0878,2.3707,51.9341,44.1012,73.9538,93.5146,49.3444,186.9037-116.9007,186.9037-116.9007l19.139-290.2747Z" transform="translate(0 -15.32858)"/>
            <path class="cls-35" d="M1570.521,1294.5832s-186.7145,295.3307-408.7407,352.3741c0,0,43.2623,123.2196,76.6545,137.3219,0,0,273.1544-227.9162,343.3509-447.7306Z" transform="translate(0 -15.32858)"/>
            <path class="cls-36" d="M677.29648,3183.517l-6.0517,49.7474a20.551,20.551,0,0,1-18.024,17.9789c-15.9477,1.8217-41.5399,3.6891-66.5792,1.0421a17.59884,17.59884,0,0,1-14.7779-22.8237c6.1041-19.2044,17.2712-48.0331,33.3714-64.998h55.1855A17.00027,17.00027,0,0,1,677.29648,3183.517Z" transform="translate(0 -15.32858)"/>
            <path class="cls-37" d="M1109.528,2600.7568l9.3146,54.7921s-31.1923,315.9514-36.7405,442.3317a99.022,99.022,0,0,0,14.6557,56.2827l54.238,88.0774L1013.1509,3160.9l-2.7442-16.8216,22.5653-31.0259-29.557-353.9438a108.59481,108.59481,0,0,1,12.3582-60.0633l28.5124-53.564Z" transform="translate(0 -15.32858)"/>
            <path class="cls-38" d="M1160.0732,3255h-43.9891a26.48315,26.48315,0,0,1-21.0207-10.3054c-13.7135-17.8189-42.1257-52.5837-55.7117-53.4912-18.2887-1.2217-15.9491,63.7966-15.9491,63.7966h-10.2517l-12.9855-80.7928a47.82554,47.82554,0,0,1,25.096-49.9903s4.1808,30.9178,26.8496,44.5938,92.2475,62.6516,92.2475,62.6516a62.84906,62.84906,0,0,1,17.8784.4759C1176.1166,3234.4466,1174.1777,3255,1160.0732,3255Z" transform="translate(0 -15.32858)"/>
            <path class="cls-39" d="M920.7256,2626.7806S737.992,2973.4084,708.94428,3052.549s-39.2235,145.162-39.6131,151.4137c-.6088,9.7691-12.7593,19.139-46.2525,19.139-17.2851,0-25.7502-6.929-29.8953-13.6352a19.52624,19.52624,0,0,1-.7393-18.9119c10.5703-21.3921,44.1147-89.7553,56.5382-120.7619,14.8331-37.0203,46.7391-204.7904,64.2374-263.1218s37.2775-121.6065,113.4788-179.8903C826.69848,2626.7806,879.0079,2575.5469,920.7256,2626.7806Z" transform="translate(0 -15.32858)"/>
            <path class="cls-40" d="M1036.1617,2058.8132c47.1369-199.7383-72.275-312.7079-72.275-312.7079,75.3465-72.3242,212.6276-105.2349,212.6276-105.2349s130.9957,95.7697,115.4558,170.7308c-9.108,43.9349-92.0775,263.1611-92.0775,263.1611S1123.1715,2111.0716,1036.1617,2058.8132Z" transform="translate(0 -15.32858)"/>
            <path class="cls-41" d="M931.6523,2157.6979c19.183-57.7907,104.5094-98.8847,104.5094-98.8847,87.0098,52.2584,163.7309,15.9491,163.7309,15.9491s17.2057,65.7654,5.3302,126.883c-11.875,61.1177-86.3801,453.9031-86.3801,453.9031-117.3949,23.7867-297.94622-23.9317-297.94622-23.9317C895.6726,2498.8571,912.4693,2215.4887,931.6523,2157.6979Z" transform="translate(0 -15.32858)"/>
            <path class="cls-42" d="M1090.8762,1508.8768l-38.3234,172.1408c-3.6691,15.1624,10.1533,12.6811,25.4832,9.791,25.1045-4.733,57.461-14.481,68.2775-34.0156a18.54057,18.54057,0,0,0,1.9612-6.487l16.4644-119.3666a21.4471,21.4471,0,0,0-12.5524-22.5366l-31.7716-14.0878A21.44705,21.44705,0,0,0,1090.8762,1508.8768Z" transform="translate(0 -15.32858)"/>
            <path class="cls-43" d="M963.8867,1746.1053s-369.9027,366.1744,166.5488,220.0062c0,0,6.1174-46.2864-1.8667-45.4898-173.9606,17.3554-246.7212,57.1832-105.3093-79.94,4.9996-4.8481,3.4544-23.1473.2388-29.3247C1013.7071,1792.5468,991.313,1755.1932,963.8867,1746.1053Z" transform="translate(0 -15.32858)"/>
            <g>
              <path class="cls-44" d="M1164.2801,1351.9526s40.7995,27.6179,58.3311,97.9505-10.9592,95.5611-40.1635,94.0152-71.5486-10.5774-108.2373-61.0345S1110.8158,1318.205,1164.2801,1351.9526Z" transform="translate(0 -15.32858)"/>
              <path class="cls-45" d="M1111.2086,1454.5158s-14.9491-100.7802,68.7242-85.3652l16.9189,17.6144s40.9555-46.1233-4.3678-80.9886-108.218-25.9368-143.0145,37.5363-47.4254,108.0744-18.2597,147.516,51.1041,5.6143,51.1041,5.6143-13.3756-34.1366-2.2773-48.7849,25.4174,8.5186,25.4174,8.5186Z" transform="translate(0 -15.32858)"/>
              <path class="cls-46" d="M1099.773,1463.1463s-7.3808-51.8507-33.8619-37.0282,9.544,48.4359,23.9879,59.8728Z" transform="translate(0 -15.32858)"/>
            </g>
            <g>
              <path class="cls-47" d="M1569.2381,1355.3822c.5657,6.092-22.0888,10.3023-29.2984-15.6686,1.9817-11.2756,5.502-60.6521,14.1472-68.323,46.0451-40.8558,128.153-86.816,128.153-86.816,9.1831,14.0198-2.8601,23.2541-2.8601,23.2541l-40.9866,27.6604c4.2755,14.1609,10.5148,26.6807,11.2205,42.8477a47.98231,47.98231,0,0,1-12.1146,33.5161c-8.1566,9.3203-19.1377,21.354-29.0362,30.4905C1589.7265,1359.6356,1569.2381,1355.3822,1569.2381,1355.3822Z" transform="translate(0 -15.32858)"/>
              <path class="cls-48" d="M1591.5014,1335.2538l-6.2641-2.5773c.8322-2.0268,20.5015-49.822,30.014-59.764,3.6153-3.7719,5.3603-7.0024,5.1993-9.6065a6.83684,6.83684,0,0,0-2.103-4.2193l-33.164,17.7364-14.6491,22.9355-5.7092-3.651,15.5976-24.4301,38.8464-20.77,1.754,1.4274c3.9285,3.2126,5.9598,6.6623,6.1925,10.555.2863,4.6354-2.0224,9.4454-7.0606,14.7117C1612.9873,1285.0872,1597.0407,1321.7546,1591.5014,1335.2538Z" transform="translate(0 -15.32858)"/>
            </g>
          </g>
          <g>
            <path class="cls-49" d="M1377.1245,1762.6794l-110.5328-14.5642c-13.1788-2.1841-26.7829,5.5376-34.9254,19.8239l-72.7098,160.7166c-13.688,24.0139-3.9518,55.8705,18.1985,59.5425l88.7581,11.384c8.4932,1.4076,17.2217-3.9528,22.0138-13.5196l98.3356-196.2752C1391.9443,1778.447,1387.1928,1764.3484,1377.1245,1762.6794Z" transform="translate(0 -15.32858)"/>
            <path class="cls-50" d="M1130.4355,1966.1115s-12.4701-51.2775-7.4399-69.4699,14.7761-41.5826,47.2625-36.3848,70.807,18.8828,70.807,18.8828-1.9358,23.6965-26.6255,16.0512l15.3102,11.8464s-2.1881,18.9737-23.0432,8.8371l14.2399,15.7115s-8.9564,15.5829-24.2997,5.5879S1173.9486,1972.2859,1130.4355,1966.1115Z" transform="translate(0 -15.32858)"/>
          </g>
        </g>
      </g>
    </g>
    <g id="Calque_5" data-name="Calque 5">
      <polygon class="cls-51" points="0 2258.159 0 2983.948 3710 1407.195 3710 681.405 0 2258.159"/>
      <text class="cls-52" transform="matrix(0.91891, -0.39447, 0.39447, 0.91891, 1312.53696, 2329.12297)">C<tspan class="cls-53" x="391.83496" y="0">L</tspan><tspan class="cls-54" x="670.69702" y="0">OS</tspan></text>
    </g>
  </g>
</svg>
