<svg id="Calque_1" data-name="Calque 1" xmlns="http://www.w3.org/2000/svg" viewBox="0 0 1295 387"><defs><style>.cls-1{fill:#64d7fe;}.cls-2{fill:#49c5fe;}.cls-3{fill:#88dffc;}.cls-4{fill:#727997;}.cls-5{fill:#87dffd;}.cls-6{fill:#616b8c;}.cls-7{fill:#7e88a8;}.cls-8{fill:#3c4967;}.cls-9{fill:#959cb6;}.cls-10{fill:#f1f6fa;}.cls-11{fill:#4c516f;}.cls-12{fill:#e4eaf4;}.cls-13{fill:#d22351;}.cls-14{fill:#f83c6f;}.cls-15{fill:#d02553;}.cls-16{fill:#7cd9fb;}.cls-17{fill:#e3e8f3;}.cls-18{fill:#e73c6f;}.cls-19{fill:#72d6fb;}.cls-20{fill:#c2ceda;}.cls-21{fill:#d6dbe8;}.cls-22{fill:#dbe4f0;}.cls-23{fill:#62ccf8;}.cls-24{fill:#3b4266;}.cls-25{fill:#3e4467;}.cls-26{fill:#566282;}.cls-27{fill:#8c1a37;}.cls-28{fill:#d32f5b;}.cls-29{fill:#0498de;}.cls-30{fill:#077cbf;}</style></defs><path class="cls-1" d="M391,0H757c1.33.69,2.59,1.73,4,2,19.66,4.12,39.41,7.86,59,12.28,15.55,3.51,31,7.45,46.36,11.88,17.87,5.16,35.84,10.26,53.2,16.85,26.87,10.21,53.4,21.35,79.82,32.68,28.34,12.16,55,27.57,80.73,44.47a460.44,460.44,0,0,1,55.27,42.49,344.16,344.16,0,0,1,43.13,46.22c12,15.62,22.28,32.32,29.68,50.62,9.68,24,15.17,48.65,13,74.85A164.46,164.46,0,0,1,1210,382.17a26.5,26.5,0,0,0-1,4.83H959c2.51-5.9,4.77-11.92,7.6-17.67,4.15-8.42,7-17,6.48-26.58-.35-6.65,0-13.33-.12-20a14.22,14.22,0,0,0-.65-4.89C969,309.43,965.66,301,962,292.68c-5.45-12.5-14.38-22.8-23.82-32.1-10-9.89-21.68-18.27-33.24-26.45a219.3,219.3,0,0,0-45-25c-8-3.2-15.86-6.77-23.78-10.18-.06-2.49-.16-5-.19-7.47q-.21-17.7-.41-35.39c.08-4.28.61-8.62,0-12.81-.29-2.23-2.48-4.2-3.81-6.29l-2.8-1.24-2.36-1L822,132.25c0-3.83-.29-7.69.08-11.48.84-8.61-2.27-14.48-10.83-17-9.31-7.32-18.75-7.84-29.58-2.52C744,119.79,706,137.77,668.06,155.9c-1.23.59-2.77.53-4.17.77-2.83-8.47-5.11-17.18-8.63-25.35-4-9.35-9.47-17.93-20-21.42L615,99.72,613.53,99l-3.45-1.12c-1.44-1.36-2.8-2.81-4.34-4-1.19-1-2.68-2.39-3.89-2.26-1.5.16-3,1.56-4.23,2.7a31.73,31.73,0,0,0-3.2,3.88c-24.34,7.12-39.91,24-51,45.86-3.73,7.38-7.5,14.74-11.25,22.12l-25.24,2H503l-5,1c-5.05.73-10.09,3.18-15.14,0L478.78,172c-2.08.38-4.18.71-6.24,1.16-5.85,1.27-11.69,2.58-17.54,3.88l-2,.06-3,1-3,0L444,180l-11,2-4,2-18,5.13-11.05-4-1.88-.06c-7.08-.21-12.15,3.8-17.09,8.11l-.82.77a1.63,1.63,0,0,0-.28.77l-5,6.95-2.09,1.21c-12.1,5.38-24.41,10.34-36.26,16.24-15.87,7.92-30.46,17.91-44.28,29.08s-26.11,23.61-34.87,39c-6.52,11.48-12.54,23.21-13.62,37-.94,12.05-.89,23.71,2.53,35.45A112.3,112.3,0,0,0,258,387H142c-3.28-4.11-6.31-8.45-9.89-12.29a245.73,245.73,0,0,1-42.92-63.25C75.31,282,69.79,251,74.26,218.77c3.07-22.14,11.12-42.78,23.12-61.7a238.17,238.17,0,0,1,49.09-55.3A362.56,362.56,0,0,1,233.7,48.21C256,38.41,279,29.93,302.23,22.34c20.18-6.59,41-11.22,61.62-16.47C372.82,3.59,381.94,1.94,391,0Zm74.06,121.14L463.31,123l-2.64,4.9-1.81,3c-5,5.85-3.79,16.26,2.61,19.85,3,1.67,6.37,2.62,9.57,3.89,4.1,3.51,8.94,3.7,13.59,2.09,11-3.78,18.19-11.69,21.41-22.64,1.14-3.84,1.49-9.7-.64-12.37-5.48-6.87-13.57-10.54-22.52-11.22-2.07-.16-4.27,1.38-6.42,2.14a.5.5,0,0,0-.51.16l-3.42,2L467,119.11l-1.87,1.94Zm118-91.93-1.2.6.79.82-1.81,2.45-.58.85c-.17.36-.35.71-.52,1.06l-2,5L577.41,45c-.79,3.76-.83,7.77,2.6,9.9,4.36,2.72,9.33,4.47,14,6.63l1,.51,1.92.7c1.18.53,3.77-.21,2,2.79-.66,1.1-.37,4.09.25,4.34,1.6.66,3.62.26,5.47.28-.14-1.7-.28-3.39-.41-5.09-.08-1-.15-1.92-.23-2.88a1.59,1.59,0,0,0,.93-.2,12.63,12.63,0,0,0,10.15-5.88,1.63,1.63,0,0,0,.84-.39c5.37-3.44,9.21-7.9,9.78-14.56.11-.58.23-1.16.34-1.75,4.17-7.21,1.47-14.69-6.09-16.91l-1-.46L614,19.51l-1.66-.66L608,16.74l-2.13-.4-2.72,0-3.12.53c-7.55,1.38-13,5.63-16.82,12.19Zm18.63,61.48c1.95-2.43,3.8-3.75,3.83-5.1,0-1-2.23-3-3.5-3s-2.76,1.7-4.14,2.66ZM487,162.26c-2.61-1.5-4.07-3-5.36-2.89-1.5.16-2.84,1.78-4.24,2.77,1.37,1.13,2.64,2.94,4.17,3.19C482.76,165.53,484.3,163.85,487,162.26ZM606.24,77.58V75.87c-1.54-.82-3.13-2.34-4.62-2.25-1.31.09-2.5,2-3.74,3.07,1.42,1.07,2.73,2.75,4.29,3C603.36,79.92,604.87,78.36,606.24,77.58Z"/><path class="cls-2" d="M1209,387a26.5,26.5,0,0,1,1-4.83,164.46,164.46,0,0,0,11.26-47.81c2.14-26.2-3.35-50.87-13-74.85-7.4-18.3-17.68-35-29.68-50.62a344.16,344.16,0,0,0-43.13-46.22,460.44,460.44,0,0,0-55.27-42.49c-25.73-16.9-52.39-32.31-80.73-44.47C973,64.38,946.44,53.24,919.57,43c-17.36-6.59-35.33-11.69-53.2-16.85C851.05,21.75,835.56,17.81,820,14.3,800.41,9.88,780.66,6.14,761,2c-1.41-.29-2.67-1.33-4-2h538V387Z"/><path class="cls-2" d="M391,0c-9.06,1.94-18.18,3.59-27.15,5.87-20.61,5.25-41.44,9.88-61.62,16.47C279,29.93,256,38.41,233.7,48.21a362.56,362.56,0,0,0-87.23,53.56,238.17,238.17,0,0,0-49.09,55.3c-12,18.92-20,39.56-23.12,61.7-4.47,32.27,1,63.2,14.93,92.69a245.73,245.73,0,0,0,42.92,63.25c3.58,3.84,6.61,8.18,9.89,12.29H0V0Z"/><path class="cls-3" d="M258,387a112.3,112.3,0,0,1-11.75-27.28c-3.42-11.74-3.47-23.4-2.53-35.45,1.08-13.78,7.1-25.51,13.62-37,8.76-15.44,21.08-27.9,34.87-39s28.41-21.16,44.28-29.08c11.85-5.9,24.16-10.86,36.26-16.24l.12,4c-3.49,4.23-2.75,13.73,1.68,16.68,3.23,2.15,6.95,3.56,10.45,5.31l1,.11c.5.62.91,1.63,1.53,1.78,4.87,1.2,5.34,5.06,5.71,9-6.21,1.93-12.3,4.45-18.64,5.61-5.09.93-7.84,4.55-11.39,7.3-.77.6-.95,2.35-.91,3.56.32,8,4.42,13.91,10.49,18.69-3.22,4.29-6.66,8.43-9.59,12.91-2.5,3.82-4.4,8-6.57,12.06-5.25.32-10.55.3-15.73,1.07-5.46.82-10.8,2.4-16.18,3.65.22-.79.89-1.9.59-2.31-1.1-1.51-2.32-3.33-3.9-3.91-.8-.29-2.48,1.84-3.76,2.87a31.67,31.67,0,0,0,4.06,3.4c.71.43,1.92,0,2.9,0-.29.88-.59,1.77-.89,2.65-4.34-.83-6.29.9-5.68,5.34l.1,4c0,1.68-.09,3.37-.13,5.06l-1.31.36-.43.17c-7.05,3-14.13,6.16-18.9,12.41-3.38,4.43-6,9.47-8.93,14.23-3.55,1.28-7.3,2.2-10.63,3.92-5.6,2.9-6.33,7.35-1.71,11.54a31.14,31.14,0,0,0,10,6.15c6.92,2.51,14.12,4.25,21.2,6.3l3-.72c9.31-4.36,18.65-8.64,27.91-13.08q90.48-43.29,180.93-86.64,32.4-15.51,64.87-30.87c.13,4.6.28,9.2.41,13.8q.32,11.31.6,22.62c0,10.8-.18,21.61-.06,32.42.06,5,2.54,8.83,7.15,11.15s9.44,4.86,14.16,7.3c-3.36,1.76-6.77,3.43-10.07,5.28-5.46,3.07-11.28,5.71-16.15,9.54-5.39,4.24-4,11.89,2.11,15.22,2.32,1.27,4.66,2.5,7,3.67Q610.09,376.8,631,387H582c-.07-2.83-.23-5.66-.2-8.49.05-4.62-1.62-7.77-6.17-9.73-7.49-3.22-14.75-7-22.1-10.52q-34.62-16.69-69.25-33.39a21.06,21.06,0,0,0-19.22.16c-21,10.16-42,20.18-63.06,30.25q-16.44,7.88-32.88,15.75c-2.95,1.41-5.8,2.94-4.76,7.07-.15,1.34-.3,2.68-.44,4l-.63.78L361,387Zm51.94-140.07h0l-3,3,0,0q-1.49,1.51-3,3a2.9,2.9,0,0,0-.18.76c-3.8,1.49-4.19,5-4.81,8.3l-1.2,3.9c-2.49,9.76,1.93,16.37,11.39,17,3.93,2.65,7.55,5.4,13,4.34,12.5-2.43,19.77-10.63,23.59-21.77,3.92-11.44.6-17.41-10.66-20.66a1.58,1.58,0,0,0-.75-.06L332,243.24c-4.51-2.43-9.14-3.23-14-1L314,244l-2,1.12Zm11.45,41c-1.57,2.05-3.41,3.7-3.13,4.24a8.3,8.3,0,0,0,3.82,3.39c.43.18,2.75-2,2.65-3C324.57,291.18,323,290,321.39,287.89Z"/><path class="cls-4" d="M797,387H697c-2.2-1.58-4.25-3.47-6.63-4.69-24.81-12.66-51.09-22.41-74.61-37.62-.83-4.66.93-8.67,3.16-12.55l2-.4c1.22,1.68,2.09,4.18,3.73,4.88a51.28,51.28,0,0,0,11.72,3.23c3.13.51,6.4.17,9.61.21l6,.77c2.92-.34,6.08-.09,8.7-1.15,6-2.42,11.67-5.52,17.5-8.28,6.89-3.26,13.85-6.37,20.71-9.68,9.69-4.67,19.28-9.55,29-14.19C743.7,300,759.61,292.58,775.43,285c13-6.22,25.89-12.64,38.85-18.93,4.42-2.14,4.72-4,1.09-7.71L818,257c2.73.2,5.59,1,8.15.42s5.23-2.29,2.56-5.77l7.2-11.12c4.58,1.46,9.32,2.55,13.7,4.45,7.92,3.45,15.64,7.38,23.43,11.13,24.16,11.62,48.21,23.46,72.52,34.76,8.65,4,12,10,10.4,19.09-3,1.18-6.16,2.18-9.1,3.57q-18.57,8.85-37,17.89c-10.09,4.91-20.11,10-30.24,14.81-10.48,5-21.09,9.75-31.55,14.79q-18.37,8.85-36.58,18C806.56,381.53,801.82,384.34,797,387Zm43.37-67c-4.21,1.33-8.18,2.32-11.94,3.85-4.6,1.88-9,4.21-13.5,6.36-10,4.8-20.16,9.48-30.08,14.54-2,1-4,3.29-4.42,5.3-.22,1.19,2.54,3.43,4.38,4.42,5.85,3.15,11.86,6,17.86,8.85,7.49,3.55,15,3.94,22.44-.21,2.75-1.53,5.68-2.74,8.52-4.09,12.17-5.75,24.38-11.41,36.45-17.37a7.11,7.11,0,0,0,3.54-4.78c.13-1.3-2-3.3-3.5-4.16-5.53-3.05-11.15-6-16.93-8.51C849.16,322.42,844.82,321.4,840.37,320ZM668.68,350c2.27-.85,3.87-1.33,5.36-2q21.86-10.4,43.67-20.88l92.13-44.22c11.54-5.54,23.13-11,34.55-16.75,1.47-.75,3.13-3.36,2.88-4.79-.49-2.85-3.15-3.61-5.92-2.82a28.77,28.77,0,0,0-4.16,1.69q-38.28,18.28-76.54,36.59-33.76,16.18-67.48,32.44c-8.83,4.26-17.67,8.53-26.36,13.07-1.2.63-2.51,3.23-2.1,4.23C665.34,348,667.42,348.94,668.68,350Zm19.48,9.56a55.65,55.65,0,0,0,5.46-1.87q36-17.22,72-34.51c20.53-9.87,41-19.84,61.55-29.71,12.3-5.91,24.7-11.61,36.92-17.67,1.57-.78,2.37-3.13,3.53-4.75-1.92-1-3.94-3-5.75-2.8-2.64.24-5.16,2-7.69,3.16q-38.34,18.19-76.66,36.45c-13.5,6.45-26.91,13.09-40.4,19.56-16.66,8-33.39,15.82-50,23.93-1.38.68-2.84,3.14-2.64,4.54S686.93,358.38,688.16,359.52Zm130.87-52c-2.18.88-3.59,1.36-4.92,2q-19.8,9.38-39.56,18.79c-9.9,4.73-19.84,9.41-29.58,14.44-1.41.72-1.85,3.3-2.74,5a35.93,35.93,0,0,0,5.73,2.62c.92.25,2.2-.6,3.24-1.1,23.08-11.08,46.17-22.13,69.15-33.39a5.42,5.42,0,0,0,2.28-4.62C822.37,309.82,820.26,308.7,819,307.51Zm15.25.9a24.84,24.84,0,0,0,4.36-1q22.65-10.91,45.24-21.91c2.25-1.1,4.71-2.28,3.2-5.62-1.43-3.15-4.09-3.24-6.74-2.31a72.22,72.22,0,0,0-7.13,3.49c-13.3,6.45-26.64,12.82-39.85,19.44-1.42.71-3.2,3.19-2.88,4.3C830.93,306.38,833.17,307.44,834.28,308.41ZM732,349.93a11.26,11.26,0,0,0-2.22.21c-7.8,3.69-15.67,7.27-23.31,11.28-1.11.59-2,4.39-1.46,4.8,1.58,1.24,4.35,2.65,5.84,2,7.66-3.18,15.14-6.82,22.48-10.69a5.44,5.44,0,0,0,2.12-4.77C735,351.38,732.7,350.5,732,349.93Z"/><path class="cls-5" d="M956,310c1.56-9.1-1.75-15.08-10.4-19.09-24.31-11.3-48.36-23.14-72.52-34.76-7.79-3.75-15.51-7.68-23.43-11.13-4.38-1.9-9.12-3-13.7-4.45q.14-20.81.25-41.61c7.92,3.41,15.77,7,23.78,10.18a219.3,219.3,0,0,1,45,25c11.56,8.18,23.2,16.56,33.24,26.45,9.44,9.3,18.37,19.6,23.82,32.1,3.62,8.31,7,16.75,10.27,25.19a14.22,14.22,0,0,1,.65,4.89c.08,6.66-.23,13.34.12,20,.5,9.58-2.33,18.16-6.48,26.58-2.83,5.75-5.09,11.77-7.6,17.67H825c6.47-3.34,12.87-6.84,19.42-10,33.54-16.25,67.14-32.37,100.67-48.64C952.64,324.69,957.91,319.4,956,310Z"/><path class="cls-6" d="M956,310c1.93,9.42-3.34,14.71-10.89,18.37C911.56,344.62,878,360.74,844.42,377c-6.55,3.17-12.95,6.67-19.42,10H797c4.82-2.66,9.56-5.47,14.47-7.94q18.22-9.15,36.58-18c10.46-5,21.07-9.78,31.55-14.79,10.13-4.85,20.15-9.9,30.24-14.81q18.49-9,37-17.89C949.82,312.16,952.94,311.16,956,310Z"/><path class="cls-7" d="M364.36,378.1c-1-4.13,1.81-5.66,4.76-7.07q16.42-7.89,32.88-15.75c21-10.07,42.08-20.09,63.06-30.25a21.06,21.06,0,0,1,19.22-.16q34.66,16.63,69.25,33.39c7.35,3.55,14.61,7.3,22.1,10.52,4.55,2,6.22,5.11,6.17,9.73,0,2.83.13,5.66.2,8.49h-2v-9.86a65.82,65.82,0,0,0-7,2.76c-4.05,2.24-8,4.72-12,7.1H545c.06-1.81.74-4.91.08-5.22-4.27-2-8.05-6.06-13.53-4.27l-2.06-.65c-.83-1.4-1.32-3.34-2.55-4.1a81.68,81.68,0,0,0-8.9-4.25c.32-1.07.63-2.14,1-3.21l2.72-.5,2.34-.33.17.21-.19.19c1.33,1.67,2.32,4,4.05,4.9,7,3.71,14.19,6.94,21.27,10.44,2.76,1.36,5.3,1.68,7.71-.61l1.44-.53,3.65-1.8,1.09-.53,1.83-1.38a.89.89,0,0,0,.33-.39l.11-1.53a32,32,0,0,0-4.31-3.2c-5.62-2.89-11.39-5.5-17-8.44-4.17-2.18-8.28-3.26-12.72-1,.28-.91.57-1.82.86-2.73-.13-.69-.25-1.37-.38-2.06l-14.85-4.71c-.53-.78-1.07-1.56-1.61-2.33-6.06-4.58-12.21-8.4-19.75-2.78-.71.54-1.89.45-2.85.65a5.57,5.57,0,0,1,1-1.62c5.32-4.05,5.24-5.15-.9-8.13-5.54-2.69-11-5.51-16.74-7.8-2.09-.83-5.11-1.14-7-.25-19.34,8.91-38.55,18.08-57.77,27.23-10.06,4.79-20.11,9.61-30.09,14.56-4.67,2.32-4.64,4.47-.15,7.31A15.55,15.55,0,0,0,383,379l3.67.86a.26.26,0,0,1-.08-.44,27.31,27.31,0,0,0,3.77,3.39c2.44,1.54,5.07,2.79,7.62,4.16H381Z"/><path class="cls-2" d="M618.92,332.14c-2.23,3.88-4,7.89-3.16,12.55-2.22,11.66-.1,16,10.37,21.24,3.58,1.77,7.25,3.35,10.82,5.11q16,7.95,32,16H631q-20.89-10.22-41.79-20.44c-2.38-1.17-4.72-2.4-7-3.67-6.09-3.33-7.5-11-2.11-15.22,4.87-3.83,10.69-6.47,16.15-9.54,3.3-1.85,6.71-3.52,10.07-5.28Z"/><path class="cls-8" d="M669,387q-16-8-32-16c-3.57-1.76-7.24-3.34-10.82-5.11-10.47-5.2-12.59-9.58-10.37-21.24,23.52,15.21,49.8,25,74.61,37.62,2.38,1.22,4.43,3.11,6.63,4.69Zm-17.8-15.87c-.52-1.08-.68-2.18-1.25-2.48-4.22-2.17-8.48-4.27-12.85-6.12-.49-.22-1.69,1.2-2.56,1.87a7.15,7.15,0,0,1,2.05,1.08c.45.45.47,1.29.79,1.9.46.89.84,2.24,1.56,2.48a93.39,93.39,0,0,0,10.16,2.74C649.64,372.72,650.44,371.69,651.2,371.13Zm17.13,11.47,4.4-1.09c-1.3-1.37-2.41-3-4-4a85.87,85.87,0,0,0-8.77-4.72,2.54,2.54,0,0,0-2.22,0c-.45.39-.65,2-.41,2.14C661.08,377.05,662.83,382.09,668.33,382.6Z"/><path class="cls-9" d="M519,365.3c-.32,1.07-.63,2.14-1,3.21-3.46,1.53-6.93,3.05-10.39,4.59-3.18,1.41-3.13,3.09-.27,4.81,5.33,3.19,10.67,6,16.77,1.5,1.57-1.14,3.55-1.71,5.34-2.55l2.06.65c-1.42.77-2.83,1.57-4.27,2.31-5.16,2.65-5.28,3.29-1.28,7.18H509c-.14-1.12.09-2.51-.49-3.32-4.05-5.75-18.93-5.14-22.45.89-.36.61-.05,1.61-.06,2.43h-8q-1-2.33-2.06-4.65c5.78,2.45,10.23-1.12,14.76-3.58,2.39-1.3,1.73-3.29-.49-4.59-5.31-3.11-10.6-5.58-16.5-1.08-1.67,1.28-3.83,1.95-5.76,2.9l-1-1.14a71,71,0,0,0,6.19-3.67c2.39-1.75,2.81-3.65-.32-5.23-2.63-1.34-5.23-2.73-7.84-4.09l6-3.9c1.94,4.09,10.69,9.13,14.08,7.7,3.76-1.58,7.27-3.77,10.89-5.7l7.11,1.84-13.22,3.95c-3.31,1.92-.81,3.33.62,4.28,2.18,1.45,4.72,2.34,7,3.65s4.37,1,6-1.17L511,369c1.62-1,2.67-2,0-3l-6.12-3.91c5.21-1,.62-3.77,1-5.64,1.45-1,3-1.83,4.33-2.9,1.83-1.43,3.54-3,5.3-4.54l1.61,2.33-.07-.27-1,1.39c-1.84,1.06-3.64,2.2-5.53,3.17-3.27,1.67-2.77,3.15.05,4.75S516.19,363.64,519,365.3Z"/><path class="cls-6" d="M471,358l-6,3.9-14.11,6.3-1.07-.29-7.89,3.79-10.34,5.22q-2.8,2-5.6,3.94L412,387H398c-2.55-1.37-5.18-2.62-7.62-4.16a27.31,27.31,0,0,1-3.77-3.39c1.47.09,3.09-.18,4.39.33,3.09,1.22,5.94,3.08,9.07,4.17,1.89.66,4.46,1.12,6.13.37,9.08-4.13,18-8.66,26.93-13.06L459,359.07l13.4-6.52,2-1,9.45-3.74,1.26,1.4c-.05,1-.11,1.91-.16,2.86Z"/><path class="cls-10" d="M526,387c-4-3.89-3.88-4.53,1.28-7.18,1.44-.74,2.85-1.54,4.27-2.31,5.48-1.79,9.26,2.23,13.53,4.27.66.31,0,3.41-.08,5.22Z"/><path class="cls-7" d="M441.93,371.67l7.89-3.79c.24,2.61,1.19,4.47,4.29,4.05l1.87.12,4,1.94a.86.86,0,0,0,.64.24l2.43,1.34,3.9-.71,1,1.14-.06,1.21c.13,2.27.9,3.88,3.6,3.47l4.45,1.67q1,2.32,2.06,4.65h-2l-3.71-2.14-.18-.1-4.32-2.65c-3.42-1.33-6.73-3.43-10.6-1.41L456.11,379c-.47-1-.7-2.54-1.44-2.84C450.49,374.5,446.19,373.14,441.93,371.67Z"/><path class="cls-10" d="M486,387c0-.82-.3-1.82.06-2.43,3.52-6,18.4-6.64,22.45-.89.58.81.35,2.2.49,3.32Z"/><path class="cls-6" d="M561,387c4-2.38,7.9-4.86,12-7.1a65.82,65.82,0,0,1,7-2.76V387Z"/><path class="cls-9" d="M456.11,379l1.08,1.69L449,387H436l-4.92-3.92c-.37-1.11-.74-2.22-1.1-3.33l-1.08,2.36L426,380.83q2.79-2,5.6-3.94c2.19,5.32,7.79,5.57,12,7.95.41.23,1.29-.21,1.87-.49C449,382.59,452.55,380.79,456.11,379Z"/><path class="cls-10" d="M449,387l8.19-6.3c3.87-2,7.18.08,10.6,1.41l4.32,2.65.18.1L472,387Z"/><path class="cls-11" d="M364.36,378.1,381,387H361l2.29-4.1.63-.78C364.06,380.78,364.21,379.44,364.36,378.1Z"/><path class="cls-12" d="M426,380.83l2.91,1.28,2.18,1L436,387H412Z"/><path class="cls-9" d="M472,387l.29-2.14L476,387Z"/><path class="cls-2" d="M755,0h0Z"/><path class="cls-13" d="M584,245.56Q551.58,261,519.15,276.43q-90.47,43.29-180.93,86.64c-9.26,4.44-18.6,8.72-27.91,13.08-.42-.88-1.36-1.89-1.17-2.6a131.59,131.59,0,0,1,4.57-15.19c7.15-17.81,21.68-26.55,40.26-24.68a7.68,7.68,0,0,0,4.34-.69c4.57-2.59,9.3-5.05,13.38-8.31,6.59-5.26,8.46-13.72,12.8-20.53,3.71-5.83,7.12-12.19,12.07-16.81,6.7-6.26,14.88-11.15,24.82-8.91,9.1,2,16.2-1,22.74-7,9.7-8.86,13.75-21,19-32.41,5.56-12.16,11.74-23.62,24.42-30.14,9.06-4.66,17.78-6.89,27.51-1.79,3.11,1.64,7.19,2.12,10.79,2,6.55-.21,11.64-4.13,15.52-9a141.45,141.45,0,0,0,11.82-17.52c4.32-7.43,8.35-15.06,12-22.86,8.44-18.16,19.53-34,37.55-43.83,10.1-5.5,20.75-9,32.53-6.06,10.57,3.49,16,12.07,20,21.42,3.52,8.17,5.8,16.88,8.63,25.35-3.29,2.1-6.43,4.49-9.89,6.25-11.61,5.9-23.33,11.58-35,17.34-5.58,2.66-11.37,5-16.67,8.12-2.91,1.73-5,4.85-7.46,7.34-7.45,5.46-9.9,13.47-10.44,22C583.85,227,584.12,236.29,584,245.56Z"/><path class="cls-12" d="M836.18,198.94q-.12,20.81-.25,41.61l-7.2,11.12L818,257l-2.65,1.34L808,261.83a31.22,31.22,0,0,0-3.76,1.24Q742.77,292.52,681.35,322c-5.76,2.76-11.62,5.31-17.44,8l-8.78-2.49-1.08-1.62c0-23.71,0-47.42-.13-71.12,0-3.78-.59-7.56-.9-11.34l3.35-2.12a52.23,52.23,0,0,0,5.09-1.84q50.17-24,100.32-48.07,36.88-17.67,73.8-35.28.21,17.68.41,35.39C836,194,836.12,196.45,836.18,198.94ZM722,260.08v-12l.93-8L721,236a63.33,63.33,0,0,0,.85-6.81,2.58,2.58,0,0,0-1.73-1.84c-4.58-.36-9.11,4-9.17,8.65,0,1.33,0,2.66,0,4s0,2.6,0,3.91c-.29,3-.59,5.95-.88,8.93L711,256v13l-.93,8,1,4.09q.48,4.25,1,8.51c2.9-.88,6.11-1.25,8.65-2.76,4.68-2.78,1.38-6.48.39-9.83l0-2.92,1.08-9.05Zm50-21c-.35,1-.7,2-1.06,2.95a17.07,17.07,0,0,0-.44,4.34,4.68,4.68,0,0,0,1.83,2.39c3.29-1.79,6.47-3.77,9.67-5.72l4-1c10-1.81,12-4.11,11.89-13.89v-3.14A12.87,12.87,0,0,1,798,222a29.52,29.52,0,0,1,1.44-3.68c.51,1.21,1,2.43,1.54,3.64,0,1.05.05,2.11.07,3.16,0,.33-.06.66,0,1,.22,2.74.46,5.48.69,8.22,2.31-1,4.54-2.44,7-2.84,5.15-.88,4.48-4.54,4.17-7.92-.38-4-3.81-1.91-5.87-2.57a11,11,0,0,1,2-2.19c4.65-3,5-4,3.06-9.9V205c1.18-3.47,2.37-6.95-1-10,0-.37,0-.74,0-1.11a55.41,55.41,0,0,0,1.79-7.73c.06-.58-2.43-2.23-3-1.94-3.3,1.72-8,1.73-8.92,6.74-.12.61-2,1.5-2.74,1.28A10.56,10.56,0,0,0,786,197l-4,1c-11.08,3.58-11.08,3.58-11,14,.33.67.66,1.35,1,2-.34,3.35-.67,6.69-1,10,0,1,0,2,0,3.05q0,4.93,0,9.89l1,2.06Zm-5-25a47.86,47.86,0,0,1,.48-5c.71-3.57-.72-4.12-3.83-3.15-6.75,2.08-7.69,3.46-7.7,12.09,0,1.34,0,2.68.07,4,0,2.28-.36,4.63.07,6.83.22,1.11,1.84,1.95,2.82,2.92L759,233c-1,1.24-2.53,2.34-2.89,3.74-.51,2-.16,4.16-.18,6.26,0,1.31,0,2.63,0,3.95a59.09,59.09,0,0,0-.77,7.69c0,.72,1.68,2.06,2.53,2,7.15-.4,10.84-6.68,8.28-13.8l0-2.9c3.61-3,1.59-6.58,1-10l-1-2c3.53-3,2-6.55,1.07-10ZM752,221.93a41.71,41.71,0,0,0,.56-7.19c-.06-.73-2.08-2-3-1.87-6.33,1-8.51,3.73-8.51,10.15,0,1,0,2,0,3v3l-4,3c0-1,0-2,0-3a48.86,48.86,0,0,0,.75-7.19,3.28,3.28,0,0,0-2.4-2.19A10.37,10.37,0,0,0,726,230v3c0,1.35,0,2.69,0,4,.76,3.25-2,7.19,2,9.82l0,1.19c-4,2.66-1.21,6.69-2,10,0,1.32,0,2.63,0,3.94,0,3,0,6,0,9V274c0,1.64-.07,3.28,0,4.92.15,4.22.88,4.57,4.69,2.68,2-1,4.2-1.76,6.3-2.62l4-3c3.27-1.44,6.76-2.52,9.73-4.42,2.45-1.58,4-5,1.52-7.07-2.67-2.24-2.19-3.07-.36-5.33,2.51-3.08,1.29-7.77-1.89-9.2,0-1,0-1.94,0-2.92,5.07-1.67,2.11-5.95,2.94-9l-.06-4.17c-.29-3-.59-5.93-.89-8.9Zm-51,77.54,1.61-.23a29.78,29.78,0,0,0,.44-3.74q0-29.92,0-59.84a7.76,7.76,0,0,0-.13-2.47c-.23-.67-.93-1.17-1.42-1.74a7.11,7.11,0,0,0-1.34,1.82,8.1,8.1,0,0,0-.12,2.47c0,19.62,0,39.23,0,58.85A27,27,0,0,0,700.94,299.47Zm-8-44.13c-.65-.37-1.46-1.18-1.86-1C687,256.08,683,257.94,679,260c-.18.09.48,1.84.74,2.82,4.17-1.92,8.34-3.82,12.48-5.8C692.53,256.81,692.61,256.11,692.94,255.34Zm-35.17,4.44c1.68,1.7,2.65,2.69,3.63,3.67,1.05-1.32,2.76-2.56,3-4,.16-1.15-1.54-2.54-2.42-3.83Zm162-44c-.17.44-.35.87-.52,1.31,1.85.57,4.35,2.17,5.42,1.5,2.46-1.55,4.22-4.2,6.27-6.41l-1.52-1.4c-1.28,1.26-2.37,2.91-3.9,3.68C823.83,215.33,821.72,215.39,819.78,215.79Zm9.39-20.94c-1.49-.31-4.38-1.79-5.48-.94-2,1.54-3,4.45-4.31,6.83,0,.1.68.9.94.85a4.44,4.44,0,0,0,1.53-.92C824.11,198.89,826.36,197.08,829.17,194.85Zm-136,50.72-3.19-3.25c-.95,1.38-2.32,2.65-2.68,4.17-.19.8,1.38,2,2.16,3Zm-8,4.23L682,246.33c-1,1.14-2.44,2.17-2.74,3.46-.19.83,1.34,2.06,2.09,3.11C682.42,252,683.5,251.14,685.12,249.8Zm-17.86,19a18.94,18.94,0,0,0-1.65-2.1c-2.21,1.29-4.35,2.7-6.45,4.16-.12.08.34,1.26.39,1.25a32.23,32.23,0,0,0,5-1.25A12.73,12.73,0,0,0,667.26,268.76Zm5.58-14c-1-1.48-1.56-2.33-2.14-3.18a46.52,46.52,0,0,0-3.15,5.16c-.13.28,1.38,1.33,2.13,2Zm4,10c-1.63-1.29-2.61-2.42-2.91-2.26-1.89,1-3.63,2.32-5.42,3.52.51.53,1.2,1.6,1.51,1.5C672,266.85,673.94,265.94,676.8,264.75Z"/><path class="cls-14" d="M635.22,109.9c-11.78-3-22.43.56-32.53,6.06-18,9.82-29.11,25.67-37.55,43.83-3.63,7.8-7.66,15.43-12,22.86a141.45,141.45,0,0,1-11.82,17.52c-3.88,4.82-9,8.74-15.52,9-3.6.12-7.68-.36-10.79-2-9.73-5.1-18.45-2.87-27.51,1.79-12.68,6.52-18.86,18-24.42,30.14-5.23,11.44-9.28,23.55-19,32.41-6.54,6-13.64,9-22.74,7-9.94-2.24-18.12,2.65-24.82,8.91-4.95,4.62-8.36,11-12.07,16.81-4.34,6.81-6.21,15.27-12.8,20.53-4.08,3.26-8.81,5.72-13.38,8.31a7.68,7.68,0,0,1-4.34.69c-18.58-1.87-33.11,6.87-40.26,24.68a131.59,131.59,0,0,0-4.57,15.19c-.19.71.75,1.72,1.17,2.6l-3,.72c-5.89-3-11.67-6.26-17.72-8.92-3.38-1.5-4.6-3.44-3.8-6.91.92-4,1.78-8.05,2.66-12.08,2.95-4.76,5.55-9.8,8.93-14.23,4.77-6.25,11.85-9.41,18.9-12.41l.29.13.14-.3,1.31-.36,6.87-.23c4.7-.49,9.77,0,14-1.68,9-3.52,14.09-11.27,17.73-19.94,2.17-4,4.07-8.24,6.57-12.06,2.93-4.48,6.37-8.62,9.59-12.91l18.81-8.75,5.82.39c6.84,2.56,13.06.9,18.79-3.05,9.07-6.26,14.5-15.18,18-25.43l7.95-17.66a38.71,38.71,0,0,0,2.25-3.17c8-13.91,19.07-23.34,35.75-24.68l2.57.12c3.24,1.22,6.57,2.25,9.7,3.71,6,2.81,11.63,1.94,17.06-1.22,11.44-6.67,17.91-17.26,22.7-29.13,3.75-7.38,7.52-14.74,11.25-22.12,11-21.89,26.62-38.74,51-45.86l15.66-.28L613.53,99l1.51.76Zm-29.33-6.77c-2.57-3.18-5.18-3-7.82-.09l-2.87,3.2c1,.66,2,1.8,3,1.89a32.45,32.45,0,0,0,7.63-.2c1-.15,1.92-1.4,2.87-2.15ZM485.26,198.05c-1.84-3.77-4.54-3.36-7.54-1.57l-3.53,3.87c1.45.87,2.81,2.24,4.36,2.48a19.3,19.3,0,0,0,6.85-.35c1.1-.24,2-1.57,2.92-2.41Zm-85.93,74c-2.09-3.64-4.66-3.44-7.51-.93l-3.38,2.74c1,1,1.84,2.67,2.93,2.83a31.47,31.47,0,0,0,8.34,0c1-.13,1.87-1.59,2.79-2.44Zm-78.12,61.77a39.12,39.12,0,0,0,6.11-2.23c.53-.29.78-2.41.3-3-1.85-2.37-8.88-3-11.11-1.14-1.94,1.6-2.13,3.39.15,4.75A23.5,23.5,0,0,0,321.21,333.83Z"/><path class="cls-8" d="M618.92,332.14l-12.64.71c-4.72-2.44-9.42-4.91-14.16-7.3S585,319.44,585,314.4c-.12-10.81,0-21.62.06-32.42a32,32,0,0,0,.92-5.24c.1-9.3,0-18.59,0-27.89,0-3-.41-6.49,3.89-3.8,1.17-2.05,1.79-4.8,3.25-5.38,4.82-1.88,5.16-5.4,4.89-9.63a78.57,78.57,0,0,1,0-9.46,12,12,0,0,1,1.26-4.69c2.1-4,4.44-7.93,6.68-11.89,3.81-3.32,7.53-6.74,11.46-9.9A59.84,59.84,0,0,1,624,190c2.82-1.32,5.63-2.66,8.46-4,11.6-5.31,23.26-10.5,34.8-16,19.35-9.15,38.62-18.47,57.91-27.74,18.7-9,37.32-18.16,56.12-26.93,9.72-4.53,18.78-10.92,30-11.63,8.56,2.5,11.67,8.37,10.83,17-.37,3.79-.07,7.65-.08,11.48l-8.54,1.84c-.08-3-.11-6-.27-9-.24-4.27-2.55-7-6.78-7.09a18.84,18.84,0,0,0-8.18,1.57c-25.71,12.16-51.34,24.49-77,36.79-32.07,15.37-64.2,30.63-96.19,46.18C614,208,607.39,216.25,607.63,229.64c.47,26.46.39,52.94,0,79.4-.13,9.08,4.05,12.63,13.14,10.53.1,3.52.19,7,.29,10.56l-.12,1.61Z"/><path class="cls-15" d="M835.58,156.08q-36.9,17.64-73.8,35.28-50.16,24-100.32,48.07a52.23,52.23,0,0,1-5.09,1.84c-.94-.93-2.24-1.7-2.72-2.82-.68-1.57-.71-3.42-1.08-5.13-.89-4.09-1.82-8.17-2.73-12.25,2.49-.65,5.91.13,6.16-4,1.7-1.32,3.25-3,5.13-3.89,9.61-4.79,19.28-9.45,29-14.07,12.71-6,25.48-11.95,38.19-18,19-9.08,38-18.27,57-27.34,5.67-2.71,11.44-5.18,17.15-7.81,8.09-3.72,16.17-7.49,24.25-11.24l2.36,1,2.8,1.24c1.33,2.09,3.52,4.06,3.81,6.29C836.19,147.46,835.66,151.8,835.58,156.08ZM669.45,230.65c1.27-.54,2.19-.91,3.1-1.33,3.91-1.82,7.84-3.61,11.72-5.48q51.45-24.72,102.87-49.5a8.78,8.78,0,0,0,3.88-3c.94-1.68,1-3.84,1.5-5.79-1.77-.06-3.83-.75-5.26-.08-11.73,5.42-23.34,11.13-35,16.7q-36.84,17.6-73.68,35.19a52.25,52.25,0,0,0-10.14,6.11c-1.07.86-.83,3.56-.81,5.42C667.64,229.51,668.86,230.1,669.45,230.65Zm140.19-69.59c-2.25-2-3.21-3.46-4.45-3.75-2.49-.58-7.51,4.18-6.89,6.61.29,1.17,2.68,3,3.21,2.71C804.09,165.33,806.35,163.41,809.64,161.06Z"/><path class="cls-6" d="M811.29,103.79c-11.22.71-20.28,7.1-30,11.63-18.8,8.77-37.42,18-56.12,26.93-19.29,9.27-38.56,18.59-57.91,27.74-11.54,5.46-23.2,10.65-34.8,16-2.83,1.3-5.64,2.64-8.46,4-.9-.38-1.77-.82-2.7-1.13-6.2-2-6.2-2-2.54-7.16.26-.36.17-1,.24-1.46,11.67-5.76,23.39-11.44,35-17.34,3.46-1.76,6.6-4.15,9.89-6.25,1.4-.24,2.94-.18,4.17-.77C706,137.77,744,119.79,781.71,101.27,792.54,96,802,96.47,811.29,103.79Z"/><path class="cls-5" d="M442.18,220.47l-7.95,17.66L430,239l-31.45.6c2.88-3.13-1.07-5.77-.63-8.72,10.75-3,17.93-10.39,21.44-20.47,3.36-9.67,3-17.74-8.38-20.44a5.27,5.27,0,0,1,0-.89L429,184l4-2,11-2,3-1.91,3,0,3-1,2-.06c.58.3,1.16.62,1.74.9,1,.48,1.94.93,2.91,1.4-.73,1.21-1.19,2.93-2.27,3.53-2,1.09-4.48,1.2-6.45,2.29-3.89,2.15-7.45,4.92-11.36,7-7.52,4-9.1,12-2.67,17.72C440.33,212.93,440.83,216.75,442.18,220.47Z"/><path class="cls-16" d="M442.18,220.47c-1.35-3.72-1.85-7.54-5.28-10.6-6.43-5.73-4.85-13.68,2.67-17.72,3.91-2.1,7.47-4.87,11.36-7,2-1.09,4.48-1.2,6.45-2.29,1.08-.6,1.54-2.32,2.27-3.53-1-.47-1.94-.92-2.91-1.4-.58-.28-1.16-.6-1.74-.9,5.85-1.3,11.69-2.61,17.54-3.88,2.06-.45,4.16-.78,6.24-1.16l4.13,1.47c0-1.46,0-2.91,0-4.36,5.05,3.14,10.09.69,15.14,0,2,1.27,3.82,1.82,5-1H507c.27,1.82,1.73,4.06-1.31,4.85a25.39,25.39,0,0,0-12.94,7.56,4.69,4.69,0,0,1-3.1,1.33c-3.17,0-4.77,1.77-5.73,4.48l-6.33,2.32c.87,1.34,1.74,2.69,2.62,4-16.68,1.34-27.75,10.77-35.75,24.68A38.71,38.71,0,0,1,442.18,220.47Z"/><path class="cls-17" d="M476.46,112.61c2.15-.76,4.35-2.3,6.42-2.14,8.95.68,17,4.35,22.52,11.22,2.13,2.67,1.78,8.53.64,12.37-3.22,10.95-10.44,18.86-21.41,22.64-4.65,1.61-9.49,1.42-13.59-2.09l-2.1-10.56c.63-3.41-.84-5.55-3.93-6.9-2.07-.91-4-2.09-6-3.14l-.12-3.14,1.81-3a28.39,28.39,0,0,1,5.26,1.1c5.3,2.18,8.54,1.24,12.4-2.82a59.6,59.6,0,0,1,9.52-7.79c1.59-1.1,3.79-1.32,5.72-1.94-1.66-1.87-3.22-3.13-4.89-3.31C484.64,112.7,480.54,112.76,476.46,112.61Zm16.78,15c-8.1-.28-16,9-14.08,15.16.49,1.62,3.15,3.53,4.91,3.65,6.14.4,13.57-8.18,12.4-14.28C496.1,130.14,494,128.52,493.24,127.56Z"/><path class="cls-18" d="M826.66,134.73c-8.08,3.75-16.16,7.52-24.25,11.24-5.71,2.63-11.48,5.1-17.15,7.81-19,9.07-38,18.26-57,27.34-12.71,6.06-25.48,12-38.19,18-9.7,4.62-19.37,9.28-29,14.07-1.88.94-3.43,2.57-5.13,3.89l-3.28-3.53c2.06-1.58,3.93-3.55,6.22-4.66,34.11-16.46,68.29-32.77,102.42-49.19,13.3-6.4,26.51-13,39.77-19.49l12.37-6.13,8.54-1.84Z"/><path class="cls-17" d="M411,190c11.39,2.7,11.74,10.77,8.38,20.44-3.51,10.08-10.69,17.42-21.44,20.47L386,229l-1-.11L383.05,214c.49-2.19,2-4.95,1.2-6.43-.93-1.71-3.89-3.05-6-3.16-2.3-.11-3.37-.38-3.38-2.72l5-6.95c-.43,1.52-.87,3-1.35,4.7,2.93.7,5.6,1.48,8.34,2,1.36.23,3.38.47,4.15-.27C396.7,195.61,403.76,192.67,411,190Zm-5.19,11.83c-6.24,0-13.51,8-12.76,14.16.45,3.74,2.79,5,6.32,4.56,5.56-.79,11.58-7.77,11.51-13.44C410.83,203.87,409.52,201.65,405.81,201.83Z"/><path class="cls-19" d="M483.89,186.27c1-2.71,2.56-4.45,5.73-4.48a4.69,4.69,0,0,0,3.1-1.33,25.39,25.39,0,0,1,12.94-7.56c3-.79,1.58-3,1.31-4.85l25.24-2c-4.79,11.87-11.26,22.46-22.7,29.13-5.43,3.16-11.08,4-17.06,1.22-3.13-1.46-6.46-2.49-9.7-3.71C484.79,190.87,485.79,188.83,483.89,186.27Z"/><path class="cls-17" d="M605,61.93a1.59,1.59,0,0,1-.93.2L597,62l-1.91,0-1-.51c-1.44-2-2.82-4-4.33-6a32.89,32.89,0,0,0-4.63-5.39A84.46,84.46,0,0,0,577.41,45L577.8,40c.71-1,1.42-2.05,2.14-3.07.83.52,1.65,1.06,2.49,1.57,6,3.61,8,3.38,12.4-1.88,5.44-6.51,11.23-12.4,20.06-14,.43-.08.71-1,1.06-1.53l3.1.91,1,.46c5.51,4.38,6.79,10.29,6.09,16.91l-.34,1.75c-3,3.77-6.09,7.49-9,11.34-.61.82-.55,2.13-.8,3.22a1.63,1.63,0,0,1-.84.39Zm12.43-23.26c0-4.31-3.18-6.69-7.46-5.25a15,15,0,0,0-10.39,11.79c-1,4.63,2,7.49,6.57,6.72C611.4,51.05,617.41,44,617.44,38.67Z"/><path class="cls-10" d="M616,21.07c-.35.53-.63,1.45-1.06,1.53-8.83,1.65-14.62,7.54-20.06,14-4.39,5.26-6.41,5.49-12.4,1.88-.84-.51-1.66-1.05-2.49-1.57-.06-.66-.12-1.31-.17-2,.17-.35.35-.7.52-1.06l.58-.85,1.81-2.45c.14-.47.27-.94.41-1.42l.12-.13q6.1-4.39,12.2-8.8C597,19.16,598.49,18,600,16.89l3.12-.53,2.72,0,2.13.4,4.32,2.11,1.66.66Z"/><path class="cls-10" d="M476.46,112.61c4.08.15,8.18.09,12.22.54,1.67.18,3.23,1.44,4.89,3.31-1.93.62-4.13.84-5.72,1.94a59.6,59.6,0,0,0-9.52,7.79c-3.86,4.06-7.1,5-12.4,2.82a28.39,28.39,0,0,0-5.26-1.1l2.64-4.9,1.75-1.87.08-.09,1.87-1.94,5.52-4.34,3.42-2A.5.5,0,0,1,476.46,112.61Z"/><path class="cls-10" d="M411,190c-7.24,2.67-14.3,5.61-20,11.13-.77.74-2.79.5-4.15.27-2.74-.47-5.41-1.25-8.34-2,.48-1.67.92-3.18,1.35-4.7a1.63,1.63,0,0,1,.28-.77l.82-.77c4.94-4.31,10-8.32,17.09-8.11l1.88.06,11.05,4A5.27,5.27,0,0,0,411,190Z"/><path class="cls-20" d="M468.94,144.05l2.1,10.56c-3.2-1.27-6.59-2.22-9.57-3.89-6.4-3.59-7.63-14-2.61-19.85L459,134q-.53,3.54-1.06,7.08c2.54-1.26,3.74-3.12,5.61.19C464.36,142.75,467.08,143.16,468.94,144.05Z"/><path class="cls-20" d="M577.41,45a84.46,84.46,0,0,1,7.68,5.17,32.89,32.89,0,0,1,4.63,5.39c1.51,1.94,2.89,4,4.33,6-4.71-2.16-9.68-3.91-14-6.63C576.58,52.72,576.62,48.71,577.41,45Z"/><path class="cls-21" d="M374.84,201.7c0,2.34,1.08,2.61,3.38,2.72,2.14.11,5.1,1.45,6,3.16.8,1.48-.71,4.24-1.2,6.43l-10.18-7.12-.12-4Z"/><path class="cls-22" d="M610.08,97.84l-15.66.28a31.73,31.73,0,0,1,3.2-3.88c1.24-1.14,2.73-2.54,4.23-2.7,1.21-.13,2.7,1.3,3.89,2.26C607.28,95,608.64,96.48,610.08,97.84Z"/><path class="cls-12" d="M597,62l7.08.11c.08,1,.15,1.92.23,2.88.13,1.7.27,3.39.41,5.09-1.85,0-3.87.38-5.47-.28-.62-.25-.91-3.24-.25-4.34,1.78-3-.81-2.26-2-2.79C597,62.47,597,62.25,597,62Z"/><path class="cls-12" d="M601.72,90.69l-3.81-5.42c1.38-1,2.78-2.69,4.14-2.66s3.52,1.94,3.5,3C605.52,86.94,603.67,88.26,601.72,90.69Z"/><path class="cls-12" d="M487,162.26c-2.66,1.59-4.2,3.27-5.43,3.07-1.53-.25-2.8-2.06-4.17-3.19,1.4-1,2.74-2.61,4.24-2.77C482.89,159.23,484.35,160.76,487,162.26Z"/><path class="cls-12" d="M606.24,77.58c-1.37.78-2.88,2.34-4.07,2.13-1.56-.27-2.87-1.95-4.29-3,1.24-1.09,2.43-3,3.74-3.07,1.49-.09,3.08,1.43,4.62,2.25Z"/><path class="cls-12" d="M600,16.89c-1.54,1.13-3.07,2.27-4.62,3.39q-6.09,4.41-12.2,8.8C587,22.52,592.48,18.27,600,16.89Z"/><path class="cls-12" d="M616,55.66c.25-1.09.19-2.4.8-3.22,2.89-3.85,6-7.57,9-11.34C625.21,47.76,621.37,52.22,616,55.66Z"/><path class="cls-12" d="M626.12,39.35c.7-6.62-.58-12.53-6.09-16.91C627.59,24.66,630.29,32.14,626.12,39.35Z"/><path class="cls-12" d="M605,61.93l10.15-5.88A12.63,12.63,0,0,1,605,61.93Z"/><path class="cls-10" d="M482.87,169.08c0,1.45,0,2.9,0,4.36L478.78,172Z"/><path class="cls-19" d="M503,168.06c-1.2,2.8-3,2.25-5,1Z"/><path class="cls-20" d="M579.77,35c.05.66.11,1.31.17,2-.72,1-1.43,2-2.14,3.07Z"/><path class="cls-12" d="M616,21.07l-2-1.56L619.05,22Z"/><path class="cls-16" d="M433,182l-4,2Z"/><path class="cls-12" d="M612.32,18.85,608,16.74Z"/><path class="cls-16" d="M447,178.07,444,180Z"/><path class="cls-12" d="M605.87,16.34l-2.72,0Z"/><path class="cls-16" d="M453,177.07l-3,1Z"/><path class="cls-17" d="M476,112.77l-3.42,2Z"/><path class="cls-22" d="M615,99.72,613.53,99Z"/><path class="cls-18" d="M831.82,137l-2.8-1.24Z"/><path class="cls-17" d="M467,119.11l-1.87,1.94Z"/><path class="cls-17" d="M465.06,121.14,463.31,123Z"/><path class="cls-12" d="M583.09,29.21c-.14.48-.27.95-.41,1.42l-.79-.82Z"/><path class="cls-17" d="M399.93,185.16l-1.88-.06Z"/><path class="cls-20" d="M597,62c0,.23,0,.45,0,.67l-1.92-.7Z"/><path class="cls-17" d="M381,193.21l-.82.77Z"/><path class="cls-20" d="M580.87,33.08l-.58.85Z"/><path class="cls-19" d="M398.57,239.63,430,239c-1.13.88-2.57,2.74-3.33,2.49-4-1.32-7,.14-10.11,2.38-4.88,3.57-10.45,6.43-14.59,10.71-3.12,3.21-4.63,3.2-6.73-.27a39,39,0,0,0-3.13,4c-.16.28.77,1.2,1.2,1.83q-.85,3-1.7,6L372.82,275c-6.07-4.78-10.17-10.71-10.49-18.69,0-1.21.14-3,.91-3.56,3.55-2.75,6.3-6.37,11.39-7.3,6.34-1.16,12.43-3.68,18.64-5.61Z"/><path class="cls-17" d="M298.93,262c.62-3.34,1-6.81,4.81-8.3a9.76,9.76,0,0,0,1.24,2.11c5.9,5.82,7.64,5.67,13.69.11,4.22-3.89,8.4-8,14.49-9.09.73-.13,1.28-1.29,1.91-2,11.26,3.25,14.58,9.22,10.66,20.66-3.82,11.14-11.09,19.34-23.59,21.77-5.47,1.06-9.09-1.69-13-4.34L309,272C309.67,265.71,306.25,262.3,298.93,262ZM337,263.09c-.09-3.82-2.24-5.67-6.13-5.26-6,.63-12.13,7.93-11.76,14,.21,3.51,2.15,5,5.52,4.85C330.34,276.42,337.12,268.93,337,263.09Z"/><path class="cls-11" d="M606,204c-2.24,4-4.58,7.86-6.68,11.89a12,12,0,0,0-1.26,4.69,78.57,78.57,0,0,0,0,9.46c.27,4.23-.07,7.75-4.89,9.63-1.46.58-2.08,3.33-3.25,5.38-4.3-2.69-3.88.83-3.89,3.8,0,9.3,0,18.59,0,27.89A32,32,0,0,1,585,282q-.3-11.31-.6-22.62c-.13-4.6-.28-9.2-.41-13.8.1-9.27-.17-18.57.41-27.81.54-8.56,3-16.57,10.44-22a23.63,23.63,0,0,0-1.07,3.61c-.11.74.17,2.17.53,2.26C598.19,202.51,602.1,203.23,606,204Z"/><path class="cls-23" d="M356.66,299.94c-3.64,8.67-8.69,16.42-17.73,19.94-4.25,1.66-9.32,1.19-14,1.68-.05-5.36-.69-5.82-6.74-4.83l-.1-4,6.38-.4-.7-4.94c.3-.88.6-1.77.89-2.65l.11-.07c5.38-1.25,10.72-2.83,16.18-3.65C346.11,300.24,351.41,300.26,356.66,299.94Z"/><path class="cls-10" d="M335.07,244.87c-.63.68-1.18,1.84-1.91,2-6.09,1.07-10.27,5.2-14.49,9.09-6.05,5.56-7.79,5.71-13.69-.11a9.76,9.76,0,0,1-1.24-2.11,2.9,2.9,0,0,1,.18-.76q1.5-1.5,3-3l0,0,3-3h0L312,245.1l2-1.12,4-1.78c4.85-2.19,9.48-1.39,14,1l2.33,1.57A1.58,1.58,0,0,1,335.07,244.87Z"/><path class="cls-23" d="M288.47,349c-.88,4-1.74,8.06-2.66,12.08-.8,3.47.42,5.41,3.8,6.91,6.05,2.66,11.83,5.91,17.72,8.92-7.08-2.05-14.28-3.79-21.2-6.3a31.14,31.14,0,0,1-10-6.15c-4.62-4.19-3.89-8.64,1.71-11.54C281.17,351.16,284.92,350.24,288.47,349Z"/><path class="cls-20" d="M372.87,206.89,383.05,214,385,228.88c-3.5-1.75-7.22-3.16-10.45-5.31C370.12,220.62,369.38,211.12,372.87,206.89Z"/><path class="cls-20" d="M309,272l.15,10.95c-9.46-.68-13.88-7.29-11.39-17Q303.34,269,309,272Z"/><path class="cls-22" d="M398.57,239.63l-5.3.18c-.37-4-.84-7.84-5.71-9-.62-.15-1-1.16-1.53-1.78l11.91,1.92C397.5,233.86,401.45,236.5,398.57,239.63Z"/><path class="cls-22" d="M309,272l-11.24-6.1,1.2-3.9C306.25,262.3,309.67,265.71,309,272Z"/><path class="cls-10" d="M324.64,304.73c-1,0-2.19.41-2.9,0a31.67,31.67,0,0,1-4.06-3.4c1.28-1,3-3.16,3.76-2.87,1.58.58,2.8,2.4,3.9,3.91.3.41-.37,1.52-.59,2.31Z"/><path class="cls-17" d="M318.17,316.73c6.05-1,6.69-.53,6.74,4.83l-6.87.23C318.08,320.1,318.13,318.41,318.17,316.73Z"/><path class="cls-10" d="M323.75,307.38c.24,1.65.47,3.29.7,4.94l-6.38.4C317.46,308.28,319.41,306.55,323.75,307.38Z"/><path class="cls-10" d="M321.39,287.89c1.6,2.09,3.18,3.29,3.34,4.65.1.94-2.22,3.16-2.65,3a8.3,8.3,0,0,1-3.82-3.39C318,291.59,319.82,289.94,321.39,287.89Z"/><path class="cls-17" d="M318,242.2,314,244Z"/><path class="cls-17" d="M309.93,246.94l-3,3Z"/><path class="cls-17" d="M306.91,249.93q-1.49,1.51-3,3Q305.42,251.45,306.91,249.93Z"/><path class="cls-17" d="M334.32,244.81,332,243.24Z"/><path class="cls-17" d="M312,245.1l-2.06,1.83Z"/><polygon class="cls-17" points="316.73 322.15 316.6 322.45 316.31 322.32 316.73 322.15"/><path class="cls-7" d="M363.92,382.12l-.63.78Z"/><path class="cls-24" d="M840.37,320c4.45,1.42,8.79,2.44,12.82,4.2,5.78,2.52,11.4,5.46,16.93,8.51,1.55.86,3.63,2.86,3.5,4.16a7.11,7.11,0,0,1-3.54,4.78c-12.07,6-24.28,11.62-36.45,17.37-2.84,1.35-5.77,2.56-8.52,4.09-7.47,4.15-15,3.76-22.44.21-6-2.84-12-5.7-17.86-8.85-1.84-1-4.6-3.23-4.38-4.42.38-2,2.46-4.3,4.42-5.3,9.92-5.06,20-9.74,30.08-14.54,4.49-2.15,8.9-4.48,13.5-6.36C832.19,322.3,836.16,321.31,840.37,320Z"/><path class="cls-25" d="M668.68,350c-1.26-1-3.34-1.95-4-3.48-.41-1,.9-3.6,2.1-4.23,8.69-4.54,17.53-8.81,26.36-13.07q33.72-16.26,67.48-32.44,38.25-18.33,76.54-36.59a28.77,28.77,0,0,1,4.16-1.69c2.77-.79,5.43,0,5.92,2.82.25,1.43-1.41,4-2.88,4.79-11.42,5.77-23,11.21-34.55,16.75L717.71,327Q695.89,337.51,674,347.92C672.55,348.63,671,349.11,668.68,350Z"/><path class="cls-25" d="M688.16,359.52c-1.23-1.14-3.46-2.26-3.66-3.67s1.26-3.86,2.64-4.54c16.6-8.11,33.33-15.94,50-23.93,13.49-6.47,26.9-13.11,40.4-19.56q38.29-18.3,76.66-36.45c2.53-1.2,5-2.92,7.69-3.16,1.81-.17,3.83,1.79,5.75,2.8-1.16,1.62-2,4-3.53,4.75-12.22,6.06-24.62,11.76-36.92,17.67-20.53,9.87-41,19.84-61.55,29.71q-36,17.31-72,34.51A55.65,55.65,0,0,1,688.16,359.52Z"/><path class="cls-25" d="M819,307.51c1.23,1.19,3.34,2.31,3.6,3.75a5.42,5.42,0,0,1-2.28,4.62c-23,11.26-46.07,22.31-69.15,33.39-1,.5-2.32,1.35-3.24,1.1a35.93,35.93,0,0,1-5.73-2.62c.89-1.72,1.33-4.3,2.74-5,9.74-5,19.68-9.71,29.58-14.44q19.76-9.44,39.56-18.79C815.44,308.87,816.85,308.39,819,307.51Z"/><path class="cls-26" d="M808,261.83l7.42-3.47c3.63,3.74,3.33,5.57-1.09,7.71-13,6.29-25.86,12.71-38.85,18.93-15.82,7.58-31.73,15-47.55,22.53-9.7,4.64-19.29,9.52-29,14.19-6.86,3.31-13.82,6.42-20.71,9.68-5.83,2.76-11.52,5.86-17.5,8.28-2.62,1.06-5.78.81-8.7,1.15.83-.92,1.49-2.16,2.52-2.72,4.51-2.44,9.13-4.68,13.7-7a47.85,47.85,0,0,0,6.57-2.08c10.86-5.24,21.61-10.72,32.49-15.93,14.05-6.72,28.22-13.19,42.27-19.91,17.64-8.44,35.26-16.94,52.76-25.66C804.56,266.4,806.08,263.77,808,261.83Z"/><path class="cls-25" d="M834.28,308.41c-1.11-1-3.35-2-3.8-3.61-.32-1.11,1.46-3.59,2.88-4.3,13.21-6.62,26.55-13,39.85-19.44a72.22,72.22,0,0,1,7.13-3.49c2.65-.93,5.31-.84,6.74,2.31,1.51,3.34-1,4.52-3.2,5.62q-22.59,11-45.24,21.91A24.84,24.84,0,0,1,834.28,308.41Z"/><path class="cls-26" d="M621,331.74l.12-1.61a35.17,35.17,0,0,0,5.63-1.67c7.09-3.41,14.1-7,21.14-10.5.63,3.76,1.31,7.48,6.21,7.89l1.08,1.62c-2.23,1.26-4.44,2.55-6.69,3.77-4.74,2.56-5.2,4.19-2.43,8.82-3.21,0-6.48.3-9.61-.21a51.28,51.28,0,0,1-11.72-3.23C623,335.92,622.17,333.42,621,331.74Z"/><path class="cls-25" d="M732,349.93c.75.57,3.07,1.45,3.45,2.86a5.44,5.44,0,0,1-2.12,4.77c-7.34,3.87-14.82,7.51-22.48,10.69-1.49.62-4.26-.79-5.84-2-.52-.41.35-4.21,1.46-4.8,7.64-4,15.51-7.59,23.31-11.28A11.26,11.26,0,0,1,732,349.93Z"/><path class="cls-24" d="M646,340.06c-2.77-4.63-2.31-6.26,2.43-8.82,2.25-1.22,4.46-2.51,6.69-3.77l8.78,2.49,4.3,1.15c-4.57,2.32-9.19,4.56-13.7,7-1,.56-1.69,1.8-2.52,2.72Z"/><path class="cls-11" d="M818,257l10.71-5.35c2.67,3.48-.06,5.21-2.56,5.77S820.75,257.22,818,257Z"/><path class="cls-17" d="M433.13,371.26c-9,4.4-17.85,8.93-26.93,13.06-1.67.75-4.24.29-6.13-.37-3.13-1.09-6-2.95-9.07-4.17-1.3-.51-2.92-.24-4.39-.33a.26.26,0,0,0,.08.44l-2.3-3.09c.77-1.13,1.3-2.63,2.35-3.32,2.83-1.83,5.88-3.31,8.84-4.93l1.4-.6,17.56-8.48,1.38-.68,19.56-9.4a.69.69,0,0,0,.6-.24l3.63-.94c-.89,5.32-1.62,10.67-2.8,15.92-.23,1-2.18,1.66-3.34,2.46C431.56,368,431,369.49,433.13,371.26Z"/><path class="cls-11" d="M415.92,358.79l-1.38.68c-5.56,2.26-11.13,4.49-16.65,6.83-.45.19-.62,1.08-.91,1.65l-1.4.6c-4.33,1.71-8.68,3.38-12.93,5.27-.26.11.29,2,.46,3.12L383,379a15.55,15.55,0,0,1-1.78-.89c-4.49-2.84-4.52-5,.15-7.31,10-4.95,20-9.77,30.09-14.56C430.7,347.12,449.91,338,469.25,329c1.93-.89,4.95-.58,7,.25,5.71,2.29,11.2,5.11,16.74,7.8,6.14,3,6.22,4.08.9,8.13a5.57,5.57,0,0,0-1,1.62l-1.95,1-5.81,1.34-1.26-1.4,10.15-5.46-21.92-9.77-1.58-1.35c-.47.67-.94,1.33-1.42,2a.74.74,0,0,1-.62.27c-4.48.47-9.21.41-11.56,5.42l-3.4,1.7c-7.39-.35-12.7,3.53-17.47,8.54a.69.69,0,0,1-.6.24C428.17,350.88,421.52,353.73,415.92,358.79Z"/><path class="cls-14" d="M563.24,376.74l-1.09.53-3.65,1.8-1.44.53c-2.7-.62-5.59-.84-8.08-2-6.64-2.94-13.15-6.18-19.61-9.49-1.64-.85-2.9-2.43-4.34-3.67l.51-1.4,5.91-2.19,0-.1c4.44-2.26,8.55-1.18,12.72,1,5.59,2.94,11.36,5.55,17,8.44a32,32,0,0,1,4.31,3.2c0,.51-.07,1-.11,1.53a.89.89,0,0,1-.33.39Z"/><path class="cls-12" d="M491,347.87l1.95-1c1-.2,2.14-.11,2.85-.65,7.54-5.62,13.69-1.8,19.75,2.78-1.76,1.52-3.47,3.11-5.3,4.54-1.36,1.07-2.88,1.94-4.33,2.9-4.79,1.87-7.93-2.26-11.93-3.29L492,352Z"/><path class="cls-12" d="M531.5,360.8l0,.1-5.91,2.19-.51,1.4-1,.38.19-.19-.17-.21-2.34.33-2.72.5c-2.8-1.66-5.58-3.35-8.42-5s-3.32-3.08-.05-4.75c1.89-1,3.69-2.11,5.53-3.17l1-1.39.07.27L532,356c.13.69.25,1.37.38,2.06C532.07,359,531.78,359.89,531.5,360.8Z"/><path class="cls-12" d="M529.49,376.86c-1.79.84-3.77,1.41-5.34,2.55-6.1,4.46-11.44,1.69-16.77-1.5-2.86-1.72-2.91-3.4.27-4.81,3.46-1.54,6.93-3.06,10.39-4.59a81.68,81.68,0,0,1,8.9,4.25C528.17,373.52,528.66,375.46,529.49,376.86Z"/><path class="cls-27" d="M524,364.87l1-.38c1.44,1.24,2.7,2.82,4.34,3.67,6.46,3.31,13,6.55,19.61,9.49,2.49,1.11,5.38,1.33,8.08,2-2.41,2.29-4.95,2-7.71.61-7.08-3.5-14.3-6.73-21.27-10.44C526.35,368.85,525.36,366.54,524,364.87Z"/><path class="cls-6" d="M383,379l.09-2.09,1.28-.14,2.3,3.09Z"/><path class="cls-27" d="M558.5,379.07l3.65-1.8Z"/><path class="cls-27" d="M565.4,375c0-.51.07-1,.11-1.53C565.47,374,565.44,374.46,565.4,375Z"/><path class="cls-27" d="M563.24,376.74l1.83-1.38Z"/><path class="cls-9" d="M532.36,358.07c-.13-.69-.25-1.37-.38-2.06C532.11,356.7,532.23,357.38,532.36,358.07Z"/><path class="cls-9" d="M521.71,364.8l2.34-.33Z"/><path class="cls-24" d="M651.2,371.13c-.76.56-1.56,1.59-2.1,1.47a93.39,93.39,0,0,1-10.16-2.74c-.72-.24-1.1-1.59-1.56-2.48-.32-.61-.34-1.45-.79-1.9a7.15,7.15,0,0,0-2.05-1.08c.87-.67,2.07-2.09,2.56-1.87,4.37,1.85,8.63,4,12.85,6.12C650.52,369,650.68,370.05,651.2,371.13Z"/><path class="cls-24" d="M668.33,382.6c-5.5-.51-7.25-5.55-11-7.73-.24-.14,0-1.75.41-2.14a2.54,2.54,0,0,1,2.22,0,85.87,85.87,0,0,1,8.77,4.72c1.54,1,2.65,2.67,4,4Z"/><path class="cls-12" d="M471,358l14-5.9a78.37,78.37,0,0,1,7.2,4c1.46,1,2.5,2.61,3.73,3.94-3.62,1.93-7.13,4.12-10.89,5.7C481.65,367.1,472.9,362.06,471,358Z"/><path class="cls-12" d="M467.89,377.21,468,376c1.93-.95,4.09-1.62,5.76-2.9,5.9-4.5,11.19-2,16.5,1.08,2.22,1.3,2.88,3.29.49,4.59-4.53,2.46-9,6-14.76,3.58l-4.45-1.67Z"/><path class="cls-10" d="M467,374.86l-3.9.71-2.43-1.34A.86.86,0,0,1,460,374l-4-1.94-1.87-.12c-1.07-1.25-2.14-2.51-3.22-3.76l14.11-6.3c2.61,1.36,5.21,2.75,7.84,4.09,3.13,1.58,2.71,3.48.32,5.23A71,71,0,0,1,467,374.86Z"/><path class="cls-10" d="M511,369l-7.52,3.52a11.82,11.82,0,0,1-3.36-.56c-3.59-1.79-8.37-1.66-10.3-6.2L503,361.81l1.86.24L511,366C511,367,511,368,511,369Z"/><path class="cls-7" d="M504.9,362.05l-1.86-.24L495.93,360c-1.23-1.33-2.27-3-3.73-3.94a78.37,78.37,0,0,0-7.2-4c.05-.95.11-1.9.16-2.86l5.81-1.34,1,4.14,2,1.11c4,1,7.14,5.16,11.93,3.29C505.52,358.28,510.11,361,504.9,362.05Z"/><path class="cls-21" d="M489.82,365.76c1.93,4.54,6.71,4.41,10.3,6.2a11.82,11.82,0,0,0,3.36.56c-1.66,2.18-3.6,2.56-6,1.17s-4.83-2.2-7-3.65C489,369.09,486.51,367.68,489.82,365.76Z"/><path class="cls-21" d="M511,369c0-1,0-2,0-3C513.67,367,512.62,368,511,369Z"/><path class="cls-7" d="M517.06,351l-1,1.39Z"/><path class="cls-21" d="M453.55,340.61l3.4-1.7,11.56-5.42a.74.74,0,0,0,.62-.27l3-.64,21.92,9.77-10.15,5.46-9.45,3.74A3.79,3.79,0,0,0,474,351c-.17-.59-.34-1.17-.5-1.76L472,351,472,351,470,351c-.17-1.93-4.62-3.38-.69-5.88a7.19,7.19,0,0,0-1.5-2.66c-3.63-3-8.18-2.6-11.83,1.19,1.39-.29,2.66-1.12,4-1.26a15.64,15.64,0,0,1,4.11.65,8.36,8.36,0,0,0-.64,2.83c.2,1.26.55,3,1.44,3.53,1.47.92,3.42,1.07,5.17,1.54l2,1,.45.57L459,359.07v-6.69c-.67.16-2.09.61-3.55.85-1.62.25-3.27.31-4.91.45l.93-5.31a25.32,25.32,0,0,0-4.92.68c-2.65.9-3.77.08-3.77-2.62Z"/><path class="cls-12" d="M442.81,346.43c0,2.7,1.12,3.52,3.77,2.62a25.32,25.32,0,0,1,4.92-.68l-.93,5.31c1.64-.14,3.29-.2,4.91-.45,1.46-.24,2.88-.69,3.55-.85v6.69l-25.9,12.19c-2.11-1.77-1.57-3.28.44-4.67,1.16-.8,3.11-1.44,3.34-2.46,1.18-5.25,1.91-10.6,2.8-15.92Z"/><path class="cls-10" d="M456.11,379c-3.56,1.78-7.12,3.58-10.7,5.34-.58.28-1.46.72-1.87.49-4.16-2.38-9.76-2.63-12-7.95l10.34-5.22c4.26,1.47,8.56,2.83,12.74,4.5C455.41,376.47,455.64,378,456.11,379Z"/><path class="cls-9" d="M450.89,368.17c1.08,1.25,2.15,2.51,3.22,3.76-3.1.42-4.05-1.44-4.29-4.05Z"/><path class="cls-21" d="M474.45,351.55l-2,1L472,352l.06-1L472,351l2-.06A3.79,3.79,0,0,1,474.45,351.55Z"/><path class="cls-21" d="M456,372.05l4,1.94Z"/><path class="cls-9" d="M467.89,377.21l3.6,3.47C468.79,381.09,468,379.48,467.89,377.21Z"/><path class="cls-9" d="M472.11,384.76l-4.32-2.65Z"/><path class="cls-21" d="M460.64,374.23l2.43,1.34Z"/><path class="cls-6" d="M431.08,383.08l-2.18-1,1.08-2.36C430.34,380.86,430.71,382,431.08,383.08Z"/><path class="cls-26" d="M606,204c-3.9-.77-7.81-1.49-11.67-2.41-.36-.09-.64-1.52-.53-2.26a23.63,23.63,0,0,1,1.07-3.61c2.46-2.49,4.55-5.61,7.46-7.34,5.3-3.14,11.09-5.46,16.67-8.12-.07.5,0,1.1-.24,1.46-3.66,5.11-3.66,5.13,2.54,7.16.93.31,1.8.75,2.7,1.13a59.84,59.84,0,0,0-6.54,4.09C613.53,197.26,609.81,200.68,606,204Z"/><path class="cls-11" d="M668.21,331.11l-4.3-1.15c5.82-2.65,11.68-5.2,17.44-8q61.44-29.44,122.84-58.93a31.22,31.22,0,0,1,3.76-1.24c-1.87,1.94-3.39,4.57-5.65,5.7-17.5,8.72-35.12,17.22-52.76,25.66-14,6.72-28.22,13.19-42.27,19.91-10.88,5.21-21.63,10.69-32.49,15.93A47.85,47.85,0,0,1,668.21,331.11Z"/><path class="cls-20" d="M654.05,325.85c-4.9-.41-5.58-4.13-6.21-7.89l-.06-10.9c.08-2.16.22-4.32.23-6.47q.18-29.23.31-58.45l4.7,1.25c.31,3.78.88,7.56.9,11.34C654,278.43,654,302.14,654.05,325.85Z"/><path class="cls-22" d="M786.06,242l-4,1c0-.81,0-1.62,0-2.43-.17-4.87-1.25-5.47-5.53-3.27A42.3,42.3,0,0,1,772,239L771,237c5.21-2.32,11.72-3.13,11.63-11.17,0-2.6-.84-2.92-2.89-2.14-2.91,1.12-5.81,2.28-8.72,3.42,0-1,0-2,0-3.05,2.92-1.17,5.9-2.19,8.74-3.54,3.72-1.75,2-5.13,2.08-8a48.14,48.14,0,0,0-5.64.11A24.11,24.11,0,0,0,772,214c-.32-.68-.65-1.36-1-2,2.23-1,4.53-1.94,6.69-3.11,4.6-2.51,5.66-5.34,4.29-10.85l4-1c.17,7.29.17,7.29,7.19,4.82.93-.32,1.89-.56,2.84-.84l.06,1.19c-2.32,1.46-4.6,3-7,4.36-2.69,1.51-4.6,6.85-2.44,8.74,1,.89,3.9-.17,5.87-.62A17.51,17.51,0,0,0,796,213l0,2.12c-2.65,1.59-5.31,3.17-8,4.78-1.79,1.07-3.21,6.58-1.58,7.77,1,.76,3.36.06,5-.38,2.21-.58,4.31-1.53,6.46-2.33v3.14C786.66,231.06,785.87,232,786.06,242Z"/><path class="cls-22" d="M752.9,233.88l.06,4.17c-3.11,1-6.27,1.81-9.31,3-2.31.9-4,6.88-2.25,8.44.78.68,3.25-.51,4.92-1,1.26-.37,2.47-.94,3.7-1.43,0,1,0,1.95,0,2.92a66.36,66.36,0,0,1-6,3.46c-3.91,1.77-3.38,5.09-2.51,8,.19.65,3.58.37,5.5.52l0,1c-.78.83-1.43,2.16-2.37,2.42-3.62,1-3.87,3.59-3.67,6.6.08,1.31,0,2.64,0,4l-4,3c0-1.64,0-3.28,0-4.92.05-3.11-.47-5-4.18-2.75-2.07,1.24-4.54,1.81-6.83,2.69V271c3.08-1.51,6.64-2.49,9.06-4.72,1.46-1.35,1.14-4.63,1.63-7.05a27,27,0,0,0-5.35.36A35.73,35.73,0,0,0,726,262c0-1.31,0-2.62,0-3.94,2.92-1.13,5.81-2.35,8.76-3.38,4.68-1.65,1.88-5.19,2.12-8-1.69.08-3.39,0-5.06.26A27.37,27.37,0,0,0,728,248l0-1.19c1.09-1,2-2.53,3.31-3,3.46-1.22,5.77-3.29,6.7-6.86l2.14,0c1.85,0,3.79.33,5.52-.14A58.25,58.25,0,0,0,752.9,233.88Z"/><path class="cls-20" d="M796,213a17.51,17.51,0,0,1-3.51,1.66c-2,.45-4.85,1.51-5.87.62-2.16-1.89-.25-7.23,2.44-8.74,2.39-1.35,4.67-2.9,7-4.36l5.06-2L811,195c3.38,3,2.19,6.5,1,10l-11,4.87c-.84,0-1.91-.24-2.46.18A16.85,16.85,0,0,0,796,213Z"/><path class="cls-20" d="M796,201c-1,.28-1.91.52-2.84.84-7,2.47-7,2.47-7.19-4.82a10.56,10.56,0,0,1,12.13-4.7c.77.22,2.62-.67,2.74-1.28.94-5,5.62-5,8.92-6.74.57-.29,3.06,1.36,3,1.94a55.41,55.41,0,0,1-1.79,7.73L800,197Z"/><path class="cls-20" d="M798,224.93c-2.15.8-4.25,1.75-6.46,2.33-1.65.44-4,1.14-5,.38-1.63-1.19-.21-6.7,1.58-7.77,2.65-1.61,5.31-3.19,8-4.78,3.27,1.48,5.2.33,6-3l10-3.14c2,5.85,1.59,6.91-3.06,9.9a11,11,0,0,0-2,2.19h0l-6,1c-.52-1.21-1-2.43-1.54-3.64A29.52,29.52,0,0,0,798,222,12.87,12.87,0,0,0,798,224.93Z"/><path class="cls-20" d="M752.9,233.88a58.25,58.25,0,0,1-7.27,3c-1.73.47-3.67.12-5.52.14l-1.1-1.43L738,237c-.93,3.57-3.24,5.64-6.7,6.86-1.29.46-2.22,2-3.31,3-3.9-2.63-1.19-6.57-2-9.82l11-5,4-3,11-4Z"/><path class="cls-20" d="M741,276c0-1.33.07-2.66,0-4-.2-3,0-5.6,3.67-6.6.94-.26,1.59-1.59,2.37-2.42l1.07-.54L747,262c-1.92-.15-5.31.13-5.5-.52-.87-2.94-1.4-6.26,2.51-8a66.36,66.36,0,0,0,6-3.46c3.18,1.43,4.4,6.12,1.89,9.2-1.83,2.26-2.31,3.09.36,5.33,2.48,2.07.93,5.49-1.52,7.07C747.76,273.48,744.27,274.56,741,276Z"/><path class="cls-21" d="M700.94,299.47a27,27,0,0,1-.9-4.88c-.07-19.62,0-39.23,0-58.85a8.1,8.1,0,0,1,.12-2.47,7.11,7.11,0,0,1,1.34-1.82c.49.57,1.19,1.07,1.42,1.74a7.76,7.76,0,0,1,.13,2.47q0,29.93,0,59.84a29.78,29.78,0,0,1-.44,3.74Z"/><path class="cls-20" d="M807,221c2.06.66,5.49-1.47,5.87,2.57.31,3.38,1,7-4.17,7.92-2.41.4-4.64,1.86-7,2.84-.23-2.74-.47-5.48-.69-8.22,0-.33,0-.66,0-1L807,221Z"/><path class="cls-20" d="M766,242.89c2.56,7.12-1.13,13.4-8.28,13.8-.85,0-2.52-1.3-2.53-2A59.09,59.09,0,0,1,756,247Z"/><path class="cls-20" d="M758.94,231.82c-1-1-2.6-1.81-2.82-2.92-.43-2.2-.09-4.55-.07-6.83l11-4.15c.9,3.48,2.46,7-1.07,10Z"/><path class="cls-20" d="M726,233v-3a10.37,10.37,0,0,1,9.35-10.4,3.28,3.28,0,0,1,2.4,2.19A48.86,48.86,0,0,1,737,229Z"/><path class="cls-20" d="M786.06,242c-.19-10,.6-10.9,11.89-13.89C798,237.85,796,240.15,786.06,242Z"/><path class="cls-20" d="M741,226c0-1,0-2,0-3,0-6.42,2.18-9.18,8.51-10.15.94-.14,3,1.14,3,1.87a41.71,41.71,0,0,1-.56,7.19Z"/><path class="cls-27" d="M653,243.39l-4.7-1.25.82-22.88c.23.61.46,1.21.7,1.81.91,4.08,1.84,8.16,2.73,12.25.37,1.71.4,3.56,1.08,5.13.48,1.12,1.78,1.89,2.72,2.82Z"/><path class="cls-20" d="M767,230c.58,3.43,2.6,7-1,10l-10,3c0-2.1-.33-4.29.18-6.26.36-1.4,1.88-2.5,2.89-3.74Z"/><path class="cls-20" d="M721,276.93c1,3.35,4.29,7.05-.39,9.83-2.54,1.51-5.75,1.88-8.65,2.76q-.5-4.26-1-8.51Z"/><path class="cls-20" d="M771,227.08c2.91-1.14,5.81-2.3,8.72-3.42,2-.78,2.86-.46,2.89,2.14.09,8-6.42,8.85-11.63,11.17Q771,232,771,227.08Z"/><path class="cls-20" d="M782,198c1.37,5.51.31,8.34-4.29,10.85-2.16,1.17-4.46,2.08-6.69,3.11C770.92,201.59,770.92,201.59,782,198Z"/><path class="cls-20" d="M756,218.05c0-8.63.95-10,7.7-12.09,3.11-1,4.54-.42,3.83,3.15a47.86,47.86,0,0,0-.48,5Z"/><path class="cls-20" d="M772,239a42.3,42.3,0,0,0,4.43-1.72c4.28-2.2,5.36-1.6,5.53,3.27,0,.81,0,1.62,0,2.43-3.2,2-6.38,3.93-9.67,5.72a4.68,4.68,0,0,1-1.83-2.39A17.07,17.07,0,0,1,771,242l1.06-2.95Z"/><path class="cls-20" d="M750,247.06c-1.23.49-2.44,1.06-3.7,1.43-1.67.47-4.14,1.66-4.92,1-1.8-1.56-.06-7.54,2.25-8.44,3-1.17,6.2-2,9.31-3C752.13,241.11,755.09,245.39,750,247.06Z"/><path class="cls-20" d="M728,248a27.37,27.37,0,0,1,3.8-1.1c1.67-.23,3.37-.18,5.06-.26-.24,2.78,2.56,6.32-2.12,8-3,1-5.84,2.25-8.76,3.38C726.8,254.72,724,250.69,728,248Z"/><path class="cls-20" d="M772,214a24.11,24.11,0,0,1,4.17-1.35,48.14,48.14,0,0,1,5.64-.11c-.07,2.82,1.64,6.2-2.08,8-2.84,1.35-5.82,2.37-8.74,3.54C771.33,220.69,771.66,217.35,772,214Z"/><path class="cls-20" d="M723,240.08l-.93,8-11.93,4.82c.29-3,.59-6,.88-8.93Z"/><path class="cls-20" d="M711,240c0-1.33,0-2.66,0-4,.06-4.63,4.59-9,9.17-8.65a2.58,2.58,0,0,1,1.73,1.84A63.33,63.33,0,0,1,721,236Z"/><path class="cls-20" d="M726,274c2.29-.88,4.76-1.45,6.83-2.69,3.71-2.25,4.23-.36,4.18,2.75,0,1.64,0,3.28,0,4.92-2.1.86-4.26,1.62-6.3,2.62-3.81,1.89-4.54,1.54-4.69-2.68C725.94,277.3,726,275.66,726,274Z"/><path class="cls-20" d="M722.08,265,721,274l-11,2.91.93-8Z"/><path class="cls-20" d="M726,262a35.73,35.73,0,0,1,5.38-2.41,27,27,0,0,1,5.35-.36c-.49,2.42-.17,5.7-1.63,7.05-2.42,2.23-6,3.21-9.06,4.72C726,268,726,265,726,262Z"/><path class="cls-20" d="M722,252v8.12l-11,5V256Z"/><path class="cls-21" d="M692.94,255.34c-.33.77-.41,1.47-.74,1.63-4.14,2-8.31,3.88-12.48,5.8-.26-1-.92-2.73-.74-2.82,4-2,8-3.87,12.1-5.62C691.48,254.16,692.29,255,692.94,255.34Z"/><path class="cls-22" d="M711,265.05l11-5c0,1.63,0,3.25.05,4.88L711,269Z"/><path class="cls-22" d="M722,252l-11,4-.9-3.13L722,248.05Z"/><path class="cls-22" d="M711,240l10-4,1.92,4-12,3.86C711,242.63,711,241.33,711,240Z"/><path class="cls-20" d="M657.77,259.78l4.16-4.16c.88,1.29,2.58,2.68,2.42,3.83-.19,1.44-1.9,2.68-3,4C660.42,262.47,659.45,261.48,657.77,259.78Z"/><path class="cls-21" d="M819.78,215.79c1.94-.4,4.05-.46,5.75-1.32,1.53-.77,2.62-2.42,3.9-3.68l1.52,1.4c-2.05,2.21-3.81,4.86-6.27,6.41-1.07.67-3.57-.93-5.42-1.5C819.43,216.66,819.61,216.23,819.78,215.79Z"/><path class="cls-22" d="M710.05,276.92,721,274l0,2.92L711,281Z"/><path class="cls-22" d="M741,226,752,221.93l.06,3-11,4Z"/><path class="cls-21" d="M829.17,194.85c-2.81,2.23-5.06,4-7.32,5.82a4.44,4.44,0,0,1-1.53.92c-.26,0-1-.75-.94-.85,1.33-2.38,2.29-5.29,4.31-6.83C824.79,193.06,827.68,194.54,829.17,194.85Z"/><path class="cls-22" d="M756,218.05l11-4v3.85l-11,4.15C756,220.73,756,219.39,756,218.05Z"/><path class="cls-22" d="M756,243l10-3,0,2.9L756,247C756,245.66,756,244.34,756,243Z"/><path class="cls-22" d="M726,233l11-4v3l-11,5C726,235.68,726,234.34,726,233Z"/><path class="cls-22" d="M812,208.92l-10,3.14L801,209.88,812,205Z"/><path class="cls-20" d="M693.12,245.57l-3.71,4c-.78-1-2.35-2.24-2.16-3,.36-1.52,1.73-2.79,2.68-4.17Z"/><path class="cls-20" d="M685.12,249.8c-1.62,1.34-2.7,2.22-3.78,3.1-.75-1.05-2.28-2.28-2.09-3.11.3-1.29,1.77-2.32,2.74-3.46Z"/><path class="cls-21" d="M667.26,268.76a12.73,12.73,0,0,1-2.72,2.06,32.23,32.23,0,0,1-5,1.25s-.51-1.17-.39-1.25c2.1-1.46,4.24-2.87,6.45-4.16A18.94,18.94,0,0,1,667.26,268.76Z"/><path class="cls-22" d="M800,197l10.93-3c0,.37,0,.74,0,1.11l-9.9,5.09Z"/><path class="cls-20" d="M672.84,254.77l-3.16,4c-.75-.7-2.26-1.75-2.13-2a46.52,46.52,0,0,1,3.15-5.16C671.28,252.44,671.85,253.29,672.84,254.77Z"/><path class="cls-21" d="M676.8,264.75c-2.86,1.19-4.8,2.1-6.82,2.76-.31.1-1-1-1.51-1.5,1.79-1.2,3.53-2.5,5.42-3.52C674.19,262.33,675.17,263.46,676.8,264.75Z"/><path class="cls-22" d="M767,230,759,233c0-.4,0-.81-.08-1.21l7-3.87Z"/><path class="cls-22" d="M807,221l-5.91,4.13L801,222Z"/><path class="cls-21" d="M772,239.05c-.35,1-.7,2-1.06,2.95C771.34,241,771.69,240,772,239.05Z"/><path class="cls-23" d="M393.33,260.22c-.43-.63-1.36-1.55-1.2-1.83a39,39,0,0,1,3.13-4c2.1,3.47,3.61,3.48,6.73.27,4.14-4.28,9.71-7.14,14.59-10.71,3.07-2.24,6.12-3.7,10.11-2.38.76.25,2.2-1.61,3.33-2.49l4.21-.9c-3.49,10.25-8.92,19.17-18,25.43-5.73,3.95-11.95,5.61-18.79,3.05l1.9-4.51Z"/><path class="cls-18" d="M321.21,333.83a23.5,23.5,0,0,1-4.55-1.65c-2.28-1.36-2.09-3.15-.15-4.75,2.23-1.84,9.26-1.23,11.11,1.14.48.62.23,2.74-.3,3A39.12,39.12,0,0,1,321.21,333.83Z"/><path class="cls-12" d="M393.33,260.22l6,1.88-1.9,4.51-5.82-.39Q392.47,263.22,393.33,260.22Z"/><path class="cls-28" d="M399.33,272.06l3.17,2.2c-.92.85-1.77,2.31-2.79,2.44a31.47,31.47,0,0,1-8.34,0c-1.09-.16-2-1.84-2.93-2.83l3.38-2.74c1.08,1.37,2.08,3.75,3.27,3.85S397.91,273.12,399.33,272.06Z"/><path class="cls-28" d="M485.26,198.05l3.06,2c-1,.84-1.82,2.17-2.92,2.41a19.3,19.3,0,0,1-6.85.35c-1.55-.24-2.91-1.61-4.36-2.48l3.53-3.87,2.87,4.75Z"/><path class="cls-28" d="M605.89,103.13l2.83,2.65c-1,.75-1.83,2-2.87,2.15a32.45,32.45,0,0,1-7.63.2c-1.05-.09-2-1.23-3-1.89l2.87-3.2c1.29,1.25,2.57,3.48,3.86,3.49S604.57,104.35,605.89,103.13Z"/><path class="cls-12" d="M483.89,186.27c1.9,2.56.9,4.6-1.14,6.47l-2.57-.12c-.88-1.34-1.75-2.69-2.62-4Z"/><path class="cls-21" d="M485.26,198.05l-4.67,3.18-2.87-4.75C480.72,194.69,483.42,194.28,485.26,198.05Z"/><path class="cls-17" d="M605.89,103.13c-1.32,1.22-2.64,3.4-4,3.4s-2.57-2.24-3.86-3.49C600.71,100.09,603.32,100,605.89,103.13Z"/><path class="cls-17" d="M399.33,272.06c-1.42,1.06-2.91,3-4.24,2.92s-2.19-2.48-3.27-3.85C394.67,268.62,397.24,268.42,399.33,272.06Z"/><path class="cls-29" d="M813.5,134.09l-12.37,6.13a9.73,9.73,0,0,0-12.6-3.39q-18,8.43-35.8,17-23.07,11.1-46.08,22.3c-11.26,5.49-22.46,11.1-33.71,16.6-14.83,7.25-29.82,14.18-44.46,21.8-4.71,2.46-7.69,6.72-7.6,13,.3,23.3.09,46.59.12,69.89,0,7,.17,14,.26,20.95l-.48,1.14c-9.09,2.1-13.27-1.45-13.14-10.53.38-26.46.46-52.94,0-79.4-.24-13.39,6.39-21.68,17.47-27.07,32-15.55,64.12-30.81,96.19-46.18,25.64-12.3,51.27-24.63,77-36.79a18.84,18.84,0,0,1,8.18-1.57c4.23.1,6.54,2.82,6.78,7.09C813.39,128.11,813.42,131.1,813.5,134.09Z"/><path class="cls-24" d="M620.78,319.57l.48-1.14c5.54-2.44,11.06-4.92,16.61-7.32,3.28-1.41,6.61-2.7,9.91-4.05l.06,10.9c-7,3.51-14.05,7.09-21.14,10.5a35.17,35.17,0,0,1-5.63,1.67C621,326.61,620.88,323.09,620.78,319.57Z"/><path class="cls-27" d="M669.45,230.65c-.59-.55-1.81-1.14-1.82-1.76,0-1.86-.26-4.56.81-5.42a52.25,52.25,0,0,1,10.14-6.11q36.79-17.69,73.68-35.19c11.66-5.57,23.27-11.28,35-16.7,1.43-.67,3.49,0,5.26.08-.46,1.95-.56,4.11-1.5,5.79a8.78,8.78,0,0,1-3.88,3q-51.4,24.81-102.87,49.5c-3.88,1.87-7.81,3.66-11.72,5.48C671.64,229.74,670.72,230.11,669.45,230.65Z"/><path class="cls-27" d="M809.64,161.06c-3.29,2.35-5.55,4.27-8.13,5.57-.53.27-2.92-1.54-3.21-2.71-.62-2.43,4.4-7.19,6.89-6.61C806.43,157.6,807.39,159.1,809.64,161.06Z"/><path class="cls-28" d="M649.84,221.07c-.24-.6-.47-1.2-.7-1.81l3.58-5.7,3.28,3.53C655.75,221.2,652.33,220.42,649.84,221.07Z"/><path class="cls-28" d="M493.24,127.56c.72,1,2.86,2.58,3.23,4.53,1.17,6.1-6.26,14.68-12.4,14.28-1.76-.12-4.42-2-4.91-3.65C477.27,136.55,485.14,127.28,493.24,127.56Z"/><path class="cls-21" d="M468.94,144.05c-1.86-.89-4.58-1.3-5.41-2.77-1.87-3.31-3.07-1.45-5.61-.19q.54-3.54,1.06-7.08c2,1.05,4,2.23,6,3.14C468.1,138.5,469.57,140.64,468.94,144.05Z"/><path class="cls-30" d="M652.72,213.56q-1.8,2.85-3.58,5.7l-.82,22.88q-.15,29.22-.31,58.45c0,2.15-.15,4.31-.23,6.47-3.3,1.35-6.63,2.64-9.91,4.05-5.55,2.4-11.07,4.88-16.61,7.32-.09-7-.25-14-.26-20.95,0-23.3.18-46.59-.12-69.89-.09-6.29,2.89-10.55,7.6-13,14.64-7.62,29.63-14.55,44.46-21.8,11.25-5.5,22.45-11.11,33.71-16.6q23-11.2,46.08-22.3,17.87-8.59,35.8-17a9.73,9.73,0,0,1,12.6,3.39c-13.26,6.5-26.47,13.09-39.77,19.49-34.13,16.42-68.31,32.73-102.42,49.19C656.65,210,654.78,212,652.72,213.56Z"/><path class="cls-28" d="M405.81,201.83c3.71-.18,5,2,5.07,5.28.07,5.67-5.95,12.65-11.51,13.44-3.53.49-5.87-.82-6.32-4.56C392.3,209.83,399.57,201.8,405.81,201.83Z"/><path class="cls-28" d="M617.44,38.67c0,5.31-6,12.38-11.28,13.26-4.59.77-7.54-2.09-6.57-6.72A15,15,0,0,1,610,33.42C614.26,32,617.45,34.36,617.44,38.67Z"/><path class="cls-28" d="M337,263.09c.14,5.84-6.64,13.33-12.37,13.6-3.37.17-5.31-1.34-5.52-4.85-.37-6.08,5.74-13.38,11.76-14C334.74,257.42,336.89,259.27,337,263.09Z"/><path class="cls-4" d="M415.92,358.79c5.6-5.06,12.25-7.91,19.56-9.4Z"/><path class="cls-4" d="M442.81,346.43l-3.1,1.78-3.63.94c4.77-5,10.08-8.89,17.47-8.54Z"/><path class="cls-4" d="M397,368c.29-.57.46-1.46.91-1.65,5.52-2.34,11.09-4.57,16.65-6.83Z"/><path class="cls-4" d="M384.39,376.8l-1.28.14c-.17-1.08-.72-3-.46-3.12,4.25-1.89,8.6-3.56,12.93-5.27-3,1.62-6,3.1-8.84,4.93C385.69,374.17,385.16,375.67,384.39,376.8Z"/><path class="cls-4" d="M468.51,333.49,457,338.91C459.3,333.9,464,334,468.51,333.49Z"/><path class="cls-4" d="M472.13,332.58l-3,.64c.48-.66.95-1.32,1.42-2Z"/><path class="cls-9" d="M525.54,363.09l5.91-2.19Z"/><path class="cls-9" d="M494,353.12,492,352Z"/><path class="cls-9" d="M470,351c-1.75-.47-3.7-.62-5.17-1.54-.89-.55-1.24-2.27-1.44-3.53a8.36,8.36,0,0,1,.64-2.83,15.64,15.64,0,0,0-4.11-.65c-1.33.14-2.6,1-4,1.26,3.65-3.79,8.2-4.22,11.83-1.19a7.19,7.19,0,0,1,1.5,2.66c-3.93,2.5.52,3.95.69,5.88Z"/><path class="cls-9" d="M474,351l-2,.06,1.52-1.82C473.63,349.8,473.8,350.38,474,351Z"/><path class="cls-9" d="M472,351l-.06,1-2-1L470,351Z"/><path class="cls-12" d="M801,209.88l1.08,2.18c-.82,3.36-2.75,4.51-6,3l0-2.12a16.85,16.85,0,0,1,2.51-2.91C799.05,209.64,800.12,209.92,801,209.88Z"/><path class="cls-12" d="M800,197l1.08,3.18-5.06,2L796,201Z"/><path class="cls-12" d="M738,237l1-1.45,1.1,1.43Z"/><path class="cls-12" d="M747,262l1.1.48L747,263Z"/></svg>